<svg width="3975" height="379" viewBox="0 0 3975 379" fill="none" xmlns="http://www.w3.org/2000/svg">
<mask id="path-1-outside-1_2751_836" maskUnits="userSpaceOnUse" x="0" y="0.174805" width="1496" height="378" fill="black">
<rect fill="white" y="0.174805" width="1496" height="378"/>
<path fill-rule="evenodd" clip-rule="evenodd" d="M840.155 42.8243L840.155 76.0613C840.155 78.2705 841.946 80.0614 844.155 80.0614H922.753C924.962 80.0614 926.753 78.2705 926.753 76.0614V25.1748C926.753 22.9657 924.962 21.1748 922.753 21.1748H844.155C841.946 21.1748 840.155 22.9657 840.155 25.1748L840.155 42.8243ZM1320.3 355.443C1300.96 355.443 1284.22 350.536 1270.07 340.721C1256.22 330.618 1245.39 316.474 1237.6 298.288C1230.09 279.814 1226.34 258.164 1226.34 233.34C1226.34 208.515 1230.24 187.01 1238.03 168.824C1245.82 150.35 1256.79 136.206 1270.94 126.391C1285.08 116.288 1301.54 111.237 1320.3 111.237C1337.62 111.237 1352.05 114.701 1363.6 121.628C1370.21 125.594 1375.92 130.41 1380.73 136.078C1383.46 139.295 1390.01 137.482 1390.01 133.261V46.8243C1390.01 44.6151 1391.8 42.8243 1394.01 42.8243H1470.01C1472.22 42.8243 1474.01 44.6151 1474.01 46.8243V346.247C1474.01 348.456 1472.22 350.247 1470.01 350.247H1396.02C1393.87 350.247 1392.11 348.548 1392.03 346.401L1391.46 331.765C1391.31 327.649 1385.12 326.07 1382.49 329.237C1377.09 335.728 1370.51 341.144 1362.73 345.484C1350.61 352.123 1336.46 355.443 1320.3 355.443ZM943.397 42.8243C941.187 42.8243 939.397 44.6151 939.397 46.8243V346.247C939.397 348.456 941.187 350.247 943.397 350.247H1020.26C1022.47 350.247 1024.26 348.456 1024.26 346.247V199.683C1024.26 195.662 1029.53 194.155 1031.66 197.566L1125.71 348.364C1126.44 349.535 1127.72 350.247 1129.1 350.247H1208.61C1210.82 350.247 1212.61 348.456 1212.61 346.247V46.8243C1212.61 44.6151 1210.82 42.8243 1208.61 42.8243H1131.75C1129.54 42.8243 1127.75 44.6151 1127.75 46.8243V201.422C1127.75 205.491 1122.38 206.961 1120.31 203.461L1026.29 44.7853C1025.57 43.5697 1024.26 42.8243 1022.85 42.8243H943.397ZM845.454 337.257C843.245 337.257 841.454 335.466 841.454 333.257V107.443C841.454 105.234 843.245 103.443 845.454 103.443H921.454C923.663 103.443 925.454 105.234 925.454 107.443V333.257C925.454 335.466 923.663 337.257 921.454 337.257H845.454ZM635.13 350.247C633.444 350.247 631.939 349.19 631.367 347.604L523.407 48.181C522.467 45.5741 524.398 42.8243 527.17 42.8243H605.22C606.927 42.8243 608.446 43.9079 609.002 45.5222L677.033 243.137C678.272 246.734 683.359 246.734 684.598 243.137L752.629 45.5222C753.185 43.9079 754.704 42.8243 756.411 42.8243H840.155L729.401 347.613C728.827 349.194 727.324 350.247 725.642 350.247H635.13ZM262.919 311.08L262.971 311.079C263.019 311.079 263.071 311.079 263.125 311.079C263.05 311.079 262.981 311.079 262.919 311.08ZM262.919 311.08C262.833 311.08 262.762 311.081 262.715 311.081C262.732 311.079 262.75 311.076 262.768 311.074C262.805 311.07 262.843 311.068 262.88 311.066M262.688 311.086L262.919 311.08C262.811 311.079 262.73 311.086 262.688 311.086C262.693 311.085 262.709 311.082 262.715 311.081C262.642 311.082 262.616 311.085 262.688 311.086C262.684 311.086 262.691 311.085 262.688 311.086ZM262.919 311.08C262.919 311.072 262.912 311.066 262.904 311.066ZM1339.02 296.989C1352.01 296.989 1361.97 291.649 1368.9 280.969C1375.82 270.288 1379.29 254.989 1379.29 235.072C1379.29 215.443 1375.82 200.288 1368.9 189.608C1361.97 178.639 1352.01 173.154 1339.02 173.154C1326.03 173.154 1316.07 178.639 1309.14 189.608C1302.22 200.288 1298.75 215.443 1298.75 235.072C1298.75 254.989 1302.22 270.288 1309.14 280.969C1316.07 291.649 1326.03 296.989 1339.02 296.989Z"/>
<path d="M483.952 280.969C477.024 291.649 467.065 296.989 454.076 296.989C441.086 296.989 431.127 291.649 424.199 280.969C417.271 270.288 413.808 254.989 413.808 235.072C413.808 215.443 417.271 200.288 424.199 189.608C431.127 178.639 441.086 173.154 454.076 173.154C467.065 173.154 477.024 178.639 483.952 189.608C490.88 200.288 494.344 215.443 494.344 235.072C494.344 254.989 490.88 270.288 483.952 280.969Z"/>
<path d="M1339.02 296.989C1352.01 296.989 1361.97 291.649 1368.9 280.969C1375.82 270.288 1379.29 254.989 1379.29 235.072C1379.29 215.443 1375.82 200.288 1368.9 189.608C1361.97 178.639 1352.01 173.154 1339.02 173.154C1326.03 173.154 1316.07 178.639 1309.14 189.608C1302.22 200.288 1298.75 215.443 1298.75 235.072C1298.75 254.989 1302.22 270.288 1309.14 280.969C1316.07 291.649 1326.03 296.989 1339.02 296.989Z"/>
<path fill-rule="evenodd" clip-rule="evenodd" d="M262.904 311.066C262.912 311.066 262.919 311.072 262.919 311.08L265.381 346.524C265.526 348.621 267.269 350.247 269.371 350.247H311C313.209 350.247 315 348.456 315 346.247V191.443C315 189.234 313.209 187.443 311 187.443H176.546C174.337 187.443 172.546 189.234 172.546 191.443V239.731C172.546 241.941 174.337 243.731 176.546 243.731H225.482C227.93 243.731 229.814 245.915 229.286 248.305C227.605 255.916 224.712 262.618 220.608 268.412C215.99 275.051 209.783 280.247 201.99 283.999C194.484 287.463 185.392 289.195 174.711 289.195C159.412 289.195 146.856 285.443 137.041 277.938C127.227 270.144 119.866 259.319 114.959 245.463C110.34 231.608 108.031 215.443 108.031 196.969C108.031 178.206 110.485 161.896 115.392 148.041C120.588 134.185 127.948 123.36 137.474 115.567C147.289 107.773 159.124 103.876 172.979 103.876C189.144 103.876 201.412 108.061 209.783 116.432C217.512 123.895 222.781 134.433 225.588 148.048C225.994 150.017 227.741 151.445 229.75 151.366L309.416 148.227C311.886 148.129 313.68 145.836 313.124 143.428C308.114 121.735 300.079 103.066 289.021 87.4222C277.474 70.6799 262.031 57.9789 242.691 49.3191C223.639 40.3707 200.113 35.8964 172.113 35.8964C140.361 35.8964 113.227 42.9686 90.7113 57.1129C68.1959 70.9686 50.8763 90.0201 38.7526 114.268C26.9175 138.515 21 166.082 21 196.969C21 229.01 26.7732 257.01 38.3196 280.969C50.1546 304.927 66.8969 323.69 88.5464 337.257C110.196 350.536 136.031 357.175 166.052 357.175C184.237 357.175 200.691 354.432 215.412 348.948C230.423 343.175 242.691 335.237 252.216 325.133C254.041 323.255 255.742 320.387 257.317 317.73C259.306 314.375 261.096 311.356 262.688 311.086L261.309 311.087L262.88 311.066C262.888 311.066 262.896 311.066 262.904 311.066ZM387.395 342.02C406.447 352.123 428.674 357.175 454.076 357.175C479.478 357.175 501.56 352.123 520.323 342.02C539.375 331.917 554.096 317.773 564.488 299.587C575.168 281.113 580.509 259.608 580.509 235.072C580.509 210.536 575.168 189.175 564.488 170.989C554.096 152.804 539.375 138.659 520.323 128.556C501.56 118.165 479.478 112.969 454.076 112.969C428.674 112.969 406.447 118.165 387.395 128.556C368.632 138.659 353.911 152.804 343.23 170.989C332.838 189.175 327.643 210.536 327.643 235.072C327.643 259.608 332.838 281.113 343.23 299.587C353.911 317.773 368.632 331.917 387.395 342.02ZM454.076 296.989C467.065 296.989 477.024 291.649 483.952 280.969C490.88 270.288 494.344 254.989 494.344 235.072C494.344 215.443 490.88 200.288 483.952 189.608C477.024 178.639 467.065 173.154 454.076 173.154C441.086 173.154 431.127 178.639 424.199 189.608C417.271 200.288 413.808 215.443 413.808 235.072C413.808 254.989 417.271 270.288 424.199 280.969C431.127 291.649 441.086 296.989 454.076 296.989Z"/>
</mask>
<path fill-rule="evenodd" clip-rule="evenodd" d="M840.155 42.8243L840.155 76.0613C840.155 78.2705 841.946 80.0614 844.155 80.0614H922.753C924.962 80.0614 926.753 78.2705 926.753 76.0614V25.1748C926.753 22.9657 924.962 21.1748 922.753 21.1748H844.155C841.946 21.1748 840.155 22.9657 840.155 25.1748L840.155 42.8243ZM1320.3 355.443C1300.96 355.443 1284.22 350.536 1270.07 340.721C1256.22 330.618 1245.39 316.474 1237.6 298.288C1230.09 279.814 1226.34 258.164 1226.34 233.34C1226.34 208.515 1230.24 187.01 1238.03 168.824C1245.82 150.35 1256.79 136.206 1270.94 126.391C1285.08 116.288 1301.54 111.237 1320.3 111.237C1337.62 111.237 1352.05 114.701 1363.6 121.628C1370.21 125.594 1375.92 130.41 1380.73 136.078C1383.46 139.295 1390.01 137.482 1390.01 133.261V46.8243C1390.01 44.6151 1391.8 42.8243 1394.01 42.8243H1470.01C1472.22 42.8243 1474.01 44.6151 1474.01 46.8243V346.247C1474.01 348.456 1472.22 350.247 1470.01 350.247H1396.02C1393.87 350.247 1392.11 348.548 1392.03 346.401L1391.46 331.765C1391.31 327.649 1385.12 326.07 1382.49 329.237C1377.09 335.728 1370.51 341.144 1362.73 345.484C1350.61 352.123 1336.46 355.443 1320.3 355.443ZM943.397 42.8243C941.187 42.8243 939.397 44.6151 939.397 46.8243V346.247C939.397 348.456 941.187 350.247 943.397 350.247H1020.26C1022.47 350.247 1024.26 348.456 1024.26 346.247V199.683C1024.26 195.662 1029.53 194.155 1031.66 197.566L1125.71 348.364C1126.44 349.535 1127.72 350.247 1129.1 350.247H1208.61C1210.82 350.247 1212.61 348.456 1212.61 346.247V46.8243C1212.61 44.6151 1210.82 42.8243 1208.61 42.8243H1131.75C1129.54 42.8243 1127.75 44.6151 1127.75 46.8243V201.422C1127.75 205.491 1122.38 206.961 1120.31 203.461L1026.29 44.7853C1025.57 43.5697 1024.26 42.8243 1022.85 42.8243H943.397ZM845.454 337.257C843.245 337.257 841.454 335.466 841.454 333.257V107.443C841.454 105.234 843.245 103.443 845.454 103.443H921.454C923.663 103.443 925.454 105.234 925.454 107.443V333.257C925.454 335.466 923.663 337.257 921.454 337.257H845.454ZM635.13 350.247C633.444 350.247 631.939 349.19 631.367 347.604L523.407 48.181C522.467 45.5741 524.398 42.8243 527.17 42.8243H605.22C606.927 42.8243 608.446 43.9079 609.002 45.5222L677.033 243.137C678.272 246.734 683.359 246.734 684.598 243.137L752.629 45.5222C753.185 43.9079 754.704 42.8243 756.411 42.8243H840.155L729.401 347.613C728.827 349.194 727.324 350.247 725.642 350.247H635.13ZM262.919 311.08L262.971 311.079C263.019 311.079 263.071 311.079 263.125 311.079C263.05 311.079 262.981 311.079 262.919 311.08ZM262.919 311.08C262.833 311.08 262.762 311.081 262.715 311.081C262.732 311.079 262.75 311.076 262.768 311.074C262.805 311.07 262.843 311.068 262.88 311.066M262.688 311.086L262.919 311.08C262.811 311.079 262.73 311.086 262.688 311.086C262.693 311.085 262.709 311.082 262.715 311.081C262.642 311.082 262.616 311.085 262.688 311.086C262.684 311.086 262.691 311.085 262.688 311.086ZM262.919 311.08C262.919 311.072 262.912 311.066 262.904 311.066ZM1339.02 296.989C1352.01 296.989 1361.97 291.649 1368.9 280.969C1375.82 270.288 1379.29 254.989 1379.29 235.072C1379.29 215.443 1375.82 200.288 1368.9 189.608C1361.97 178.639 1352.01 173.154 1339.02 173.154C1326.03 173.154 1316.07 178.639 1309.14 189.608C1302.22 200.288 1298.75 215.443 1298.75 235.072C1298.75 254.989 1302.22 270.288 1309.14 280.969C1316.07 291.649 1326.03 296.989 1339.02 296.989Z" fill="black" fill-opacity="0.01"/>
<path d="M483.952 280.969C477.024 291.649 467.065 296.989 454.076 296.989C441.086 296.989 431.127 291.649 424.199 280.969C417.271 270.288 413.808 254.989 413.808 235.072C413.808 215.443 417.271 200.288 424.199 189.608C431.127 178.639 441.086 173.154 454.076 173.154C467.065 173.154 477.024 178.639 483.952 189.608C490.88 200.288 494.344 215.443 494.344 235.072C494.344 254.989 490.88 270.288 483.952 280.969Z" fill="black" fill-opacity="0.01"/>
<path d="M1339.02 296.989C1352.01 296.989 1361.97 291.649 1368.9 280.969C1375.82 270.288 1379.29 254.989 1379.29 235.072C1379.29 215.443 1375.82 200.288 1368.9 189.608C1361.97 178.639 1352.01 173.154 1339.02 173.154C1326.03 173.154 1316.07 178.639 1309.14 189.608C1302.22 200.288 1298.75 215.443 1298.75 235.072C1298.75 254.989 1302.22 270.288 1309.14 280.969C1316.07 291.649 1326.03 296.989 1339.02 296.989Z" fill="black" fill-opacity="0.01"/>
<path fill-rule="evenodd" clip-rule="evenodd" d="M262.904 311.066C262.912 311.066 262.919 311.072 262.919 311.08L265.381 346.524C265.526 348.621 267.269 350.247 269.371 350.247H311C313.209 350.247 315 348.456 315 346.247V191.443C315 189.234 313.209 187.443 311 187.443H176.546C174.337 187.443 172.546 189.234 172.546 191.443V239.731C172.546 241.941 174.337 243.731 176.546 243.731H225.482C227.93 243.731 229.814 245.915 229.286 248.305C227.605 255.916 224.712 262.618 220.608 268.412C215.99 275.051 209.783 280.247 201.99 283.999C194.484 287.463 185.392 289.195 174.711 289.195C159.412 289.195 146.856 285.443 137.041 277.938C127.227 270.144 119.866 259.319 114.959 245.463C110.34 231.608 108.031 215.443 108.031 196.969C108.031 178.206 110.485 161.896 115.392 148.041C120.588 134.185 127.948 123.36 137.474 115.567C147.289 107.773 159.124 103.876 172.979 103.876C189.144 103.876 201.412 108.061 209.783 116.432C217.512 123.895 222.781 134.433 225.588 148.048C225.994 150.017 227.741 151.445 229.75 151.366L309.416 148.227C311.886 148.129 313.68 145.836 313.124 143.428C308.114 121.735 300.079 103.066 289.021 87.4222C277.474 70.6799 262.031 57.9789 242.691 49.3191C223.639 40.3707 200.113 35.8964 172.113 35.8964C140.361 35.8964 113.227 42.9686 90.7113 57.1129C68.1959 70.9686 50.8763 90.0201 38.7526 114.268C26.9175 138.515 21 166.082 21 196.969C21 229.01 26.7732 257.01 38.3196 280.969C50.1546 304.927 66.8969 323.69 88.5464 337.257C110.196 350.536 136.031 357.175 166.052 357.175C184.237 357.175 200.691 354.432 215.412 348.948C230.423 343.175 242.691 335.237 252.216 325.133C254.041 323.255 255.742 320.387 257.317 317.73C259.306 314.375 261.096 311.356 262.688 311.086L261.309 311.087L262.88 311.066C262.888 311.066 262.896 311.066 262.904 311.066ZM387.395 342.02C406.447 352.123 428.674 357.175 454.076 357.175C479.478 357.175 501.56 352.123 520.323 342.02C539.375 331.917 554.096 317.773 564.488 299.587C575.168 281.113 580.509 259.608 580.509 235.072C580.509 210.536 575.168 189.175 564.488 170.989C554.096 152.804 539.375 138.659 520.323 128.556C501.56 118.165 479.478 112.969 454.076 112.969C428.674 112.969 406.447 118.165 387.395 128.556C368.632 138.659 353.911 152.804 343.23 170.989C332.838 189.175 327.643 210.536 327.643 235.072C327.643 259.608 332.838 281.113 343.23 299.587C353.911 317.773 368.632 331.917 387.395 342.02ZM454.076 296.989C467.065 296.989 477.024 291.649 483.952 280.969C490.88 270.288 494.344 254.989 494.344 235.072C494.344 215.443 490.88 200.288 483.952 189.608C477.024 178.639 467.065 173.154 454.076 173.154C441.086 173.154 431.127 178.639 424.199 189.608C417.271 200.288 413.808 215.443 413.808 235.072C413.808 254.989 417.271 270.288 424.199 280.969C431.127 291.649 441.086 296.989 454.076 296.989Z" fill="black" fill-opacity="0.01"/>
<path d="M1368.9 189.608L1360.02 195.215L1360.05 195.269L1360.09 195.322L1368.9 189.608ZM1309.14 189.608L1317.95 195.322L1317.99 195.269L1318.02 195.215L1309.14 189.608ZM424.199 189.608L433.008 195.322L433.043 195.268L433.077 195.215L424.199 189.608ZM483.952 189.608L475.074 195.215L475.108 195.268L475.143 195.322L483.952 189.608ZM1339.02 296.989V307.489C1355.48 307.489 1368.79 300.42 1377.7 286.683L1368.9 280.969L1360.09 275.255C1355.14 282.878 1348.54 286.489 1339.02 286.489V296.989ZM1368.9 280.969L1377.7 286.683C1386.2 273.592 1389.79 255.964 1389.79 235.072H1379.29H1368.79C1368.79 254.015 1365.45 266.984 1360.09 275.255L1368.9 280.969ZM1379.29 235.072H1389.79C1389.79 214.432 1386.18 196.965 1377.7 183.894L1368.9 189.608L1360.09 195.322C1365.46 203.612 1368.79 216.454 1368.79 235.072H1379.29ZM1368.9 189.608L1377.77 184.001C1368.92 169.981 1355.61 162.654 1339.02 162.654V173.154V183.654C1348.41 183.654 1355.02 187.296 1360.02 195.215L1368.9 189.608ZM1339.02 173.154V162.654C1322.43 162.654 1309.12 169.981 1300.27 184.001L1309.14 189.608L1318.02 195.215C1323.02 187.296 1329.63 183.654 1339.02 183.654V173.154ZM1309.14 189.608L1300.33 183.894C1291.86 196.965 1288.25 214.432 1288.25 235.072H1298.75H1309.25C1309.25 216.454 1312.57 203.612 1317.95 195.322L1309.14 189.608ZM1298.75 235.072H1288.25C1288.25 255.964 1291.84 273.592 1300.33 286.683L1309.14 280.969L1317.95 275.255C1312.59 266.984 1309.25 254.015 1309.25 235.072H1298.75ZM1309.14 280.969L1300.33 286.683C1309.25 300.42 1322.56 307.489 1339.02 307.489V296.989V286.489C1329.5 286.489 1322.9 282.878 1317.95 275.255L1309.14 280.969ZM483.952 280.969L475.143 275.255C470.198 282.878 463.595 286.489 454.076 286.489V296.989V307.489C470.535 307.489 483.85 300.421 492.761 286.683L483.952 280.969ZM454.076 296.989V286.489C444.556 286.489 437.953 282.878 433.008 275.255L424.199 280.969L415.39 286.683C424.301 300.421 437.616 307.489 454.076 307.489V296.989ZM424.199 280.969L433.008 275.255C427.644 266.984 424.308 254.015 424.308 235.072H413.808H403.308C403.308 255.964 406.899 273.592 415.39 286.683L424.199 280.969ZM413.808 235.072H424.308C424.308 216.454 427.631 203.612 433.008 195.322L424.199 189.608L415.39 183.894C406.912 196.965 403.308 214.432 403.308 235.072H413.808ZM424.199 189.608L433.077 195.215C438.078 187.296 444.683 183.654 454.076 183.654V173.154V162.654C437.489 162.654 424.176 169.981 415.322 184.001L424.199 189.608ZM454.076 173.154V183.654C463.468 183.654 470.073 187.296 475.074 195.215L483.952 189.608L492.829 184.001C483.975 169.981 470.663 162.654 454.076 162.654V173.154ZM483.952 189.608L475.143 195.322C480.52 203.612 483.844 216.454 483.844 235.072H494.344H504.844C504.844 214.432 501.239 196.965 492.761 183.894L483.952 189.608ZM494.344 235.072H483.844C483.844 254.015 480.507 266.984 475.143 275.255L483.952 280.969L492.761 286.683C501.252 273.592 504.844 255.964 504.844 235.072H494.344ZM262.919 311.08L273.394 310.348C273.01 304.863 268.431 300.518 262.815 300.566L262.904 311.066L262.994 321.566C257.393 321.614 252.827 317.281 252.445 311.812L262.919 311.08ZM840.156 42.8243L861.156 42.8244V42.8241L840.156 42.8243ZM1270.07 340.721L1257.7 357.689L1257.9 357.834L1258.1 357.974L1270.07 340.721ZM1237.6 298.288L1218.14 306.192L1218.22 306.377L1218.29 306.56L1237.6 298.288ZM1238.03 168.824L1257.33 177.097L1257.36 177.042L1257.38 176.987L1238.03 168.824ZM1270.94 126.391L1282.91 143.645L1283.03 143.563L1283.14 143.48L1270.94 126.391ZM1363.6 121.628L1352.79 139.636V139.636L1363.6 121.628ZM1362.73 345.484L1372.82 363.903L1372.89 363.862L1372.97 363.821L1362.73 345.484ZM262.971 311.079L263.091 332.079L263.102 332.079L262.971 311.079ZM263.125 311.078L263.24 332.078L263.012 290.079L263.125 311.078ZM262.768 311.074L260.435 290.204L260.418 290.206L260.402 290.208L262.768 311.074ZM262.88 311.066L263.456 332.059L263.469 332.058L263.482 332.058L262.88 311.066ZM220.608 268.412L203.472 256.273L203.42 256.346L203.369 256.419L220.608 268.412ZM201.99 283.999L210.79 303.067L210.945 302.995L211.1 302.92L201.99 283.999ZM137.041 277.938L123.982 294.383L124.132 294.502L124.285 294.619L137.041 277.938ZM114.959 245.463L95.0364 252.104L95.0983 252.29L95.1636 252.474L114.959 245.463ZM115.392 148.041L95.7288 140.667L95.661 140.848L95.5966 141.03L115.392 148.041ZM137.474 115.567L124.415 99.1212L124.295 99.2164L124.176 99.3134L137.474 115.567ZM209.783 116.432L194.934 131.282L195.064 131.412L195.197 131.54L209.783 116.432ZM289.021 87.4222L271.733 99.3446L271.802 99.4448L271.872 99.5441L289.021 87.4222ZM242.691 49.3191L233.763 68.3268L233.935 68.4077L234.109 68.4855L242.691 49.3191ZM90.7113 57.1129L101.717 74.9977L101.8 74.9469L101.882 74.8952L90.7113 57.1129ZM38.7526 114.268L19.9696 104.876L19.9247 104.966L19.8806 105.056L38.7526 114.268ZM38.3196 280.969L19.4018 290.086L19.4462 290.178L19.4915 290.269L38.3196 280.969ZM88.5464 337.257L77.3951 355.052L77.4808 355.105L77.567 355.158L88.5464 337.257ZM215.412 348.948L222.744 368.627L222.847 368.588L222.951 368.548L215.412 348.948ZM252.216 325.133L237.154 310.501L237.044 310.613L236.937 310.727L252.216 325.133ZM257.317 317.73L275.381 328.44V328.44L257.317 317.73ZM261.309 311.087L261.035 290.089L261.33 332.087L261.309 311.087ZM387.395 342.02L377.439 360.51L377.498 360.542L377.557 360.573L387.395 342.02ZM520.323 342.02L510.484 323.467L510.426 323.499L510.367 323.53L520.323 342.02ZM564.488 299.587L546.307 289.077L546.281 289.122L546.255 289.168L564.488 299.587ZM564.488 170.989L546.255 181.408L546.317 181.517L546.38 181.624L564.488 170.989ZM520.323 128.556L510.148 146.927L510.316 147.02L510.484 147.109L520.323 128.556ZM387.395 128.556L397.351 147.046L397.401 147.019L397.451 146.992L387.395 128.556ZM343.23 170.989L325.122 160.354L325.059 160.462L324.997 160.57L343.23 170.989ZM343.23 299.587L324.927 309.883L325.023 310.053L325.122 310.222L343.23 299.587ZM729.401 347.613L749.139 354.785L729.401 347.613ZM752.629 45.5222L732.773 38.6865L752.629 45.5222ZM677.033 243.137L696.89 236.301L677.033 243.137ZM684.598 243.137L704.454 249.973L684.598 243.137ZM609.002 45.5222L628.858 38.6865L609.002 45.5222ZM523.407 48.181L543.162 41.0581L523.407 48.181ZM309.416 148.227L310.243 169.21L309.416 148.227ZM313.124 143.428L333.585 138.703L313.124 143.428ZM631.367 347.604L651.123 340.481L631.367 347.604ZM225.588 148.048L205.021 152.289L225.588 148.048ZM229.75 151.366L228.923 130.383L229.75 151.366ZM1026.29 44.7853L1044.36 34.0807V34.0807L1026.29 44.7853ZM1120.31 203.461L1102.24 214.166L1120.31 203.461ZM1031.66 197.566L1049.47 186.453L1031.66 197.566ZM229.286 248.305L249.792 252.835L229.286 248.305ZM1391.46 331.765L1412.45 330.958L1391.46 331.765ZM1382.49 329.237L1366.34 315.812L1382.49 329.237ZM265.381 346.524L286.33 345.069L265.381 346.524ZM1392.03 346.401L1413.01 345.594L1392.03 346.401ZM840.155 25.1748L819.155 25.175L840.155 25.1748ZM1380.73 136.078L1396.74 122.486L1380.73 136.078ZM1125.71 348.364L1107.89 359.477L1125.71 348.364ZM840.155 76.0613L861.155 76.0615L840.155 76.0613ZM840.156 42.8243L819.156 42.8242L819.155 76.0612L840.155 76.0613L861.155 76.0615L861.156 42.8244L840.156 42.8243ZM844.155 80.0614V101.061H922.753V80.0614V59.0614H844.155V80.0614ZM926.753 76.0614H947.753V25.1748H926.753H905.753V76.0614H926.753ZM922.753 21.1748V0.174805H844.155V21.1748V42.1748H922.753V21.1748ZM840.155 25.1748L819.155 25.175L819.156 42.8245L840.156 42.8243L861.156 42.8241L861.155 25.1746L840.155 25.1748ZM1320.3 355.443V334.443C1304.69 334.443 1292.25 330.547 1282.04 323.468L1270.07 340.721L1258.1 357.974C1276.19 370.524 1297.23 376.443 1320.3 376.443V355.443ZM1270.07 340.721L1282.44 323.753C1272.08 316.197 1263.44 305.275 1256.9 290.016L1237.6 298.288L1218.29 306.56C1227.34 327.673 1240.35 345.039 1257.7 357.689L1270.07 340.721ZM1237.6 298.288L1257.05 290.384C1250.78 274.953 1247.34 256.096 1247.34 233.34H1226.34H1205.34C1205.34 260.233 1209.4 284.675 1218.14 306.192L1237.6 298.288ZM1226.34 233.34H1247.34C1247.34 210.659 1250.9 192.093 1257.33 177.097L1238.03 168.824L1218.73 160.552C1209.57 181.926 1205.34 206.371 1205.34 233.34H1226.34ZM1238.03 168.824L1257.38 176.987C1263.88 161.565 1272.54 150.836 1282.91 143.645L1270.94 126.391L1258.97 109.138C1241.04 121.575 1227.76 139.135 1218.68 160.662L1238.03 168.824ZM1270.94 126.391L1283.14 143.48C1293.44 136.126 1305.55 132.237 1320.3 132.237V111.237V90.2366C1297.53 90.2366 1276.72 96.4506 1258.73 109.303L1270.94 126.391ZM1320.3 111.237V132.237C1334.88 132.237 1345.32 135.152 1352.79 139.636L1363.6 121.628L1374.4 103.621C1358.78 94.2493 1340.35 90.2366 1320.3 90.2366V111.237ZM1363.6 121.628L1352.79 139.636C1357.51 142.466 1361.44 145.811 1364.72 149.67L1380.73 136.078L1396.74 122.486C1390.39 115.009 1382.9 108.721 1374.4 103.621L1363.6 121.628ZM1390.01 133.261H1411.01V46.8243H1390.01H1369.01V133.261H1390.01ZM1394.01 42.8243V63.8243H1470.01V42.8243V21.8243H1394.01V42.8243ZM1474.01 46.8243H1453.01V346.247H1474.01H1495.01V46.8243H1474.01ZM1470.01 350.247V329.247H1396.02V350.247V371.247H1470.01V350.247ZM1392.03 346.401L1413.01 345.594L1412.45 330.958L1391.46 331.765L1370.48 332.572L1371.04 347.208L1392.03 346.401ZM1382.49 329.237L1366.34 315.812C1362.69 320.209 1358.14 323.997 1352.5 327.147L1362.73 345.484L1372.97 363.821C1382.87 358.292 1391.5 351.248 1398.64 342.661L1382.49 329.237ZM1362.73 345.484L1352.64 327.065C1344.1 331.744 1333.54 334.443 1320.3 334.443V355.443V376.443C1339.39 376.443 1357.11 372.502 1372.82 363.903L1362.73 345.484ZM939.397 46.8243H918.397V346.247H939.397H960.397V46.8243H939.397ZM943.397 350.247V371.247H1020.26V350.247V329.247H943.397V350.247ZM1024.26 346.247H1045.26V199.683H1024.26H1003.26V346.247H1024.26ZM1031.66 197.566L1013.84 208.679L1107.89 359.477L1125.71 348.364L1143.53 337.251L1049.47 186.453L1031.66 197.566ZM1129.1 350.247V371.247H1208.61V350.247V329.247H1129.1V350.247ZM1212.61 346.247H1233.61V46.8243H1212.61H1191.61V346.247H1212.61ZM1208.61 42.8243V21.8243H1131.75V42.8243V63.8243H1208.61V42.8243ZM1127.75 46.8243H1106.75V201.422H1127.75H1148.75V46.8243H1127.75ZM1120.31 203.461L1138.37 192.756L1044.36 34.0807L1026.29 44.7853L1008.22 55.4899L1102.24 214.166L1120.31 203.461ZM1022.85 42.8243V21.8243H943.397V42.8243V63.8243H1022.85V42.8243ZM841.454 333.257H862.454V107.443H841.454H820.454V333.257H841.454ZM845.454 103.443V124.443H921.454V103.443V82.4428H845.454V103.443ZM925.454 107.443H904.454V333.257H925.454H946.454V107.443H925.454ZM921.454 337.257V316.257H845.454V337.257V358.257H921.454V337.257ZM631.367 347.604L651.123 340.481L543.162 41.0581L523.407 48.181L503.652 55.304L611.612 354.727L631.367 347.604ZM527.17 42.8243V63.8243H605.22V42.8243V21.8243H527.17V42.8243ZM609.002 45.5222L589.146 52.358L657.177 249.973L677.033 243.137L696.89 236.301L628.858 38.6865L609.002 45.5222ZM684.598 243.137L704.454 249.973L772.485 52.358L752.629 45.5222L732.773 38.6865L664.741 236.301L684.598 243.137ZM756.411 42.8243V63.8243H840.156V42.8243V21.8243H756.411V42.8243ZM840.156 42.8243L820.418 35.6521L709.664 340.441L729.401 347.613L749.139 354.785L859.893 49.9964L840.156 42.8243ZM725.642 350.247V329.247H635.13V350.247V371.247H725.642V350.247ZM262.919 311.08L263.039 332.079L263.091 332.079L262.971 311.079L262.852 290.08L262.8 290.08L262.919 311.08ZM262.971 311.079L263.102 332.079C263.144 332.079 263.19 332.078 263.24 332.078L263.125 311.078L263.009 290.079C262.951 290.079 262.895 290.079 262.841 290.08L262.971 311.079ZM263.125 311.078L263.012 290.079C262.934 290.079 262.856 290.08 262.784 290.08L262.919 311.08L263.054 332.079C263.105 332.079 263.166 332.079 263.237 332.078L263.125 311.078ZM262.919 311.08L262.783 290.08C262.704 290.081 262.577 290.081 262.464 290.083L262.715 311.081L262.965 332.08C262.954 332.08 262.949 332.08 262.951 332.08C262.953 332.08 262.958 332.08 262.968 332.08C262.988 332.08 263.017 332.079 263.056 332.079L262.919 311.08ZM262.715 311.081L265.835 331.848C265.604 331.883 265.37 331.914 265.134 331.941L262.768 311.074L260.402 290.208C260.13 290.239 259.861 290.274 259.594 290.315L262.715 311.081ZM262.768 311.074L265.101 331.944C264.562 332.005 264.013 332.043 263.456 332.059L262.88 311.066L262.304 290.074C261.673 290.092 261.049 290.136 260.435 290.204L262.768 311.074ZM262.688 311.086L263.227 332.079L263.458 332.073L262.919 311.08L262.38 290.087L262.148 290.093L262.688 311.086ZM262.919 311.08L263.016 290.08C262.751 290.079 262.52 290.082 262.331 290.087C262.145 290.091 261.995 290.097 261.916 290.1C261.896 290.101 261.88 290.102 261.87 290.102C261.864 290.103 261.86 290.103 261.857 290.103C261.856 290.103 261.855 290.103 261.854 290.103C261.854 290.103 261.854 290.103 261.854 290.103C261.854 290.103 261.854 290.103 261.855 290.103C261.856 290.103 261.857 290.103 261.859 290.103C261.862 290.103 261.867 290.102 261.874 290.102C261.886 290.102 261.909 290.101 261.938 290.1C261.967 290.099 262.007 290.097 262.057 290.096C262.106 290.094 262.17 290.092 262.246 290.091C262.321 290.089 262.417 290.087 262.528 290.086C262.638 290.085 262.776 290.085 262.936 290.087L262.688 311.086L262.439 332.084C262.604 332.086 262.748 332.086 262.864 332.085C262.981 332.084 263.083 332.082 263.165 332.08C263.322 332.077 263.449 332.073 263.515 332.07C263.582 332.068 263.638 332.065 263.648 332.065C263.674 332.064 263.655 332.064 263.642 332.065C263.556 332.068 263.238 332.081 262.823 332.079L262.919 311.08ZM262.688 311.086L266.079 331.81C266.063 331.813 266.052 331.814 266.048 331.815C266.042 331.816 266.036 331.817 266.029 331.818C266.023 331.819 266.01 331.821 265.992 331.824C265.984 331.825 265.97 331.828 265.952 331.83C265.937 331.833 265.904 331.838 265.86 331.844L262.715 311.081L259.569 290.318C259.494 290.33 259.434 290.339 259.425 290.341C259.403 290.344 259.385 290.347 259.373 290.349C259.354 290.352 259.326 290.356 259.296 290.361L262.688 311.086ZM262.715 311.081L262.465 290.083C262.353 290.084 262.185 290.087 261.985 290.093C261.89 290.097 261.721 290.103 261.51 290.114C261.476 290.116 260.794 290.148 259.951 290.257C259.702 290.289 259.209 290.357 258.593 290.478C258.319 290.532 256.579 290.855 254.519 291.72C253.766 292.036 250.719 293.309 247.789 296.242C246.174 297.858 243.803 300.766 242.515 305.105C241.1 309.865 241.461 314.799 243.232 319.091C246.151 326.168 251.82 329.106 252.686 329.572C254.471 330.534 255.993 331.013 256.619 331.201C257.992 331.612 259.102 331.785 259.422 331.835C259.902 331.91 260.288 331.953 260.506 331.975C260.944 332.02 261.289 332.041 261.439 332.05C261.971 332.08 262.406 332.084 262.436 332.084L262.688 311.086L262.939 290.087C262.994 290.088 263.087 290.089 263.205 290.092C263.29 290.094 263.541 290.101 263.863 290.12C264.01 290.128 264.353 290.149 264.79 290.194C265.006 290.216 265.392 290.259 265.871 290.333C266.191 290.383 267.299 290.556 268.673 290.968C269.298 291.155 270.82 291.635 272.605 292.596C273.471 293.063 279.14 296 282.059 303.077C283.829 307.369 284.19 312.303 282.776 317.063C281.487 321.402 279.117 324.309 277.502 325.926C274.572 328.859 271.525 330.132 270.772 330.448C268.712 331.312 266.973 331.635 266.699 331.689C266.083 331.81 265.591 331.878 265.343 331.91C264.504 332.018 263.827 332.05 263.8 332.052C263.598 332.063 263.438 332.068 263.355 332.071C263.178 332.077 263.04 332.079 262.964 332.08L262.715 311.081ZM262.688 311.086L266.203 331.789C266.211 331.788 266.223 331.786 266.237 331.784C266.248 331.782 266.278 331.776 266.316 331.77C266.334 331.767 266.373 331.76 266.421 331.751C266.446 331.747 266.486 331.739 266.535 331.73C266.56 331.726 266.594 331.719 266.633 331.712C266.671 331.704 266.727 331.694 266.795 331.68C266.83 331.673 266.873 331.664 266.923 331.654C266.972 331.644 267.037 331.63 267.113 331.614C267.186 331.598 267.293 331.575 267.422 331.545C267.478 331.532 267.599 331.503 267.664 331.488C267.743 331.468 267.92 331.423 268.017 331.398C268.14 331.366 268.422 331.288 268.58 331.242C268.796 331.178 269.315 331.013 269.618 330.909C270.085 330.74 271.339 330.221 272.115 329.851C273.709 328.962 279.026 324.28 281.8 319.789C283.48 308.13 274.415 293.664 269.371 291.177C267.532 290.652 264.77 290.189 263.883 290.119C263.374 290.097 262.537 290.086 262.21 290.091C261.982 290.097 261.586 290.114 261.419 290.124C261.29 290.132 261.06 290.149 260.959 290.157C260.877 290.164 260.727 290.177 260.659 290.184C260.602 290.189 260.497 290.2 260.448 290.205C260.406 290.21 260.328 290.219 260.292 290.223C260.204 290.233 260.13 290.242 260.075 290.249C260.019 290.256 259.971 290.262 259.932 290.267C259.857 290.277 259.796 290.286 259.755 290.291C259.713 290.297 259.677 290.303 259.65 290.306C259.598 290.314 259.556 290.32 259.531 290.324C259.503 290.328 259.48 290.332 259.464 290.335C259.432 290.34 259.406 290.344 259.391 290.346C259.362 290.351 259.338 290.355 259.326 290.356C259.301 290.36 259.281 290.364 259.267 290.366C259.253 290.368 259.233 290.372 259.208 290.376C259.196 290.378 259.173 290.382 259.143 290.387C259.128 290.389 259.103 290.394 259.071 290.399C259.055 290.402 259.032 290.406 259.005 290.411C258.98 290.415 258.939 290.423 258.887 290.432C258.861 290.437 258.826 290.444 258.784 290.452C258.745 290.459 258.685 290.471 258.612 290.485C258.575 290.492 258.528 290.502 258.474 290.513C258.422 290.523 258.351 290.538 258.267 290.556C258.187 290.573 258.066 290.6 257.92 290.634C257.856 290.649 257.717 290.682 257.641 290.701C257.548 290.724 257.337 290.779 257.22 290.81C257.07 290.851 256.718 290.952 256.516 291.013C256.234 291.102 255.527 291.344 255.105 291.502C254.403 291.789 252.352 292.805 251.048 293.606C247.855 296.219 241.712 310.06 244.178 321.006C248.598 326.659 256.858 331.261 259.124 331.781C260.134 331.93 261.715 332.063 262.28 332.082C262.636 332.086 263.237 332.079 263.482 332.071C263.66 332.063 263.973 332.046 264.109 332.038C264.215 332.03 264.407 332.015 264.493 332.008C264.563 332.002 264.693 331.99 264.752 331.984C264.889 331.97 265.003 331.958 265.079 331.949C265.159 331.94 265.226 331.932 265.277 331.925C265.329 331.919 265.374 331.913 265.41 331.908C265.48 331.899 265.538 331.891 265.577 331.886C265.618 331.88 265.652 331.875 265.678 331.872C265.728 331.864 265.769 331.858 265.793 331.855C265.842 331.847 265.881 331.841 265.899 331.839C265.938 331.833 265.968 331.828 265.979 331.826C265.994 331.824 266.006 331.822 266.013 331.821L262.688 311.086L259.362 290.351C259.369 290.35 259.381 290.348 259.395 290.345C259.406 290.344 259.436 290.339 259.474 290.333C259.492 290.33 259.531 290.324 259.58 290.317C259.605 290.313 259.646 290.307 259.696 290.3C259.722 290.296 259.756 290.291 259.796 290.286C259.835 290.28 259.893 290.272 259.963 290.263C259.999 290.258 260.044 290.253 260.096 290.246C260.147 290.24 260.215 290.232 260.294 290.223C260.371 290.214 260.484 290.201 260.622 290.188C260.681 290.182 260.81 290.17 260.881 290.164C260.966 290.156 261.158 290.141 261.265 290.134C261.4 290.125 261.714 290.108 261.891 290.101C262.137 290.093 262.737 290.086 263.093 290.09C263.659 290.108 265.24 290.242 266.25 290.39C268.515 290.911 276.775 295.513 281.196 301.165C283.662 312.112 277.519 325.952 274.325 328.566C273.021 329.367 270.971 330.383 270.268 330.669C269.846 330.828 269.139 331.07 268.857 331.159C268.656 331.22 268.303 331.321 268.153 331.362C268.036 331.393 267.826 331.447 267.733 331.471C267.656 331.489 267.517 331.523 267.454 331.538C267.307 331.572 267.186 331.598 267.107 331.615C267.023 331.633 266.952 331.648 266.899 331.659C266.845 331.67 266.798 331.679 266.761 331.687C266.689 331.701 266.629 331.712 266.589 331.72C266.548 331.728 266.512 331.734 266.486 331.739C266.435 331.749 266.393 331.756 266.368 331.761C266.341 331.765 266.319 331.769 266.303 331.772C266.271 331.778 266.246 331.782 266.231 331.785C266.201 331.79 266.178 331.794 266.166 331.796C266.142 331.8 266.122 331.803 266.108 331.805C266.095 331.807 266.075 331.811 266.05 331.815C266.039 331.816 266.015 331.82 265.986 331.825C265.971 331.827 265.945 331.831 265.913 331.836C265.897 331.839 265.874 331.842 265.847 331.847C265.821 331.85 265.779 331.857 265.727 331.865C265.7 331.868 265.664 331.874 265.622 331.88C265.581 331.885 265.52 331.894 265.445 331.904C265.407 331.909 265.358 331.915 265.302 331.922C265.248 331.929 265.174 331.938 265.086 331.948C265.049 331.952 264.971 331.961 264.929 331.966C264.881 331.971 264.775 331.982 264.718 331.987C264.651 331.994 264.501 332.007 264.418 332.014C264.317 332.022 264.087 332.039 263.959 332.047C263.792 332.056 263.396 332.074 263.167 332.08C262.84 332.085 262.004 332.074 261.495 332.051C260.608 331.982 257.846 331.519 256.007 330.994C250.962 328.507 241.898 314.041 243.577 302.382C246.351 297.891 251.669 293.209 253.262 292.32C254.039 291.95 255.292 291.431 255.759 291.262C256.063 291.158 256.582 290.993 256.797 290.929C256.956 290.883 257.238 290.805 257.36 290.773C257.458 290.747 257.634 290.703 257.713 290.683C257.779 290.668 257.9 290.639 257.955 290.626C258.084 290.596 258.191 290.573 258.264 290.557C258.34 290.54 258.405 290.527 258.454 290.517C258.504 290.507 258.547 290.498 258.582 290.491C258.65 290.477 258.706 290.466 258.744 290.459C258.784 290.452 258.817 290.445 258.843 290.441C258.892 290.431 258.932 290.424 258.956 290.42C259.005 290.411 259.043 290.404 259.061 290.401C259.099 290.395 259.129 290.389 259.139 290.388C259.154 290.385 259.165 290.383 259.172 290.382L262.688 311.086ZM262.919 311.08L241.97 312.535L244.431 347.979L265.381 346.524L286.33 345.069L283.869 309.625L262.919 311.08ZM269.371 350.247V371.247H311V350.247V329.247H269.371V350.247ZM315 346.247H336V191.443H315H294V346.247H315ZM311 187.443V166.443H176.546V187.443V208.443H311V187.443ZM172.546 191.443H151.546V239.731H172.546H193.546V191.443H172.546ZM176.546 243.731V264.731H225.482V243.731V222.731H176.546V243.731ZM229.286 248.305L208.78 243.775C207.644 248.919 205.804 252.98 203.472 256.273L220.608 268.412L237.745 280.55C243.62 272.256 247.566 262.912 249.792 252.835L229.286 248.305ZM220.608 268.412L203.369 256.419C200.961 259.881 197.646 262.783 192.88 265.078L201.99 283.999L211.1 302.92C221.921 297.71 231.018 290.221 237.847 280.404L220.608 268.412ZM201.99 283.999L193.189 264.932C189.125 266.808 183.206 268.195 174.711 268.195V289.195V310.195C187.577 310.195 199.844 308.119 210.79 303.067L201.99 283.999ZM174.711 289.195V268.195C162.902 268.195 155.149 265.348 149.798 261.256L137.041 277.938L124.285 294.619C138.563 305.537 155.923 310.195 174.711 310.195V289.195ZM137.041 277.938L150.101 261.492C143.873 256.546 138.577 249.246 134.754 238.453L114.959 245.463L95.1636 252.474C101.155 269.392 110.581 283.741 123.982 294.383L137.041 277.938ZM114.959 245.463L134.881 238.823C131.137 227.589 129.031 213.755 129.031 196.969H108.031H87.0309C87.0309 217.13 89.5438 235.626 95.0364 252.104L114.959 245.463ZM108.031 196.969H129.031C129.031 179.965 131.263 166.131 135.187 155.052L115.392 148.041L95.5966 141.03C89.7061 157.662 87.0309 176.446 87.0309 196.969H108.031ZM115.392 148.041L135.055 155.414C139.213 144.326 144.644 136.834 150.772 131.82L137.474 115.567L124.176 99.3134C111.253 109.887 101.962 124.044 95.7288 140.667L115.392 148.041ZM137.474 115.567L150.534 132.012C156.238 127.482 163.335 124.876 172.979 124.876V103.876V82.8758C154.913 82.8758 138.339 88.0637 124.415 99.1212L137.474 115.567ZM172.979 103.876V124.876C185.66 124.876 191.764 128.112 194.934 131.282L209.783 116.432L224.633 101.583C211.06 88.0109 192.629 82.8758 172.979 82.8758V103.876ZM209.783 116.432L195.197 131.54C199.103 135.311 202.818 141.608 205.021 152.289L225.588 148.048L246.155 143.806C242.743 127.259 235.922 112.479 224.37 101.325L209.783 116.432ZM229.75 151.366L230.577 172.35L310.243 169.21L309.416 148.227L308.589 127.243L228.923 130.383L229.75 151.366ZM313.124 143.428L333.585 138.703C328.06 114.778 319.036 93.5021 306.169 75.3002L289.021 87.4222L271.872 99.5441C281.123 112.631 288.168 128.692 292.662 148.154L313.124 143.428ZM289.021 87.4222L306.308 75.4998C292.484 55.455 273.969 40.3154 251.273 30.1527L242.691 49.3191L234.109 68.4855C250.093 75.6424 262.464 85.9049 271.733 99.3446L289.021 87.4222ZM242.691 49.3191L251.619 30.3114C229.011 19.6927 202.228 14.8964 172.113 14.8964V35.8964V56.8964C197.998 56.8964 218.267 61.0487 233.763 68.3268L242.691 49.3191ZM172.113 35.8964V14.8964C137.184 14.8964 106.003 22.7064 79.5404 39.3306L90.7113 57.1129L101.882 74.8952C120.45 63.2308 143.538 56.8964 172.113 56.8964V35.8964ZM90.7113 57.1129L79.7053 39.2281C53.7685 55.1892 33.7966 77.222 19.9696 104.876L38.7526 114.268L57.5355 123.659C67.9559 102.818 82.6232 86.748 101.717 74.9977L90.7113 57.1129ZM38.7526 114.268L19.8806 105.056C6.45545 132.561 0 163.353 0 196.969H21H42C42 168.811 47.3796 144.469 57.6245 123.479L38.7526 114.268ZM21 196.969H0C0 231.529 6.2328 262.76 19.4018 290.086L38.3196 280.969L57.2373 271.852C47.3136 251.26 42 226.49 42 196.969H21ZM38.3196 280.969L19.4915 290.269C32.9665 317.548 52.2943 339.322 77.3951 355.052L88.5464 337.257L99.6977 319.463C81.4995 308.058 67.3428 292.307 57.1477 271.668L38.3196 280.969ZM88.5464 337.257L77.567 355.158C103.08 370.806 132.869 378.175 166.052 378.175V357.175V336.175C139.193 336.175 117.312 330.265 99.5258 319.356L88.5464 337.257ZM166.052 357.175V378.175C186.352 378.175 205.338 375.111 222.744 368.627L215.412 348.948L208.081 329.269C196.043 333.754 182.122 336.175 166.052 336.175V357.175ZM215.412 348.948L222.951 368.548C240.435 361.824 255.495 352.268 267.496 339.54L252.216 325.133L236.937 310.727C229.886 318.205 220.411 324.526 207.874 329.348L215.412 348.948ZM252.216 325.133L267.279 339.766C271.208 335.721 274.225 330.39 275.381 328.44L257.317 317.73L239.254 307.02C238.416 308.433 237.863 309.357 237.351 310.13C237.117 310.483 236.969 310.686 236.898 310.778C236.822 310.878 236.906 310.756 237.154 310.501L252.216 325.133ZM257.317 317.73L275.381 328.44C275.903 327.559 276.269 326.943 276.601 326.411C276.937 325.87 277.059 325.707 277.024 325.754C276.996 325.792 276.863 325.971 276.63 326.237C276.406 326.493 275.983 326.954 275.362 327.503C274.756 328.038 273.753 328.843 272.35 329.63C270.937 330.422 268.863 331.337 266.205 331.789L262.688 311.086L259.171 290.382C253.265 291.385 249.33 294.458 247.552 296.029C245.574 297.777 244.142 299.584 243.279 300.749C241.604 303.009 240.066 305.65 239.254 307.02L257.317 317.73ZM262.688 311.086L262.667 290.086L261.289 290.087L261.309 311.087L261.33 332.087L262.708 332.086L262.688 311.086ZM261.309 311.087L261.583 332.085L263.154 332.065L262.88 311.066L262.606 290.068L261.035 290.089L261.309 311.087ZM262.88 311.066L263.482 332.058C263.328 332.062 263.194 332.064 263.084 332.065L262.904 311.066L262.725 290.067C262.599 290.068 262.449 290.07 262.279 290.075L262.88 311.066ZM387.395 342.02L377.557 360.573C400.135 372.546 425.854 378.175 454.076 378.175V357.175V336.175C431.493 336.175 412.758 331.7 397.234 323.467L387.395 342.02ZM454.076 357.175V378.175C482.287 378.175 507.92 372.55 530.279 360.51L520.323 342.02L510.367 323.53C495.201 331.697 476.668 336.175 454.076 336.175V357.175ZM520.323 342.02L530.162 360.573C552.615 348.666 570.297 331.749 582.721 310.006L564.488 299.587L546.255 289.168C537.896 303.797 526.134 315.168 510.484 323.467L520.323 342.02ZM564.488 299.587L582.668 310.098C595.458 287.976 601.509 262.738 601.509 235.072H580.509H559.509C559.509 256.478 554.879 274.25 546.307 289.077L564.488 299.587ZM580.509 235.072H601.509C601.509 207.415 595.46 182.259 582.596 160.354L564.488 170.989L546.38 181.624C554.876 196.091 559.509 213.657 559.509 235.072H580.509ZM564.488 170.989L582.721 160.57C570.297 138.828 552.615 121.911 530.162 110.004L520.323 128.556L510.484 147.109C526.134 155.408 537.896 166.78 546.255 181.408L564.488 170.989ZM520.323 128.556L530.497 110.186C508.092 97.7767 482.38 91.9687 454.076 91.9687V112.969V133.969C476.575 133.969 495.028 138.552 510.148 146.927L520.323 128.556ZM454.076 112.969V91.9687C425.761 91.9687 399.964 97.7799 377.339 110.121L387.395 128.556L397.451 146.992C412.93 138.549 431.586 133.969 454.076 133.969V112.969ZM387.395 128.556L377.439 110.066C355.328 121.972 337.771 138.817 325.122 160.354L343.23 170.989L361.338 181.624C370.05 166.79 381.936 155.347 397.351 147.046L387.395 128.556ZM343.23 170.989L324.997 160.57C312.503 182.435 306.643 207.512 306.643 235.072H327.643H348.643C348.643 213.559 353.174 195.914 361.463 181.408L343.23 170.989ZM327.643 235.072H306.643C306.643 262.641 312.506 287.8 324.927 309.883L343.23 299.587L361.533 289.292C353.171 274.426 348.643 256.575 348.643 235.072H327.643ZM343.23 299.587L325.122 310.222C337.771 331.759 355.328 348.604 377.439 360.51L387.395 342.02L397.351 323.53C381.936 315.23 370.05 303.786 361.338 288.952L343.23 299.587ZM315 191.443H336C336 177.636 324.807 166.443 311 166.443V187.443V208.443C301.611 208.443 294 200.832 294 191.443H315ZM729.401 347.613L709.664 340.441C712.106 333.721 718.492 329.247 725.642 329.247V350.247V371.247C736.157 371.247 745.548 364.667 749.139 354.785L729.401 347.613ZM752.629 45.5222L772.485 52.358C770.123 59.2189 763.667 63.8243 756.411 63.8243V42.8243V21.8243C745.74 21.8243 736.246 28.597 732.773 38.6865L752.629 45.5222ZM677.033 243.137L657.177 249.973C664.917 272.456 696.714 272.456 704.454 249.973L684.598 243.137L664.741 236.301C670.004 221.013 691.626 221.013 696.89 236.301L677.033 243.137ZM605.22 42.8243V63.8243C597.964 63.8243 591.508 59.2188 589.146 52.358L609.002 45.5222L628.858 38.6865C625.385 28.597 615.89 21.8243 605.22 21.8243V42.8243ZM523.407 48.181L543.162 41.0581C547.157 52.1376 538.947 63.8243 527.17 63.8243V42.8243V21.8243C509.849 21.8243 497.777 39.0105 503.652 55.304L523.407 48.181ZM309.416 148.227L310.243 169.21C325.538 168.608 337.179 154.264 333.585 138.703L313.124 143.428L292.662 148.154C290.181 137.409 298.234 127.651 308.589 127.243L309.416 148.227ZM631.367 347.604L611.612 354.727C615.187 364.639 624.593 371.247 635.13 371.247V350.247V329.247C642.296 329.247 648.692 333.74 651.123 340.481L631.367 347.604ZM225.588 148.048L205.021 152.289C207.406 163.855 217.832 172.852 230.577 172.35L229.75 151.366L228.923 130.383C237.649 130.039 244.583 136.179 246.155 143.806L225.588 148.048ZM925.454 333.257H904.454C904.454 323.868 912.065 316.257 921.454 316.257V337.257V358.257C935.261 358.257 946.454 347.064 946.454 333.257H925.454ZM921.454 103.443V124.443C912.065 124.443 904.454 116.832 904.454 107.443H925.454H946.454C946.454 93.6357 935.261 82.4428 921.454 82.4428V103.443ZM841.454 107.443H862.454C862.454 116.832 854.843 124.443 845.454 124.443V103.443V82.4428C831.647 82.4428 820.454 93.6357 820.454 107.443H841.454ZM841.454 333.257H820.454C820.454 347.064 831.647 358.257 845.454 358.257V337.257V316.257C854.843 316.257 862.454 323.868 862.454 333.257H841.454ZM1026.29 44.7853L1044.36 34.0807C1039.86 26.4833 1031.68 21.8243 1022.85 21.8243V42.8243V63.8243C1016.84 63.8243 1011.28 60.6562 1008.22 55.4899L1026.29 44.7853ZM1127.75 201.422H1106.75C1106.75 184.131 1129.56 177.88 1138.37 192.756L1120.31 203.461L1102.24 214.166C1115.2 236.042 1148.75 226.85 1148.75 201.422H1127.75ZM1024.26 199.683H1045.26C1045.26 216.771 1022.88 223.179 1013.84 208.679L1031.66 197.566L1049.47 186.453C1036.18 165.131 1003.26 174.553 1003.26 199.683H1024.26ZM225.482 243.731V264.731C215.545 264.731 206.193 255.488 208.78 243.775L229.286 248.305L249.792 252.835C253.435 236.341 240.315 222.731 225.482 222.731V243.731ZM1020.26 350.247V371.247C1034.07 371.247 1045.26 360.054 1045.26 346.247H1024.26H1003.26C1003.26 336.858 1010.87 329.247 1020.26 329.247V350.247ZM172.546 239.731H151.546C151.546 253.539 162.739 264.731 176.546 264.731V243.731V222.731C185.935 222.731 193.546 230.343 193.546 239.731H172.546ZM939.397 346.247H918.397C918.397 360.054 929.59 371.247 943.397 371.247V350.247V329.247C952.785 329.247 960.397 336.858 960.397 346.247H939.397ZM176.546 187.443V166.443C162.739 166.443 151.546 177.636 151.546 191.443H172.546H193.546C193.546 200.832 185.935 208.443 176.546 208.443V187.443ZM939.397 46.8243H960.397C960.397 56.2131 952.785 63.8243 943.397 63.8243V42.8243V21.8243C929.59 21.8243 918.397 33.0171 918.397 46.8243H939.397ZM311 350.247V371.247C324.807 371.247 336 360.054 336 346.247H315H294C294 336.858 301.611 329.247 311 329.247V350.247ZM1391.46 331.765L1412.45 330.958C1411.91 316.88 1401.06 309.579 1393.4 307.501C1385.81 305.445 1374.25 306.298 1366.34 315.812L1382.49 329.237L1398.64 342.661C1393.36 349.008 1386.21 349.067 1382.41 348.039C1378.54 346.988 1370.86 342.534 1370.48 332.572L1391.46 331.765ZM265.381 346.524L244.431 347.979C245.341 361.082 256.236 371.247 269.371 371.247V350.247V329.247C278.303 329.247 285.711 336.159 286.33 345.069L265.381 346.524ZM1396.02 350.247V329.247C1405.16 329.247 1412.66 336.466 1413.01 345.594L1392.03 346.401L1371.04 347.208C1371.56 360.631 1382.59 371.247 1396.02 371.247V350.247ZM1474.01 346.247H1453.01C1453.01 336.858 1460.62 329.247 1470.01 329.247V350.247V371.247C1483.82 371.247 1495.01 360.054 1495.01 346.247H1474.01ZM1470.01 42.8243V63.8243C1460.62 63.8243 1453.01 56.2131 1453.01 46.8243H1474.01H1495.01C1495.01 33.0172 1483.82 21.8243 1470.01 21.8243V42.8243ZM1131.75 42.8243V21.8243C1117.94 21.8243 1106.75 33.0172 1106.75 46.8243H1127.75H1148.75C1148.75 56.2131 1141.14 63.8243 1131.75 63.8243V42.8243ZM844.155 21.1748V0.174805C830.348 0.174805 819.155 11.3678 819.155 25.175L840.155 25.1748L861.155 25.1746C861.155 34.5636 853.544 42.1748 844.155 42.1748V21.1748ZM1208.61 350.247V371.247C1222.42 371.247 1233.61 360.054 1233.61 346.247H1212.61H1191.61C1191.61 336.858 1199.22 329.247 1208.61 329.247V350.247ZM922.753 80.0614V101.061C936.56 101.061 947.753 89.8685 947.753 76.0614H926.753H905.753C905.753 66.6725 913.364 59.0614 922.753 59.0614V80.0614ZM1380.73 136.078L1364.72 149.67C1373.02 159.451 1384.98 159.751 1392.29 157.615C1399.61 155.475 1411.01 147.989 1411.01 133.261H1390.01H1369.01C1369.01 122.755 1377.14 118.286 1380.5 117.303C1383.85 116.324 1391.16 115.922 1396.74 122.486L1380.73 136.078ZM1390.01 46.8243H1411.01C1411.01 56.2131 1403.4 63.8243 1394.01 63.8243V42.8243V21.8243C1380.2 21.8243 1369.01 33.0172 1369.01 46.8243H1390.01ZM1212.61 46.8243H1233.61C1233.61 33.0171 1222.42 21.8243 1208.61 21.8243V42.8243V63.8243C1199.22 63.8243 1191.61 56.2131 1191.61 46.8243H1212.61ZM926.753 25.1748H947.753C947.753 11.3677 936.56 0.174805 922.753 0.174805V21.1748V42.1748C913.364 42.1748 905.753 34.5637 905.753 25.1748H926.753ZM1125.71 348.364L1107.89 359.477C1112.45 366.798 1120.47 371.247 1129.1 371.247V350.247V329.247C1134.97 329.247 1140.42 332.272 1143.53 337.251L1125.71 348.364ZM840.155 76.0613L819.155 76.0612C819.155 89.8684 830.348 101.061 844.155 101.061V80.0614V59.0614C853.544 59.0614 861.155 66.6726 861.155 76.0615L840.155 76.0613Z" fill="black" mask="url(#path-1-outside-1_2751_836)"/>
<path d="M3838.51 27.1738C3844.65 27.1738 3850.12 31.0394 3852.18 36.8242L3962.74 348.324C3966.09 357.762 3959.09 367.674 3949.07 367.674H3863.63C3857.28 367.674 3851.67 363.539 3849.79 357.472L3832.7 302.424H3738.37L3721.29 357.472C3719.41 363.539 3713.79 367.674 3707.44 367.674H3622C3611.99 367.674 3604.99 357.762 3608.34 348.324L3718.9 36.8242C3720.95 31.0395 3726.42 27.1739 3732.56 27.1738H3838.51ZM3785.54 148.08C3784.1 153.086 3782.63 157.966 3781.17 162.712L3764.17 218.424H3806.91L3789.9 162.712L3788.89 159.404C3787.76 155.707 3786.64 151.931 3785.54 148.08Z" stroke="black" stroke-width="21"/>
<path d="M3592.14 113.167C3600.15 113.167 3606.64 119.659 3606.64 127.667V344.667C3606.64 352.675 3600.15 359.167 3592.14 359.167H3509.24C3501.23 359.167 3494.74 352.675 3494.74 344.667V127.667C3494.74 119.659 3501.23 113.167 3509.24 113.167H3592.14ZM3593.04 10.5674C3601.05 10.5675 3607.54 17.0593 3607.54 25.0674V92.667C3607.54 100.675 3601.05 107.167 3593.04 107.167H3508.34C3500.33 107.167 3493.84 100.675 3493.84 92.667V25.0674C3493.84 17.0592 3500.33 10.5674 3508.34 10.5674H3593.04Z" stroke="black" stroke-width="21"/>
<path d="M3359.39 27.1738C3367.4 27.1738 3373.89 33.6657 3373.89 41.6738V271.074H3479.54C3487.55 271.074 3494.04 277.566 3494.04 285.574V353.174C3494.04 361.182 3487.55 367.674 3479.54 367.674H3273.34C3265.33 367.674 3258.84 361.182 3258.84 353.174V41.6738C3258.84 33.6657 3265.33 27.1738 3273.34 27.1738H3359.39Z" stroke="black" stroke-width="21"/>
<path d="M3116.54 110.874C3156.62 110.874 3188.11 118.177 3209.67 135.664C3231.71 153.547 3241.34 180.376 3241.34 214.524V296.424C3241.34 315.118 3243.01 333.202 3245.34 344.591C3247.12 353.288 3240.69 362.274 3231.02 362.274H3152.16C3145.4 362.274 3139.31 357.542 3137.98 350.585C3137.68 349.031 3137.42 347.474 3137.17 345.912C3120.19 359.962 3096.29 367.674 3070.64 367.674C3045.27 367.674 3023.11 360.347 3007.11 346.643C2990.97 332.819 2981.84 313.102 2981.84 290.124C2981.84 267.982 2988.26 250.093 3003.24 236.878L3003.95 236.252C3016.3 225.573 3033.65 218.362 3056.48 213.324H3003.86C2995.53 213.324 2988.46 206.112 2989.54 197.244L2989.71 195.945C2993.38 168.759 3007.17 147.181 3029.32 132.611C3051.49 118.025 3081.36 110.874 3116.54 110.874ZM3118.98 266.233C3108.46 268.343 3102.05 271.166 3098.44 274.039C3095.33 276.515 3094.19 279.05 3094.19 282.474C3094.19 285.495 3095.33 287.749 3097.26 289.4C3099.31 291.152 3102.83 292.674 3107.99 292.674C3116.24 292.674 3122.43 290.177 3126.4 286.713C3130.26 283.339 3132.59 278.59 3132.59 272.574V263.652L3118.98 266.233ZM3116.09 186.324C3109.54 186.324 3105.96 187.872 3103.89 189.639C3101.84 191.386 3099.87 194.544 3098.98 200.646C3098.67 202.793 3097.87 204.855 3096.68 206.672L3129.44 201.854V201.024C3129.44 194.095 3127.71 190.861 3126.22 189.334C3124.79 187.856 3121.97 186.324 3116.09 186.324Z" stroke="black" stroke-width="21"/>
<path d="M2669.95 27.1738C2676.74 27.174 2682.59 31.8865 2684.08 38.457L2684.21 39.0986L2709.87 181.251L2736.61 38.9951C2737.89 32.1401 2743.88 27.1738 2750.86 27.1738H2838.72C2845.69 27.1739 2851.68 32.1401 2852.97 38.9951L2879.71 181.249L2905.36 39.0986L2905.49 38.457C2906.98 31.8865 2912.84 27.1738 2919.63 27.1738H3006.17C3015.54 27.1738 3022.45 35.9201 3020.28 45.0312L2946.13 356.531C2944.58 363.063 2938.74 367.674 2932.03 367.674H2835.51C2828.45 367.674 2822.42 362.589 2821.22 355.631L2794.79 201.916L2768.36 355.631C2767.16 362.589 2761.13 367.674 2754.07 367.674H2657.55C2650.83 367.674 2645 363.063 2643.44 356.531L2569.3 45.0312C2567.13 35.9202 2574.04 27.1741 2583.4 27.1738H2669.95Z" stroke="black" stroke-width="21"/>
<path d="M2433.24 116.274C2441.25 116.275 2447.74 122.766 2447.74 130.774V256.824C2447.74 266.875 2449.64 272.554 2451.82 275.512C2453.56 277.867 2456.28 279.624 2461.99 279.624C2467.35 279.624 2470.65 277.806 2472.81 275.207C2475.17 272.354 2477.14 267.351 2477.14 259.524V130.774C2477.14 122.766 2483.63 116.275 2491.64 116.274H2574.54C2582.55 116.274 2589.04 122.766 2589.04 130.774V347.774C2589.04 355.782 2582.55 362.274 2574.54 362.274H2495.69C2487.68 362.274 2481.19 355.782 2481.19 347.774V345.772C2465.82 359.975 2444.96 367.675 2421.49 367.675C2393.7 367.675 2371.64 359.308 2356.75 342.183C2342.09 325.322 2335.84 301.632 2335.84 273.925V130.774C2335.84 122.766 2342.33 116.274 2350.34 116.274H2433.24Z" stroke="black" stroke-width="21"/>
<path d="M2196.39 27.1738C2204.4 27.1738 2210.89 33.6657 2210.89 41.6738V271.074H2316.54C2324.55 271.074 2331.04 277.566 2331.04 285.574V353.174C2331.04 361.182 2324.55 367.674 2316.54 367.674H2110.34C2102.33 367.674 2095.84 361.182 2095.84 353.174V41.6738C2095.84 33.6657 2102.33 27.1738 2110.34 27.1738H2196.39Z" stroke="black" stroke-width="21"/>
<path d="M1919.24 10.5C1927.25 10.5002 1933.74 16.992 1933.74 25V128.385C1949.4 113.527 1969.57 106.35 1993.44 106.35C2020.07 106.35 2041.77 114.847 2056.5 133.021C2070.89 150.787 2077.29 176.183 2077.29 207.3V343.25C2077.29 351.258 2070.8 357.75 2062.79 357.75H1979.89C1971.88 357.75 1965.39 351.258 1965.39 343.25V216.75C1965.39 206.689 1963.48 201.18 1961.37 198.37C1959.69 196.146 1956.99 194.4 1951.14 194.4C1945.25 194.4 1941.63 196.465 1939.04 200.159C1936.05 204.424 1933.74 211.967 1933.74 223.95V343.25C1933.74 351.258 1927.25 357.75 1919.24 357.75H1836.34C1828.33 357.75 1821.84 351.258 1821.84 343.25V25C1821.84 16.9919 1828.33 10.5 1836.34 10.5H1919.24Z" stroke="black" stroke-width="21"/>
<path d="M1696.18 27.1738C1702.32 27.1738 1707.8 31.0394 1709.85 36.8242L1820.41 348.324C1823.76 357.762 1816.76 367.674 1806.75 367.674H1721.31C1714.95 367.674 1709.34 363.539 1707.46 357.472L1690.37 302.424H1596.05L1578.96 357.472C1577.08 363.539 1571.47 367.674 1565.11 367.674H1479.67C1469.66 367.674 1462.66 357.762 1466.01 348.324L1576.57 36.8242C1578.62 31.0395 1584.1 27.1739 1590.23 27.1738H1696.18ZM1643.21 148.079C1641.77 153.085 1640.31 157.966 1638.85 162.712L1621.84 218.424H1664.58L1647.57 162.712L1646.56 159.404C1645.44 155.706 1644.31 151.93 1643.21 148.079Z" stroke="black" stroke-width="21"/>
</svg>
