<svg width="857" height="503" viewBox="0 0 857 503" fill="none" xmlns="http://www.w3.org/2000/svg">
<path d="M69.0705 80.8847H66.4275V78.2416" stroke="#1E1E1E" stroke-width="2.5" stroke-miterlimit="10"/>
<path d="M66.4275 73.3961V61.6698L75.6517 49.9347" stroke="#1E1E1E" stroke-width="2.5" stroke-miterlimit="10" stroke-dasharray="4.85 4.85"/>
<path d="M77.1494 48.0317L78.7793 45.9525H81.4223" stroke="#1E1E1E" stroke-width="2.5" stroke-miterlimit="10"/>
<path d="M86.8316 45.9525H108.408C116.213 45.9525 122.565 38.7987 122.565 30.0062V17.1963C122.565 8.40382 116.213 1.25 108.408 1.25H67.5727C63.5729 1.25 59.7405 3.17061 57.0622 6.50964L30.6935 39.4066C28.3412 42.3404 27.0461 46.1376 27.0461 50.0933V75.5457" stroke="#1E1E1E" stroke-width="2.5" stroke-miterlimit="10" stroke-dasharray="5.41 5.41"/>
<path d="M27.0461 78.2416V80.8847H24.4031" stroke="#1E1E1E" stroke-width="2.5" stroke-miterlimit="10"/>
<path d="M19.1962 80.8847H15.4079C7.60209 80.8847 1.25 88.0385 1.25 96.831V109.641C1.25 118.433 7.60209 125.587 15.4079 125.587H21.804" stroke="#1E1E1E" stroke-width="2.5" stroke-miterlimit="10" stroke-dasharray="5.21 5.21"/>
<path d="M24.4031 125.587H27.0461V128.23" stroke="#1E1E1E" stroke-width="2.5" stroke-miterlimit="10"/>
<path d="M27.0461 133.49V269.95C27.0461 278.742 33.3982 285.896 41.204 285.896H52.2607C60.0665 285.896 66.4185 278.742 66.4185 269.95V130.856" stroke="#1E1E1E" stroke-width="2.5" stroke-miterlimit="10" stroke-dasharray="5.26 5.26"/>
<path d="M66.4275 128.23V125.587H69.0705" stroke="#1E1E1E" stroke-width="2.5" stroke-miterlimit="10"/>
<path d="M74.374 125.587H105.289C113.094 125.587 119.447 118.433 119.447 109.641V96.831C119.447 88.0385 113.094 80.8847 105.289 80.8847H71.7222" stroke="#1E1E1E" stroke-width="2.5" stroke-miterlimit="10" stroke-dasharray="5.3 5.3"/>
<path d="M210.366 120.38C207.688 117.64 203.873 116.072 199.908 116.072H142.061C138.088 116.072 134.273 117.64 131.604 120.38L105.235 147.339C102.847 149.78 101.535 152.943 101.535 156.246V245.731C101.535 249.034 102.847 252.197 105.235 254.638L131.604 281.597C134.282 284.337 138.088 285.905 142.061 285.905H199.908C203.882 285.905 207.697 284.337 210.366 281.597L236.735 254.638C239.122 252.197 240.435 249.034 240.435 245.731V156.246C240.435 152.943 239.122 149.78 236.735 147.339L210.366 120.38Z" stroke="#1E1E1E" stroke-width="2.5" stroke-miterlimit="10" stroke-dasharray="5.31 5.31"/>
<path d="M190.666 246.982L188.825 248.867H186.182" stroke="#1E1E1E" stroke-width="2.5" stroke-miterlimit="10"/>
<path d="M180.103 248.867H158.827" stroke="#1E1E1E" stroke-width="2.5" stroke-miterlimit="10" stroke-dasharray="6.08 6.08"/>
<path d="M155.787 248.867H153.144L151.303 246.982" stroke="#1E1E1E" stroke-width="2.5" stroke-miterlimit="10"/>
<path d="M147.612 243.193L140.907 236.321V165.656L149.453 156.889" stroke="#1E1E1E" stroke-width="2.5" stroke-miterlimit="10" stroke-dasharray="5.29 5.29"/>
<path d="M151.303 154.995L153.144 153.101H155.787" stroke="#1E1E1E" stroke-width="2.5" stroke-miterlimit="10"/>
<path d="M161.866 153.101H183.143" stroke="#1E1E1E" stroke-width="2.5" stroke-miterlimit="10" stroke-dasharray="6.08 6.08"/>
<path d="M186.182 153.101H188.825L190.666 154.995" stroke="#1E1E1E" stroke-width="2.5" stroke-miterlimit="10"/>
<path d="M194.358 158.784L201.063 165.656V236.321L192.517 245.088" stroke="#1E1E1E" stroke-width="2.5" stroke-miterlimit="10" stroke-dasharray="5.29 5.29"/>
<path d="M333.726 155.004L335.567 153.101H338.21" stroke="#1E1E1E" stroke-width="2.5" stroke-miterlimit="10"/>
<path d="M343.663 153.101H357.354C365.16 153.101 371.512 147.172 371.512 139.895V129.279C371.512 121.993 365.16 116.072 357.354 116.072H324.466C320.466 116.072 316.634 117.658 313.955 120.424L302.661 132.098" stroke="#1E1E1E" stroke-width="2.5" stroke-miterlimit="10" stroke-dasharray="5.45 5.45"/>
<path d="M300.767 134.054L298.926 135.957V133.314" stroke="#1E1E1E" stroke-width="2.5" stroke-miterlimit="10"/>
<path d="M298.864 128.01C298.177 121.323 292.115 116.072 284.768 116.072H273.711C265.905 116.072 259.553 122.001 259.553 129.279V272.69C259.553 279.976 265.905 285.896 273.711 285.896H284.768C292.574 285.896 298.926 279.967 298.926 272.69V190.87L331.875 156.898" stroke="#1E1E1E" stroke-width="2.5" stroke-miterlimit="10" stroke-dasharray="5.3 5.3"/>
<path d="M471.507 123.781L462.873 118.345C460.52 116.856 457.78 116.072 454.944 116.072C453.93 116.072 452.908 116.178 451.886 116.381C448.116 117.156 444.812 119.376 442.821 122.46L290.793 357.919C286.899 363.945 288.75 371.751 295.005 375.689L303.647 381.125C306 382.613 308.74 383.398 311.577 383.398C312.59 383.398 313.612 383.292 314.634 383.089C318.404 382.314 321.708 380.094 323.708 377.001L475.735 141.542C479.629 135.516 477.779 127.71 471.524 123.772L471.507 123.781Z" stroke="#1E1E1E" stroke-width="2.5" stroke-miterlimit="10" stroke-dasharray="5.29 5.29"/>
<g clip-path="url(#clip0_7_559)">
<path d="M501.513 324.483C499.94 322.72 497.674 321.711 495.311 321.711H469.858C467.509 321.711 465.264 322.706 463.684 324.448L447.537 342.285V283.335C447.537 278.759 443.809 275.039 439.222 275.039H430.809C426.222 275.039 422.493 278.759 422.493 283.335V424.518C422.493 426.578 423.256 428.549 424.635 430.076L444.696 452.247C446.269 453.99 448.521 454.985 450.871 454.985H495.311C497.66 454.985 499.912 453.99 501.485 452.247L521.547 430.076C522.933 428.549 523.688 426.571 523.688 424.518V352.413C523.688 350.373 522.94 348.41 521.575 346.889L501.513 324.483ZM498.644 358.884V417.605L487.716 429.752H458.466L447.537 417.605V379.858L477.224 346.937H487.751L498.644 358.884Z" fill="#E0663E" stroke="#010101" stroke-width="2" stroke-miterlimit="10" stroke-dasharray="3.61 3.61"/>
<path d="M613.407 324.414C611.833 322.692 609.595 321.711 607.26 321.711H563.256C560.921 321.711 558.682 322.699 557.116 324.414L537.055 346.35C535.655 347.884 534.886 349.868 534.886 351.942V424.753C534.886 426.827 535.655 428.811 537.055 430.346L557.116 452.282C558.689 454.003 560.928 454.985 563.256 454.985H607.26C609.595 454.985 611.833 453.996 613.407 452.282L633.468 430.346C634.868 428.811 635.644 426.827 635.644 424.753V351.942C635.644 349.868 634.875 347.884 633.468 346.35L613.407 324.414ZM610.6 358.648V418.04L599.921 429.758H570.609L559.93 418.04V358.648L570.609 346.937H599.928L610.607 358.648H610.6Z" fill="#E0663E" stroke="#010101" stroke-width="2" stroke-miterlimit="10" stroke-dasharray="3.61 3.61"/>
<path d="M855.317 327.871C854.361 325.852 852.601 324.276 850.487 323.557L842.289 320.757C841.416 320.459 840.509 320.307 839.594 320.307C836.122 320.307 832.983 322.492 831.784 325.748L800.974 409.53L770.165 325.748C768.966 322.492 765.834 320.307 762.355 320.307C761.392 320.307 760.442 320.473 759.528 320.805L751.759 323.605C750.276 324.137 748.974 325.105 748.017 326.343V283.335C748.017 278.759 744.289 275.039 739.702 275.039H731.289C726.702 275.039 722.973 278.759 722.973 283.335V322.402C721.934 321.946 720.804 321.711 719.64 321.711H675.2C672.837 321.711 670.571 322.72 668.998 324.483L648.936 346.889C647.571 348.41 646.823 350.373 646.823 352.413V424.518C646.823 426.578 647.585 428.549 648.964 430.076L669.025 452.247C670.598 453.989 672.851 454.985 675.2 454.985H700.653C703.002 454.985 705.247 453.989 706.827 452.247L722.973 434.411V446.682C722.973 451.259 726.702 454.978 731.289 454.978H739.702C744.289 454.978 748.017 451.259 748.017 446.682V337.591L787.78 444.567L775.792 476.423H760.629C756.042 476.423 752.314 480.142 752.314 484.719V493.354C752.314 497.93 756.042 501.65 760.629 501.65H786.519C789.956 501.65 793.081 499.493 794.301 496.285L855.567 334.334C856.357 332.247 856.267 329.889 855.31 327.871H855.317ZM722.994 358.883V397.052L693.321 429.758H682.816L671.887 417.612V358.89L682.781 346.944H712.101L722.994 358.89V358.883Z" fill="#E0663E" stroke="#010101" stroke-width="2" stroke-miterlimit="10" stroke-dasharray="3.61 3.61"/>
</g>
<defs>
<clipPath id="clip0_7_559">
<rect width="435" height="228" fill="white" transform="translate(421.8 274.348)"/>
</clipPath>
</defs>
</svg>
