<svg width="561" height="115" viewBox="0 0 561 115" fill="none" xmlns="http://www.w3.org/2000/svg">
<rect width="560.754" height="114.444" transform="translate(0.25)" fill="white"/>
<path d="M318.004 0L318.004 114.444" stroke="black" stroke-width="0.5"/>
<mask id="path-2-outside-1_268_38" maskUnits="userSpaceOnUse" x="325.004" y="27.7217" width="118" height="12" fill="black">
<rect fill="white" x="325.004" y="27.7217" width="118" height="12"/>
<path d="M330.05 29.4397V38.7217H329.504V29.4397H326.214V28.9217H333.34V29.4397H330.05ZM339.893 38.7217V33.2617L338.885 32.2397H337.723L335.497 34.5217V38.7217H334.951V28.9217H335.497V33.7517L337.485 31.7217H339.137L340.439 33.0657V38.7217H339.893ZM347.116 35.3757H343.504V37.1957L344.498 38.2037H347.606V38.7217H344.26L342.958 37.4057V33.0377L344.26 31.7217H347.116L348.418 33.0377V34.0457L347.116 35.3757ZM347.872 33.2477L346.878 32.2397H344.498L343.504 33.2477V34.8717H346.878L347.872 33.8497V33.2477ZM353.873 30.4477V28.9217H354.419V30.4477H353.873ZM353.873 38.7217V31.7217H354.419V38.7217H353.873ZM362.164 38.7217V33.2477L361.156 32.2397H359.994L357.768 34.4797V38.7217H357.222V31.7217H357.768V33.7237L359.756 31.7217H361.408L362.71 33.0377V38.7217H362.164ZM367.427 38.7217L366.083 37.3497V32.2397H364.249V31.7217H366.083V29.8177H366.629V31.7217H369.457V32.2397H366.629V37.1257L367.665 38.2037H369.499V38.7217H367.427ZM371.523 30.4477V28.9217H372.069V30.4477H371.523ZM371.523 38.7217V31.7217H372.069V38.7217H371.523ZM384.701 38.7217V33.2477L383.651 32.2397H382.629L380.333 34.4937V38.7217H379.787V33.2477L378.737 32.2397H377.701L375.419 34.4797V38.7217H374.873V31.7217H375.419V33.7237L377.449 31.7217H379.003L380.333 33.0377V33.7237L382.377 31.7217H383.917L385.247 33.0377V38.7217H384.701ZM392.282 38.7217V36.7197L390.294 38.7217H388.642L387.34 37.4057V36.2437L388.642 34.9277H392.282V33.2477L391.274 32.2397H387.928V31.7217H391.526L392.828 33.0377V38.7217H392.282ZM392.282 35.4177H388.894L387.886 36.4537V37.1957L388.894 38.2037H390.056L392.282 35.9637V35.4177ZM397.478 38.7217L396.134 37.3497V32.2397H394.3V31.7217H396.134V29.8177H396.68V31.7217H399.508V32.2397H396.68V37.1257L397.716 38.2037H399.55V38.7217H397.478ZM405.385 35.3757H401.773V37.1957L402.767 38.2037H405.875V38.7217H402.529L401.227 37.4057V33.0377L402.529 31.7217H405.385L406.687 33.0377V34.0457L405.385 35.3757ZM406.141 33.2477L405.147 32.2397H402.767L401.773 33.2477V34.8717H405.147L406.141 33.8497V33.2477ZM415.404 38.7217H411.792V38.2037H415.166L416.16 37.1957V36.4817L415.166 35.4457H413.108L411.82 34.1297V33.0377L413.108 31.7217H416.552V32.2397H413.36L412.366 33.2477V33.9057L413.36 34.9277H415.404L416.706 36.2437V37.4057L415.404 38.7217ZM419.96 38.7217L418.672 37.4057V33.0377L419.96 31.7217H422.984V32.2397H420.198L419.218 33.2477V37.1957L420.198 38.2037H423.096V38.7217H419.96ZM429.511 38.7217V36.7197L427.523 38.7217H425.871L424.569 37.4057V36.2437L425.871 34.9277H429.511V33.2477L428.503 32.2397H425.157V31.7217H428.755L430.057 33.0377V38.7217H429.511ZM429.511 35.4177H426.123L425.115 36.4537V37.1957L426.123 38.2037H427.285L429.511 35.9637V35.4177ZM433.964 38.8337L432.718 37.4337V28.9217H433.264V37.2237L434.356 38.4697L433.964 38.8337ZM440.549 35.3757H436.937V37.1957L437.931 38.2037H441.039V38.7217H437.693L436.391 37.4057V33.0377L437.693 31.7217H440.549L441.851 33.0377V34.0457L440.549 35.3757ZM441.305 33.2477L440.311 32.2397H437.931L436.937 33.2477V34.8717H440.311L441.305 33.8497V33.2477Z"/>
</mask>
<path d="M330.05 29.4397V38.7217H329.504V29.4397H326.214V28.9217H333.34V29.4397H330.05ZM339.893 38.7217V33.2617L338.885 32.2397H337.723L335.497 34.5217V38.7217H334.951V28.9217H335.497V33.7517L337.485 31.7217H339.137L340.439 33.0657V38.7217H339.893ZM347.116 35.3757H343.504V37.1957L344.498 38.2037H347.606V38.7217H344.26L342.958 37.4057V33.0377L344.26 31.7217H347.116L348.418 33.0377V34.0457L347.116 35.3757ZM347.872 33.2477L346.878 32.2397H344.498L343.504 33.2477V34.8717H346.878L347.872 33.8497V33.2477ZM353.873 30.4477V28.9217H354.419V30.4477H353.873ZM353.873 38.7217V31.7217H354.419V38.7217H353.873ZM362.164 38.7217V33.2477L361.156 32.2397H359.994L357.768 34.4797V38.7217H357.222V31.7217H357.768V33.7237L359.756 31.7217H361.408L362.71 33.0377V38.7217H362.164ZM367.427 38.7217L366.083 37.3497V32.2397H364.249V31.7217H366.083V29.8177H366.629V31.7217H369.457V32.2397H366.629V37.1257L367.665 38.2037H369.499V38.7217H367.427ZM371.523 30.4477V28.9217H372.069V30.4477H371.523ZM371.523 38.7217V31.7217H372.069V38.7217H371.523ZM384.701 38.7217V33.2477L383.651 32.2397H382.629L380.333 34.4937V38.7217H379.787V33.2477L378.737 32.2397H377.701L375.419 34.4797V38.7217H374.873V31.7217H375.419V33.7237L377.449 31.7217H379.003L380.333 33.0377V33.7237L382.377 31.7217H383.917L385.247 33.0377V38.7217H384.701ZM392.282 38.7217V36.7197L390.294 38.7217H388.642L387.34 37.4057V36.2437L388.642 34.9277H392.282V33.2477L391.274 32.2397H387.928V31.7217H391.526L392.828 33.0377V38.7217H392.282ZM392.282 35.4177H388.894L387.886 36.4537V37.1957L388.894 38.2037H390.056L392.282 35.9637V35.4177ZM397.478 38.7217L396.134 37.3497V32.2397H394.3V31.7217H396.134V29.8177H396.68V31.7217H399.508V32.2397H396.68V37.1257L397.716 38.2037H399.55V38.7217H397.478ZM405.385 35.3757H401.773V37.1957L402.767 38.2037H405.875V38.7217H402.529L401.227 37.4057V33.0377L402.529 31.7217H405.385L406.687 33.0377V34.0457L405.385 35.3757ZM406.141 33.2477L405.147 32.2397H402.767L401.773 33.2477V34.8717H405.147L406.141 33.8497V33.2477ZM415.404 38.7217H411.792V38.2037H415.166L416.16 37.1957V36.4817L415.166 35.4457H413.108L411.82 34.1297V33.0377L413.108 31.7217H416.552V32.2397H413.36L412.366 33.2477V33.9057L413.36 34.9277H415.404L416.706 36.2437V37.4057L415.404 38.7217ZM419.96 38.7217L418.672 37.4057V33.0377L419.96 31.7217H422.984V32.2397H420.198L419.218 33.2477V37.1957L420.198 38.2037H423.096V38.7217H419.96ZM429.511 38.7217V36.7197L427.523 38.7217H425.871L424.569 37.4057V36.2437L425.871 34.9277H429.511V33.2477L428.503 32.2397H425.157V31.7217H428.755L430.057 33.0377V38.7217H429.511ZM429.511 35.4177H426.123L425.115 36.4537V37.1957L426.123 38.2037H427.285L429.511 35.9637V35.4177ZM433.964 38.8337L432.718 37.4337V28.9217H433.264V37.2237L434.356 38.4697L433.964 38.8337ZM440.549 35.3757H436.937V37.1957L437.931 38.2037H441.039V38.7217H437.693L436.391 37.4057V33.0377L437.693 31.7217H440.549L441.851 33.0377V34.0457L440.549 35.3757ZM441.305 33.2477L440.311 32.2397H437.931L436.937 33.2477V34.8717H440.311L441.305 33.8497V33.2477Z" fill="black"/>
<path d="M330.05 29.4397V29.1897H329.8V29.4397H330.05ZM330.05 38.7217V38.9717H330.3V38.7217H330.05ZM329.504 38.7217H329.254V38.9717H329.504V38.7217ZM329.504 29.4397H329.754V29.1897H329.504V29.4397ZM326.214 29.4397H325.964V29.6897H326.214V29.4397ZM326.214 28.9217V28.6717H325.964V28.9217H326.214ZM333.34 28.9217H333.59V28.6717H333.34V28.9217ZM333.34 29.4397V29.6897H333.59V29.4397H333.34ZM330.05 29.4397H329.8V38.7217H330.05H330.3V29.4397H330.05ZM330.05 38.7217V38.4717H329.504V38.7217V38.9717H330.05V38.7217ZM329.504 38.7217H329.754V29.4397H329.504H329.254V38.7217H329.504ZM329.504 29.4397V29.1897H326.214V29.4397V29.6897H329.504V29.4397ZM326.214 29.4397H326.464V28.9217H326.214H325.964V29.4397H326.214ZM326.214 28.9217V29.1717H333.34V28.9217V28.6717H326.214V28.9217ZM333.34 28.9217H333.09V29.4397H333.34H333.59V28.9217H333.34ZM333.34 29.4397V29.1897H330.05V29.4397V29.6897H333.34V29.4397ZM339.893 38.7217H339.643V38.9717H339.893V38.7217ZM339.893 33.2617H340.143V33.1591L340.071 33.0861L339.893 33.2617ZM338.885 32.2397L339.063 32.0641L338.989 31.9897H338.885V32.2397ZM337.723 32.2397V31.9897H337.617L337.544 32.0651L337.723 32.2397ZM335.497 34.5217L335.318 34.3471L335.247 34.4199V34.5217H335.497ZM335.497 38.7217V38.9717H335.747V38.7217H335.497ZM334.951 38.7217H334.701V38.9717H334.951V38.7217ZM334.951 28.9217V28.6717H334.701V28.9217H334.951ZM335.497 28.9217H335.747V28.6717H335.497V28.9217ZM335.497 33.7517H335.247V34.3643L335.675 33.9266L335.497 33.7517ZM337.485 31.7217V31.4717H337.38L337.306 31.5468L337.485 31.7217ZM339.137 31.7217L339.316 31.5477L339.243 31.4717H339.137V31.7217ZM340.439 33.0657H340.689V32.9644L340.618 32.8917L340.439 33.0657ZM340.439 38.7217V38.9717H340.689V38.7217H340.439ZM339.893 38.7217H340.143V33.2617H339.893H339.643V38.7217H339.893ZM339.893 33.2617L340.071 33.0861L339.063 32.0641L338.885 32.2397L338.707 32.4152L339.715 33.4372L339.893 33.2617ZM338.885 32.2397V31.9897H337.723V32.2397V32.4897H338.885V32.2397ZM337.723 32.2397L337.544 32.0651L335.318 34.3471L335.497 34.5217L335.676 34.6962L337.902 32.4142L337.723 32.2397ZM335.497 34.5217H335.247V38.7217H335.497H335.747V34.5217H335.497ZM335.497 38.7217V38.4717H334.951V38.7217V38.9717H335.497V38.7217ZM334.951 38.7217H335.201V28.9217H334.951H334.701V38.7217H334.951ZM334.951 28.9217V29.1717H335.497V28.9217V28.6717H334.951V28.9217ZM335.497 28.9217H335.247V33.7517H335.497H335.747V28.9217H335.497ZM335.497 33.7517L335.675 33.9266L337.663 31.8966L337.485 31.7217L337.306 31.5468L335.318 33.5768L335.497 33.7517ZM337.485 31.7217V31.9717H339.137V31.7217V31.4717H337.485V31.7217ZM339.137 31.7217L338.957 31.8956L340.259 33.2396L340.439 33.0657L340.618 32.8917L339.316 31.5477L339.137 31.7217ZM340.439 33.0657H340.189V38.7217H340.439H340.689V33.0657H340.439ZM340.439 38.7217V38.4717H339.893V38.7217V38.9717H340.439V38.7217ZM347.116 35.3757V35.6257H347.221L347.294 35.5506L347.116 35.3757ZM343.504 35.3757V35.1257H343.254V35.3757H343.504ZM343.504 37.1957H343.254V37.2982L343.326 37.3712L343.504 37.1957ZM344.498 38.2037L344.32 38.3792L344.393 38.4537H344.498V38.2037ZM347.606 38.2037H347.856V37.9537H347.606V38.2037ZM347.606 38.7217V38.9717H347.856V38.7217H347.606ZM344.26 38.7217L344.082 38.8975L344.155 38.9717H344.26V38.7217ZM342.958 37.4057H342.708V37.5085L342.78 37.5815L342.958 37.4057ZM342.958 33.0377L342.78 32.8619L342.708 32.9349V33.0377H342.958ZM344.26 31.7217V31.4717H344.155L344.082 31.5459L344.26 31.7217ZM347.116 31.7217L347.293 31.5459L347.22 31.4717H347.116V31.7217ZM348.418 33.0377H348.668V32.9349L348.595 32.8619L348.418 33.0377ZM348.418 34.0457L348.596 34.2206L348.668 34.1477V34.0457H348.418ZM347.872 33.2477H348.122V33.1451L348.05 33.0721L347.872 33.2477ZM346.878 32.2397L347.056 32.0641L346.982 31.9897H346.878V32.2397ZM344.498 32.2397V31.9897H344.393L344.32 32.0641L344.498 32.2397ZM343.504 33.2477L343.326 33.0721L343.254 33.1451V33.2477H343.504ZM343.504 34.8717H343.254V35.1217H343.504V34.8717ZM346.878 34.8717V35.1217H346.983L347.057 35.046L346.878 34.8717ZM347.872 33.8497L348.051 34.024L348.122 33.9512V33.8497H347.872ZM347.116 35.3757V35.1257H343.504V35.3757V35.6257H347.116V35.3757ZM343.504 35.3757H343.254V37.1957H343.504H343.754V35.3757H343.504ZM343.504 37.1957L343.326 37.3712L344.32 38.3792L344.498 38.2037L344.676 38.0281L343.682 37.0201L343.504 37.1957ZM344.498 38.2037V38.4537H347.606V38.2037V37.9537H344.498V38.2037ZM347.606 38.2037H347.356V38.7217H347.606H347.856V38.2037H347.606ZM347.606 38.7217V38.4717H344.26V38.7217V38.9717H347.606V38.7217ZM344.26 38.7217L344.437 38.5459L343.135 37.2299L342.958 37.4057L342.78 37.5815L344.082 38.8975L344.26 38.7217ZM342.958 37.4057H343.208V33.0377H342.958H342.708V37.4057H342.958ZM342.958 33.0377L343.135 33.2135L344.437 31.8975L344.26 31.7217L344.082 31.5459L342.78 32.8619L342.958 33.0377ZM344.26 31.7217V31.9717H347.116V31.7217V31.4717H344.26V31.7217ZM347.116 31.7217L346.938 31.8975L348.24 33.2135L348.418 33.0377L348.595 32.8619L347.293 31.5459L347.116 31.7217ZM348.418 33.0377H348.168V34.0457H348.418H348.668V33.0377H348.418ZM348.418 34.0457L348.239 33.8708L346.937 35.2008L347.116 35.3757L347.294 35.5506L348.596 34.2206L348.418 34.0457ZM347.872 33.2477L348.05 33.0721L347.056 32.0641L346.878 32.2397L346.7 32.4152L347.694 33.4232L347.872 33.2477ZM346.878 32.2397V31.9897H344.498V32.2397V32.4897H346.878V32.2397ZM344.498 32.2397L344.32 32.0641L343.326 33.0721L343.504 33.2477L343.682 33.4232L344.676 32.4152L344.498 32.2397ZM343.504 33.2477H343.254V34.8717H343.504H343.754V33.2477H343.504ZM343.504 34.8717V35.1217H346.878V34.8717V34.6217H343.504V34.8717ZM346.878 34.8717L347.057 35.046L348.051 34.024L347.872 33.8497L347.692 33.6754L346.698 34.6974L346.878 34.8717ZM347.872 33.8497H348.122V33.2477H347.872H347.622V33.8497H347.872ZM353.873 30.4477H353.623V30.6977H353.873V30.4477ZM353.873 28.9217V28.6717H353.623V28.9217H353.873ZM354.419 28.9217H354.669V28.6717H354.419V28.9217ZM354.419 30.4477V30.6977H354.669V30.4477H354.419ZM353.873 38.7217H353.623V38.9717H353.873V38.7217ZM353.873 31.7217V31.4717H353.623V31.7217H353.873ZM354.419 31.7217H354.669V31.4717H354.419V31.7217ZM354.419 38.7217V38.9717H354.669V38.7217H354.419ZM353.873 30.4477H354.123V28.9217H353.873H353.623V30.4477H353.873ZM353.873 28.9217V29.1717H354.419V28.9217V28.6717H353.873V28.9217ZM354.419 28.9217H354.169V30.4477H354.419H354.669V28.9217H354.419ZM354.419 30.4477V30.1977H353.873V30.4477V30.6977H354.419V30.4477ZM353.873 38.7217H354.123V31.7217H353.873H353.623V38.7217H353.873ZM353.873 31.7217V31.9717H354.419V31.7217V31.4717H353.873V31.7217ZM354.419 31.7217H354.169V38.7217H354.419H354.669V31.7217H354.419ZM354.419 38.7217V38.4717H353.873V38.7217V38.9717H354.419V38.7217ZM362.164 38.7217H361.914V38.9717H362.164V38.7217ZM362.164 33.2477H362.414V33.1441L362.341 33.0709L362.164 33.2477ZM361.156 32.2397L361.333 32.0629L361.26 31.9897H361.156V32.2397ZM359.994 32.2397V31.9897H359.89L359.817 32.0635L359.994 32.2397ZM357.768 34.4797L357.591 34.3035L357.518 34.3766V34.4797H357.768ZM357.768 38.7217V38.9717H358.018V38.7217H357.768ZM357.222 38.7217H356.972V38.9717H357.222V38.7217ZM357.222 31.7217V31.4717H356.972V31.7217H357.222ZM357.768 31.7217H358.018V31.4717H357.768V31.7217ZM357.768 33.7237H357.518V34.3302L357.946 33.8998L357.768 33.7237ZM359.756 31.7217V31.4717H359.652L359.579 31.5455L359.756 31.7217ZM361.408 31.7217L361.586 31.5459L361.513 31.4717H361.408V31.7217ZM362.71 33.0377H362.96V32.9349L362.888 32.8619L362.71 33.0377ZM362.71 38.7217V38.9717H362.96V38.7217H362.71ZM362.164 38.7217H362.414V33.2477H362.164H361.914V38.7217H362.164ZM362.164 33.2477L362.341 33.0709L361.333 32.0629L361.156 32.2397L360.979 32.4165L361.987 33.4245L362.164 33.2477ZM361.156 32.2397V31.9897H359.994V32.2397V32.4897H361.156V32.2397ZM359.994 32.2397L359.817 32.0635L357.591 34.3035L357.768 34.4797L357.946 34.6559L360.172 32.4159L359.994 32.2397ZM357.768 34.4797H357.518V38.7217H357.768H358.018V34.4797H357.768ZM357.768 38.7217V38.4717H357.222V38.7217V38.9717H357.768V38.7217ZM357.222 38.7217H357.472V31.7217H357.222H356.972V38.7217H357.222ZM357.222 31.7217V31.9717H357.768V31.7217V31.4717H357.222V31.7217ZM357.768 31.7217H357.518V33.7237H357.768H358.018V31.7217H357.768ZM357.768 33.7237L357.946 33.8998L359.934 31.8978L359.756 31.7217L359.579 31.5455L357.591 33.5475L357.768 33.7237ZM359.756 31.7217V31.9717H361.408V31.7217V31.4717H359.756V31.7217ZM361.408 31.7217L361.231 31.8975L362.533 33.2135L362.71 33.0377L362.888 32.8619L361.586 31.5459L361.408 31.7217ZM362.71 33.0377H362.46V38.7217H362.71H362.96V33.0377H362.71ZM362.71 38.7217V38.4717H362.164V38.7217V38.9717H362.71V38.7217ZM367.427 38.7217L367.248 38.8966L367.322 38.9717H367.427V38.7217ZM366.083 37.3497H365.833V37.4517L365.904 37.5246L366.083 37.3497ZM366.083 32.2397H366.333V31.9897H366.083V32.2397ZM364.249 32.2397H363.999V32.4897H364.249V32.2397ZM364.249 31.7217V31.4717H363.999V31.7217H364.249ZM366.083 31.7217V31.9717H366.333V31.7217H366.083ZM366.083 29.8177V29.5677H365.833V29.8177H366.083ZM366.629 29.8177H366.879V29.5677H366.629V29.8177ZM366.629 31.7217H366.379V31.9717H366.629V31.7217ZM369.457 31.7217H369.707V31.4717H369.457V31.7217ZM369.457 32.2397V32.4897H369.707V32.2397H369.457ZM366.629 32.2397V31.9897H366.379V32.2397H366.629ZM366.629 37.1257H366.379V37.2263L366.449 37.2989L366.629 37.1257ZM367.665 38.2037L367.485 38.3769L367.559 38.4537H367.665V38.2037ZM369.499 38.2037H369.749V37.9537H369.499V38.2037ZM369.499 38.7217V38.9717H369.749V38.7217H369.499ZM367.427 38.7217L367.606 38.5467L366.262 37.1747L366.083 37.3497L365.904 37.5246L367.248 38.8966L367.427 38.7217ZM366.083 37.3497H366.333V32.2397H366.083H365.833V37.3497H366.083ZM366.083 32.2397V31.9897H364.249V32.2397V32.4897H366.083V32.2397ZM364.249 32.2397H364.499V31.7217H364.249H363.999V32.2397H364.249ZM364.249 31.7217V31.9717H366.083V31.7217V31.4717H364.249V31.7217ZM366.083 31.7217H366.333V29.8177H366.083H365.833V31.7217H366.083ZM366.083 29.8177V30.0677H366.629V29.8177V29.5677H366.083V29.8177ZM366.629 29.8177H366.379V31.7217H366.629H366.879V29.8177H366.629ZM366.629 31.7217V31.9717H369.457V31.7217V31.4717H366.629V31.7217ZM369.457 31.7217H369.207V32.2397H369.457H369.707V31.7217H369.457ZM369.457 32.2397V31.9897H366.629V32.2397V32.4897H369.457V32.2397ZM366.629 32.2397H366.379V37.1257H366.629H366.879V32.2397H366.629ZM366.629 37.1257L366.449 37.2989L367.485 38.3769L367.665 38.2037L367.845 38.0304L366.809 36.9524L366.629 37.1257ZM367.665 38.2037V38.4537H369.499V38.2037V37.9537H367.665V38.2037ZM369.499 38.2037H369.249V38.7217H369.499H369.749V38.2037H369.499ZM369.499 38.7217V38.4717H367.427V38.7217V38.9717H369.499V38.7217ZM371.523 30.4477H371.273V30.6977H371.523V30.4477ZM371.523 28.9217V28.6717H371.273V28.9217H371.523ZM372.069 28.9217H372.319V28.6717H372.069V28.9217ZM372.069 30.4477V30.6977H372.319V30.4477H372.069ZM371.523 38.7217H371.273V38.9717H371.523V38.7217ZM371.523 31.7217V31.4717H371.273V31.7217H371.523ZM372.069 31.7217H372.319V31.4717H372.069V31.7217ZM372.069 38.7217V38.9717H372.319V38.7217H372.069ZM371.523 30.4477H371.773V28.9217H371.523H371.273V30.4477H371.523ZM371.523 28.9217V29.1717H372.069V28.9217V28.6717H371.523V28.9217ZM372.069 28.9217H371.819V30.4477H372.069H372.319V28.9217H372.069ZM372.069 30.4477V30.1977H371.523V30.4477V30.6977H372.069V30.4477ZM371.523 38.7217H371.773V31.7217H371.523H371.273V38.7217H371.523ZM371.523 31.7217V31.9717H372.069V31.7217V31.4717H371.523V31.7217ZM372.069 31.7217H371.819V38.7217H372.069H372.319V31.7217H372.069ZM372.069 38.7217V38.4717H371.523V38.7217V38.9717H372.069V38.7217ZM384.701 38.7217H384.451V38.9717H384.701V38.7217ZM384.701 33.2477H384.951V33.1411L384.874 33.0673L384.701 33.2477ZM383.651 32.2397L383.824 32.0593L383.751 31.9897H383.651V32.2397ZM382.629 32.2397V31.9897H382.526L382.454 32.0613L382.629 32.2397ZM380.333 34.4937L380.158 34.3153L380.083 34.3888V34.4937H380.333ZM380.333 38.7217V38.9717H380.583V38.7217H380.333ZM379.787 38.7217H379.537V38.9717H379.787V38.7217ZM379.787 33.2477H380.037V33.1411L379.96 33.0673L379.787 33.2477ZM378.737 32.2397L378.91 32.0593L378.837 31.9897H378.737V32.2397ZM377.701 32.2397V31.9897H377.598L377.526 32.0613L377.701 32.2397ZM375.419 34.4797L375.244 34.3013L375.169 34.3748V34.4797H375.419ZM375.419 38.7217V38.9717H375.669V38.7217H375.419ZM374.873 38.7217H374.623V38.9717H374.873V38.7217ZM374.873 31.7217V31.4717H374.623V31.7217H374.873ZM375.419 31.7217H375.669V31.4717H375.419V31.7217ZM375.419 33.7237H375.169V34.3214L375.594 33.9017L375.419 33.7237ZM377.449 31.7217V31.4717H377.346L377.273 31.5437L377.449 31.7217ZM379.003 31.7217L379.178 31.544L379.105 31.4717H379.003V31.7217ZM380.333 33.0377H380.583V32.9334L380.508 32.86L380.333 33.0377ZM380.333 33.7237H380.083V34.3185L380.508 33.9023L380.333 33.7237ZM382.377 31.7217V31.4717H382.275L382.202 31.5431L382.377 31.7217ZM383.917 31.7217L384.092 31.544L384.019 31.4717H383.917V31.7217ZM385.247 33.0377H385.497V32.9334L385.422 32.86L385.247 33.0377ZM385.247 38.7217V38.9717H385.497V38.7217H385.247ZM384.701 38.7217H384.951V33.2477H384.701H384.451V38.7217H384.701ZM384.701 33.2477L384.874 33.0673L383.824 32.0593L383.651 32.2397L383.478 32.42L384.528 33.428L384.701 33.2477ZM383.651 32.2397V31.9897H382.629V32.2397V32.4897H383.651V32.2397ZM382.629 32.2397L382.454 32.0613L380.158 34.3153L380.333 34.4937L380.508 34.6721L382.804 32.4181L382.629 32.2397ZM380.333 34.4937H380.083V38.7217H380.333H380.583V34.4937H380.333ZM380.333 38.7217V38.4717H379.787V38.7217V38.9717H380.333V38.7217ZM379.787 38.7217H380.037V33.2477H379.787H379.537V38.7217H379.787ZM379.787 33.2477L379.96 33.0673L378.91 32.0593L378.737 32.2397L378.564 32.42L379.614 33.428L379.787 33.2477ZM378.737 32.2397V31.9897H377.701V32.2397V32.4897H378.737V32.2397ZM377.701 32.2397L377.526 32.0613L375.244 34.3013L375.419 34.4797L375.594 34.6581L377.876 32.4181L377.701 32.2397ZM375.419 34.4797H375.169V38.7217H375.419H375.669V34.4797H375.419ZM375.419 38.7217V38.4717H374.873V38.7217V38.9717H375.419V38.7217ZM374.873 38.7217H375.123V31.7217H374.873H374.623V38.7217H374.873ZM374.873 31.7217V31.9717H375.419V31.7217V31.4717H374.873V31.7217ZM375.419 31.7217H375.169V33.7237H375.419H375.669V31.7217H375.419ZM375.419 33.7237L375.594 33.9017L377.624 31.8997L377.449 31.7217L377.273 31.5437L375.243 33.5457L375.419 33.7237ZM377.449 31.7217V31.9717H379.003V31.7217V31.4717H377.449V31.7217ZM379.003 31.7217L378.827 31.8994L380.157 33.2154L380.333 33.0377L380.508 32.86L379.178 31.544L379.003 31.7217ZM380.333 33.0377H380.083V33.7237H380.333H380.583V33.0377H380.333ZM380.333 33.7237L380.508 33.9023L382.552 31.9003L382.377 31.7217L382.202 31.5431L380.158 33.5451L380.333 33.7237ZM382.377 31.7217V31.9717H383.917V31.7217V31.4717H382.377V31.7217ZM383.917 31.7217L383.741 31.8994L385.071 33.2154L385.247 33.0377L385.422 32.86L384.092 31.544L383.917 31.7217ZM385.247 33.0377H384.997V38.7217H385.247H385.497V33.0377H385.247ZM385.247 38.7217V38.4717H384.701V38.7217V38.9717H385.247V38.7217ZM392.282 38.7217H392.032V38.9717H392.282V38.7217ZM392.282 36.7197H392.532V36.1131L392.105 36.5435L392.282 36.7197ZM390.294 38.7217V38.9717H390.398L390.472 38.8978L390.294 38.7217ZM388.642 38.7217L388.465 38.8975L388.538 38.9717H388.642V38.7217ZM387.34 37.4057H387.09V37.5085L387.163 37.5815L387.34 37.4057ZM387.34 36.2437L387.163 36.0679L387.09 36.1409V36.2437H387.34ZM388.642 34.9277V34.6777H388.538L388.465 34.7519L388.642 34.9277ZM392.282 34.9277V35.1777H392.532V34.9277H392.282ZM392.282 33.2477H392.532V33.1441L392.459 33.0709L392.282 33.2477ZM391.274 32.2397L391.451 32.0629L391.378 31.9897H391.274V32.2397ZM387.928 32.2397H387.678V32.4897H387.928V32.2397ZM387.928 31.7217V31.4717H387.678V31.7217H387.928ZM391.526 31.7217L391.704 31.5459L391.631 31.4717H391.526V31.7217ZM392.828 33.0377H393.078V32.9349L393.006 32.8619L392.828 33.0377ZM392.828 38.7217V38.9717H393.078V38.7217H392.828ZM392.282 35.4177H392.532V35.1677H392.282V35.4177ZM388.894 35.4177V35.1677H388.789L388.715 35.2433L388.894 35.4177ZM387.886 36.4537L387.707 36.2793L387.636 36.3521V36.4537H387.886ZM387.886 37.1957H387.636V37.2992L387.71 37.3725L387.886 37.1957ZM388.894 38.2037L388.718 38.3805L388.791 38.4537H388.894V38.2037ZM390.056 38.2037V38.4537H390.16L390.234 38.3799L390.056 38.2037ZM392.282 35.9637L392.46 36.1399L392.532 36.0668V35.9637H392.282ZM392.282 38.7217H392.532V36.7197H392.282H392.032V38.7217H392.282ZM392.282 36.7197L392.105 36.5435L390.117 38.5455L390.294 38.7217L390.472 38.8978L392.46 36.8958L392.282 36.7197ZM390.294 38.7217V38.4717H388.642V38.7217V38.9717H390.294V38.7217ZM388.642 38.7217L388.82 38.5459L387.518 37.2299L387.34 37.4057L387.163 37.5815L388.465 38.8975L388.642 38.7217ZM387.34 37.4057H387.59V36.2437H387.34H387.09V37.4057H387.34ZM387.34 36.2437L387.518 36.4195L388.82 35.1035L388.642 34.9277L388.465 34.7519L387.163 36.0679L387.34 36.2437ZM388.642 34.9277V35.1777H392.282V34.9277V34.6777H388.642V34.9277ZM392.282 34.9277H392.532V33.2477H392.282H392.032V34.9277H392.282ZM392.282 33.2477L392.459 33.0709L391.451 32.0629L391.274 32.2397L391.098 32.4165L392.106 33.4245L392.282 33.2477ZM391.274 32.2397V31.9897H387.928V32.2397V32.4897H391.274V32.2397ZM387.928 32.2397H388.178V31.7217H387.928H387.678V32.2397H387.928ZM387.928 31.7217V31.9717H391.526V31.7217V31.4717H387.928V31.7217ZM391.526 31.7217L391.349 31.8975L392.651 33.2135L392.828 33.0377L393.006 32.8619L391.704 31.5459L391.526 31.7217ZM392.828 33.0377H392.578V38.7217H392.828H393.078V33.0377H392.828ZM392.828 38.7217V38.4717H392.282V38.7217V38.9717H392.828V38.7217ZM392.282 35.4177V35.1677H388.894V35.4177V35.6677H392.282V35.4177ZM388.894 35.4177L388.715 35.2433L387.707 36.2793L387.886 36.4537L388.065 36.628L389.073 35.592L388.894 35.4177ZM387.886 36.4537H387.636V37.1957H387.886H388.136V36.4537H387.886ZM387.886 37.1957L387.71 37.3725L388.718 38.3805L388.894 38.2037L389.071 38.0269L388.063 37.0189L387.886 37.1957ZM388.894 38.2037V38.4537H390.056V38.2037V37.9537H388.894V38.2037ZM390.056 38.2037L390.234 38.3799L392.46 36.1399L392.282 35.9637L392.105 35.7875L389.879 38.0275L390.056 38.2037ZM392.282 35.9637H392.532V35.4177H392.282H392.032V35.9637H392.282ZM397.478 38.7217L397.299 38.8966L397.373 38.9717H397.478V38.7217ZM396.134 37.3497H395.884V37.4517L395.955 37.5246L396.134 37.3497ZM396.134 32.2397H396.384V31.9897H396.134V32.2397ZM394.3 32.2397H394.05V32.4897H394.3V32.2397ZM394.3 31.7217V31.4717H394.05V31.7217H394.3ZM396.134 31.7217V31.9717H396.384V31.7217H396.134ZM396.134 29.8177V29.5677H395.884V29.8177H396.134ZM396.68 29.8177H396.93V29.5677H396.68V29.8177ZM396.68 31.7217H396.43V31.9717H396.68V31.7217ZM399.508 31.7217H399.758V31.4717H399.508V31.7217ZM399.508 32.2397V32.4897H399.758V32.2397H399.508ZM396.68 32.2397V31.9897H396.43V32.2397H396.68ZM396.68 37.1257H396.43V37.2263L396.5 37.2989L396.68 37.1257ZM397.716 38.2037L397.536 38.3769L397.609 38.4537H397.716V38.2037ZM399.55 38.2037H399.8V37.9537H399.55V38.2037ZM399.55 38.7217V38.9717H399.8V38.7217H399.55ZM397.478 38.7217L397.656 38.5467L396.312 37.1747L396.134 37.3497L395.955 37.5246L397.299 38.8966L397.478 38.7217ZM396.134 37.3497H396.384V32.2397H396.134H395.884V37.3497H396.134ZM396.134 32.2397V31.9897H394.3V32.2397V32.4897H396.134V32.2397ZM394.3 32.2397H394.55V31.7217H394.3H394.05V32.2397H394.3ZM394.3 31.7217V31.9717H396.134V31.7217V31.4717H394.3V31.7217ZM396.134 31.7217H396.384V29.8177H396.134H395.884V31.7217H396.134ZM396.134 29.8177V30.0677H396.68V29.8177V29.5677H396.134V29.8177ZM396.68 29.8177H396.43V31.7217H396.68H396.93V29.8177H396.68ZM396.68 31.7217V31.9717H399.508V31.7217V31.4717H396.68V31.7217ZM399.508 31.7217H399.258V32.2397H399.508H399.758V31.7217H399.508ZM399.508 32.2397V31.9897H396.68V32.2397V32.4897H399.508V32.2397ZM396.68 32.2397H396.43V37.1257H396.68H396.93V32.2397H396.68ZM396.68 37.1257L396.5 37.2989L397.536 38.3769L397.716 38.2037L397.896 38.0304L396.86 36.9524L396.68 37.1257ZM397.716 38.2037V38.4537H399.55V38.2037V37.9537H397.716V38.2037ZM399.55 38.2037H399.3V38.7217H399.55H399.8V38.2037H399.55ZM399.55 38.7217V38.4717H397.478V38.7217V38.9717H399.55V38.7217ZM405.385 35.3757V35.6257H405.49L405.564 35.5506L405.385 35.3757ZM401.773 35.3757V35.1257H401.523V35.3757H401.773ZM401.773 37.1957H401.523V37.2982L401.595 37.3712L401.773 37.1957ZM402.767 38.2037L402.589 38.3792L402.663 38.4537H402.767V38.2037ZM405.875 38.2037H406.125V37.9537H405.875V38.2037ZM405.875 38.7217V38.9717H406.125V38.7217H405.875ZM402.529 38.7217L402.351 38.8975L402.425 38.9717H402.529V38.7217ZM401.227 37.4057H400.977V37.5085L401.049 37.5815L401.227 37.4057ZM401.227 33.0377L401.049 32.8619L400.977 32.9349V33.0377H401.227ZM402.529 31.7217V31.4717H402.425L402.351 31.5459L402.529 31.7217ZM405.385 31.7217L405.563 31.5459L405.489 31.4717H405.385V31.7217ZM406.687 33.0377H406.937V32.9349L406.865 32.8619L406.687 33.0377ZM406.687 34.0457L406.866 34.2206L406.937 34.1477V34.0457H406.687ZM406.141 33.2477H406.391V33.1451L406.319 33.0721L406.141 33.2477ZM405.147 32.2397L405.325 32.0641L405.252 31.9897H405.147V32.2397ZM402.767 32.2397V31.9897H402.663L402.589 32.0641L402.767 32.2397ZM401.773 33.2477L401.595 33.0721L401.523 33.1451V33.2477H401.773ZM401.773 34.8717H401.523V35.1217H401.773V34.8717ZM405.147 34.8717V35.1217H405.253L405.326 35.046L405.147 34.8717ZM406.141 33.8497L406.32 34.024L406.391 33.9512V33.8497H406.141ZM405.385 35.3757V35.1257H401.773V35.3757V35.6257H405.385V35.3757ZM401.773 35.3757H401.523V37.1957H401.773H402.023V35.3757H401.773ZM401.773 37.1957L401.595 37.3712L402.589 38.3792L402.767 38.2037L402.945 38.0281L401.951 37.0201L401.773 37.1957ZM402.767 38.2037V38.4537H405.875V38.2037V37.9537H402.767V38.2037ZM405.875 38.2037H405.625V38.7217H405.875H406.125V38.2037H405.875ZM405.875 38.7217V38.4717H402.529V38.7217V38.9717H405.875V38.7217ZM402.529 38.7217L402.707 38.5459L401.405 37.2299L401.227 37.4057L401.049 37.5815L402.351 38.8975L402.529 38.7217ZM401.227 37.4057H401.477V33.0377H401.227H400.977V37.4057H401.227ZM401.227 33.0377L401.405 33.2135L402.707 31.8975L402.529 31.7217L402.351 31.5459L401.049 32.8619L401.227 33.0377ZM402.529 31.7217V31.9717H405.385V31.7217V31.4717H402.529V31.7217ZM405.385 31.7217L405.207 31.8975L406.509 33.2135L406.687 33.0377L406.865 32.8619L405.563 31.5459L405.385 31.7217ZM406.687 33.0377H406.437V34.0457H406.687H406.937V33.0377H406.687ZM406.687 34.0457L406.508 33.8708L405.206 35.2008L405.385 35.3757L405.564 35.5506L406.866 34.2206L406.687 34.0457ZM406.141 33.2477L406.319 33.0721L405.325 32.0641L405.147 32.2397L404.969 32.4152L405.963 33.4232L406.141 33.2477ZM405.147 32.2397V31.9897H402.767V32.2397V32.4897H405.147V32.2397ZM402.767 32.2397L402.589 32.0641L401.595 33.0721L401.773 33.2477L401.951 33.4232L402.945 32.4152L402.767 32.2397ZM401.773 33.2477H401.523V34.8717H401.773H402.023V33.2477H401.773ZM401.773 34.8717V35.1217H405.147V34.8717V34.6217H401.773V34.8717ZM405.147 34.8717L405.326 35.046L406.32 34.024L406.141 33.8497L405.962 33.6754L404.968 34.6974L405.147 34.8717ZM406.141 33.8497H406.391V33.2477H406.141H405.891V33.8497H406.141ZM415.404 38.7217V38.9717H415.509L415.582 38.8975L415.404 38.7217ZM411.792 38.7217H411.542V38.9717H411.792V38.7217ZM411.792 38.2037V37.9537H411.542V38.2037H411.792ZM415.166 38.2037V38.4537H415.271L415.344 38.3792L415.166 38.2037ZM416.16 37.1957L416.338 37.3712L416.41 37.2982V37.1957H416.16ZM416.16 36.4817H416.41V36.3811L416.341 36.3086L416.16 36.4817ZM415.166 35.4457L415.347 35.2726L415.273 35.1957H415.166V35.4457ZM413.108 35.4457L412.93 35.6205L413.003 35.6957H413.108V35.4457ZM411.82 34.1297H411.57V34.2317L411.642 34.3045L411.82 34.1297ZM411.82 33.0377L411.642 32.8628L411.57 32.9357V33.0377H411.82ZM413.108 31.7217V31.4717H413.003L412.93 31.5468L413.108 31.7217ZM416.552 31.7217H416.802V31.4717H416.552V31.7217ZM416.552 32.2397V32.4897H416.802V32.2397H416.552ZM413.36 32.2397V31.9897H413.256L413.182 32.0641L413.36 32.2397ZM412.366 33.2477L412.188 33.0721L412.116 33.1451V33.2477H412.366ZM412.366 33.9057H412.116V34.0072L412.187 34.08L412.366 33.9057ZM413.36 34.9277L413.181 35.102L413.255 35.1777H413.36V34.9277ZM415.404 34.9277L415.582 34.7519L415.509 34.6777H415.404V34.9277ZM416.706 36.2437H416.956V36.1409L416.884 36.0679L416.706 36.2437ZM416.706 37.4057L416.884 37.5815L416.956 37.5085V37.4057H416.706ZM415.404 38.7217V38.4717H411.792V38.7217V38.9717H415.404V38.7217ZM411.792 38.7217H412.042V38.2037H411.792H411.542V38.7217H411.792ZM411.792 38.2037V38.4537H415.166V38.2037V37.9537H411.792V38.2037ZM415.166 38.2037L415.344 38.3792L416.338 37.3712L416.16 37.1957L415.982 37.0201L414.988 38.0281L415.166 38.2037ZM416.16 37.1957H416.41V36.4817H416.16H415.91V37.1957H416.16ZM416.16 36.4817L416.341 36.3086L415.347 35.2726L415.166 35.4457L414.986 35.6188L415.98 36.6548L416.16 36.4817ZM415.166 35.4457V35.1957H413.108V35.4457V35.6957H415.166V35.4457ZM413.108 35.4457L413.287 35.2708L411.999 33.9548L411.82 34.1297L411.642 34.3045L412.93 35.6205L413.108 35.4457ZM411.82 34.1297H412.07V33.0377H411.82H411.57V34.1297H411.82ZM411.82 33.0377L411.999 33.2125L413.287 31.8965L413.108 31.7217L412.93 31.5468L411.642 32.8628L411.82 33.0377ZM413.108 31.7217V31.9717H416.552V31.7217V31.4717H413.108V31.7217ZM416.552 31.7217H416.302V32.2397H416.552H416.802V31.7217H416.552ZM416.552 32.2397V31.9897H413.36V32.2397V32.4897H416.552V32.2397ZM413.36 32.2397L413.182 32.0641L412.188 33.0721L412.366 33.2477L412.544 33.4232L413.538 32.4152L413.36 32.2397ZM412.366 33.2477H412.116V33.9057H412.366H412.616V33.2477H412.366ZM412.366 33.9057L412.187 34.08L413.181 35.102L413.36 34.9277L413.539 34.7534L412.545 33.7314L412.366 33.9057ZM413.36 34.9277V35.1777H415.404V34.9277V34.6777H413.36V34.9277ZM415.404 34.9277L415.226 35.1035L416.528 36.4195L416.706 36.2437L416.884 36.0679L415.582 34.7519L415.404 34.9277ZM416.706 36.2437H416.456V37.4057H416.706H416.956V36.2437H416.706ZM416.706 37.4057L416.528 37.2299L415.226 38.5459L415.404 38.7217L415.582 38.8975L416.884 37.5815L416.706 37.4057ZM419.96 38.7217L419.782 38.8965L419.855 38.9717H419.96V38.7217ZM418.672 37.4057H418.422V37.5077L418.494 37.5805L418.672 37.4057ZM418.672 33.0377L418.494 32.8628L418.422 32.9357V33.0377H418.672ZM419.96 31.7217V31.4717H419.855L419.782 31.5468L419.96 31.7217ZM422.984 31.7217H423.234V31.4717H422.984V31.7217ZM422.984 32.2397V32.4897H423.234V32.2397H422.984ZM420.198 32.2397V31.9897H420.093L420.019 32.0654L420.198 32.2397ZM419.218 33.2477L419.039 33.0734L418.968 33.1462V33.2477H419.218ZM419.218 37.1957H418.968V37.2972L419.039 37.3699L419.218 37.1957ZM420.198 38.2037L420.019 38.3779L420.093 38.4537H420.198V38.2037ZM423.096 38.2037H423.346V37.9537H423.096V38.2037ZM423.096 38.7217V38.9717H423.346V38.7217H423.096ZM419.96 38.7217L420.139 38.5468L418.851 37.2308L418.672 37.4057L418.494 37.5805L419.782 38.8965L419.96 38.7217ZM418.672 37.4057H418.922V33.0377H418.672H418.422V37.4057H418.672ZM418.672 33.0377L418.851 33.2125L420.139 31.8965L419.96 31.7217L419.782 31.5468L418.494 32.8628L418.672 33.0377ZM419.96 31.7217V31.9717H422.984V31.7217V31.4717H419.96V31.7217ZM422.984 31.7217H422.734V32.2397H422.984H423.234V31.7217H422.984ZM422.984 32.2397V31.9897H420.198V32.2397V32.4897H422.984V32.2397ZM420.198 32.2397L420.019 32.0654L419.039 33.0734L419.218 33.2477L419.398 33.4219L420.378 32.4139L420.198 32.2397ZM419.218 33.2477H418.968V37.1957H419.218H419.468V33.2477H419.218ZM419.218 37.1957L419.039 37.3699L420.019 38.3779L420.198 38.2037L420.378 38.0294L419.398 37.0214L419.218 37.1957ZM420.198 38.2037V38.4537H423.096V38.2037V37.9537H420.198V38.2037ZM423.096 38.2037H422.846V38.7217H423.096H423.346V38.2037H423.096ZM423.096 38.7217V38.4717H419.96V38.7217V38.9717H423.096V38.7217ZM429.511 38.7217H429.261V38.9717H429.511V38.7217ZM429.511 36.7197H429.761V36.1131L429.333 36.5435L429.511 36.7197ZM427.523 38.7217V38.9717H427.627L427.7 38.8978L427.523 38.7217ZM425.871 38.7217L425.693 38.8975L425.766 38.9717H425.871V38.7217ZM424.569 37.4057H424.319V37.5085L424.391 37.5815L424.569 37.4057ZM424.569 36.2437L424.391 36.0679L424.319 36.1409V36.2437H424.569ZM425.871 34.9277V34.6777H425.766L425.693 34.7519L425.871 34.9277ZM429.511 34.9277V35.1777H429.761V34.9277H429.511ZM429.511 33.2477H429.761V33.1441L429.688 33.0709L429.511 33.2477ZM428.503 32.2397L428.68 32.0629L428.606 31.9897H428.503V32.2397ZM425.157 32.2397H424.907V32.4897H425.157V32.2397ZM425.157 31.7217V31.4717H424.907V31.7217H425.157ZM428.755 31.7217L428.933 31.5459L428.859 31.4717H428.755V31.7217ZM430.057 33.0377H430.307V32.9349L430.235 32.8619L430.057 33.0377ZM430.057 38.7217V38.9717H430.307V38.7217H430.057ZM429.511 35.4177H429.761V35.1677H429.511V35.4177ZM426.123 35.4177V35.1677H426.017L425.944 35.2433L426.123 35.4177ZM425.115 36.4537L424.936 36.2793L424.865 36.3521V36.4537H425.115ZM425.115 37.1957H424.865V37.2992L424.938 37.3725L425.115 37.1957ZM426.123 38.2037L425.946 38.3805L426.019 38.4537H426.123V38.2037ZM427.285 38.2037V38.4537H427.389L427.462 38.3799L427.285 38.2037ZM429.511 35.9637L429.688 36.1399L429.761 36.0668V35.9637H429.511ZM429.511 38.7217H429.761V36.7197H429.511H429.261V38.7217H429.511ZM429.511 36.7197L429.333 36.5435L427.345 38.5455L427.523 38.7217L427.7 38.8978L429.688 36.8958L429.511 36.7197ZM427.523 38.7217V38.4717H425.871V38.7217V38.9717H427.523V38.7217ZM425.871 38.7217L426.049 38.5459L424.747 37.2299L424.569 37.4057L424.391 37.5815L425.693 38.8975L425.871 38.7217ZM424.569 37.4057H424.819V36.2437H424.569H424.319V37.4057H424.569ZM424.569 36.2437L424.747 36.4195L426.049 35.1035L425.871 34.9277L425.693 34.7519L424.391 36.0679L424.569 36.2437ZM425.871 34.9277V35.1777H429.511V34.9277V34.6777H425.871V34.9277ZM429.511 34.9277H429.761V33.2477H429.511H429.261V34.9277H429.511ZM429.511 33.2477L429.688 33.0709L428.68 32.0629L428.503 32.2397L428.326 32.4165L429.334 33.4245L429.511 33.2477ZM428.503 32.2397V31.9897H425.157V32.2397V32.4897H428.503V32.2397ZM425.157 32.2397H425.407V31.7217H425.157H424.907V32.2397H425.157ZM425.157 31.7217V31.9717H428.755V31.7217V31.4717H425.157V31.7217ZM428.755 31.7217L428.577 31.8975L429.879 33.2135L430.057 33.0377L430.235 32.8619L428.933 31.5459L428.755 31.7217ZM430.057 33.0377H429.807V38.7217H430.057H430.307V33.0377H430.057ZM430.057 38.7217V38.4717H429.511V38.7217V38.9717H430.057V38.7217ZM429.511 35.4177V35.1677H426.123V35.4177V35.6677H429.511V35.4177ZM426.123 35.4177L425.944 35.2433L424.936 36.2793L425.115 36.4537L425.294 36.628L426.302 35.592L426.123 35.4177ZM425.115 36.4537H424.865V37.1957H425.115H425.365V36.4537H425.115ZM425.115 37.1957L424.938 37.3725L425.946 38.3805L426.123 38.2037L426.3 38.0269L425.292 37.0189L425.115 37.1957ZM426.123 38.2037V38.4537H427.285V38.2037V37.9537H426.123V38.2037ZM427.285 38.2037L427.462 38.3799L429.688 36.1399L429.511 35.9637L429.333 35.7875L427.107 38.0275L427.285 38.2037ZM429.511 35.9637H429.761V35.4177H429.511H429.261V35.9637H429.511ZM433.964 38.8337L433.778 38.9999L433.947 39.1906L434.134 39.0169L433.964 38.8337ZM432.718 37.4337H432.468V37.5288L432.532 37.5999L432.718 37.4337ZM432.718 28.9217V28.6717H432.468V28.9217H432.718ZM433.264 28.9217H433.514V28.6717H433.264V28.9217ZM433.264 37.2237H433.014V37.3177L433.076 37.3885L433.264 37.2237ZM434.356 38.4697L434.526 38.6529L434.704 38.4876L434.544 38.3049L434.356 38.4697ZM433.964 38.8337L434.151 38.6675L432.905 37.2675L432.718 37.4337L432.532 37.5999L433.778 38.9999L433.964 38.8337ZM432.718 37.4337H432.968V28.9217H432.718H432.468V37.4337H432.718ZM432.718 28.9217V29.1717H433.264V28.9217V28.6717H432.718V28.9217ZM433.264 28.9217H433.014V37.2237H433.264H433.514V28.9217H433.264ZM433.264 37.2237L433.076 37.3885L434.168 38.6345L434.356 38.4697L434.544 38.3049L433.452 37.0589L433.264 37.2237ZM434.356 38.4697L434.186 38.2865L433.794 38.6505L433.964 38.8337L434.134 39.0169L434.526 38.6529L434.356 38.4697ZM440.549 35.3757V35.6257H440.654L440.728 35.5506L440.549 35.3757ZM436.937 35.3757V35.1257H436.687V35.3757H436.937ZM436.937 37.1957H436.687V37.2982L436.759 37.3712L436.937 37.1957ZM437.931 38.2037L437.753 38.3792L437.827 38.4537H437.931V38.2037ZM441.039 38.2037H441.289V37.9537H441.039V38.2037ZM441.039 38.7217V38.9717H441.289V38.7217H441.039ZM437.693 38.7217L437.515 38.8975L437.589 38.9717H437.693V38.7217ZM436.391 37.4057H436.141V37.5085L436.213 37.5815L436.391 37.4057ZM436.391 33.0377L436.213 32.8619L436.141 32.9349V33.0377H436.391ZM437.693 31.7217V31.4717H437.589L437.515 31.5459L437.693 31.7217ZM440.549 31.7217L440.727 31.5459L440.654 31.4717H440.549V31.7217ZM441.851 33.0377H442.101V32.9349L442.029 32.8619L441.851 33.0377ZM441.851 34.0457L442.03 34.2206L442.101 34.1477V34.0457H441.851ZM441.305 33.2477H441.555V33.1451L441.483 33.0721L441.305 33.2477ZM440.311 32.2397L440.489 32.0641L440.416 31.9897H440.311V32.2397ZM437.931 32.2397V31.9897H437.827L437.753 32.0641L437.931 32.2397ZM436.937 33.2477L436.759 33.0721L436.687 33.1451V33.2477H436.937ZM436.937 34.8717H436.687V35.1217H436.937V34.8717ZM440.311 34.8717V35.1217H440.417L440.49 35.046L440.311 34.8717ZM441.305 33.8497L441.484 34.024L441.555 33.9512V33.8497H441.305ZM440.549 35.3757V35.1257H436.937V35.3757V35.6257H440.549V35.3757ZM436.937 35.3757H436.687V37.1957H436.937H437.187V35.3757H436.937ZM436.937 37.1957L436.759 37.3712L437.753 38.3792L437.931 38.2037L438.109 38.0281L437.115 37.0201L436.937 37.1957ZM437.931 38.2037V38.4537H441.039V38.2037V37.9537H437.931V38.2037ZM441.039 38.2037H440.789V38.7217H441.039H441.289V38.2037H441.039ZM441.039 38.7217V38.4717H437.693V38.7217V38.9717H441.039V38.7217ZM437.693 38.7217L437.871 38.5459L436.569 37.2299L436.391 37.4057L436.213 37.5815L437.515 38.8975L437.693 38.7217ZM436.391 37.4057H436.641V33.0377H436.391H436.141V37.4057H436.391ZM436.391 33.0377L436.569 33.2135L437.871 31.8975L437.693 31.7217L437.515 31.5459L436.213 32.8619L436.391 33.0377ZM437.693 31.7217V31.9717H440.549V31.7217V31.4717H437.693V31.7217ZM440.549 31.7217L440.371 31.8975L441.673 33.2135L441.851 33.0377L442.029 32.8619L440.727 31.5459L440.549 31.7217ZM441.851 33.0377H441.601V34.0457H441.851H442.101V33.0377H441.851ZM441.851 34.0457L441.673 33.8708L440.371 35.2008L440.549 35.3757L440.728 35.5506L442.03 34.2206L441.851 34.0457ZM441.305 33.2477L441.483 33.0721L440.489 32.0641L440.311 32.2397L440.133 32.4152L441.127 33.4232L441.305 33.2477ZM440.311 32.2397V31.9897H437.931V32.2397V32.4897H440.311V32.2397ZM437.931 32.2397L437.753 32.0641L436.759 33.0721L436.937 33.2477L437.115 33.4232L438.109 32.4152L437.931 32.2397ZM436.937 33.2477H436.687V34.8717H436.937H437.187V33.2477H436.937ZM436.937 34.8717V35.1217H440.311V34.8717V34.6217H436.937V34.8717ZM440.311 34.8717L440.49 35.046L441.484 34.024L441.305 33.8497L441.126 33.6754L440.132 34.6974L440.311 34.8717ZM441.305 33.8497H441.555V33.2477H441.305H441.055V33.8497H441.305Z" fill="black" mask="url(#path-2-outside-1_268_38)"/>
<path d="M326.178 69.7217V61.1417H329.178C331.674 61.1417 332.754 62.9417 332.754 65.4617C332.754 67.9817 331.59 69.7217 329.094 69.7217H326.178ZM326.802 69.1697H329.07C331.146 69.1697 332.106 67.7297 332.106 65.4617C332.106 63.1937 331.23 61.7057 329.154 61.7057H326.802V69.1697ZM336.264 69.8777C334.44 69.8777 333.456 68.5337 333.456 66.6257C333.456 64.7177 334.524 63.3857 336.216 63.3857C336.888 63.3857 337.44 63.6017 337.848 63.9857C338.532 64.6217 338.76 65.5097 338.748 66.6857H334.056C334.068 68.1737 334.74 69.3617 336.264 69.3617C337.38 69.3617 337.896 68.7137 338.148 67.8737H338.712C338.46 69.0257 337.644 69.8777 336.264 69.8777ZM334.068 66.2057H338.148C338.112 64.9817 337.584 63.8897 336.216 63.8897C334.872 63.8897 334.188 64.8977 334.068 66.2057ZM341.703 69.8777C340.083 69.8777 339.315 68.9177 339.255 67.8497H339.855C339.939 68.8697 340.671 69.3737 341.703 69.3737C342.747 69.3737 343.371 68.8577 343.371 68.0417C343.371 67.3697 343.047 67.1057 341.679 66.7817C340.407 66.4817 339.459 66.1457 339.459 65.0417C339.459 64.0097 340.395 63.3857 341.571 63.3857C342.999 63.3857 343.635 64.1417 343.779 65.1497H343.203C343.119 64.3577 342.507 63.9017 341.571 63.9017C340.563 63.9017 340.047 64.3817 340.047 65.0297C340.047 65.7497 340.623 65.9537 341.895 66.2537C343.143 66.5417 343.959 66.8777 343.959 68.0537C343.959 69.0617 343.155 69.8777 341.703 69.8777ZM345.178 62.3657C344.938 62.3657 344.77 62.1737 344.77 61.9457C344.77 61.7177 344.938 61.5377 345.178 61.5377C345.418 61.5377 345.598 61.7177 345.598 61.9457C345.598 62.1737 345.418 62.3657 345.178 62.3657ZM344.878 69.7217V63.5177H345.466V69.7217H344.878ZM349.057 69.1697C350.401 69.1697 351.169 68.1737 351.169 66.5657C351.169 65.0297 350.473 63.8897 349.093 63.8897C347.821 63.8897 347.005 64.9457 347.005 66.5657C347.005 68.0297 347.653 69.1697 349.057 69.1697ZM349.105 71.9657C347.629 71.9657 346.813 71.2457 346.717 70.4057H347.305C347.473 71.1497 348.205 71.4617 349.081 71.4617C350.521 71.4617 351.121 70.6577 351.121 69.5537V68.4977H351.085C350.629 69.2657 350.005 69.6617 349.033 69.6617C347.377 69.6617 346.405 68.4017 346.405 66.5537C346.405 64.4897 347.629 63.3857 349.069 63.3857C350.065 63.3857 350.677 63.8657 351.085 64.5857H351.121V63.5177H351.709V69.5417C351.709 70.2497 351.493 70.8257 351.097 71.2457C350.629 71.7137 349.993 71.9657 349.105 71.9657ZM352.905 69.7217V63.5177H353.493V64.5617H353.517C353.925 63.9017 354.621 63.3977 355.677 63.3977C356.733 63.3977 357.573 64.0577 357.573 65.2937V69.7217H356.985V65.3537C356.985 64.3337 356.433 63.9017 355.569 63.9017C354.465 63.9017 353.493 64.6817 353.493 65.7137V69.7217H352.905ZM362.247 69.7697C361.611 69.7697 361.191 69.4457 361.191 68.7137V64.0097H360.231V63.5177H361.191V61.6457H361.779V63.5177H362.907V64.0097H361.779V68.6657C361.779 69.1217 361.959 69.2657 362.367 69.2657C362.523 69.2657 362.727 69.2177 362.835 69.1577H362.871V69.6617C362.679 69.7337 362.499 69.7697 362.247 69.7697ZM363.91 69.7217V61.1417H364.498V64.5617H364.522C364.93 63.9017 365.626 63.3977 366.682 63.3977C367.738 63.3977 368.578 64.0577 368.578 65.2937V69.7217H367.99V65.3537C367.99 64.3337 367.438 63.9017 366.574 63.9017C365.47 63.9017 364.498 64.6817 364.498 65.7137V69.7217H363.91ZM371.449 69.3857C372.853 69.3857 373.657 68.4497 373.657 67.5137V66.3617C373.225 66.5777 372.565 66.6617 371.929 66.7337C370.837 66.8537 370.009 66.9977 370.009 68.1737C370.009 69.0497 370.657 69.3857 371.449 69.3857ZM371.389 69.8777C370.249 69.8777 369.409 69.2897 369.409 68.1497C369.409 66.6737 370.561 66.3737 371.857 66.2417C373.321 66.0977 373.657 66.0257 373.657 65.4497V65.2337C373.657 64.2977 373.105 63.8897 372.097 63.8897C370.933 63.8897 370.309 64.3697 370.225 65.2817H369.625C369.745 64.0817 370.549 63.3857 372.097 63.3857C373.477 63.3857 374.245 63.9977 374.245 65.2697V68.9177C374.245 69.2537 374.425 69.3497 374.641 69.3497C374.725 69.3497 374.821 69.3257 374.929 69.2897H374.965V69.7217C374.869 69.7697 374.725 69.8177 374.485 69.8177C374.005 69.8177 373.669 69.5537 373.669 68.9777V68.7617H373.633C373.285 69.2537 372.661 69.8777 371.389 69.8777ZM376.989 69.7697C376.353 69.7697 375.933 69.4457 375.933 68.7137V64.0097H374.973V63.5177H375.933V61.6457H376.521V63.5177H377.649V64.0097H376.521V68.6657C376.521 69.1217 376.701 69.2657 377.109 69.2657C377.265 69.2657 377.469 69.2177 377.577 69.1577H377.613V69.6617C377.421 69.7337 377.241 69.7697 376.989 69.7697ZM382.11 69.7697C381.474 69.7697 381.054 69.4457 381.054 68.7137V64.0097H380.094V63.5177H381.054V61.6457H381.642V63.5177H382.77V64.0097H381.642V68.6657C381.642 69.1217 381.822 69.2657 382.23 69.2657C382.386 69.2657 382.59 69.2177 382.698 69.1577H382.734V69.6617C382.542 69.7337 382.362 69.7697 382.11 69.7697ZM386.021 69.8777C384.282 69.8777 383.238 68.4977 383.238 66.6257C383.238 64.7537 384.282 63.3857 386.021 63.3857C387.774 63.3857 388.806 64.7537 388.806 66.6257C388.806 68.4977 387.774 69.8777 386.021 69.8777ZM386.021 69.3737C387.45 69.3737 388.206 68.1377 388.206 66.6257C388.206 65.1137 387.45 63.8777 386.021 63.8777C384.594 63.8777 383.838 65.1137 383.838 66.6257C383.838 68.1377 384.594 69.3737 386.021 69.3737ZM391.646 69.8657C390.506 69.8657 389.654 69.1817 389.654 67.9457V63.5177H390.242V67.8857C390.242 68.9057 390.83 69.3617 391.754 69.3617C392.846 69.3617 393.662 68.5337 393.662 67.4417V63.5177H394.25V69.7217H393.662V68.7737H393.638C393.23 69.3737 392.69 69.8657 391.646 69.8657ZM397.844 69.8777C396.056 69.8777 395.144 68.4977 395.144 66.6257C395.144 64.7537 396.08 63.3857 397.856 63.3857C399.152 63.3857 400.052 64.0577 400.244 65.3057H399.668C399.464 64.3217 398.828 63.8897 397.856 63.8897C396.356 63.8897 395.744 65.1377 395.744 66.6257C395.744 68.1137 396.368 69.3617 397.844 69.3617C398.924 69.3617 399.632 68.6417 399.764 67.6217H400.316C400.16 68.9657 399.272 69.8777 397.844 69.8777ZM401.164 69.7217V61.1417H401.752V64.5617H401.776C402.184 63.9017 402.88 63.3977 403.936 63.3977C404.992 63.3977 405.832 64.0577 405.832 65.2937V69.7217H405.244V65.3537C405.244 64.3337 404.692 63.9017 403.828 63.9017C402.724 63.9017 401.752 64.6817 401.752 65.7137V69.7217H401.164ZM409.495 69.8777C407.671 69.8777 406.687 68.5337 406.687 66.6257C406.687 64.7177 407.755 63.3857 409.447 63.3857C410.119 63.3857 410.671 63.6017 411.079 63.9857C411.763 64.6217 411.991 65.5097 411.979 66.6857H407.287C407.299 68.1737 407.971 69.3617 409.495 69.3617C410.611 69.3617 411.127 68.7137 411.379 67.8737H411.943C411.691 69.0257 410.875 69.8777 409.495 69.8777ZM407.299 66.2057H411.379C411.343 64.9817 410.815 63.8897 409.447 63.8897C408.103 63.8897 407.419 64.8977 407.299 66.2057ZM414.933 69.8777C413.313 69.8777 412.545 68.9177 412.485 67.8497H413.085C413.169 68.8697 413.901 69.3737 414.933 69.3737C415.977 69.3737 416.601 68.8577 416.601 68.0417C416.601 67.3697 416.277 67.1057 414.909 66.7817C413.637 66.4817 412.689 66.1457 412.689 65.0417C412.689 64.0097 413.625 63.3857 414.801 63.3857C416.229 63.3857 416.865 64.1417 417.009 65.1497H416.433C416.349 64.3577 415.737 63.9017 414.801 63.9017C413.793 63.9017 413.277 64.3817 413.277 65.0297C413.277 65.7497 413.853 65.9537 415.125 66.2537C416.373 66.5417 417.189 66.8777 417.189 68.0537C417.189 69.0617 416.385 69.8777 414.933 69.8777ZM422.058 69.8777C420.438 69.8777 419.67 68.9177 419.61 67.8497H420.21C420.294 68.8697 421.026 69.3737 422.058 69.3737C423.102 69.3737 423.726 68.8577 423.726 68.0417C423.726 67.3697 423.402 67.1057 422.034 66.7817C420.762 66.4817 419.814 66.1457 419.814 65.0417C419.814 64.0097 420.75 63.3857 421.926 63.3857C423.354 63.3857 423.99 64.1417 424.134 65.1497H423.558C423.474 64.3577 422.862 63.9017 421.926 63.9017C420.918 63.9017 420.402 64.3817 420.402 65.0297C420.402 65.7497 420.978 65.9537 422.25 66.2537C423.498 66.5417 424.314 66.8777 424.314 68.0537C424.314 69.0617 423.51 69.8777 422.058 69.8777ZM425.198 69.7217V61.1417H425.786V66.7217L429.122 63.5177H429.866L427.502 65.7617L430.154 69.7217H429.482L427.082 66.1577L425.786 67.4057V69.7217H425.198ZM431.135 62.3657C430.895 62.3657 430.727 62.1737 430.727 61.9457C430.727 61.7177 430.895 61.5377 431.135 61.5377C431.375 61.5377 431.555 61.7177 431.555 61.9457C431.555 62.1737 431.375 62.3657 431.135 62.3657ZM430.835 69.7217V63.5177H431.423V69.7217H430.835ZM432.663 69.7217V63.5177H433.251V64.5617H433.275C433.683 63.9017 434.379 63.3977 435.435 63.3977C436.491 63.3977 437.331 64.0577 437.331 65.2937V69.7217H436.743V65.3537C436.743 64.3337 436.191 63.9017 435.327 63.9017C434.223 63.9017 433.251 64.6817 433.251 65.7137V69.7217H432.663ZM438.343 70.8497V70.4297C438.607 70.2377 438.703 70.0217 438.715 69.7337C438.487 69.7217 438.319 69.5657 438.319 69.3137C438.319 69.0857 438.487 68.9057 438.727 68.9057C439.003 68.9057 439.171 69.1697 439.171 69.5897C439.171 70.1537 438.871 70.6217 438.343 70.8497ZM444.183 69.8777C442.563 69.8777 441.795 68.9177 441.735 67.8497H442.335C442.419 68.8697 443.151 69.3737 444.183 69.3737C445.227 69.3737 445.851 68.8577 445.851 68.0417C445.851 67.3697 445.527 67.1057 444.159 66.7817C442.887 66.4817 441.939 66.1457 441.939 65.0417C441.939 64.0097 442.875 63.3857 444.051 63.3857C445.479 63.3857 446.115 64.1417 446.259 65.1497H445.683C445.599 64.3577 444.987 63.9017 444.051 63.9017C443.043 63.9017 442.527 64.3817 442.527 65.0297C442.527 65.7497 443.103 65.9537 444.375 66.2537C445.623 66.5417 446.439 66.8777 446.439 68.0537C446.439 69.0617 445.635 69.8777 444.183 69.8777ZM449.267 69.8657C448.127 69.8657 447.275 69.1817 447.275 67.9457V63.5177H447.863V67.8857C447.863 68.9057 448.451 69.3617 449.375 69.3617C450.467 69.3617 451.283 68.5337 451.283 67.4417V63.5177H451.871V69.7217H451.283V68.7737H451.259C450.851 69.3737 450.311 69.8657 449.267 69.8657ZM455.777 69.3617C457.109 69.3617 457.757 68.1017 457.757 66.6257C457.757 64.9697 457.037 63.8897 455.765 63.8897C454.385 63.8897 453.593 65.0777 453.593 66.6497C453.593 68.2937 454.373 69.3617 455.777 69.3617ZM453.065 71.7137V63.5177H453.653V64.7057H453.677C454.097 63.9137 454.805 63.3857 455.849 63.3857C457.289 63.3857 458.357 64.5497 458.357 66.6137C458.357 68.4617 457.397 69.8537 455.801 69.8537C454.769 69.8537 454.121 69.4097 453.677 68.7017H453.653V71.7137H453.065ZM461.964 69.3617C463.296 69.3617 463.944 68.1017 463.944 66.6257C463.944 64.9697 463.224 63.8897 461.952 63.8897C460.572 63.8897 459.78 65.0777 459.78 66.6497C459.78 68.2937 460.56 69.3617 461.964 69.3617ZM459.252 71.7137V63.5177H459.84V64.7057H459.864C460.284 63.9137 460.992 63.3857 462.036 63.3857C463.476 63.3857 464.544 64.5497 464.544 66.6137C464.544 68.4617 463.584 69.8537 461.988 69.8537C460.956 69.8537 460.308 69.4097 459.864 68.7017H459.84V71.7137H459.252ZM467.924 69.8777C466.184 69.8777 465.14 68.4977 465.14 66.6257C465.14 64.7537 466.184 63.3857 467.924 63.3857C469.676 63.3857 470.708 64.7537 470.708 66.6257C470.708 68.4977 469.676 69.8777 467.924 69.8777ZM467.924 69.3737C469.352 69.3737 470.108 68.1377 470.108 66.6257C470.108 65.1137 469.352 63.8777 467.924 63.8777C466.496 63.8777 465.74 65.1137 465.74 66.6257C465.74 68.1377 466.496 69.3737 467.924 69.3737ZM471.604 69.7217V63.5177H472.192V64.7417H472.216C472.612 63.9497 473.26 63.4817 474.148 63.4817H474.232V64.0697C473.812 64.0457 473.38 64.1297 473.008 64.4177C472.516 64.8017 472.192 65.3897 472.192 66.1337V69.7217H471.604ZM476.727 69.7697C476.091 69.7697 475.671 69.4457 475.671 68.7137V64.0097H474.711V63.5177H475.671V61.6457H476.259V63.5177H477.387V64.0097H476.259V68.6657C476.259 69.1217 476.439 69.2657 476.847 69.2657C477.003 69.2657 477.207 69.2177 477.315 69.1577H477.351V69.6617C477.159 69.7337 476.979 69.7697 476.727 69.7697ZM480.265 69.8777C478.645 69.8777 477.877 68.9177 477.817 67.8497H478.417C478.501 68.8697 479.233 69.3737 480.265 69.3737C481.309 69.3737 481.933 68.8577 481.933 68.0417C481.933 67.3697 481.609 67.1057 480.241 66.7817C478.969 66.4817 478.021 66.1457 478.021 65.0417C478.021 64.0097 478.957 63.3857 480.133 63.3857C481.561 63.3857 482.197 64.1417 482.341 65.1497H481.765C481.681 64.3577 481.069 63.9017 480.133 63.9017C479.125 63.9017 478.609 64.3817 478.609 65.0297C478.609 65.7497 479.185 65.9537 480.457 66.2537C481.705 66.5417 482.521 66.8777 482.521 68.0537C482.521 69.0617 481.717 69.8777 480.265 69.8777ZM485.338 69.7217V63.5177H485.926V64.4897H485.95C486.358 63.8537 486.91 63.3977 487.87 63.3977C488.638 63.3977 489.31 63.7817 489.55 64.5377H489.586C489.994 63.8297 490.678 63.3977 491.638 63.3977C492.67 63.3977 493.51 64.0577 493.51 65.2937V69.7217H492.922V65.3537C492.922 64.3337 492.358 63.9017 491.506 63.9017C490.534 63.9017 489.718 64.5257 489.718 65.7137V69.7217H489.13V65.3537C489.13 64.3337 488.542 63.9017 487.762 63.9017C486.79 63.9017 485.926 64.6817 485.926 65.7137V69.7217H485.338ZM497.15 69.8777C495.41 69.8777 494.366 68.4977 494.366 66.6257C494.366 64.7537 495.41 63.3857 497.15 63.3857C498.902 63.3857 499.934 64.7537 499.934 66.6257C499.934 68.4977 498.902 69.8777 497.15 69.8777ZM497.15 69.3737C498.578 69.3737 499.334 68.1377 499.334 66.6257C499.334 65.1137 498.578 63.8777 497.15 63.8777C495.722 63.8777 494.966 65.1137 494.966 66.6257C494.966 68.1377 495.722 69.3737 497.15 69.3737ZM502.371 69.7217L500.163 63.5177H500.787L502.155 67.4537C502.371 68.0897 502.719 69.1937 502.719 69.1937H502.743C502.743 69.1937 503.103 68.0897 503.331 67.4537L504.771 63.5177H505.371L503.103 69.7217H502.371ZM508.413 69.8777C506.589 69.8777 505.605 68.5337 505.605 66.6257C505.605 64.7177 506.673 63.3857 508.365 63.3857C509.037 63.3857 509.589 63.6017 509.997 63.9857C510.681 64.6217 510.909 65.5097 510.897 66.6857H506.205C506.217 68.1737 506.889 69.3617 508.413 69.3617C509.529 69.3617 510.045 68.7137 510.297 67.8737H510.861C510.609 69.0257 509.793 69.8777 508.413 69.8777ZM506.217 66.2057H510.297C510.261 64.9817 509.733 63.8897 508.365 63.8897C507.021 63.8897 506.337 64.8977 506.217 66.2057ZM511.799 69.7217V63.5177H512.387V64.4897H512.411C512.819 63.8537 513.371 63.3977 514.331 63.3977C515.099 63.3977 515.771 63.7817 516.011 64.5377H516.047C516.455 63.8297 517.139 63.3977 518.099 63.3977C519.131 63.3977 519.971 64.0577 519.971 65.2937V69.7217H519.383V65.3537C519.383 64.3337 518.819 63.9017 517.967 63.9017C516.995 63.9017 516.179 64.5257 516.179 65.7137V69.7217H515.591V65.3537C515.591 64.3337 515.003 63.9017 514.223 63.9017C513.251 63.9017 512.387 64.6817 512.387 65.7137V69.7217H511.799ZM523.635 69.8777C521.811 69.8777 520.827 68.5337 520.827 66.6257C520.827 64.7177 521.895 63.3857 523.587 63.3857C524.259 63.3857 524.811 63.6017 525.219 63.9857C525.903 64.6217 526.131 65.5097 526.119 66.6857H521.427C521.439 68.1737 522.111 69.3617 523.635 69.3617C524.751 69.3617 525.267 68.7137 525.519 67.8737H526.083C525.831 69.0257 525.015 69.8777 523.635 69.8777ZM521.439 66.2057H525.519C525.483 64.9817 524.955 63.8897 523.587 63.8897C522.243 63.8897 521.559 64.8977 521.439 66.2057ZM527.022 69.7217V63.5177H527.61V64.5617H527.634C528.042 63.9017 528.738 63.3977 529.794 63.3977C530.85 63.3977 531.69 64.0577 531.69 65.2937V69.7217H531.102V65.3537C531.102 64.3337 530.55 63.9017 529.686 63.9017C528.582 63.9017 527.61 64.6817 527.61 65.7137V69.7217H527.022ZM534.313 69.7697C533.677 69.7697 533.257 69.4457 533.257 68.7137V64.0097H532.297V63.5177H533.257V61.6457H533.845V63.5177H534.973V64.0097H533.845V68.6657C533.845 69.1217 534.025 69.2657 534.433 69.2657C534.589 69.2657 534.793 69.2177 534.901 69.1577H534.937V69.6617C534.745 69.7337 534.565 69.7697 534.313 69.7697ZM535.772 70.8497V70.4297C536.036 70.2377 536.132 70.0217 536.144 69.7337C535.916 69.7217 535.748 69.5657 535.748 69.3137C535.748 69.0857 535.916 68.9057 536.156 68.9057C536.432 68.9057 536.6 69.1697 536.6 69.5897C536.6 70.1537 536.3 70.6217 535.772 70.8497ZM327.75 87.3857C329.154 87.3857 329.958 86.4497 329.958 85.5137V84.3617C329.526 84.5777 328.866 84.6617 328.23 84.7337C327.138 84.8537 326.31 84.9977 326.31 86.1737C326.31 87.0497 326.958 87.3857 327.75 87.3857ZM327.69 87.8777C326.55 87.8777 325.71 87.2897 325.71 86.1497C325.71 84.6737 326.862 84.3737 328.158 84.2417C329.622 84.0977 329.958 84.0257 329.958 83.4497V83.2337C329.958 82.2977 329.406 81.8897 328.398 81.8897C327.234 81.8897 326.61 82.3697 326.526 83.2817H325.926C326.046 82.0817 326.85 81.3857 328.398 81.3857C329.778 81.3857 330.546 81.9977 330.546 83.2697V86.9177C330.546 87.2537 330.726 87.3497 330.942 87.3497C331.026 87.3497 331.122 87.3257 331.23 87.2897H331.266V87.7217C331.17 87.7697 331.026 87.8177 330.786 87.8177C330.306 87.8177 329.97 87.5537 329.97 86.9777V86.7617H329.934C329.586 87.2537 328.962 87.8777 327.69 87.8777ZM331.94 87.7217V81.5177H332.528V82.5617H332.552C332.96 81.9017 333.656 81.3977 334.712 81.3977C335.768 81.3977 336.608 82.0577 336.608 83.2937V87.7217H336.02V83.3537C336.02 82.3337 335.468 81.9017 334.604 81.9017C333.5 81.9017 332.528 82.6817 332.528 83.7137V87.7217H331.94ZM340.104 87.3857C341.448 87.3857 342.252 86.2937 342.252 84.6497C342.252 83.0777 341.496 81.8897 340.116 81.8897C338.844 81.8897 338.064 82.9937 338.064 84.6497C338.064 86.1377 338.712 87.3857 340.104 87.3857ZM340.08 87.8777C338.424 87.8777 337.464 86.4857 337.464 84.6377C337.464 82.5737 338.628 81.3857 340.068 81.3857C341.064 81.3857 341.772 81.8537 342.168 82.6457H342.192V79.1417H342.78V87.7217H342.192V86.6897H342.168C341.712 87.4577 341.052 87.8777 340.08 87.8777ZM348.417 87.8777C346.593 87.8777 345.609 86.5337 345.609 84.6257C345.609 82.7177 346.677 81.3857 348.369 81.3857C349.041 81.3857 349.593 81.6017 350.001 81.9857C350.685 82.6217 350.913 83.5097 350.901 84.6857H346.209C346.221 86.1737 346.893 87.3617 348.417 87.3617C349.533 87.3617 350.049 86.7137 350.301 85.8737H350.865C350.613 87.0257 349.797 87.8777 348.417 87.8777ZM346.221 84.2057H350.301C350.265 82.9817 349.737 81.8897 348.369 81.8897C347.025 81.8897 346.341 82.8977 346.221 84.2057ZM350.948 87.7217L353.264 84.4217L351.188 81.5177H351.884L353.6 84.0017H353.624L355.292 81.5177H355.976L353.984 84.4097L356.324 87.7217H355.628L353.636 84.8297H353.612L351.632 87.7217H350.948ZM358.497 87.7697C357.861 87.7697 357.441 87.4457 357.441 86.7137V82.0097H356.481V81.5177H357.441V79.6457H358.029V81.5177H359.157V82.0097H358.029V86.6657C358.029 87.1217 358.209 87.2657 358.617 87.2657C358.773 87.2657 358.977 87.2177 359.085 87.1577H359.121V87.6617C358.929 87.7337 358.749 87.7697 358.497 87.7697ZM362.432 87.8777C360.608 87.8777 359.624 86.5337 359.624 84.6257C359.624 82.7177 360.692 81.3857 362.384 81.3857C363.056 81.3857 363.608 81.6017 364.016 81.9857C364.7 82.6217 364.928 83.5097 364.916 84.6857H360.224C360.236 86.1737 360.908 87.3617 362.432 87.3617C363.548 87.3617 364.064 86.7137 364.316 85.8737H364.88C364.628 87.0257 363.812 87.8777 362.432 87.8777ZM360.236 84.2057H364.316C364.28 82.9817 363.752 81.8897 362.384 81.8897C361.04 81.8897 360.356 82.8977 360.236 84.2057ZM365.819 87.7217V81.5177H366.407V82.5617H366.431C366.839 81.9017 367.535 81.3977 368.591 81.3977C369.647 81.3977 370.487 82.0577 370.487 83.2937V87.7217H369.899V83.3537C369.899 82.3337 369.347 81.9017 368.483 81.9017C367.379 81.9017 366.407 82.6817 366.407 83.7137V87.7217H365.819ZM373.983 87.3857C375.327 87.3857 376.131 86.2937 376.131 84.6497C376.131 83.0777 375.375 81.8897 373.995 81.8897C372.723 81.8897 371.943 82.9937 371.943 84.6497C371.943 86.1377 372.591 87.3857 373.983 87.3857ZM373.959 87.8777C372.303 87.8777 371.343 86.4857 371.343 84.6377C371.343 82.5737 372.507 81.3857 373.947 81.3857C374.943 81.3857 375.651 81.8537 376.047 82.6457H376.071V79.1417H376.659V87.7217H376.071V86.6897H376.047C375.591 87.4577 374.931 87.8777 373.959 87.8777ZM379.906 87.8777C378.286 87.8777 377.518 86.9177 377.458 85.8497H378.058C378.142 86.8697 378.874 87.3737 379.906 87.3737C380.95 87.3737 381.574 86.8577 381.574 86.0417C381.574 85.3697 381.25 85.1057 379.882 84.7817C378.61 84.4817 377.662 84.1457 377.662 83.0417C377.662 82.0097 378.598 81.3857 379.774 81.3857C381.202 81.3857 381.838 82.1417 381.982 83.1497H381.406C381.322 82.3577 380.71 81.9017 379.774 81.9017C378.766 81.9017 378.25 82.3817 378.25 83.0297C378.25 83.7497 378.826 83.9537 380.098 84.2537C381.346 84.5417 382.162 84.8777 382.162 86.0537C382.162 87.0617 381.358 87.8777 379.906 87.8777ZM386.311 87.7217L384.547 81.5177H385.159L386.215 85.3577C386.407 86.0417 386.659 87.1817 386.659 87.1817H386.683C386.683 87.1817 386.959 86.0657 387.127 85.4417L388.195 81.5177H388.855L389.887 85.4417C390.043 86.0537 390.307 87.1817 390.307 87.1817H390.331C390.331 87.1817 390.631 86.0297 390.823 85.3577L391.963 81.5177H392.551L390.655 87.7217H389.947L388.867 83.6177C388.699 82.9817 388.531 82.1417 388.531 82.1417H388.507C388.507 82.1417 388.327 82.9817 388.159 83.6177L387.043 87.7217H386.311ZM393.383 87.7217V79.1417H393.971V82.5617H393.995C394.403 81.9017 395.099 81.3977 396.155 81.3977C397.211 81.3977 398.051 82.0577 398.051 83.2937V87.7217H397.463V83.3537C397.463 82.3337 396.911 81.9017 396.047 81.9017C394.943 81.9017 393.971 82.6817 393.971 83.7137V87.7217H393.383ZM400.921 87.3857C402.325 87.3857 403.129 86.4497 403.129 85.5137V84.3617C402.697 84.5777 402.037 84.6617 401.401 84.7337C400.309 84.8537 399.481 84.9977 399.481 86.1737C399.481 87.0497 400.129 87.3857 400.921 87.3857ZM400.861 87.8777C399.721 87.8777 398.881 87.2897 398.881 86.1497C398.881 84.6737 400.033 84.3737 401.329 84.2417C402.793 84.0977 403.129 84.0257 403.129 83.4497V83.2337C403.129 82.2977 402.577 81.8897 401.569 81.8897C400.405 81.8897 399.781 82.3697 399.697 83.2817H399.097C399.217 82.0817 400.021 81.3857 401.569 81.3857C402.949 81.3857 403.717 81.9977 403.717 83.2697V86.9177C403.717 87.2537 403.897 87.3497 404.113 87.3497C404.197 87.3497 404.293 87.3257 404.401 87.2897H404.437V87.7217C404.341 87.7697 404.197 87.8177 403.957 87.8177C403.477 87.8177 403.141 87.5537 403.141 86.9777V86.7617H403.105C402.757 87.2537 402.133 87.8777 400.861 87.8777ZM406.461 87.7697C405.825 87.7697 405.405 87.4457 405.405 86.7137V82.0097H404.445V81.5177H405.405V79.6457H405.993V81.5177H407.121V82.0097H405.993V86.6657C405.993 87.1217 406.173 87.2657 406.581 87.2657C406.737 87.2657 406.941 87.2177 407.049 87.1577H407.085V87.6617C406.893 87.7337 406.713 87.7697 406.461 87.7697ZM411.582 87.7697C410.946 87.7697 410.526 87.4457 410.526 86.7137V82.0097H409.566V81.5177H410.526V79.6457H411.114V81.5177H412.242V82.0097H411.114V86.6657C411.114 87.1217 411.294 87.2657 411.702 87.2657C411.858 87.2657 412.062 87.2177 412.17 87.1577H412.206V87.6617C412.014 87.7337 411.834 87.7697 411.582 87.7697ZM413.246 87.7217V79.1417H413.834V82.5617H413.858C414.266 81.9017 414.962 81.3977 416.018 81.3977C417.074 81.3977 417.914 82.0577 417.914 83.2937V87.7217H417.326V83.3537C417.326 82.3337 416.774 81.9017 415.91 81.9017C414.806 81.9017 413.834 82.6817 413.834 83.7137V87.7217H413.246ZM421.577 87.8777C419.753 87.8777 418.769 86.5337 418.769 84.6257C418.769 82.7177 419.837 81.3857 421.529 81.3857C422.201 81.3857 422.753 81.6017 423.161 81.9857C423.845 82.6217 424.073 83.5097 424.061 84.6857H419.369C419.381 86.1737 420.053 87.3617 421.577 87.3617C422.693 87.3617 423.209 86.7137 423.461 85.8737H424.025C423.773 87.0257 422.957 87.8777 421.577 87.8777ZM419.381 84.2057H423.461C423.425 82.9817 422.897 81.8897 421.529 81.8897C420.185 81.8897 419.501 82.8977 419.381 84.2057ZM429.633 87.8777C428.601 87.8777 427.977 87.4577 427.509 86.7017H427.485V87.7217H426.897V79.1417H427.485V82.7057H427.509C427.929 81.9257 428.637 81.3857 429.681 81.3857C431.121 81.3857 432.189 82.5737 432.189 84.6377C432.189 86.4857 431.229 87.8777 429.633 87.8777ZM429.609 87.3857C430.941 87.3857 431.589 86.1257 431.589 84.6497C431.589 82.9937 430.869 81.8897 429.597 81.8897C428.217 81.8897 427.425 83.0777 427.425 84.6497C427.425 86.2937 428.205 87.3857 429.609 87.3857ZM435.568 87.8777C433.828 87.8777 432.784 86.4977 432.784 84.6257C432.784 82.7537 433.828 81.3857 435.568 81.3857C437.32 81.3857 438.352 82.7537 438.352 84.6257C438.352 86.4977 437.32 87.8777 435.568 87.8777ZM435.568 87.3737C436.996 87.3737 437.752 86.1377 437.752 84.6257C437.752 83.1137 436.996 81.8777 435.568 81.8777C434.14 81.8777 433.384 83.1137 433.384 84.6257C433.384 86.1377 434.14 87.3737 435.568 87.3737ZM441.588 87.3857C442.932 87.3857 443.736 86.2937 443.736 84.6497C443.736 83.0777 442.98 81.8897 441.6 81.8897C440.328 81.8897 439.548 82.9937 439.548 84.6497C439.548 86.1377 440.196 87.3857 441.588 87.3857ZM441.564 87.8777C439.908 87.8777 438.948 86.4857 438.948 84.6377C438.948 82.5737 440.112 81.3857 441.552 81.3857C442.548 81.3857 443.256 81.8537 443.652 82.6457H443.676V79.1417H444.264V87.7217H443.676V86.6897H443.652C443.196 87.4577 442.536 87.8777 441.564 87.8777ZM446.011 89.7737C445.795 89.7737 445.675 89.7377 445.543 89.7017V89.1737H445.567C445.663 89.1977 445.795 89.2337 446.059 89.2337C446.575 89.2337 446.947 88.9937 447.175 88.3337L447.355 87.8177L444.979 81.5177H445.591L447.103 85.6217C447.331 86.2337 447.643 87.1697 447.643 87.1697H447.667C447.667 87.1697 447.955 86.2457 448.171 85.6217L449.611 81.5177H450.211L447.715 88.4657C447.355 89.4737 446.851 89.7737 446.011 89.7737ZM455.254 87.8777C453.466 87.8777 452.554 86.4977 452.554 84.6257C452.554 82.7537 453.49 81.3857 455.266 81.3857C456.562 81.3857 457.462 82.0577 457.654 83.3057H457.078C456.874 82.3217 456.238 81.8897 455.266 81.8897C453.766 81.8897 453.154 83.1377 453.154 84.6257C453.154 86.1137 453.778 87.3617 455.254 87.3617C456.334 87.3617 457.042 86.6417 457.174 85.6217H457.726C457.57 86.9657 456.682 87.8777 455.254 87.8777ZM460.347 87.3857C461.751 87.3857 462.555 86.4497 462.555 85.5137V84.3617C462.123 84.5777 461.463 84.6617 460.827 84.7337C459.735 84.8537 458.907 84.9977 458.907 86.1737C458.907 87.0497 459.555 87.3857 460.347 87.3857ZM460.287 87.8777C459.147 87.8777 458.307 87.2897 458.307 86.1497C458.307 84.6737 459.459 84.3737 460.755 84.2417C462.219 84.0977 462.555 84.0257 462.555 83.4497V83.2337C462.555 82.2977 462.003 81.8897 460.995 81.8897C459.831 81.8897 459.207 82.3697 459.123 83.2817H458.523C458.643 82.0817 459.447 81.3857 460.995 81.3857C462.375 81.3857 463.143 81.9977 463.143 83.2697V86.9177C463.143 87.2537 463.323 87.3497 463.539 87.3497C463.623 87.3497 463.719 87.3257 463.827 87.2897H463.863V87.7217C463.767 87.7697 463.623 87.8177 463.383 87.8177C462.903 87.8177 462.567 87.5537 462.567 86.9777V86.7617H462.531C462.183 87.2537 461.559 87.8777 460.287 87.8777ZM464.538 87.7217V81.5177H465.126V82.5617H465.15C465.558 81.9017 466.254 81.3977 467.31 81.3977C468.366 81.3977 469.206 82.0577 469.206 83.2937V87.7217H468.618V83.3537C468.618 82.3337 468.066 81.9017 467.202 81.9017C466.098 81.9017 465.126 82.6817 465.126 83.7137V87.7217H464.538ZM474.635 87.3857C475.979 87.3857 476.783 86.2937 476.783 84.6497C476.783 83.0777 476.027 81.8897 474.647 81.8897C473.375 81.8897 472.595 82.9937 472.595 84.6497C472.595 86.1377 473.243 87.3857 474.635 87.3857ZM474.611 87.8777C472.955 87.8777 471.995 86.4857 471.995 84.6377C471.995 82.5737 473.159 81.3857 474.599 81.3857C475.595 81.3857 476.303 81.8537 476.699 82.6457H476.723V79.1417H477.311V87.7217H476.723V86.6897H476.699C476.243 87.4577 475.583 87.8777 474.611 87.8777ZM480.99 87.8777C479.25 87.8777 478.206 86.4977 478.206 84.6257C478.206 82.7537 479.25 81.3857 480.99 81.3857C482.742 81.3857 483.774 82.7537 483.774 84.6257C483.774 86.4977 482.742 87.8777 480.99 87.8777ZM480.99 87.3737C482.418 87.3737 483.174 86.1377 483.174 84.6257C483.174 83.1137 482.418 81.8777 480.99 81.8777C479.562 81.8777 478.806 83.1137 478.806 84.6257C478.806 86.1377 479.562 87.3737 480.99 87.3737ZM484.618 87.7577C484.366 87.7577 484.198 87.5657 484.198 87.3257C484.198 87.0857 484.366 86.9057 484.618 86.9057C484.87 86.9057 485.05 87.0857 485.05 87.3257C485.05 87.5657 484.87 87.7577 484.618 87.7577Z" fill="black"/>
<path d="M10.1841 29.666H9.79688V29.2788" stroke="#1E1E1E" stroke-width="0.5" stroke-miterlimit="10"/>
<path d="M9.79688 28.5693V26.8515L11.1482 25.1323" stroke="#1E1E1E" stroke-width="0.5" stroke-miterlimit="10" stroke-dasharray="4.85 4.85"/>
<path d="M11.3672 24.8534L11.606 24.5488H11.9932" stroke="#1E1E1E" stroke-width="0.5" stroke-miterlimit="10"/>
<path d="M12.7897 24.5488H15.9505C17.094 24.5488 18.0246 23.5008 18.0246 22.2127V20.3361C18.0246 19.048 17.094 18 15.9505 18H9.96828C9.38232 18 8.82088 18.2814 8.42852 18.7705L4.56558 23.5898C4.22098 24.0196 4.03125 24.5759 4.03125 25.1554V28.8841" stroke="#1E1E1E" stroke-width="0.5" stroke-miterlimit="10" stroke-dasharray="5.41 5.41"/>
<path d="M4.02782 29.2788V29.666H3.64062" stroke="#1E1E1E" stroke-width="0.5" stroke-miterlimit="10"/>
<path d="M2.87907 29.6665H2.32409C1.18056 29.6665 0.25 30.7145 0.25 32.0026V33.8792C0.25 35.1673 1.18056 36.2153 2.32409 36.2153H3.2611" stroke="#1E1E1E" stroke-width="0.5" stroke-miterlimit="10" stroke-dasharray="5.21 5.21"/>
<path d="M3.64062 36.2153H4.02782V36.6025" stroke="#1E1E1E" stroke-width="0.5" stroke-miterlimit="10"/>
<path d="M4.03125 37.3727V57.3637C4.03125 58.6518 4.96181 59.6998 6.10534 59.6998H7.72511C8.86863 59.6998 9.7992 58.6518 9.7992 57.3637V36.9868" stroke="#1E1E1E" stroke-width="0.5" stroke-miterlimit="10" stroke-dasharray="5.26 5.26"/>
<path d="M9.79688 36.6025V36.2153H10.1841" stroke="#1E1E1E" stroke-width="0.5" stroke-miterlimit="10"/>
<path d="M10.9627 36.2153H15.4916C16.6351 36.2153 17.5657 35.1673 17.5657 33.8792V32.0026C17.5657 30.7145 16.6351 29.6665 15.4916 29.6665H10.5742" stroke="#1E1E1E" stroke-width="0.5" stroke-miterlimit="10" stroke-dasharray="5.3 5.3"/>
<path d="M30.8849 35.4524C30.4925 35.051 29.9337 34.8213 29.3529 34.8213H20.8784C20.2963 34.8213 19.7375 35.051 19.3464 35.4524L15.4835 39.4018C15.1337 39.7593 14.9414 40.2227 14.9414 40.7067V53.8159C14.9414 54.2999 15.1337 54.7632 15.4835 55.1208L19.3464 59.0702C19.7388 59.4716 20.2963 59.7013 20.8784 59.7013H29.3529C29.935 59.7013 30.4938 59.4716 30.8849 59.0702L34.7478 55.1208C35.0976 54.7632 35.2899 54.2999 35.2899 53.8159V40.7067C35.2899 40.2227 35.0976 39.7593 34.7478 39.4018L30.8849 35.4524Z" stroke="#1E1E1E" stroke-width="0.5" stroke-miterlimit="10" stroke-dasharray="5.31 5.31"/>
<path d="M27.9968 53.999L27.727 54.2752H27.3398" stroke="#1E1E1E" stroke-width="0.5" stroke-miterlimit="10"/>
<path d="M26.4529 54.2754H23.3359" stroke="#1E1E1E" stroke-width="0.5" stroke-miterlimit="10" stroke-dasharray="6.08 6.08"/>
<path d="M22.8874 54.2752H22.5002L22.2305 53.999" stroke="#1E1E1E" stroke-width="0.5" stroke-miterlimit="10"/>
<path d="M21.6892 53.4441L20.707 52.4373V42.085L21.959 40.8008" stroke="#1E1E1E" stroke-width="0.5" stroke-miterlimit="10" stroke-dasharray="5.29 5.29"/>
<path d="M22.2305 40.5231L22.5002 40.2456H22.8874" stroke="#1E1E1E" stroke-width="0.5" stroke-miterlimit="10"/>
<path d="M23.7812 40.2456H26.8982" stroke="#1E1E1E" stroke-width="0.5" stroke-miterlimit="10" stroke-dasharray="6.08 6.08"/>
<path d="M27.3398 40.2456H27.727L27.9968 40.5231" stroke="#1E1E1E" stroke-width="0.5" stroke-miterlimit="10"/>
<path d="M28.5393 41.0781L29.5215 42.0848V52.4372L28.2695 53.7214" stroke="#1E1E1E" stroke-width="0.5" stroke-miterlimit="10" stroke-dasharray="5.29 5.29"/>
<path d="M48.957 40.5244L49.2268 40.2456H49.614" stroke="#1E1E1E" stroke-width="0.5" stroke-miterlimit="10"/>
<path d="M50.413 40.2459H52.4187C53.5622 40.2459 54.4927 39.3773 54.4927 38.3112V36.756C54.4927 35.6886 53.5622 34.8213 52.4187 34.8213H47.6006C47.0147 34.8213 46.4532 35.0536 46.0609 35.4589L44.4062 37.169" stroke="#1E1E1E" stroke-width="0.5" stroke-miterlimit="10" stroke-dasharray="5.45 5.45"/>
<path d="M44.1291 37.4551L43.8594 37.7339V37.3467" stroke="#1E1E1E" stroke-width="0.5" stroke-miterlimit="10"/>
<path d="M43.8488 36.5701C43.7481 35.5905 42.8601 34.8213 41.7837 34.8213H40.1639C39.0204 34.8213 38.0898 35.6899 38.0898 36.756V57.7653C38.0898 58.8327 39.0204 59.7 40.1639 59.7H41.7837C42.9272 59.7 43.8578 58.8314 43.8578 57.7653V45.779L48.6849 40.8022" stroke="#1E1E1E" stroke-width="0.5" stroke-miterlimit="10" stroke-dasharray="5.3 5.3"/>
<path d="M69.1432 35.9506L67.8784 35.1543C67.5338 34.9362 67.1324 34.8213 66.7168 34.8213C66.5684 34.8213 66.4187 34.8368 66.2689 34.8665C65.7165 34.98 65.2325 35.3053 64.9409 35.757L42.6693 70.2511C42.0988 71.1339 42.3698 72.2775 43.2862 72.8544L44.5523 73.6507C44.8969 73.8688 45.2983 73.9837 45.7139 73.9837C45.8624 73.9837 46.0121 73.9682 46.1618 73.9385C46.7142 73.825 47.1982 73.4997 47.4912 73.0467L69.7628 38.5526C70.3332 37.6698 70.0622 36.5262 69.1458 35.9493L69.1432 35.9506Z" stroke="#1E1E1E" stroke-width="0.5" stroke-miterlimit="10" stroke-dasharray="5.29 5.29"/>
<g clip-path="url(#clip0_268_38)">
<path d="M78.0871 62.8991C77.7906 62.5667 77.3634 62.3763 76.9179 62.3763H72.1199C71.6771 62.3763 71.2539 62.5641 70.956 62.8926L67.9124 66.2565V55.1388C67.9124 54.2757 67.2096 53.5742 66.3448 53.5742H64.759C63.8942 53.5742 63.1914 54.2757 63.1914 55.1388V81.7654C63.1914 82.154 63.3351 82.5256 63.5951 82.8137L67.3768 86.9951C67.6733 87.3236 68.0978 87.5114 68.5407 87.5114H76.9179C77.3608 87.5114 77.7853 87.3236 78.0819 86.9951L81.8636 82.8137C82.1248 82.5256 82.2672 82.1527 82.2672 81.7654V68.1666C82.2672 67.782 82.1261 67.4117 81.8688 67.1248L78.0871 62.8991ZM77.5463 69.387V80.4616L75.4862 82.7524H69.9724L67.9124 80.4616V73.3427L73.5085 67.134H75.4928L77.5463 69.387Z" fill="#E0663E" stroke="#010101" stroke-width="0.25" stroke-miterlimit="10" stroke-dasharray="3.61 3.61"/>
<path d="M99.1805 62.8863C98.884 62.5616 98.4621 62.3765 98.0218 62.3765H89.7269C89.2867 62.3765 88.8647 62.5629 88.5695 62.8863L84.7878 67.0233C84.5239 67.3127 84.3789 67.6869 84.3789 68.0781V81.8099C84.3789 82.2011 84.5239 82.5752 84.7878 82.8647L88.5695 87.0017C88.866 87.3264 89.288 87.5115 89.7269 87.5115H98.0218C98.4621 87.5115 98.884 87.3251 99.1805 87.0017L102.962 82.8647C103.226 82.5752 103.372 82.2011 103.372 81.8099V68.0781C103.372 67.6869 103.227 67.3127 102.962 67.0233L99.1805 62.8863ZM98.6515 69.3428V80.5439L96.6385 82.7539H91.1129L89.0999 80.5439V69.3428L91.1129 67.1341H96.6398L98.6528 69.3428H98.6515Z" fill="#E0663E" stroke="#010101" stroke-width="0.25" stroke-miterlimit="10" stroke-dasharray="3.61 3.61"/>
<path d="M144.783 63.538C144.603 63.1573 144.271 62.86 143.872 62.7244L142.327 62.1964C142.163 62.1403 141.991 62.1116 141.819 62.1116C141.165 62.1116 140.573 62.5236 140.347 63.1377L134.539 78.9387L128.731 63.1377C128.505 62.5236 127.915 62.1116 127.259 62.1116C127.077 62.1116 126.898 62.1429 126.726 62.2055L125.262 62.7336C124.982 62.834 124.737 63.0165 124.556 63.2499V55.1388C124.556 54.2757 123.853 53.5742 122.989 53.5742H121.403C120.538 53.5742 119.835 54.2757 119.835 55.1388V62.5067C119.639 62.4206 119.426 62.3763 119.207 62.3763H110.83C110.384 62.3763 109.957 62.5667 109.661 62.8991L105.879 67.1248C105.622 67.4117 105.48 67.7819 105.48 68.1666V81.7654C105.48 82.154 105.624 82.5256 105.884 82.8137L109.666 86.995C109.962 87.3236 110.387 87.5114 110.83 87.5114H115.628C116.071 87.5114 116.494 87.3236 116.792 86.995L119.835 83.6312V85.9455C119.835 86.8086 120.538 87.5101 121.403 87.5101H122.989C123.853 87.5101 124.556 86.8086 124.556 85.9455V65.3712L132.052 85.5465L129.792 91.5545H126.934C126.069 91.5545 125.366 92.256 125.366 93.1191V94.7476C125.366 95.6107 126.069 96.3121 126.934 96.3121H131.814C132.462 96.3121 133.051 95.9054 133.281 95.3004L144.83 64.7571C144.979 64.3633 144.962 63.9187 144.782 63.538H144.783ZM119.839 69.387V76.5853L114.246 82.7537H112.265L110.205 80.4629V69.3883L112.259 67.1353H117.786L119.839 69.3883V69.387Z" fill="#E0663E" stroke="#010101" stroke-width="0.25" stroke-miterlimit="10" stroke-dasharray="3.61 3.61"/>
</g>
<rect x="202.703" y="103.578" width="5" height="5" transform="rotate(180 202.703 103.578)" fill="#E0663E"/>
<rect x="202.703" y="95" width="5" height="5" transform="rotate(180 202.703 95)" fill="#E0663E"/>
<rect x="237.703" y="98.5776" width="5" height="5" fill="#E0663E"/>
<rect x="237.703" y="90" width="5" height="5" fill="#E0663E"/>
<rect x="237.703" y="81.4224" width="5" height="5" fill="#E0663E"/>
<rect x="217.703" y="98.5776" width="5" height="5" fill="#E0663E"/>
<rect x="217.703" y="90" width="5" height="5" fill="#E0663E"/>
<rect x="217.703" y="81.4224" width="5" height="5" fill="#E0663E"/>
<rect x="257.703" y="98.5776" width="5" height="5" fill="#E0663E"/>
<rect x="257.703" y="90" width="5" height="5" fill="#E0663E"/>
<rect x="207.703" y="98.5776" width="5" height="5" fill="#E0663E"/>
<rect x="207.703" y="90" width="5" height="5" fill="#E0663E"/>
<rect x="207.703" y="81.4224" width="5" height="5" fill="#E0663E"/>
<rect x="247.703" y="98.5776" width="5" height="5" fill="#E0663E"/>
<rect x="247.703" y="90" width="5" height="5" fill="#E0663E"/>
<rect x="247.703" y="81.4224" width="5" height="5" fill="#E0663E"/>
<rect x="227.703" y="98.5776" width="5" height="5" fill="#E0663E"/>
<rect x="227.703" y="90" width="5" height="5" fill="#E0663E"/>
<rect x="227.703" y="81.4224" width="5" height="5" fill="#E0663E"/>
<path d="M174.145 8.65821L283.554 8.6582V43.0132C283.554 43.0132 292.233 42.8222 297.234 44.1621C301.436 45.2881 303.474 45.5101 306.235 48.2713C308.725 50.7614 309.821 52.4546 310.786 56.0561C311.789 59.7998 310.248 65.8433 310.248 65.8433H303.474V77.3403H265.46V105.563L195.422 105.785C195.422 105.785 195.671 102.137 195.422 99.909C195.172 97.6809 194.952 96.4663 194.144 94.3748C193.065 91.5813 191.596 90.2637 189.116 88.5848C186.641 86.9088 184.831 86.5826 181.887 86.0682C177.961 85.3827 174.145 86.5157 174.145 86.5157L174.145 8.65821Z" stroke="black" stroke-width="0.25"/>
<defs>
<clipPath id="clip0_268_38">
<rect width="82" height="43" fill="white" transform="translate(63.0625 53.4438)"/>
</clipPath>
</defs>
</svg>
