<svg width="657" height="446" viewBox="0 0 657 446" fill="none" xmlns="http://www.w3.org/2000/svg">
<path d="M69.0708 80.8847H66.4277V78.2416" stroke="#1E1E1E" stroke-width="2.5" stroke-miterlimit="10"/>
<path d="M66.4277 73.3961V61.6698L75.6519 49.9347" stroke="#1E1E1E" stroke-width="2.5" stroke-miterlimit="10" stroke-dasharray="4.85 4.85"/>
<path d="M77.1495 48.0317L78.7794 45.9525H81.4224" stroke="#1E1E1E" stroke-width="2.5" stroke-miterlimit="10"/>
<path d="M86.8317 45.9525H108.408C116.213 45.9525 122.566 38.7987 122.566 30.0062V17.1963C122.566 8.40382 116.213 1.25 108.408 1.25H67.5728C63.573 1.25 59.7406 3.17061 57.0623 6.50964L30.6937 39.4066C28.3414 42.3404 27.0463 46.1376 27.0463 50.0933V75.5457" stroke="#1E1E1E" stroke-width="2.5" stroke-miterlimit="10" stroke-dasharray="5.41 5.41"/>
<path d="M27.0464 78.2416V80.8847H24.4033" stroke="#1E1E1E" stroke-width="2.5" stroke-miterlimit="10"/>
<path d="M19.1962 80.8847H15.4079C7.60209 80.8847 1.25 88.0385 1.25 96.831V109.641C1.25 118.433 7.60209 125.587 15.4079 125.587H21.804" stroke="#1E1E1E" stroke-width="2.5" stroke-miterlimit="10" stroke-dasharray="5.21 5.21"/>
<path d="M24.4033 125.587H27.0464V128.23" stroke="#1E1E1E" stroke-width="2.5" stroke-miterlimit="10"/>
<path d="M27.0463 133.49V269.95C27.0463 278.742 33.3984 285.896 41.2041 285.896H52.2608C60.0666 285.896 66.4187 278.742 66.4187 269.95V130.856" stroke="#1E1E1E" stroke-width="2.5" stroke-miterlimit="10" stroke-dasharray="5.26 5.26"/>
<path d="M66.4277 128.23V125.587H69.0708" stroke="#1E1E1E" stroke-width="2.5" stroke-miterlimit="10"/>
<path d="M74.3743 125.587H105.289C113.095 125.587 119.447 118.433 119.447 109.641V96.831C119.447 88.0385 113.095 80.8847 105.289 80.8847H71.7224" stroke="#1E1E1E" stroke-width="2.5" stroke-miterlimit="10" stroke-dasharray="5.3 5.3"/>
<path d="M210.366 120.38C207.688 117.64 203.873 116.072 199.908 116.072H142.061C138.088 116.072 134.273 117.64 131.604 120.38L105.235 147.339C102.847 149.78 101.535 152.943 101.535 156.246V245.731C101.535 249.034 102.847 252.197 105.235 254.638L131.604 281.597C134.282 284.337 138.088 285.905 142.061 285.905H199.908C203.882 285.905 207.697 284.337 210.366 281.597L236.735 254.638C239.122 252.197 240.435 249.034 240.435 245.731V156.246C240.435 152.943 239.122 149.78 236.735 147.339L210.366 120.38Z" stroke="#1E1E1E" stroke-width="2.5" stroke-miterlimit="10" stroke-dasharray="5.31 5.31"/>
<path d="M190.666 246.982L188.825 248.867H186.182" stroke="#1E1E1E" stroke-width="2.5" stroke-miterlimit="10"/>
<path d="M180.103 248.867H158.827" stroke="#1E1E1E" stroke-width="2.5" stroke-miterlimit="10" stroke-dasharray="6.08 6.08"/>
<path d="M155.787 248.867H153.144L151.303 246.982" stroke="#1E1E1E" stroke-width="2.5" stroke-miterlimit="10"/>
<path d="M147.612 243.193L140.907 236.321V165.656L149.453 156.889" stroke="#1E1E1E" stroke-width="2.5" stroke-miterlimit="10" stroke-dasharray="5.29 5.29"/>
<path d="M151.303 154.995L153.144 153.101H155.787" stroke="#1E1E1E" stroke-width="2.5" stroke-miterlimit="10"/>
<path d="M161.866 153.101H183.143" stroke="#1E1E1E" stroke-width="2.5" stroke-miterlimit="10" stroke-dasharray="6.08 6.08"/>
<path d="M186.182 153.101H188.825L190.666 154.995" stroke="#1E1E1E" stroke-width="2.5" stroke-miterlimit="10"/>
<path d="M194.358 158.784L201.063 165.656V236.321L192.517 245.088" stroke="#1E1E1E" stroke-width="2.5" stroke-miterlimit="10" stroke-dasharray="5.29 5.29"/>
<path d="M333.726 155.004L335.567 153.101H338.21" stroke="#1E1E1E" stroke-width="2.5" stroke-miterlimit="10"/>
<path d="M343.663 153.101H357.354C365.16 153.101 371.512 147.172 371.512 139.895V129.279C371.512 121.993 365.16 116.072 357.354 116.072H324.466C320.466 116.072 316.634 117.658 313.955 120.424L302.661 132.098" stroke="#1E1E1E" stroke-width="2.5" stroke-miterlimit="10" stroke-dasharray="5.45 5.45"/>
<path d="M300.767 134.054L298.926 135.957V133.314" stroke="#1E1E1E" stroke-width="2.5" stroke-miterlimit="10"/>
<path d="M298.864 128.01C298.177 121.323 292.115 116.072 284.768 116.072H273.711C265.905 116.072 259.553 122.001 259.553 129.279V272.69C259.553 279.976 265.905 285.896 273.711 285.896H284.768C292.574 285.896 298.926 279.967 298.926 272.69V190.87L331.875 156.898" stroke="#1E1E1E" stroke-width="2.5" stroke-miterlimit="10" stroke-dasharray="5.3 5.3"/>
<path d="M471.507 123.781L462.873 118.345C460.521 116.856 457.781 116.072 454.944 116.072C453.931 116.072 452.909 116.178 451.887 116.381C448.116 117.156 444.812 119.376 442.821 122.46L290.794 357.919C286.9 363.945 288.75 371.751 295.005 375.689L303.648 381.125C306 382.613 308.74 383.398 311.577 383.398C312.59 383.398 313.612 383.292 314.634 383.089C318.405 382.314 321.709 380.094 323.709 377.001L475.736 141.542C479.63 135.516 477.78 127.71 471.525 123.772L471.507 123.781Z" stroke="#1E1E1E" stroke-width="2.5" stroke-miterlimit="10" stroke-dasharray="5.29 5.29"/>
<path d="M552.27 299.64L550.446 301.552L548.579 299.684" stroke="#1E1E1E" stroke-width="2.5" stroke-miterlimit="10"/>
<path d="M544.755 295.851L527.249 278.328C524.58 275.659 520.809 274.126 516.897 274.126H485.419C481.366 274.126 477.49 275.756 474.811 278.592L464.416 289.57" stroke="#1E1E1E" stroke-width="2.5" stroke-miterlimit="10" stroke-dasharray="5.41 5.41"/>
<path d="M462.548 291.534L460.724 293.455V290.812" stroke="#1E1E1E" stroke-width="2.5" stroke-miterlimit="10"/>
<path d="M460.592 285.526C459.641 279.103 453.711 274.134 446.566 274.134H435.51C427.704 274.134 421.352 280.064 421.352 287.341V430.752C421.352 438.038 427.704 443.958 435.51 443.958H446.566C454.372 443.958 460.724 438.029 460.724 430.752V348.888L493.198 314.987" stroke="#1E1E1E" stroke-width="2.5" stroke-miterlimit="10" stroke-dasharray="5.29 5.29"/>
<path d="M495.031 313.075L496.854 311.163H499.497" stroke="#1E1E1E" stroke-width="2.5" stroke-miterlimit="10"/>
<path d="M503.832 311.163H505.471L515.162 320.573" stroke="#1E1E1E" stroke-width="2.5" stroke-miterlimit="10" stroke-dasharray="4.33 4.33"/>
<path d="M516.713 322.079L518.607 323.92V326.563" stroke="#1E1E1E" stroke-width="2.5" stroke-miterlimit="10"/>
<path d="M518.606 331.832V430.752C518.606 438.038 524.958 443.958 532.764 443.958H543.821C551.627 443.958 557.979 438.029 557.979 430.752V348.906L590.699 314.961" stroke="#1E1E1E" stroke-width="2.5" stroke-miterlimit="10" stroke-dasharray="5.27 5.27"/>
<path d="M592.541 313.066L594.373 311.163H597.016" stroke="#1E1E1E" stroke-width="2.5" stroke-miterlimit="10"/>
<path d="M601.29 311.163H602.726L612.443 320.59" stroke="#1E1E1E" stroke-width="2.5" stroke-miterlimit="10" stroke-dasharray="4.27 4.27"/>
<path d="M613.976 322.079L615.87 323.92V326.563" stroke="#1E1E1E" stroke-width="2.5" stroke-miterlimit="10"/>
<path d="M615.87 331.841V430.752C615.87 438.038 622.222 443.958 630.028 443.958H641.085C648.891 443.958 655.243 438.029 655.243 430.752V314.3C655.243 310.943 653.895 307.745 651.446 305.296L624.504 278.328C621.835 275.659 618.064 274.126 614.152 274.126H582.965C578.929 274.126 575.071 275.738 572.384 278.557L554.094 297.728" stroke="#1E1E1E" stroke-width="2.5" stroke-miterlimit="10" stroke-dasharray="5.28 5.28"/>
</svg>
