<svg width="983" height="516" viewBox="0 0 983 516" fill="none" xmlns="http://www.w3.org/2000/svg">
<path d="M69.0708 80.8847H66.4277V78.2416" stroke="#1E1E1E" stroke-width="2.5" stroke-miterlimit="10"/>
<path d="M66.4277 73.3961V61.6698L75.6519 49.9347" stroke="#1E1E1E" stroke-width="2.5" stroke-miterlimit="10" stroke-dasharray="4.85 4.85"/>
<path d="M77.1494 48.0317L78.7793 45.9525H81.4223" stroke="#1E1E1E" stroke-width="2.5" stroke-miterlimit="10"/>
<path d="M86.8318 45.9525H108.408C116.214 45.9525 122.566 38.7987 122.566 30.0062V17.1963C122.566 8.40382 116.214 1.25 108.408 1.25H67.5729C63.5731 1.25 59.7407 3.17061 57.0624 6.50964L30.6938 39.4066C28.3415 42.3404 27.0464 46.1376 27.0464 50.0933V75.5457" stroke="#1E1E1E" stroke-width="2.5" stroke-miterlimit="10" stroke-dasharray="5.41 5.41"/>
<path d="M27.0464 78.2416V80.8847H24.4033" stroke="#1E1E1E" stroke-width="2.5" stroke-miterlimit="10"/>
<path d="M19.1962 80.8847H15.4079C7.60209 80.8847 1.25 88.0385 1.25 96.831V109.641C1.25 118.433 7.60209 125.587 15.4079 125.587H21.804" stroke="#1E1E1E" stroke-width="2.5" stroke-miterlimit="10" stroke-dasharray="5.21 5.21"/>
<path d="M24.4033 125.587H27.0464V128.23" stroke="#1E1E1E" stroke-width="2.5" stroke-miterlimit="10"/>
<path d="M27.0464 133.49V269.95C27.0464 278.742 33.3985 285.896 41.2042 285.896H52.2609C60.0667 285.896 66.4188 278.742 66.4188 269.95V130.856" stroke="#1E1E1E" stroke-width="2.5" stroke-miterlimit="10" stroke-dasharray="5.26 5.26"/>
<path d="M66.4277 128.23V125.587H69.0708" stroke="#1E1E1E" stroke-width="2.5" stroke-miterlimit="10"/>
<path d="M74.374 125.587H105.289C113.094 125.587 119.447 118.433 119.447 109.641V96.831C119.447 88.0385 113.094 80.8847 105.289 80.8847H71.7222" stroke="#1E1E1E" stroke-width="2.5" stroke-miterlimit="10" stroke-dasharray="5.3 5.3"/>
<path d="M210.366 120.38C207.688 117.64 203.873 116.072 199.908 116.072H142.061C138.088 116.072 134.273 117.64 131.604 120.38L105.235 147.339C102.847 149.78 101.535 152.943 101.535 156.246V245.731C101.535 249.034 102.847 252.197 105.235 254.638L131.604 281.597C134.282 284.337 138.088 285.905 142.061 285.905H199.908C203.882 285.905 207.697 284.337 210.366 281.597L236.735 254.638C239.122 252.197 240.435 249.034 240.435 245.731V156.246C240.435 152.943 239.122 149.78 236.735 147.339L210.366 120.38Z" stroke="#1E1E1E" stroke-width="2.5" stroke-miterlimit="10" stroke-dasharray="5.31 5.31"/>
<path d="M190.666 246.982L188.825 248.867H186.182" stroke="#1E1E1E" stroke-width="2.5" stroke-miterlimit="10"/>
<path d="M180.103 248.867H158.827" stroke="#1E1E1E" stroke-width="2.5" stroke-miterlimit="10" stroke-dasharray="6.08 6.08"/>
<path d="M155.787 248.867H153.144L151.303 246.982" stroke="#1E1E1E" stroke-width="2.5" stroke-miterlimit="10"/>
<path d="M147.612 243.193L140.907 236.321V165.656L149.453 156.889" stroke="#1E1E1E" stroke-width="2.5" stroke-miterlimit="10" stroke-dasharray="5.29 5.29"/>
<path d="M151.303 154.995L153.144 153.101H155.787" stroke="#1E1E1E" stroke-width="2.5" stroke-miterlimit="10"/>
<path d="M161.866 153.101H183.143" stroke="#1E1E1E" stroke-width="2.5" stroke-miterlimit="10" stroke-dasharray="6.08 6.08"/>
<path d="M186.182 153.101H188.825L190.666 154.995" stroke="#1E1E1E" stroke-width="2.5" stroke-miterlimit="10"/>
<path d="M194.358 158.784L201.063 165.656V236.321L192.517 245.088" stroke="#1E1E1E" stroke-width="2.5" stroke-miterlimit="10" stroke-dasharray="5.29 5.29"/>
<path d="M333.726 155.004L335.567 153.101H338.21" stroke="#1E1E1E" stroke-width="2.5" stroke-miterlimit="10"/>
<path d="M343.663 153.101H357.354C365.16 153.101 371.512 147.172 371.512 139.895V129.279C371.512 121.993 365.16 116.072 357.354 116.072H324.466C320.466 116.072 316.633 117.658 313.955 120.424L302.661 132.098" stroke="#1E1E1E" stroke-width="2.5" stroke-miterlimit="10" stroke-dasharray="5.45 5.45"/>
<path d="M300.767 134.054L298.926 135.957V133.314" stroke="#1E1E1E" stroke-width="2.5" stroke-miterlimit="10"/>
<path d="M298.864 128.01C298.177 121.323 292.115 116.072 284.768 116.072H273.711C265.905 116.072 259.553 122.001 259.553 129.279V272.69C259.553 279.976 265.905 285.896 273.711 285.896H284.768C292.574 285.896 298.926 279.967 298.926 272.69V190.87L331.875 156.898" stroke="#1E1E1E" stroke-width="2.5" stroke-miterlimit="10" stroke-dasharray="5.3 5.3"/>
<path d="M471.507 123.781L462.873 118.345C460.521 116.856 457.781 116.072 454.944 116.072C453.931 116.072 452.909 116.178 451.887 116.381C448.116 117.156 444.812 119.376 442.821 122.46L290.794 357.919C286.9 363.945 288.75 371.751 295.005 375.689L303.648 381.125C306 382.613 308.74 383.398 311.577 383.398C312.59 383.398 313.612 383.292 314.634 383.089C318.405 382.314 321.708 380.094 323.708 377.001L475.736 141.542C479.63 135.516 477.78 127.71 471.524 123.772L471.507 123.781Z" stroke="#1E1E1E" stroke-width="2.5" stroke-miterlimit="10" stroke-dasharray="5.29 5.29"/>
<g clip-path="url(#clip0_7_560)">
<path d="M500.142 377.639C498.402 375.731 495.925 374.643 493.349 374.643H462.612L450.759 361.431V356.35L462.574 343.369H512.923C517.999 343.369 522.123 339.246 522.123 334.173V324.601C522.123 319.528 517.999 315.406 512.923 315.406H454.202C451.603 315.406 449.111 316.509 447.371 318.44L425.412 342.756C423.887 344.449 423.043 346.633 423.043 348.917V369.094C423.043 371.378 423.887 373.562 425.412 375.256L447.371 399.571C449.111 401.502 451.603 402.606 454.202 402.606H485.138L497.029 416.04V422.193L485.215 435.183H431.768C426.693 435.183 422.568 439.305 422.568 444.378V453.95C422.568 459.023 426.693 463.146 431.768 463.146H493.342C495.918 463.146 498.402 462.05 500.142 460.149L522.338 435.834C523.887 434.133 524.738 431.933 524.738 429.634V408.162C524.738 405.863 523.887 403.663 522.338 401.962L500.142 377.647V377.639Z" fill="#449751" stroke="#010101" stroke-width="2" stroke-miterlimit="10" stroke-dasharray="3.87 3.87"/>
<path d="M620.935 318.44C619.195 316.509 616.703 315.406 614.104 315.406H585.943C583.344 315.406 580.86 316.509 579.112 318.44L561.248 338.211V324.601C561.248 319.528 557.123 315.406 552.048 315.406H542.74C537.664 315.406 533.54 319.528 533.54 324.601V505.677C533.54 510.75 537.664 514.873 542.74 514.873H552.048C557.123 514.873 561.248 510.75 561.248 505.677V462.372C562.398 462.878 563.648 463.138 564.936 463.138H614.104C616.719 463.138 619.226 462.019 620.966 460.065L643.162 435.236C644.672 433.55 645.5 431.374 645.5 429.106V349.178C645.5 346.894 644.657 344.71 643.131 343.016L620.935 318.44ZM617.8 421.933L605.747 435.175H573.308L561.256 421.933V379.624L594.086 343.369H605.709L617.8 356.833V421.925V421.933Z" fill="#449751" stroke="#010101" stroke-width="2" stroke-miterlimit="10" stroke-dasharray="3.87 3.87"/>
<path d="M738.095 318.402C736.354 316.494 733.878 315.406 731.294 315.406H669.958C664.883 315.406 660.758 319.528 660.758 324.601V334.173C660.758 339.246 664.883 343.369 669.958 343.369H722.968L734.982 356.389V374.643H682.126C679.542 374.643 677.065 375.739 675.325 377.639L653.129 401.955C651.58 403.656 650.722 405.855 650.722 408.154V429.627C650.722 431.926 651.573 434.125 653.129 435.826L675.325 460.142C677.065 462.05 679.542 463.138 682.126 463.138H710.286C712.862 463.138 715.331 462.05 717.072 460.149L734.974 440.608V453.942C734.974 459.015 739.099 463.138 744.174 463.138H753.482C758.558 463.138 762.682 459.015 762.682 453.942V348.917C762.682 346.618 761.831 344.419 760.275 342.717L738.079 318.402H738.095ZM702.19 435.175H690.46L678.445 422.155V415.557L690.536 402.093H732.528L702.19 435.175Z" fill="#449751" stroke="#010101" stroke-width="2" stroke-miterlimit="10" stroke-dasharray="3.87 3.87"/>
<path d="M858.512 435.175H813.215L801.6 422.224V356.312L813.215 343.361H856.603C861.678 343.361 865.803 339.238 865.803 334.165V324.594C865.803 319.521 861.678 315.398 856.603 315.398H805.05C802.451 315.398 799.959 316.501 798.219 318.433L776.261 342.748C774.735 344.442 773.892 346.626 773.892 348.909V429.619C773.892 431.903 774.735 434.087 776.261 435.78L798.219 460.096C799.959 462.027 802.451 463.131 805.05 463.131H858.512C863.587 463.131 867.712 459.008 867.712 453.935V444.363C867.712 439.29 863.587 435.167 858.512 435.167V435.175Z" fill="#449751" stroke="#010101" stroke-width="2" stroke-miterlimit="10" stroke-dasharray="3.87 3.87"/>
<path d="M979.624 342.717L957.428 318.402C955.688 316.494 953.211 315.406 950.635 315.406H901.95C899.374 315.406 896.89 316.501 895.149 318.402L872.953 342.717C871.405 344.419 870.554 346.618 870.554 348.917V429.627C870.554 431.926 871.405 434.125 872.953 435.826L895.149 460.142C896.89 462.05 899.366 463.138 901.942 463.138H958.985C964.06 463.138 968.185 459.015 968.185 453.942V444.371C968.185 439.298 964.06 435.175 958.985 435.175H910.069L898.254 422.186V401.311H950.628C953.227 401.311 955.718 400.207 957.459 398.276L979.655 373.7C981.18 372.006 982.024 369.822 982.024 367.539V348.917C982.024 346.618 981.173 344.419 979.624 342.717ZM954.323 360.404L942.47 373.608H898.254V356.35L910.069 343.369H942.501L954.315 356.35V360.397L954.323 360.404Z" fill="#449751" stroke="#010101" stroke-width="2" stroke-miterlimit="10" stroke-dasharray="3.87 3.87"/>
</g>
<defs>
<clipPath id="clip0_7_560">
<rect width="561" height="201" fill="white" transform="translate(421.8 314.639)"/>
</clipPath>
</defs>
</svg>
