<svg width="564" height="115" viewBox="0 0 564 115" fill="none" xmlns="http://www.w3.org/2000/svg">
<rect width="563.738" height="114.444" transform="translate(0.25)" fill="white"/>
<path d="M320.988 0L320.988 114.444" stroke="black" stroke-width="0.5"/>
<mask id="path-2-outside-1_268_41" maskUnits="userSpaceOnUse" x="327.988" y="27.7217" width="103" height="12" fill="black">
<rect fill="white" x="327.988" y="27.7217" width="103" height="12"/>
<path d="M333.034 29.4397V38.7217H332.488V29.4397H329.198V28.9217H336.324V29.4397H333.034ZM342.877 38.7217V33.2617L341.869 32.2397H340.707L338.481 34.5217V38.7217H337.935V28.9217H338.481V33.7517L340.469 31.7217H342.121L343.423 33.0657V38.7217H342.877ZM350.1 35.3757H346.488V37.1957L347.482 38.2037H350.59V38.7217H347.244L345.942 37.4057V33.0377L347.244 31.7217H350.1L351.402 33.0377V34.0457L350.1 35.3757ZM350.856 33.2477L349.862 32.2397H347.482L346.488 33.2477V34.8717H349.862L350.856 33.8497V33.2477ZM366.685 38.7217V33.2477L365.635 32.2397H364.613L362.317 34.4937V38.7217H361.771V33.2477L360.721 32.2397H359.685L357.403 34.4797V38.7217H356.857V31.7217H357.403V33.7237L359.433 31.7217H360.987L362.317 33.0377V33.7237L364.361 31.7217H365.901L367.231 33.0377V38.7217H366.685ZM374.267 38.7217V36.7197L372.279 38.7217H370.627L369.325 37.4057V36.2437L370.627 34.9277H374.267V33.2477L373.259 32.2397H369.913V31.7217H373.511L374.813 33.0377V38.7217H374.267ZM374.267 35.4177H370.879L369.871 36.4537V37.1957L370.879 38.2037H372.041L374.267 35.9637V35.4177ZM378.416 38.7217L377.128 37.4057V33.0377L378.416 31.7217H381.44V32.2397H378.654L377.674 33.2477V37.1957L378.654 38.2037H381.552V38.7217H378.416ZM386.398 32.2397L384.2 34.4797V38.7217H383.654V31.7217H384.2V33.7237L386.16 31.7217H387.784V32.2397H386.398ZM393.002 38.7217H390.146L388.844 37.4057V33.0377L390.146 31.7217H393.002L394.304 33.0377V37.4057L393.002 38.7217ZM393.758 33.2477L392.764 32.2397H390.384L389.39 33.2477V37.1957L390.384 38.2037H392.764L393.758 37.1957V33.2477ZM403.65 38.7217H400.038V38.2037H403.412L404.406 37.1957V36.4817L403.412 35.4457H401.354L400.066 34.1297V33.0377L401.354 31.7217H404.798V32.2397H401.606L400.612 33.2477V33.9057L401.606 34.9277H403.65L404.952 36.2437V37.4057L403.65 38.7217ZM408.207 38.7217L406.919 37.4057V33.0377L408.207 31.7217H411.231V32.2397H408.445L407.465 33.2477V37.1957L408.445 38.2037H411.343V38.7217H408.207ZM417.757 38.7217V36.7197L415.769 38.7217H414.117L412.815 37.4057V36.2437L414.117 34.9277H417.757V33.2477L416.749 32.2397H413.403V31.7217H417.001L418.303 33.0377V38.7217H417.757ZM417.757 35.4177H414.369L413.361 36.4537V37.1957L414.369 38.2037H415.531L417.757 35.9637V35.4177ZM422.21 38.8337L420.964 37.4337V28.9217H421.51V37.2237L422.602 38.4697L422.21 38.8337ZM428.795 35.3757H425.183V37.1957L426.177 38.2037H429.285V38.7217H425.939L424.637 37.4057V33.0377L425.939 31.7217H428.795L430.097 33.0377V34.0457L428.795 35.3757ZM429.551 33.2477L428.557 32.2397H426.177L425.183 33.2477V34.8717H428.557L429.551 33.8497V33.2477Z"/>
</mask>
<path d="M333.034 29.4397V38.7217H332.488V29.4397H329.198V28.9217H336.324V29.4397H333.034ZM342.877 38.7217V33.2617L341.869 32.2397H340.707L338.481 34.5217V38.7217H337.935V28.9217H338.481V33.7517L340.469 31.7217H342.121L343.423 33.0657V38.7217H342.877ZM350.1 35.3757H346.488V37.1957L347.482 38.2037H350.59V38.7217H347.244L345.942 37.4057V33.0377L347.244 31.7217H350.1L351.402 33.0377V34.0457L350.1 35.3757ZM350.856 33.2477L349.862 32.2397H347.482L346.488 33.2477V34.8717H349.862L350.856 33.8497V33.2477ZM366.685 38.7217V33.2477L365.635 32.2397H364.613L362.317 34.4937V38.7217H361.771V33.2477L360.721 32.2397H359.685L357.403 34.4797V38.7217H356.857V31.7217H357.403V33.7237L359.433 31.7217H360.987L362.317 33.0377V33.7237L364.361 31.7217H365.901L367.231 33.0377V38.7217H366.685ZM374.267 38.7217V36.7197L372.279 38.7217H370.627L369.325 37.4057V36.2437L370.627 34.9277H374.267V33.2477L373.259 32.2397H369.913V31.7217H373.511L374.813 33.0377V38.7217H374.267ZM374.267 35.4177H370.879L369.871 36.4537V37.1957L370.879 38.2037H372.041L374.267 35.9637V35.4177ZM378.416 38.7217L377.128 37.4057V33.0377L378.416 31.7217H381.44V32.2397H378.654L377.674 33.2477V37.1957L378.654 38.2037H381.552V38.7217H378.416ZM386.398 32.2397L384.2 34.4797V38.7217H383.654V31.7217H384.2V33.7237L386.16 31.7217H387.784V32.2397H386.398ZM393.002 38.7217H390.146L388.844 37.4057V33.0377L390.146 31.7217H393.002L394.304 33.0377V37.4057L393.002 38.7217ZM393.758 33.2477L392.764 32.2397H390.384L389.39 33.2477V37.1957L390.384 38.2037H392.764L393.758 37.1957V33.2477ZM403.65 38.7217H400.038V38.2037H403.412L404.406 37.1957V36.4817L403.412 35.4457H401.354L400.066 34.1297V33.0377L401.354 31.7217H404.798V32.2397H401.606L400.612 33.2477V33.9057L401.606 34.9277H403.65L404.952 36.2437V37.4057L403.65 38.7217ZM408.207 38.7217L406.919 37.4057V33.0377L408.207 31.7217H411.231V32.2397H408.445L407.465 33.2477V37.1957L408.445 38.2037H411.343V38.7217H408.207ZM417.757 38.7217V36.7197L415.769 38.7217H414.117L412.815 37.4057V36.2437L414.117 34.9277H417.757V33.2477L416.749 32.2397H413.403V31.7217H417.001L418.303 33.0377V38.7217H417.757ZM417.757 35.4177H414.369L413.361 36.4537V37.1957L414.369 38.2037H415.531L417.757 35.9637V35.4177ZM422.21 38.8337L420.964 37.4337V28.9217H421.51V37.2237L422.602 38.4697L422.21 38.8337ZM428.795 35.3757H425.183V37.1957L426.177 38.2037H429.285V38.7217H425.939L424.637 37.4057V33.0377L425.939 31.7217H428.795L430.097 33.0377V34.0457L428.795 35.3757ZM429.551 33.2477L428.557 32.2397H426.177L425.183 33.2477V34.8717H428.557L429.551 33.8497V33.2477Z" fill="black"/>
<path d="M333.034 29.4397V29.1897H332.784V29.4397H333.034ZM333.034 38.7217V38.9717H333.284V38.7217H333.034ZM332.488 38.7217H332.238V38.9717H332.488V38.7217ZM332.488 29.4397H332.738V29.1897H332.488V29.4397ZM329.198 29.4397H328.948V29.6897H329.198V29.4397ZM329.198 28.9217V28.6717H328.948V28.9217H329.198ZM336.324 28.9217H336.574V28.6717H336.324V28.9217ZM336.324 29.4397V29.6897H336.574V29.4397H336.324ZM333.034 29.4397H332.784V38.7217H333.034H333.284V29.4397H333.034ZM333.034 38.7217V38.4717H332.488V38.7217V38.9717H333.034V38.7217ZM332.488 38.7217H332.738V29.4397H332.488H332.238V38.7217H332.488ZM332.488 29.4397V29.1897H329.198V29.4397V29.6897H332.488V29.4397ZM329.198 29.4397H329.448V28.9217H329.198H328.948V29.4397H329.198ZM329.198 28.9217V29.1717H336.324V28.9217V28.6717H329.198V28.9217ZM336.324 28.9217H336.074V29.4397H336.324H336.574V28.9217H336.324ZM336.324 29.4397V29.1897H333.034V29.4397V29.6897H336.324V29.4397ZM342.877 38.7217H342.627V38.9717H342.877V38.7217ZM342.877 33.2617H343.127V33.1591L343.055 33.0861L342.877 33.2617ZM341.869 32.2397L342.047 32.0641L341.974 31.9897H341.869V32.2397ZM340.707 32.2397V31.9897H340.602L340.528 32.0651L340.707 32.2397ZM338.481 34.5217L338.302 34.3471L338.231 34.4199V34.5217H338.481ZM338.481 38.7217V38.9717H338.731V38.7217H338.481ZM337.935 38.7217H337.685V38.9717H337.935V38.7217ZM337.935 28.9217V28.6717H337.685V28.9217H337.935ZM338.481 28.9217H338.731V28.6717H338.481V28.9217ZM338.481 33.7517H338.231V34.3643L338.66 33.9266L338.481 33.7517ZM340.469 31.7217V31.4717H340.364L340.291 31.5468L340.469 31.7217ZM342.121 31.7217L342.301 31.5477L342.227 31.4717H342.121V31.7217ZM343.423 33.0657H343.673V32.9644L343.603 32.8917L343.423 33.0657ZM343.423 38.7217V38.9717H343.673V38.7217H343.423ZM342.877 38.7217H343.127V33.2617H342.877H342.627V38.7217H342.877ZM342.877 33.2617L343.055 33.0861L342.047 32.0641L341.869 32.2397L341.691 32.4152L342.699 33.4372L342.877 33.2617ZM341.869 32.2397V31.9897H340.707V32.2397V32.4897H341.869V32.2397ZM340.707 32.2397L340.528 32.0651L338.302 34.3471L338.481 34.5217L338.66 34.6962L340.886 32.4142L340.707 32.2397ZM338.481 34.5217H338.231V38.7217H338.481H338.731V34.5217H338.481ZM338.481 38.7217V38.4717H337.935V38.7217V38.9717H338.481V38.7217ZM337.935 38.7217H338.185V28.9217H337.935H337.685V38.7217H337.935ZM337.935 28.9217V29.1717H338.481V28.9217V28.6717H337.935V28.9217ZM338.481 28.9217H338.231V33.7517H338.481H338.731V28.9217H338.481ZM338.481 33.7517L338.66 33.9266L340.648 31.8966L340.469 31.7217L340.291 31.5468L338.303 33.5768L338.481 33.7517ZM340.469 31.7217V31.9717H342.121V31.7217V31.4717H340.469V31.7217ZM342.121 31.7217L341.942 31.8956L343.244 33.2396L343.423 33.0657L343.603 32.8917L342.301 31.5477L342.121 31.7217ZM343.423 33.0657H343.173V38.7217H343.423H343.673V33.0657H343.423ZM343.423 38.7217V38.4717H342.877V38.7217V38.9717H343.423V38.7217ZM350.1 35.3757V35.6257H350.205L350.279 35.5506L350.1 35.3757ZM346.488 35.3757V35.1257H346.238V35.3757H346.488ZM346.488 37.1957H346.238V37.2982L346.31 37.3712L346.488 37.1957ZM347.482 38.2037L347.304 38.3792L347.377 38.4537H347.482V38.2037ZM350.59 38.2037H350.84V37.9537H350.59V38.2037ZM350.59 38.7217V38.9717H350.84V38.7217H350.59ZM347.244 38.7217L347.066 38.8975L347.14 38.9717H347.244V38.7217ZM345.942 37.4057H345.692V37.5085L345.764 37.5815L345.942 37.4057ZM345.942 33.0377L345.764 32.8619L345.692 32.9349V33.0377H345.942ZM347.244 31.7217V31.4717H347.14L347.066 31.5459L347.244 31.7217ZM350.1 31.7217L350.278 31.5459L350.204 31.4717H350.1V31.7217ZM351.402 33.0377H351.652V32.9349L351.58 32.8619L351.402 33.0377ZM351.402 34.0457L351.581 34.2206L351.652 34.1477V34.0457H351.402ZM350.856 33.2477H351.106V33.1451L351.034 33.0721L350.856 33.2477ZM349.862 32.2397L350.04 32.0641L349.967 31.9897H349.862V32.2397ZM347.482 32.2397V31.9897H347.377L347.304 32.0641L347.482 32.2397ZM346.488 33.2477L346.31 33.0721L346.238 33.1451V33.2477H346.488ZM346.488 34.8717H346.238V35.1217H346.488V34.8717ZM349.862 34.8717V35.1217H349.968L350.041 35.046L349.862 34.8717ZM350.856 33.8497L351.035 34.024L351.106 33.9512V33.8497H350.856ZM350.1 35.3757V35.1257H346.488V35.3757V35.6257H350.1V35.3757ZM346.488 35.3757H346.238V37.1957H346.488H346.738V35.3757H346.488ZM346.488 37.1957L346.31 37.3712L347.304 38.3792L347.482 38.2037L347.66 38.0281L346.666 37.0201L346.488 37.1957ZM347.482 38.2037V38.4537H350.59V38.2037V37.9537H347.482V38.2037ZM350.59 38.2037H350.34V38.7217H350.59H350.84V38.2037H350.59ZM350.59 38.7217V38.4717H347.244V38.7217V38.9717H350.59V38.7217ZM347.244 38.7217L347.422 38.5459L346.12 37.2299L345.942 37.4057L345.764 37.5815L347.066 38.8975L347.244 38.7217ZM345.942 37.4057H346.192V33.0377H345.942H345.692V37.4057H345.942ZM345.942 33.0377L346.12 33.2135L347.422 31.8975L347.244 31.7217L347.066 31.5459L345.764 32.8619L345.942 33.0377ZM347.244 31.7217V31.9717H350.1V31.7217V31.4717H347.244V31.7217ZM350.1 31.7217L349.922 31.8975L351.224 33.2135L351.402 33.0377L351.58 32.8619L350.278 31.5459L350.1 31.7217ZM351.402 33.0377H351.152V34.0457H351.402H351.652V33.0377H351.402ZM351.402 34.0457L351.223 33.8708L349.921 35.2008L350.1 35.3757L350.279 35.5506L351.581 34.2206L351.402 34.0457ZM350.856 33.2477L351.034 33.0721L350.04 32.0641L349.862 32.2397L349.684 32.4152L350.678 33.4232L350.856 33.2477ZM349.862 32.2397V31.9897H347.482V32.2397V32.4897H349.862V32.2397ZM347.482 32.2397L347.304 32.0641L346.31 33.0721L346.488 33.2477L346.666 33.4232L347.66 32.4152L347.482 32.2397ZM346.488 33.2477H346.238V34.8717H346.488H346.738V33.2477H346.488ZM346.488 34.8717V35.1217H349.862V34.8717V34.6217H346.488V34.8717ZM349.862 34.8717L350.041 35.046L351.035 34.024L350.856 33.8497L350.677 33.6754L349.683 34.6974L349.862 34.8717ZM350.856 33.8497H351.106V33.2477H350.856H350.606V33.8497H350.856ZM366.685 38.7217H366.435V38.9717H366.685V38.7217ZM366.685 33.2477H366.935V33.1411L366.858 33.0673L366.685 33.2477ZM365.635 32.2397L365.808 32.0593L365.736 31.9897H365.635V32.2397ZM364.613 32.2397V31.9897H364.511L364.438 32.0613L364.613 32.2397ZM362.317 34.4937L362.142 34.3153L362.067 34.3888V34.4937H362.317ZM362.317 38.7217V38.9717H362.567V38.7217H362.317ZM361.771 38.7217H361.521V38.9717H361.771V38.7217ZM361.771 33.2477H362.021V33.1411L361.944 33.0673L361.771 33.2477ZM360.721 32.2397L360.894 32.0593L360.822 31.9897H360.721V32.2397ZM359.685 32.2397V31.9897H359.583L359.51 32.0613L359.685 32.2397ZM357.403 34.4797L357.228 34.3013L357.153 34.3748V34.4797H357.403ZM357.403 38.7217V38.9717H357.653V38.7217H357.403ZM356.857 38.7217H356.607V38.9717H356.857V38.7217ZM356.857 31.7217V31.4717H356.607V31.7217H356.857ZM357.403 31.7217H357.653V31.4717H357.403V31.7217ZM357.403 33.7237H357.153V34.3214L357.579 33.9017L357.403 33.7237ZM359.433 31.7217V31.4717H359.33L359.257 31.5437L359.433 31.7217ZM360.987 31.7217L361.163 31.544L361.09 31.4717H360.987V31.7217ZM362.317 33.0377H362.567V32.9334L362.493 32.86L362.317 33.0377ZM362.317 33.7237H362.067V34.3185L362.492 33.9023L362.317 33.7237ZM364.361 31.7217V31.4717H364.259L364.186 31.5431L364.361 31.7217ZM365.901 31.7217L366.077 31.544L366.004 31.4717H365.901V31.7217ZM367.231 33.0377H367.481V32.9334L367.407 32.86L367.231 33.0377ZM367.231 38.7217V38.9717H367.481V38.7217H367.231ZM366.685 38.7217H366.935V33.2477H366.685H366.435V38.7217H366.685ZM366.685 33.2477L366.858 33.0673L365.808 32.0593L365.635 32.2397L365.462 32.42L366.512 33.428L366.685 33.2477ZM365.635 32.2397V31.9897H364.613V32.2397V32.4897H365.635V32.2397ZM364.613 32.2397L364.438 32.0613L362.142 34.3153L362.317 34.4937L362.492 34.6721L364.788 32.4181L364.613 32.2397ZM362.317 34.4937H362.067V38.7217H362.317H362.567V34.4937H362.317ZM362.317 38.7217V38.4717H361.771V38.7217V38.9717H362.317V38.7217ZM361.771 38.7217H362.021V33.2477H361.771H361.521V38.7217H361.771ZM361.771 33.2477L361.944 33.0673L360.894 32.0593L360.721 32.2397L360.548 32.42L361.598 33.428L361.771 33.2477ZM360.721 32.2397V31.9897H359.685V32.2397V32.4897H360.721V32.2397ZM359.685 32.2397L359.51 32.0613L357.228 34.3013L357.403 34.4797L357.578 34.6581L359.86 32.4181L359.685 32.2397ZM357.403 34.4797H357.153V38.7217H357.403H357.653V34.4797H357.403ZM357.403 38.7217V38.4717H356.857V38.7217V38.9717H357.403V38.7217ZM356.857 38.7217H357.107V31.7217H356.857H356.607V38.7217H356.857ZM356.857 31.7217V31.9717H357.403V31.7217V31.4717H356.857V31.7217ZM357.403 31.7217H357.153V33.7237H357.403H357.653V31.7217H357.403ZM357.403 33.7237L357.579 33.9017L359.609 31.8997L359.433 31.7217L359.257 31.5437L357.227 33.5457L357.403 33.7237ZM359.433 31.7217V31.9717H360.987V31.7217V31.4717H359.433V31.7217ZM360.987 31.7217L360.811 31.8994L362.141 33.2154L362.317 33.0377L362.493 32.86L361.163 31.544L360.987 31.7217ZM362.317 33.0377H362.067V33.7237H362.317H362.567V33.0377H362.317ZM362.317 33.7237L362.492 33.9023L364.536 31.9003L364.361 31.7217L364.186 31.5431L362.142 33.5451L362.317 33.7237ZM364.361 31.7217V31.9717H365.901V31.7217V31.4717H364.361V31.7217ZM365.901 31.7217L365.725 31.8994L367.055 33.2154L367.231 33.0377L367.407 32.86L366.077 31.544L365.901 31.7217ZM367.231 33.0377H366.981V38.7217H367.231H367.481V33.0377H367.231ZM367.231 38.7217V38.4717H366.685V38.7217V38.9717H367.231V38.7217ZM374.267 38.7217H374.017V38.9717H374.267V38.7217ZM374.267 36.7197H374.517V36.1131L374.089 36.5435L374.267 36.7197ZM372.279 38.7217V38.9717H372.383L372.456 38.8978L372.279 38.7217ZM370.627 38.7217L370.449 38.8975L370.522 38.9717H370.627V38.7217ZM369.325 37.4057H369.075V37.5085L369.147 37.5815L369.325 37.4057ZM369.325 36.2437L369.147 36.0679L369.075 36.1409V36.2437H369.325ZM370.627 34.9277V34.6777H370.522L370.449 34.7519L370.627 34.9277ZM374.267 34.9277V35.1777H374.517V34.9277H374.267ZM374.267 33.2477H374.517V33.1441L374.443 33.0709L374.267 33.2477ZM373.259 32.2397L373.435 32.0629L373.362 31.9897H373.259V32.2397ZM369.913 32.2397H369.663V32.4897H369.913V32.2397ZM369.913 31.7217V31.4717H369.663V31.7217H369.913ZM373.511 31.7217L373.688 31.5459L373.615 31.4717H373.511V31.7217ZM374.813 33.0377H375.063V32.9349L374.99 32.8619L374.813 33.0377ZM374.813 38.7217V38.9717H375.063V38.7217H374.813ZM374.267 35.4177H374.517V35.1677H374.267V35.4177ZM370.879 35.4177V35.1677H370.773L370.7 35.2433L370.879 35.4177ZM369.871 36.4537L369.692 36.2793L369.621 36.3521V36.4537H369.871ZM369.871 37.1957H369.621V37.2992L369.694 37.3725L369.871 37.1957ZM370.879 38.2037L370.702 38.3805L370.775 38.4537H370.879V38.2037ZM372.041 38.2037V38.4537H372.145L372.218 38.3799L372.041 38.2037ZM374.267 35.9637L374.444 36.1399L374.517 36.0668V35.9637H374.267ZM374.267 38.7217H374.517V36.7197H374.267H374.017V38.7217H374.267ZM374.267 36.7197L374.089 36.5435L372.101 38.5455L372.279 38.7217L372.456 38.8978L374.444 36.8958L374.267 36.7197ZM372.279 38.7217V38.4717H370.627V38.7217V38.9717H372.279V38.7217ZM370.627 38.7217L370.804 38.5459L369.502 37.2299L369.325 37.4057L369.147 37.5815L370.449 38.8975L370.627 38.7217ZM369.325 37.4057H369.575V36.2437H369.325H369.075V37.4057H369.325ZM369.325 36.2437L369.502 36.4195L370.804 35.1035L370.627 34.9277L370.449 34.7519L369.147 36.0679L369.325 36.2437ZM370.627 34.9277V35.1777H374.267V34.9277V34.6777H370.627V34.9277ZM374.267 34.9277H374.517V33.2477H374.267H374.017V34.9277H374.267ZM374.267 33.2477L374.443 33.0709L373.435 32.0629L373.259 32.2397L373.082 32.4165L374.09 33.4245L374.267 33.2477ZM373.259 32.2397V31.9897H369.913V32.2397V32.4897H373.259V32.2397ZM369.913 32.2397H370.163V31.7217H369.913H369.663V32.2397H369.913ZM369.913 31.7217V31.9717H373.511V31.7217V31.4717H369.913V31.7217ZM373.511 31.7217L373.333 31.8975L374.635 33.2135L374.813 33.0377L374.99 32.8619L373.688 31.5459L373.511 31.7217ZM374.813 33.0377H374.563V38.7217H374.813H375.063V33.0377H374.813ZM374.813 38.7217V38.4717H374.267V38.7217V38.9717H374.813V38.7217ZM374.267 35.4177V35.1677H370.879V35.4177V35.6677H374.267V35.4177ZM370.879 35.4177L370.7 35.2433L369.692 36.2793L369.871 36.4537L370.05 36.628L371.058 35.592L370.879 35.4177ZM369.871 36.4537H369.621V37.1957H369.871H370.121V36.4537H369.871ZM369.871 37.1957L369.694 37.3725L370.702 38.3805L370.879 38.2037L371.055 38.0269L370.047 37.0189L369.871 37.1957ZM370.879 38.2037V38.4537H372.041V38.2037V37.9537H370.879V38.2037ZM372.041 38.2037L372.218 38.3799L374.444 36.1399L374.267 35.9637L374.089 35.7875L371.863 38.0275L372.041 38.2037ZM374.267 35.9637H374.517V35.4177H374.267H374.017V35.9637H374.267ZM378.416 38.7217L378.237 38.8965L378.31 38.9717H378.416V38.7217ZM377.127 37.4057H376.877V37.5077L376.949 37.5805L377.127 37.4057ZM377.127 33.0377L376.949 32.8628L376.877 32.9357V33.0377H377.127ZM378.416 31.7217V31.4717H378.31L378.237 31.5468L378.416 31.7217ZM381.439 31.7217H381.689V31.4717H381.439V31.7217ZM381.439 32.2397V32.4897H381.689V32.2397H381.439ZM378.653 32.2397V31.9897H378.548L378.474 32.0654L378.653 32.2397ZM377.674 33.2477L377.494 33.0734L377.424 33.1462V33.2477H377.674ZM377.674 37.1957H377.424V37.2972L377.494 37.3699L377.674 37.1957ZM378.653 38.2037L378.474 38.3779L378.548 38.4537H378.653V38.2037ZM381.551 38.2037H381.801V37.9537H381.551V38.2037ZM381.551 38.7217V38.9717H381.801V38.7217H381.551ZM378.416 38.7217L378.594 38.5468L377.306 37.2308L377.127 37.4057L376.949 37.5805L378.237 38.8965L378.416 38.7217ZM377.127 37.4057H377.377V33.0377H377.127H376.877V37.4057H377.127ZM377.127 33.0377L377.306 33.2125L378.594 31.8965L378.416 31.7217L378.237 31.5468L376.949 32.8628L377.127 33.0377ZM378.416 31.7217V31.9717H381.439V31.7217V31.4717H378.416V31.7217ZM381.439 31.7217H381.189V32.2397H381.439H381.689V31.7217H381.439ZM381.439 32.2397V31.9897H378.653V32.2397V32.4897H381.439V32.2397ZM378.653 32.2397L378.474 32.0654L377.494 33.0734L377.674 33.2477L377.853 33.4219L378.833 32.4139L378.653 32.2397ZM377.674 33.2477H377.424V37.1957H377.674H377.924V33.2477H377.674ZM377.674 37.1957L377.494 37.3699L378.474 38.3779L378.653 38.2037L378.833 38.0294L377.853 37.0214L377.674 37.1957ZM378.653 38.2037V38.4537H381.551V38.2037V37.9537H378.653V38.2037ZM381.551 38.2037H381.301V38.7217H381.551H381.801V38.2037H381.551ZM381.551 38.7217V38.4717H378.416V38.7217V38.9717H381.551V38.7217ZM386.398 32.2397V31.9897H386.293L386.219 32.0646L386.398 32.2397ZM384.2 34.4797L384.021 34.3046L383.95 34.3775V34.4797H384.2ZM384.2 38.7217V38.9717H384.45V38.7217H384.2ZM383.654 38.7217H383.404V38.9717H383.654V38.7217ZM383.654 31.7217V31.4717H383.404V31.7217H383.654ZM384.2 31.7217H384.45V31.4717H384.2V31.7217ZM384.2 33.7237H383.95V34.3364L384.379 33.8986L384.2 33.7237ZM386.16 31.7217V31.4717H386.055L385.981 31.5468L386.16 31.7217ZM387.784 31.7217H388.034V31.4717H387.784V31.7217ZM387.784 32.2397V32.4897H388.034V32.2397H387.784ZM386.398 32.2397L386.219 32.0646L384.021 34.3046L384.2 34.4797L384.378 34.6548L386.576 32.4148L386.398 32.2397ZM384.2 34.4797H383.95V38.7217H384.2H384.45V34.4797H384.2ZM384.2 38.7217V38.4717H383.654V38.7217V38.9717H384.2V38.7217ZM383.654 38.7217H383.904V31.7217H383.654H383.404V38.7217H383.654ZM383.654 31.7217V31.9717H384.2V31.7217V31.4717H383.654V31.7217ZM384.2 31.7217H383.95V33.7237H384.2H384.45V31.7217H384.2ZM384.2 33.7237L384.379 33.8986L386.339 31.8966L386.16 31.7217L385.981 31.5468L384.021 33.5488L384.2 33.7237ZM386.16 31.7217V31.9717H387.784V31.7217V31.4717H386.16V31.7217ZM387.784 31.7217H387.534V32.2397H387.784H388.034V31.7217H387.784ZM387.784 32.2397V31.9897H386.398V32.2397V32.4897H387.784V32.2397ZM393.002 38.7217V38.9717H393.107L393.18 38.8975L393.002 38.7217ZM390.146 38.7217L389.969 38.8975L390.042 38.9717H390.146V38.7217ZM388.844 37.4057H388.594V37.5085L388.667 37.5815L388.844 37.4057ZM388.844 33.0377L388.667 32.8619L388.594 32.9349V33.0377H388.844ZM390.146 31.7217V31.4717H390.042L389.969 31.5459L390.146 31.7217ZM393.002 31.7217L393.18 31.5459L393.107 31.4717H393.002V31.7217ZM394.304 33.0377H394.554V32.9349L394.482 32.8619L394.304 33.0377ZM394.304 37.4057L394.482 37.5815L394.554 37.5085V37.4057H394.304ZM393.758 33.2477H394.008V33.1451L393.936 33.0721L393.758 33.2477ZM392.764 32.2397L392.942 32.0641L392.869 31.9897H392.764V32.2397ZM390.384 32.2397V31.9897H390.28L390.206 32.0641L390.384 32.2397ZM389.39 33.2477L389.212 33.0721L389.14 33.1451V33.2477H389.39ZM389.39 37.1957H389.14V37.2982L389.212 37.3712L389.39 37.1957ZM390.384 38.2037L390.206 38.3792L390.28 38.4537H390.384V38.2037ZM392.764 38.2037V38.4537H392.869L392.942 38.3792L392.764 38.2037ZM393.758 37.1957L393.936 37.3712L394.008 37.2982V37.1957H393.758ZM393.002 38.7217V38.4717H390.146V38.7217V38.9717H393.002V38.7217ZM390.146 38.7217L390.324 38.5459L389.022 37.2299L388.844 37.4057L388.667 37.5815L389.969 38.8975L390.146 38.7217ZM388.844 37.4057H389.094V33.0377H388.844H388.594V37.4057H388.844ZM388.844 33.0377L389.022 33.2135L390.324 31.8975L390.146 31.7217L389.969 31.5459L388.667 32.8619L388.844 33.0377ZM390.146 31.7217V31.9717H393.002V31.7217V31.4717H390.146V31.7217ZM393.002 31.7217L392.825 31.8975L394.127 33.2135L394.304 33.0377L394.482 32.8619L393.18 31.5459L393.002 31.7217ZM394.304 33.0377H394.054V37.4057H394.304H394.554V33.0377H394.304ZM394.304 37.4057L394.127 37.2299L392.825 38.5459L393.002 38.7217L393.18 38.8975L394.482 37.5815L394.304 37.4057ZM393.758 33.2477L393.936 33.0721L392.942 32.0641L392.764 32.2397L392.586 32.4152L393.58 33.4232L393.758 33.2477ZM392.764 32.2397V31.9897H390.384V32.2397V32.4897H392.764V32.2397ZM390.384 32.2397L390.206 32.0641L389.212 33.0721L389.39 33.2477L389.568 33.4232L390.562 32.4152L390.384 32.2397ZM389.39 33.2477H389.14V37.1957H389.39H389.64V33.2477H389.39ZM389.39 37.1957L389.212 37.3712L390.206 38.3792L390.384 38.2037L390.562 38.0281L389.568 37.0201L389.39 37.1957ZM390.384 38.2037V38.4537H392.764V38.2037V37.9537H390.384V38.2037ZM392.764 38.2037L392.942 38.3792L393.936 37.3712L393.758 37.1957L393.58 37.0201L392.586 38.0281L392.764 38.2037ZM393.758 37.1957H394.008V33.2477H393.758H393.508V37.1957H393.758ZM403.65 38.7217V38.9717H403.755L403.828 38.8975L403.65 38.7217ZM400.038 38.7217H399.788V38.9717H400.038V38.7217ZM400.038 38.2037V37.9537H399.788V38.2037H400.038ZM403.412 38.2037V38.4537H403.517L403.59 38.3792L403.412 38.2037ZM404.406 37.1957L404.584 37.3712L404.656 37.2982V37.1957H404.406ZM404.406 36.4817H404.656V36.3811L404.587 36.3086L404.406 36.4817ZM403.412 35.4457L403.593 35.2726L403.519 35.1957H403.412V35.4457ZM401.354 35.4457L401.176 35.6205L401.249 35.6957H401.354V35.4457ZM400.066 34.1297H399.816V34.2317L399.888 34.3045L400.066 34.1297ZM400.066 33.0377L399.888 32.8628L399.816 32.9357V33.0377H400.066ZM401.354 31.7217V31.4717H401.249L401.176 31.5468L401.354 31.7217ZM404.798 31.7217H405.048V31.4717H404.798V31.7217ZM404.798 32.2397V32.4897H405.048V32.2397H404.798ZM401.606 32.2397V31.9897H401.502L401.428 32.0641L401.606 32.2397ZM400.612 33.2477L400.434 33.0721L400.362 33.1451V33.2477H400.612ZM400.612 33.9057H400.362V34.0072L400.433 34.08L400.612 33.9057ZM401.606 34.9277L401.427 35.102L401.501 35.1777H401.606V34.9277ZM403.65 34.9277L403.828 34.7519L403.755 34.6777H403.65V34.9277ZM404.952 36.2437H405.202V36.1409L405.13 36.0679L404.952 36.2437ZM404.952 37.4057L405.13 37.5815L405.202 37.5085V37.4057H404.952ZM403.65 38.7217V38.4717H400.038V38.7217V38.9717H403.65V38.7217ZM400.038 38.7217H400.288V38.2037H400.038H399.788V38.7217H400.038ZM400.038 38.2037V38.4537H403.412V38.2037V37.9537H400.038V38.2037ZM403.412 38.2037L403.59 38.3792L404.584 37.3712L404.406 37.1957L404.228 37.0201L403.234 38.0281L403.412 38.2037ZM404.406 37.1957H404.656V36.4817H404.406H404.156V37.1957H404.406ZM404.406 36.4817L404.587 36.3086L403.593 35.2726L403.412 35.4457L403.232 35.6188L404.226 36.6548L404.406 36.4817ZM403.412 35.4457V35.1957H401.354V35.4457V35.6957H403.412V35.4457ZM401.354 35.4457L401.533 35.2708L400.245 33.9548L400.066 34.1297L399.888 34.3045L401.176 35.6205L401.354 35.4457ZM400.066 34.1297H400.316V33.0377H400.066H399.816V34.1297H400.066ZM400.066 33.0377L400.245 33.2125L401.533 31.8965L401.354 31.7217L401.176 31.5468L399.888 32.8628L400.066 33.0377ZM401.354 31.7217V31.9717H404.798V31.7217V31.4717H401.354V31.7217ZM404.798 31.7217H404.548V32.2397H404.798H405.048V31.7217H404.798ZM404.798 32.2397V31.9897H401.606V32.2397V32.4897H404.798V32.2397ZM401.606 32.2397L401.428 32.0641L400.434 33.0721L400.612 33.2477L400.79 33.4232L401.784 32.4152L401.606 32.2397ZM400.612 33.2477H400.362V33.9057H400.612H400.862V33.2477H400.612ZM400.612 33.9057L400.433 34.08L401.427 35.102L401.606 34.9277L401.785 34.7534L400.791 33.7314L400.612 33.9057ZM401.606 34.9277V35.1777H403.65V34.9277V34.6777H401.606V34.9277ZM403.65 34.9277L403.473 35.1035L404.775 36.4195L404.952 36.2437L405.13 36.0679L403.828 34.7519L403.65 34.9277ZM404.952 36.2437H404.702V37.4057H404.952H405.202V36.2437H404.952ZM404.952 37.4057L404.775 37.2299L403.473 38.5459L403.65 38.7217L403.828 38.8975L405.13 37.5815L404.952 37.4057ZM408.207 38.7217L408.028 38.8965L408.101 38.9717H408.207V38.7217ZM406.919 37.4057H406.669V37.5077L406.74 37.5805L406.919 37.4057ZM406.919 33.0377L406.74 32.8628L406.669 32.9357V33.0377H406.919ZM408.207 31.7217V31.4717H408.101L408.028 31.5468L408.207 31.7217ZM411.231 31.7217H411.481V31.4717H411.231V31.7217ZM411.231 32.2397V32.4897H411.481V32.2397H411.231ZM408.445 32.2397V31.9897H408.339L408.265 32.0654L408.445 32.2397ZM407.465 33.2477L407.285 33.0734L407.215 33.1462V33.2477H407.465ZM407.465 37.1957H407.215V37.2972L407.285 37.3699L407.465 37.1957ZM408.445 38.2037L408.265 38.3779L408.339 38.4537H408.445V38.2037ZM411.343 38.2037H411.593V37.9537H411.343V38.2037ZM411.343 38.7217V38.9717H411.593V38.7217H411.343ZM408.207 38.7217L408.385 38.5468L407.097 37.2308L406.919 37.4057L406.74 37.5805L408.028 38.8965L408.207 38.7217ZM406.919 37.4057H407.169V33.0377H406.919H406.669V37.4057H406.919ZM406.919 33.0377L407.097 33.2125L408.385 31.8965L408.207 31.7217L408.028 31.5468L406.74 32.8628L406.919 33.0377ZM408.207 31.7217V31.9717H411.231V31.7217V31.4717H408.207V31.7217ZM411.231 31.7217H410.981V32.2397H411.231H411.481V31.7217H411.231ZM411.231 32.2397V31.9897H408.445V32.2397V32.4897H411.231V32.2397ZM408.445 32.2397L408.265 32.0654L407.285 33.0734L407.465 33.2477L407.644 33.4219L408.624 32.4139L408.445 32.2397ZM407.465 33.2477H407.215V37.1957H407.465H407.715V33.2477H407.465ZM407.465 37.1957L407.285 37.3699L408.265 38.3779L408.445 38.2037L408.624 38.0294L407.644 37.0214L407.465 37.1957ZM408.445 38.2037V38.4537H411.343V38.2037V37.9537H408.445V38.2037ZM411.343 38.2037H411.093V38.7217H411.343H411.593V38.2037H411.343ZM411.343 38.7217V38.4717H408.207V38.7217V38.9717H411.343V38.7217ZM417.757 38.7217H417.507V38.9717H417.757V38.7217ZM417.757 36.7197H418.007V36.1131L417.58 36.5435L417.757 36.7197ZM415.769 38.7217V38.9717H415.873L415.946 38.8978L415.769 38.7217ZM414.117 38.7217L413.939 38.8975L414.013 38.9717H414.117V38.7217ZM412.815 37.4057H412.565V37.5085L412.637 37.5815L412.815 37.4057ZM412.815 36.2437L412.637 36.0679L412.565 36.1409V36.2437H412.815ZM414.117 34.9277V34.6777H414.013L413.939 34.7519L414.117 34.9277ZM417.757 34.9277V35.1777H418.007V34.9277H417.757ZM417.757 33.2477H418.007V33.1441L417.934 33.0709L417.757 33.2477ZM416.749 32.2397L416.926 32.0629L416.852 31.9897H416.749V32.2397ZM413.403 32.2397H413.153V32.4897H413.403V32.2397ZM413.403 31.7217V31.4717H413.153V31.7217H413.403ZM417.001 31.7217L417.179 31.5459L417.105 31.4717H417.001V31.7217ZM418.303 33.0377H418.553V32.9349L418.481 32.8619L418.303 33.0377ZM418.303 38.7217V38.9717H418.553V38.7217H418.303ZM417.757 35.4177H418.007V35.1677H417.757V35.4177ZM414.369 35.4177V35.1677H414.263L414.19 35.2433L414.369 35.4177ZM413.361 36.4537L413.182 36.2793L413.111 36.3521V36.4537H413.361ZM413.361 37.1957H413.111V37.2992L413.184 37.3725L413.361 37.1957ZM414.369 38.2037L414.192 38.3805L414.265 38.4537H414.369V38.2037ZM415.531 38.2037V38.4537H415.635L415.708 38.3799L415.531 38.2037ZM417.757 35.9637L417.934 36.1399L418.007 36.0668V35.9637H417.757ZM417.757 38.7217H418.007V36.7197H417.757H417.507V38.7217H417.757ZM417.757 36.7197L417.58 36.5435L415.592 38.5455L415.769 38.7217L415.946 38.8978L417.934 36.8958L417.757 36.7197ZM415.769 38.7217V38.4717H414.117V38.7217V38.9717H415.769V38.7217ZM414.117 38.7217L414.295 38.5459L412.993 37.2299L412.815 37.4057L412.637 37.5815L413.939 38.8975L414.117 38.7217ZM412.815 37.4057H413.065V36.2437H412.815H412.565V37.4057H412.815ZM412.815 36.2437L412.993 36.4195L414.295 35.1035L414.117 34.9277L413.939 34.7519L412.637 36.0679L412.815 36.2437ZM414.117 34.9277V35.1777H417.757V34.9277V34.6777H414.117V34.9277ZM417.757 34.9277H418.007V33.2477H417.757H417.507V34.9277H417.757ZM417.757 33.2477L417.934 33.0709L416.926 32.0629L416.749 32.2397L416.572 32.4165L417.58 33.4245L417.757 33.2477ZM416.749 32.2397V31.9897H413.403V32.2397V32.4897H416.749V32.2397ZM413.403 32.2397H413.653V31.7217H413.403H413.153V32.2397H413.403ZM413.403 31.7217V31.9717H417.001V31.7217V31.4717H413.403V31.7217ZM417.001 31.7217L416.823 31.8975L418.125 33.2135L418.303 33.0377L418.481 32.8619L417.179 31.5459L417.001 31.7217ZM418.303 33.0377H418.053V38.7217H418.303H418.553V33.0377H418.303ZM418.303 38.7217V38.4717H417.757V38.7217V38.9717H418.303V38.7217ZM417.757 35.4177V35.1677H414.369V35.4177V35.6677H417.757V35.4177ZM414.369 35.4177L414.19 35.2433L413.182 36.2793L413.361 36.4537L413.54 36.628L414.548 35.592L414.369 35.4177ZM413.361 36.4537H413.111V37.1957H413.361H413.611V36.4537H413.361ZM413.361 37.1957L413.184 37.3725L414.192 38.3805L414.369 38.2037L414.546 38.0269L413.538 37.0189L413.361 37.1957ZM414.369 38.2037V38.4537H415.531V38.2037V37.9537H414.369V38.2037ZM415.531 38.2037L415.708 38.3799L417.934 36.1399L417.757 35.9637L417.58 35.7875L415.354 38.0275L415.531 38.2037ZM417.757 35.9637H418.007V35.4177H417.757H417.507V35.9637H417.757ZM422.21 38.8337L422.024 38.9999L422.193 39.1906L422.381 39.0169L422.21 38.8337ZM420.964 37.4337H420.714V37.5288L420.778 37.5999L420.964 37.4337ZM420.964 28.9217V28.6717H420.714V28.9217H420.964ZM421.51 28.9217H421.76V28.6717H421.51V28.9217ZM421.51 37.2237H421.26V37.3177L421.322 37.3885L421.51 37.2237ZM422.602 38.4697L422.773 38.6529L422.951 38.4876L422.79 38.3049L422.602 38.4697ZM422.21 38.8337L422.397 38.6675L421.151 37.2675L420.964 37.4337L420.778 37.5999L422.024 38.9999L422.21 38.8337ZM420.964 37.4337H421.214V28.9217H420.964H420.714V37.4337H420.964ZM420.964 28.9217V29.1717H421.51V28.9217V28.6717H420.964V28.9217ZM421.51 28.9217H421.26V37.2237H421.51H421.76V28.9217H421.51ZM421.51 37.2237L421.322 37.3885L422.414 38.6345L422.602 38.4697L422.79 38.3049L421.698 37.0589L421.51 37.2237ZM422.602 38.4697L422.432 38.2865L422.04 38.6505L422.21 38.8337L422.381 39.0169L422.773 38.6529L422.602 38.4697ZM428.795 35.3757V35.6257H428.9L428.974 35.5506L428.795 35.3757ZM425.183 35.3757V35.1257H424.933V35.3757H425.183ZM425.183 37.1957H424.933V37.2982L425.005 37.3712L425.183 37.1957ZM426.177 38.2037L425.999 38.3792L426.073 38.4537H426.177V38.2037ZM429.285 38.2037H429.535V37.9537H429.285V38.2037ZM429.285 38.7217V38.9717H429.535V38.7217H429.285ZM425.939 38.7217L425.762 38.8975L425.835 38.9717H425.939V38.7217ZM424.637 37.4057H424.387V37.5085L424.46 37.5815L424.637 37.4057ZM424.637 33.0377L424.46 32.8619L424.387 32.9349V33.0377H424.637ZM425.939 31.7217V31.4717H425.835L425.762 31.5459L425.939 31.7217ZM428.795 31.7217L428.973 31.5459L428.9 31.4717H428.795V31.7217ZM430.097 33.0377H430.347V32.9349L430.275 32.8619L430.097 33.0377ZM430.097 34.0457L430.276 34.2206L430.347 34.1477V34.0457H430.097ZM429.551 33.2477H429.801V33.1451L429.729 33.0721L429.551 33.2477ZM428.557 32.2397L428.735 32.0641L428.662 31.9897H428.557V32.2397ZM426.177 32.2397V31.9897H426.073L425.999 32.0641L426.177 32.2397ZM425.183 33.2477L425.005 33.0721L424.933 33.1451V33.2477H425.183ZM425.183 34.8717H424.933V35.1217H425.183V34.8717ZM428.557 34.8717V35.1217H428.663L428.736 35.046L428.557 34.8717ZM429.551 33.8497L429.73 34.024L429.801 33.9512V33.8497H429.551ZM428.795 35.3757V35.1257H425.183V35.3757V35.6257H428.795V35.3757ZM425.183 35.3757H424.933V37.1957H425.183H425.433V35.3757H425.183ZM425.183 37.1957L425.005 37.3712L425.999 38.3792L426.177 38.2037L426.355 38.0281L425.361 37.0201L425.183 37.1957ZM426.177 38.2037V38.4537H429.285V38.2037V37.9537H426.177V38.2037ZM429.285 38.2037H429.035V38.7217H429.285H429.535V38.2037H429.285ZM429.285 38.7217V38.4717H425.939V38.7217V38.9717H429.285V38.7217ZM425.939 38.7217L426.117 38.5459L424.815 37.2299L424.637 37.4057L424.46 37.5815L425.762 38.8975L425.939 38.7217ZM424.637 37.4057H424.887V33.0377H424.637H424.387V37.4057H424.637ZM424.637 33.0377L424.815 33.2135L426.117 31.8975L425.939 31.7217L425.762 31.5459L424.46 32.8619L424.637 33.0377ZM425.939 31.7217V31.9717H428.795V31.7217V31.4717H425.939V31.7217ZM428.795 31.7217L428.618 31.8975L429.92 33.2135L430.097 33.0377L430.275 32.8619L428.973 31.5459L428.795 31.7217ZM430.097 33.0377H429.847V34.0457H430.097H430.347V33.0377H430.097ZM430.097 34.0457L429.919 33.8708L428.617 35.2008L428.795 35.3757L428.974 35.5506L430.276 34.2206L430.097 34.0457ZM429.551 33.2477L429.729 33.0721L428.735 32.0641L428.557 32.2397L428.379 32.4152L429.373 33.4232L429.551 33.2477ZM428.557 32.2397V31.9897H426.177V32.2397V32.4897H428.557V32.2397ZM426.177 32.2397L425.999 32.0641L425.005 33.0721L425.183 33.2477L425.361 33.4232L426.355 32.4152L426.177 32.2397ZM425.183 33.2477H424.933V34.8717H425.183H425.433V33.2477H425.183ZM425.183 34.8717V35.1217H428.557V34.8717V34.6217H425.183V34.8717ZM428.557 34.8717L428.736 35.046L429.73 34.024L429.551 33.8497L429.372 33.6754L428.378 34.6974L428.557 34.8717ZM429.551 33.8497H429.801V33.2477H429.551H429.301V33.8497H429.551Z" fill="black" mask="url(#path-2-outside-1_268_41)"/>
<path d="M329.162 69.7217V61.1417H332.162C334.658 61.1417 335.738 62.9417 335.738 65.4617C335.738 67.9817 334.574 69.7217 332.078 69.7217H329.162ZM329.786 69.1697H332.054C334.13 69.1697 335.09 67.7297 335.09 65.4617C335.09 63.1937 334.214 61.7057 332.138 61.7057H329.786V69.1697ZM339.249 69.8777C337.425 69.8777 336.441 68.5337 336.441 66.6257C336.441 64.7177 337.509 63.3857 339.201 63.3857C339.873 63.3857 340.425 63.6017 340.833 63.9857C341.517 64.6217 341.745 65.5097 341.733 66.6857H337.041C337.053 68.1737 337.725 69.3617 339.249 69.3617C340.365 69.3617 340.881 68.7137 341.133 67.8737H341.697C341.445 69.0257 340.629 69.8777 339.249 69.8777ZM337.053 66.2057H341.133C341.097 64.9817 340.569 63.8897 339.201 63.8897C337.857 63.8897 337.173 64.8977 337.053 66.2057ZM344.687 69.8777C343.067 69.8777 342.299 68.9177 342.239 67.8497H342.839C342.923 68.8697 343.655 69.3737 344.687 69.3737C345.731 69.3737 346.355 68.8577 346.355 68.0417C346.355 67.3697 346.031 67.1057 344.663 66.7817C343.391 66.4817 342.443 66.1457 342.443 65.0417C342.443 64.0097 343.379 63.3857 344.555 63.3857C345.983 63.3857 346.619 64.1417 346.763 65.1497H346.187C346.103 64.3577 345.491 63.9017 344.555 63.9017C343.547 63.9017 343.031 64.3817 343.031 65.0297C343.031 65.7497 343.607 65.9537 344.879 66.2537C346.127 66.5417 346.943 66.8777 346.943 68.0537C346.943 69.0617 346.139 69.8777 344.687 69.8777ZM348.163 62.3657C347.923 62.3657 347.755 62.1737 347.755 61.9457C347.755 61.7177 347.923 61.5377 348.163 61.5377C348.403 61.5377 348.583 61.7177 348.583 61.9457C348.583 62.1737 348.403 62.3657 348.163 62.3657ZM347.863 69.7217V63.5177H348.451V69.7217H347.863ZM352.042 69.1697C353.386 69.1697 354.154 68.1737 354.154 66.5657C354.154 65.0297 353.458 63.8897 352.078 63.8897C350.806 63.8897 349.99 64.9457 349.99 66.5657C349.99 68.0297 350.638 69.1697 352.042 69.1697ZM352.09 71.9657C350.614 71.9657 349.798 71.2457 349.702 70.4057H350.29C350.458 71.1497 351.19 71.4617 352.066 71.4617C353.506 71.4617 354.106 70.6577 354.106 69.5537V68.4977H354.07C353.614 69.2657 352.99 69.6617 352.018 69.6617C350.362 69.6617 349.39 68.4017 349.39 66.5537C349.39 64.4897 350.614 63.3857 352.054 63.3857C353.05 63.3857 353.662 63.8657 354.07 64.5857H354.106V63.5177H354.694V69.5417C354.694 70.2497 354.478 70.8257 354.082 71.2457C353.614 71.7137 352.978 71.9657 352.09 71.9657ZM355.889 69.7217V63.5177H356.477V64.5617H356.501C356.909 63.9017 357.605 63.3977 358.661 63.3977C359.717 63.3977 360.557 64.0577 360.557 65.2937V69.7217H359.969V65.3537C359.969 64.3337 359.417 63.9017 358.553 63.9017C357.449 63.9017 356.477 64.6817 356.477 65.7137V69.7217H355.889ZM365.231 69.7697C364.595 69.7697 364.175 69.4457 364.175 68.7137V64.0097H363.215V63.5177H364.175V61.6457H364.763V63.5177H365.891V64.0097H364.763V68.6657C364.763 69.1217 364.943 69.2657 365.351 69.2657C365.507 69.2657 365.711 69.2177 365.819 69.1577H365.855V69.6617C365.663 69.7337 365.483 69.7697 365.231 69.7697ZM366.894 69.7217V61.1417H367.482V64.5617H367.506C367.914 63.9017 368.61 63.3977 369.666 63.3977C370.722 63.3977 371.562 64.0577 371.562 65.2937V69.7217H370.974V65.3537C370.974 64.3337 370.422 63.9017 369.558 63.9017C368.454 63.9017 367.482 64.6817 367.482 65.7137V69.7217H366.894ZM374.433 69.3857C375.837 69.3857 376.641 68.4497 376.641 67.5137V66.3617C376.209 66.5777 375.549 66.6617 374.913 66.7337C373.821 66.8537 372.993 66.9977 372.993 68.1737C372.993 69.0497 373.641 69.3857 374.433 69.3857ZM374.373 69.8777C373.233 69.8777 372.393 69.2897 372.393 68.1497C372.393 66.6737 373.545 66.3737 374.841 66.2417C376.305 66.0977 376.641 66.0257 376.641 65.4497V65.2337C376.641 64.2977 376.089 63.8897 375.081 63.8897C373.917 63.8897 373.293 64.3697 373.209 65.2817H372.609C372.729 64.0817 373.533 63.3857 375.081 63.3857C376.461 63.3857 377.229 63.9977 377.229 65.2697V68.9177C377.229 69.2537 377.409 69.3497 377.625 69.3497C377.709 69.3497 377.805 69.3257 377.913 69.2897H377.949V69.7217C377.853 69.7697 377.709 69.8177 377.469 69.8177C376.989 69.8177 376.653 69.5537 376.653 68.9777V68.7617H376.617C376.269 69.2537 375.645 69.8777 374.373 69.8777ZM379.973 69.7697C379.337 69.7697 378.917 69.4457 378.917 68.7137V64.0097H377.957V63.5177H378.917V61.6457H379.505V63.5177H380.633V64.0097H379.505V68.6657C379.505 69.1217 379.685 69.2657 380.093 69.2657C380.249 69.2657 380.453 69.2177 380.561 69.1577H380.597V69.6617C380.405 69.7337 380.225 69.7697 379.973 69.7697ZM387.938 71.7137V68.6897H387.914C387.458 69.4457 386.786 69.8537 385.814 69.8537C384.158 69.8537 383.21 68.4857 383.21 66.6377C383.21 64.5737 384.41 63.3857 385.85 63.3857C386.846 63.3857 387.506 63.8657 387.914 64.5977H387.938V63.5177H388.526V71.7137H387.938ZM385.838 69.3617C387.182 69.3617 387.998 68.2937 387.998 66.6497C387.998 65.0777 387.254 63.8897 385.874 63.8897C384.602 63.8897 383.81 64.9937 383.81 66.6497C383.81 68.1377 384.434 69.3617 385.838 69.3617ZM391.665 69.8657C390.525 69.8657 389.673 69.1817 389.673 67.9457V63.5177H390.261V67.8857C390.261 68.9057 390.849 69.3617 391.773 69.3617C392.865 69.3617 393.681 68.5337 393.681 67.4417V63.5177H394.269V69.7217H393.681V68.7737H393.657C393.249 69.3737 392.709 69.8657 391.665 69.8657ZM397.971 69.8777C396.147 69.8777 395.163 68.5337 395.163 66.6257C395.163 64.7177 396.231 63.3857 397.923 63.3857C398.595 63.3857 399.147 63.6017 399.555 63.9857C400.239 64.6217 400.467 65.5097 400.455 66.6857H395.763C395.775 68.1737 396.447 69.3617 397.971 69.3617C399.087 69.3617 399.603 68.7137 399.855 67.8737H400.419C400.167 69.0257 399.351 69.8777 397.971 69.8777ZM395.775 66.2057H399.855C399.819 64.9817 399.291 63.8897 397.923 63.8897C396.579 63.8897 395.895 64.8977 395.775 66.2057ZM403.41 69.8777C401.79 69.8777 401.022 68.9177 400.962 67.8497H401.562C401.646 68.8697 402.378 69.3737 403.41 69.3737C404.454 69.3737 405.078 68.8577 405.078 68.0417C405.078 67.3697 404.754 67.1057 403.386 66.7817C402.114 66.4817 401.166 66.1457 401.166 65.0417C401.166 64.0097 402.102 63.3857 403.278 63.3857C404.706 63.3857 405.342 64.1417 405.486 65.1497H404.91C404.826 64.3577 404.214 63.9017 403.278 63.9017C402.27 63.9017 401.754 64.3817 401.754 65.0297C401.754 65.7497 402.33 65.9537 403.602 66.2537C404.85 66.5417 405.666 66.8777 405.666 68.0537C405.666 69.0617 404.862 69.8777 403.41 69.8777ZM407.957 69.7697C407.321 69.7697 406.901 69.4457 406.901 68.7137V64.0097H405.941V63.5177H406.901V61.6457H407.489V63.5177H408.617V64.0097H407.489V68.6657C407.489 69.1217 407.669 69.2657 408.077 69.2657C408.233 69.2657 408.437 69.2177 408.545 69.1577H408.581V69.6617C408.389 69.7337 408.209 69.7697 407.957 69.7697ZM409.897 62.3657C409.657 62.3657 409.489 62.1737 409.489 61.9457C409.489 61.7177 409.657 61.5377 409.897 61.5377C410.137 61.5377 410.317 61.7177 410.317 61.9457C410.317 62.1737 410.137 62.3657 409.897 62.3657ZM409.597 69.7217V63.5177H410.185V69.7217H409.597ZM413.908 69.8777C412.168 69.8777 411.124 68.4977 411.124 66.6257C411.124 64.7537 412.168 63.3857 413.908 63.3857C415.66 63.3857 416.692 64.7537 416.692 66.6257C416.692 68.4977 415.66 69.8777 413.908 69.8777ZM413.908 69.3737C415.336 69.3737 416.092 68.1377 416.092 66.6257C416.092 65.1137 415.336 63.8777 413.908 63.8777C412.48 63.8777 411.724 65.1137 411.724 66.6257C411.724 68.1377 412.48 69.3737 413.908 69.3737ZM417.588 69.7217V63.5177H418.176V64.5617H418.2C418.608 63.9017 419.304 63.3977 420.36 63.3977C421.416 63.3977 422.256 64.0577 422.256 65.2937V69.7217H421.668V65.3537C421.668 64.3337 421.116 63.9017 420.252 63.9017C419.148 63.9017 418.176 64.6817 418.176 65.7137V69.7217H417.588ZM425.465 69.8777C423.845 69.8777 423.077 68.9177 423.017 67.8497H423.617C423.701 68.8697 424.433 69.3737 425.465 69.3737C426.509 69.3737 427.133 68.8577 427.133 68.0417C427.133 67.3697 426.809 67.1057 425.441 66.7817C424.169 66.4817 423.221 66.1457 423.221 65.0417C423.221 64.0097 424.157 63.3857 425.333 63.3857C426.761 63.3857 427.397 64.1417 427.541 65.1497H426.965C426.881 64.3577 426.269 63.9017 425.333 63.9017C424.325 63.9017 423.809 64.3817 423.809 65.0297C423.809 65.7497 424.385 65.9537 425.657 66.2537C426.905 66.5417 427.721 66.8777 427.721 68.0537C427.721 69.0617 426.917 69.8777 425.465 69.8777ZM430.598 69.7217V61.1417H431.186V64.5617H431.21C431.618 63.9017 432.314 63.3977 433.37 63.3977C434.426 63.3977 435.266 64.0577 435.266 65.2937V69.7217H434.678V65.3537C434.678 64.3337 434.126 63.9017 433.262 63.9017C432.158 63.9017 431.186 64.6817 431.186 65.7137V69.7217H430.598ZM438.904 69.8777C437.164 69.8777 436.12 68.4977 436.12 66.6257C436.12 64.7537 437.164 63.3857 438.904 63.3857C440.656 63.3857 441.688 64.7537 441.688 66.6257C441.688 68.4977 440.656 69.8777 438.904 69.8777ZM438.904 69.3737C440.332 69.3737 441.088 68.1377 441.088 66.6257C441.088 65.1137 440.332 63.8777 438.904 63.8777C437.476 63.8777 436.72 65.1137 436.72 66.6257C436.72 68.1377 437.476 69.3737 438.904 69.3737ZM443.741 69.7217L441.977 63.5177H442.589L443.645 67.3577C443.837 68.0417 444.089 69.1817 444.089 69.1817H444.113C444.113 69.1817 444.389 68.0657 444.557 67.4417L445.625 63.5177H446.285L447.317 67.4417C447.473 68.0537 447.737 69.1817 447.737 69.1817H447.761C447.761 69.1817 448.061 68.0297 448.253 67.3577L449.393 63.5177H449.981L448.085 69.7217H447.377L446.297 65.6177C446.129 64.9817 445.961 64.1417 445.961 64.1417H445.937C445.937 64.1417 445.757 64.9817 445.589 65.6177L444.473 69.7217H443.741ZM454.27 69.7697C453.634 69.7697 453.214 69.4457 453.214 68.7137V64.0097H452.254V63.5177H453.214V61.6457H453.802V63.5177H454.93V64.0097H453.802V68.6657C453.802 69.1217 453.982 69.2657 454.39 69.2657C454.546 69.2657 454.75 69.2177 454.858 69.1577H454.894V69.6617C454.702 69.7337 454.522 69.7697 454.27 69.7697ZM455.933 69.7217V61.1417H456.521V64.5617H456.545C456.953 63.9017 457.649 63.3977 458.705 63.3977C459.761 63.3977 460.601 64.0577 460.601 65.2937V69.7217H460.013V65.3537C460.013 64.3337 459.461 63.9017 458.597 63.9017C457.493 63.9017 456.521 64.6817 456.521 65.7137V69.7217H455.933ZM462.092 62.3657C461.852 62.3657 461.684 62.1737 461.684 61.9457C461.684 61.7177 461.852 61.5377 462.092 61.5377C462.332 61.5377 462.512 61.7177 462.512 61.9457C462.512 62.1737 462.332 62.3657 462.092 62.3657ZM461.792 69.7217V63.5177H462.38V69.7217H461.792ZM463.62 69.7217V63.5177H464.208V64.5617H464.232C464.64 63.9017 465.336 63.3977 466.392 63.3977C467.448 63.3977 468.288 64.0577 468.288 65.2937V69.7217H467.7V65.3537C467.7 64.3337 467.148 63.9017 466.284 63.9017C465.18 63.9017 464.208 64.6817 464.208 65.7137V69.7217H463.62ZM471.796 69.1697C473.14 69.1697 473.908 68.1737 473.908 66.5657C473.908 65.0297 473.212 63.8897 471.832 63.8897C470.56 63.8897 469.744 64.9457 469.744 66.5657C469.744 68.0297 470.392 69.1697 471.796 69.1697ZM471.844 71.9657C470.368 71.9657 469.552 71.2457 469.456 70.4057H470.044C470.212 71.1497 470.944 71.4617 471.82 71.4617C473.26 71.4617 473.86 70.6577 473.86 69.5537V68.4977H473.824C473.368 69.2657 472.744 69.6617 471.772 69.6617C470.116 69.6617 469.144 68.4017 469.144 66.5537C469.144 64.4897 470.368 63.3857 471.808 63.3857C472.804 63.3857 473.416 63.8657 473.824 64.5857H473.86V63.5177H474.448V69.5417C474.448 70.2497 474.232 70.8257 473.836 71.2457C473.368 71.7137 472.732 71.9657 471.844 71.9657ZM477.695 69.8777C476.075 69.8777 475.307 68.9177 475.247 67.8497H475.847C475.931 68.8697 476.663 69.3737 477.695 69.3737C478.739 69.3737 479.363 68.8577 479.363 68.0417C479.363 67.3697 479.039 67.1057 477.671 66.7817C476.399 66.4817 475.451 66.1457 475.451 65.0417C475.451 64.0097 476.387 63.3857 477.563 63.3857C478.991 63.3857 479.627 64.1417 479.771 65.1497H479.195C479.111 64.3577 478.499 63.9017 477.563 63.9017C476.555 63.9017 476.039 64.3817 476.039 65.0297C476.039 65.7497 476.615 65.9537 477.887 66.2537C479.135 66.5417 479.951 66.8777 479.951 68.0537C479.951 69.0617 479.147 69.8777 477.695 69.8777ZM484.484 69.3857C485.888 69.3857 486.692 68.4497 486.692 67.5137V66.3617C486.26 66.5777 485.6 66.6617 484.964 66.7337C483.872 66.8537 483.044 66.9977 483.044 68.1737C483.044 69.0497 483.692 69.3857 484.484 69.3857ZM484.424 69.8777C483.284 69.8777 482.444 69.2897 482.444 68.1497C482.444 66.6737 483.596 66.3737 484.892 66.2417C486.356 66.0977 486.692 66.0257 486.692 65.4497V65.2337C486.692 64.2977 486.14 63.8897 485.132 63.8897C483.968 63.8897 483.344 64.3697 483.26 65.2817H482.66C482.78 64.0817 483.584 63.3857 485.132 63.3857C486.512 63.3857 487.28 63.9977 487.28 65.2697V68.9177C487.28 69.2537 487.46 69.3497 487.676 69.3497C487.76 69.3497 487.856 69.3257 487.964 69.2897H488V69.7217C487.904 69.7697 487.76 69.8177 487.52 69.8177C487.04 69.8177 486.704 69.5537 486.704 68.9777V68.7617H486.668C486.32 69.2537 485.696 69.8777 484.424 69.8777ZM488.674 69.7217V63.5177H489.262V64.7417H489.286C489.682 63.9497 490.33 63.4817 491.218 63.4817H491.302V64.0697C490.882 64.0457 490.45 64.1297 490.078 64.4177C489.586 64.8017 489.262 65.3897 489.262 66.1337V69.7217H488.674ZM494.241 69.8777C492.417 69.8777 491.433 68.5337 491.433 66.6257C491.433 64.7177 492.501 63.3857 494.193 63.3857C494.865 63.3857 495.417 63.6017 495.825 63.9857C496.509 64.6217 496.737 65.5097 496.725 66.6857H492.033C492.045 68.1737 492.717 69.3617 494.241 69.3617C495.357 69.3617 495.873 68.7137 496.125 67.8737H496.689C496.437 69.0257 495.621 69.8777 494.241 69.8777ZM492.045 66.2057H496.125C496.089 64.9817 495.561 63.8897 494.193 63.8897C492.849 63.8897 492.165 64.8977 492.045 66.2057ZM502.297 69.8777C501.265 69.8777 500.641 69.4577 500.173 68.7017H500.149V69.7217H499.561V61.1417H500.149V64.7057H500.173C500.593 63.9257 501.301 63.3857 502.345 63.3857C503.785 63.3857 504.853 64.5737 504.853 66.6377C504.853 68.4857 503.893 69.8777 502.297 69.8777ZM502.273 69.3857C503.605 69.3857 504.253 68.1257 504.253 66.6497C504.253 64.9937 503.533 63.8897 502.261 63.8897C500.881 63.8897 500.089 65.0777 500.089 66.6497C500.089 68.2937 500.869 69.3857 502.273 69.3857ZM507.692 69.8657C506.552 69.8657 505.7 69.1817 505.7 67.9457V63.5177H506.288V67.8857C506.288 68.9057 506.876 69.3617 507.8 69.3617C508.892 69.3617 509.708 68.5337 509.708 67.4417V63.5177H510.296V69.7217H509.708V68.7737H509.684C509.276 69.3737 508.736 69.8657 507.692 69.8657ZM511.827 62.3657C511.587 62.3657 511.419 62.1737 511.419 61.9457C511.419 61.7177 511.587 61.5377 511.827 61.5377C512.067 61.5377 512.247 61.7177 512.247 61.9457C512.247 62.1737 512.067 62.3657 511.827 62.3657ZM511.527 69.7217V63.5177H512.115V69.7217H511.527ZM513.39 69.7217V61.1417H513.978V69.7217H513.39ZM516.801 69.7697C516.165 69.7697 515.745 69.4457 515.745 68.7137V64.0097H514.785V63.5177H515.745V61.6457H516.333V63.5177H517.461V64.0097H516.333V68.6657C516.333 69.1217 516.513 69.2657 516.921 69.2657C517.077 69.2657 517.281 69.2177 517.389 69.1577H517.425V69.6617C517.233 69.7337 517.053 69.7697 516.801 69.7697ZM522.054 69.3857C523.458 69.3857 524.262 68.4497 524.262 67.5137V66.3617C523.83 66.5777 523.17 66.6617 522.534 66.7337C521.442 66.8537 520.614 66.9977 520.614 68.1737C520.614 69.0497 521.262 69.3857 522.054 69.3857ZM521.994 69.8777C520.854 69.8777 520.014 69.2897 520.014 68.1497C520.014 66.6737 521.166 66.3737 522.462 66.2417C523.926 66.0977 524.262 66.0257 524.262 65.4497V65.2337C524.262 64.2977 523.71 63.8897 522.702 63.8897C521.538 63.8897 520.914 64.3697 520.83 65.2817H520.23C520.35 64.0817 521.154 63.3857 522.702 63.3857C524.082 63.3857 524.85 63.9977 524.85 65.2697V68.9177C524.85 69.2537 525.03 69.3497 525.246 69.3497C525.33 69.3497 525.426 69.3257 525.534 69.2897H525.57V69.7217C525.474 69.7697 525.33 69.8177 525.09 69.8177C524.61 69.8177 524.274 69.5537 524.274 68.9777V68.7617H524.238C523.89 69.2537 523.266 69.8777 521.994 69.8777ZM526.245 69.7217V63.5177H526.833V64.5617H526.857C527.265 63.9017 527.961 63.3977 529.017 63.3977C530.073 63.3977 530.913 64.0577 530.913 65.2937V69.7217H530.325V65.3537C530.325 64.3337 529.773 63.9017 528.909 63.9017C527.805 63.9017 526.833 64.6817 526.833 65.7137V69.7217H526.245ZM534.409 69.3857C535.753 69.3857 536.557 68.2937 536.557 66.6497C536.557 65.0777 535.801 63.8897 534.421 63.8897C533.149 63.8897 532.369 64.9937 532.369 66.6497C532.369 68.1377 533.017 69.3857 534.409 69.3857ZM534.385 69.8777C532.729 69.8777 531.769 68.4857 531.769 66.6377C531.769 64.5737 532.933 63.3857 534.373 63.3857C535.369 63.3857 536.077 63.8537 536.473 64.6457H536.497V61.1417H537.085V69.7217H536.497V68.6897H536.473C536.017 69.4577 535.357 69.8777 534.385 69.8777ZM329.018 87.7217V81.5177H329.606V82.7417H329.63C330.026 81.9497 330.674 81.4817 331.562 81.4817H331.646V82.0697C331.226 82.0457 330.794 82.1297 330.422 82.4177C329.93 82.8017 329.606 83.3897 329.606 84.1337V87.7217H329.018ZM334.585 87.8777C332.761 87.8777 331.777 86.5337 331.777 84.6257C331.777 82.7177 332.845 81.3857 334.537 81.3857C335.209 81.3857 335.761 81.6017 336.169 81.9857C336.853 82.6217 337.081 83.5097 337.069 84.6857H332.377C332.389 86.1737 333.061 87.3617 334.585 87.3617C335.701 87.3617 336.217 86.7137 336.469 85.8737H337.033C336.781 87.0257 335.965 87.8777 334.585 87.8777ZM332.389 84.2057H336.469C336.433 82.9817 335.905 81.8897 334.537 81.8897C333.193 81.8897 332.509 82.8977 332.389 84.2057ZM338.307 80.3657C338.067 80.3657 337.899 80.1737 337.899 79.9457C337.899 79.7177 338.067 79.5377 338.307 79.5377C338.547 79.5377 338.727 79.7177 338.727 79.9457C338.727 80.1737 338.547 80.3657 338.307 80.3657ZM338.007 87.7217V81.5177H338.595V87.7217H338.007ZM339.834 87.7217V81.5177H340.422V82.4897H340.446C340.854 81.8537 341.406 81.3977 342.366 81.3977C343.134 81.3977 343.806 81.7817 344.046 82.5377H344.082C344.49 81.8297 345.174 81.3977 346.134 81.3977C347.166 81.3977 348.006 82.0577 348.006 83.2937V87.7217H347.418V83.3537C347.418 82.3337 346.854 81.9017 346.002 81.9017C345.03 81.9017 344.214 82.5257 344.214 83.7137V87.7217H343.626V83.3537C343.626 82.3337 343.038 81.9017 342.258 81.9017C341.286 81.9017 340.422 82.6817 340.422 83.7137V87.7217H339.834ZM350.879 87.3857C352.283 87.3857 353.087 86.4497 353.087 85.5137V84.3617C352.655 84.5777 351.995 84.6617 351.359 84.7337C350.267 84.8537 349.439 84.9977 349.439 86.1737C349.439 87.0497 350.087 87.3857 350.879 87.3857ZM350.819 87.8777C349.679 87.8777 348.839 87.2897 348.839 86.1497C348.839 84.6737 349.991 84.3737 351.287 84.2417C352.751 84.0977 353.087 84.0257 353.087 83.4497V83.2337C353.087 82.2977 352.535 81.8897 351.527 81.8897C350.363 81.8897 349.739 82.3697 349.655 83.2817H349.055C349.175 82.0817 349.979 81.3857 351.527 81.3857C352.907 81.3857 353.675 81.9977 353.675 83.2697V86.9177C353.675 87.2537 353.855 87.3497 354.071 87.3497C354.155 87.3497 354.251 87.3257 354.359 87.2897H354.395V87.7217C354.299 87.7697 354.155 87.8177 353.915 87.8177C353.435 87.8177 353.099 87.5537 353.099 86.9777V86.7617H353.063C352.715 87.2537 352.09 87.8777 350.819 87.8777ZM357.304 87.1697C358.648 87.1697 359.416 86.1737 359.416 84.5657C359.416 83.0297 358.72 81.8897 357.34 81.8897C356.068 81.8897 355.252 82.9457 355.252 84.5657C355.252 86.0297 355.9 87.1697 357.304 87.1697ZM357.352 89.9657C355.876 89.9657 355.06 89.2457 354.964 88.4057H355.552C355.72 89.1497 356.452 89.4617 357.328 89.4617C358.768 89.4617 359.368 88.6577 359.368 87.5537V86.4977H359.332C358.876 87.2657 358.252 87.6617 357.28 87.6617C355.624 87.6617 354.652 86.4017 354.652 84.5537C354.652 82.4897 355.876 81.3857 357.316 81.3857C358.312 81.3857 358.924 81.8657 359.332 82.5857H359.368V81.5177H359.956V87.5417C359.956 88.2497 359.74 88.8257 359.344 89.2457C358.876 89.7137 358.24 89.9657 357.352 89.9657ZM361.487 80.3657C361.247 80.3657 361.079 80.1737 361.079 79.9457C361.079 79.7177 361.247 79.5377 361.487 79.5377C361.727 79.5377 361.907 79.7177 361.907 79.9457C361.907 80.1737 361.727 80.3657 361.487 80.3657ZM361.187 87.7217V81.5177H361.775V87.7217H361.187ZM363.014 87.7217V81.5177H363.602V82.5617H363.626C364.034 81.9017 364.73 81.3977 365.786 81.3977C366.842 81.3977 367.682 82.0577 367.682 83.2937V87.7217H367.094V83.3537C367.094 82.3337 366.542 81.9017 365.678 81.9017C364.574 81.9017 363.602 82.6817 363.602 83.7137V87.7217H363.014ZM371.346 87.8777C369.522 87.8777 368.538 86.5337 368.538 84.6257C368.538 82.7177 369.606 81.3857 371.298 81.3857C371.97 81.3857 372.522 81.6017 372.93 81.9857C373.614 82.6217 373.842 83.5097 373.83 84.6857H369.138C369.15 86.1737 369.822 87.3617 371.346 87.3617C372.462 87.3617 372.978 86.7137 373.23 85.8737H373.794C373.542 87.0257 372.726 87.8777 371.346 87.8777ZM369.15 84.2057H373.23C373.194 82.9817 372.666 81.8897 371.298 81.8897C369.954 81.8897 369.27 82.8977 369.15 84.2057ZM376.785 87.8777C375.165 87.8777 374.397 86.9177 374.337 85.8497H374.937C375.021 86.8697 375.753 87.3737 376.785 87.3737C377.829 87.3737 378.453 86.8577 378.453 86.0417C378.453 85.3697 378.129 85.1057 376.761 84.7817C375.489 84.4817 374.541 84.1457 374.541 83.0417C374.541 82.0097 375.477 81.3857 376.653 81.3857C378.081 81.3857 378.717 82.1417 378.861 83.1497H378.285C378.201 82.3577 377.589 81.9017 376.653 81.9017C375.645 81.9017 375.129 82.3817 375.129 83.0297C375.129 83.7497 375.705 83.9537 376.977 84.2537C378.225 84.5417 379.041 84.8777 379.041 86.0537C379.041 87.0617 378.237 87.8777 376.785 87.8777ZM383.442 87.7697C382.806 87.7697 382.386 87.4457 382.386 86.7137V82.0097H381.426V81.5177H382.386V79.6457H382.974V81.5177H384.102V82.0097H382.974V86.6657C382.974 87.1217 383.154 87.2657 383.562 87.2657C383.718 87.2657 383.922 87.2177 384.03 87.1577H384.066V87.6617C383.874 87.7337 383.694 87.7697 383.442 87.7697ZM385.105 87.7217V79.1417H385.693V82.5617H385.717C386.125 81.9017 386.821 81.3977 387.877 81.3977C388.933 81.3977 389.773 82.0577 389.773 83.2937V87.7217H389.185V83.3537C389.185 82.3337 388.633 81.9017 387.769 81.9017C386.665 81.9017 385.693 82.6817 385.693 83.7137V87.7217H385.105ZM393.436 87.8777C391.612 87.8777 390.628 86.5337 390.628 84.6257C390.628 82.7177 391.696 81.3857 393.388 81.3857C394.06 81.3857 394.612 81.6017 395.02 81.9857C395.704 82.6217 395.932 83.5097 395.92 84.6857H391.228C391.24 86.1737 391.912 87.3617 393.436 87.3617C394.552 87.3617 395.068 86.7137 395.32 85.8737H395.884C395.632 87.0257 394.816 87.8777 393.436 87.8777ZM391.24 84.2057H395.32C395.284 82.9817 394.756 81.8897 393.388 81.8897C392.044 81.8897 391.36 82.8977 391.24 84.2057ZM400.808 87.8777C399.188 87.8777 398.42 86.9177 398.36 85.8497H398.96C399.044 86.8697 399.776 87.3737 400.808 87.3737C401.852 87.3737 402.476 86.8577 402.476 86.0417C402.476 85.3697 402.152 85.1057 400.784 84.7817C399.512 84.4817 398.564 84.1457 398.564 83.0417C398.564 82.0097 399.5 81.3857 400.676 81.3857C402.104 81.3857 402.74 82.1417 402.884 83.1497H402.308C402.224 82.3577 401.612 81.9017 400.676 81.9017C399.668 81.9017 399.152 82.3817 399.152 83.0297C399.152 83.7497 399.728 83.9537 401 84.2537C402.248 84.5417 403.064 84.8777 403.064 86.0537C403.064 87.0617 402.26 87.8777 400.808 87.8777ZM405.356 87.7697C404.72 87.7697 404.3 87.4457 404.3 86.7137V82.0097H403.34V81.5177H404.3V79.6457H404.888V81.5177H406.016V82.0097H404.888V86.6657C404.888 87.1217 405.068 87.2657 405.476 87.2657C405.632 87.2657 405.836 87.2177 405.944 87.1577H405.98V87.6617C405.788 87.7337 405.608 87.7697 405.356 87.7697ZM406.959 87.7217V81.5177H407.547V82.7417H407.571C407.967 81.9497 408.615 81.4817 409.503 81.4817H409.587V82.0697C409.167 82.0457 408.735 82.1297 408.363 82.4177C407.871 82.8017 407.547 83.3897 407.547 84.1337V87.7217H406.959ZM412.325 87.8657C411.185 87.8657 410.333 87.1817 410.333 85.9457V81.5177H410.921V85.8857C410.921 86.9057 411.509 87.3617 412.433 87.3617C413.525 87.3617 414.341 86.5337 414.341 85.4417V81.5177H414.929V87.7217H414.341V86.7737H414.317C413.909 87.3737 413.369 87.8657 412.325 87.8657ZM418.523 87.8777C416.735 87.8777 415.823 86.4977 415.823 84.6257C415.823 82.7537 416.759 81.3857 418.535 81.3857C419.831 81.3857 420.731 82.0577 420.923 83.3057H420.347C420.143 82.3217 419.507 81.8897 418.535 81.8897C417.035 81.8897 416.423 83.1377 416.423 84.6257C416.423 86.1137 417.047 87.3617 418.523 87.3617C419.603 87.3617 420.311 86.6417 420.443 85.6217H420.995C420.839 86.9657 419.951 87.8777 418.523 87.8777ZM423.368 87.7697C422.732 87.7697 422.312 87.4457 422.312 86.7137V82.0097H421.352V81.5177H422.312V79.6457H422.9V81.5177H424.028V82.0097H422.9V86.6657C422.9 87.1217 423.08 87.2657 423.488 87.2657C423.644 87.2657 423.848 87.2177 423.956 87.1577H423.992V87.6617C423.8 87.7337 423.62 87.7697 423.368 87.7697ZM426.915 87.8657C425.775 87.8657 424.923 87.1817 424.923 85.9457V81.5177H425.511V85.8857C425.511 86.9057 426.099 87.3617 427.023 87.3617C428.115 87.3617 428.931 86.5337 428.931 85.4417V81.5177H429.519V87.7217H428.931V86.7737H428.907C428.499 87.3737 427.959 87.8657 426.915 87.8657ZM430.713 87.7217V81.5177H431.301V82.7417H431.325C431.721 81.9497 432.369 81.4817 433.257 81.4817H433.341V82.0697C432.921 82.0457 432.489 82.1297 432.117 82.4177C431.625 82.8017 431.301 83.3897 431.301 84.1337V87.7217H430.713ZM436.28 87.8777C434.456 87.8777 433.472 86.5337 433.472 84.6257C433.472 82.7177 434.54 81.3857 436.232 81.3857C436.904 81.3857 437.456 81.6017 437.864 81.9857C438.548 82.6217 438.776 83.5097 438.764 84.6857H434.072C434.084 86.1737 434.756 87.3617 436.28 87.3617C437.396 87.3617 437.912 86.7137 438.164 85.8737H438.728C438.476 87.0257 437.66 87.8777 436.28 87.8777ZM434.084 84.2057H438.164C438.128 82.9817 437.6 81.8897 436.232 81.8897C434.888 81.8897 434.204 82.8977 434.084 84.2057ZM441.718 87.8777C440.098 87.8777 439.33 86.9177 439.27 85.8497H439.87C439.954 86.8697 440.686 87.3737 441.718 87.3737C442.762 87.3737 443.386 86.8577 443.386 86.0417C443.386 85.3697 443.062 85.1057 441.694 84.7817C440.422 84.4817 439.474 84.1457 439.474 83.0417C439.474 82.0097 440.41 81.3857 441.586 81.3857C443.014 81.3857 443.65 82.1417 443.794 83.1497H443.218C443.134 82.3577 442.522 81.9017 441.586 81.9017C440.578 81.9017 440.062 82.3817 440.062 83.0297C440.062 83.7497 440.638 83.9537 441.91 84.2537C443.158 84.5417 443.974 84.8777 443.974 86.0537C443.974 87.0617 443.17 87.8777 441.718 87.8777ZM449.275 87.8777C447.535 87.8777 446.491 86.4977 446.491 84.6257C446.491 82.7537 447.535 81.3857 449.275 81.3857C451.027 81.3857 452.059 82.7537 452.059 84.6257C452.059 86.4977 451.027 87.8777 449.275 87.8777ZM449.275 87.3737C450.703 87.3737 451.459 86.1377 451.459 84.6257C451.459 83.1137 450.703 81.8777 449.275 81.8777C447.847 81.8777 447.091 83.1137 447.091 84.6257C447.091 86.1377 447.847 87.3737 449.275 87.3737ZM452.955 87.7217V81.5177H453.543V82.7417H453.567C453.963 81.9497 454.611 81.4817 455.499 81.4817H455.583V82.0697C455.163 82.0457 454.731 82.1297 454.359 82.4177C453.867 82.8017 453.543 83.3897 453.543 84.1337V87.7217H452.955ZM458.366 87.1697C459.71 87.1697 460.478 86.1737 460.478 84.5657C460.478 83.0297 459.782 81.8897 458.402 81.8897C457.13 81.8897 456.314 82.9457 456.314 84.5657C456.314 86.0297 456.962 87.1697 458.366 87.1697ZM458.414 89.9657C456.938 89.9657 456.122 89.2457 456.026 88.4057H456.614C456.782 89.1497 457.514 89.4617 458.39 89.4617C459.83 89.4617 460.43 88.6577 460.43 87.5537V86.4977H460.394C459.938 87.2657 459.314 87.6617 458.342 87.6617C456.686 87.6617 455.714 86.4017 455.714 84.5537C455.714 82.4897 456.938 81.3857 458.378 81.3857C459.374 81.3857 459.986 81.8657 460.394 82.5857H460.43V81.5177H461.018V87.5417C461.018 88.2497 460.802 88.8257 460.406 89.2457C459.938 89.7137 459.302 89.9657 458.414 89.9657ZM463.929 87.3857C465.333 87.3857 466.137 86.4497 466.137 85.5137V84.3617C465.705 84.5777 465.045 84.6617 464.409 84.7337C463.317 84.8537 462.489 84.9977 462.489 86.1737C462.489 87.0497 463.137 87.3857 463.929 87.3857ZM463.869 87.8777C462.729 87.8777 461.889 87.2897 461.889 86.1497C461.889 84.6737 463.041 84.3737 464.337 84.2417C465.801 84.0977 466.137 84.0257 466.137 83.4497V83.2337C466.137 82.2977 465.585 81.8897 464.577 81.8897C463.413 81.8897 462.789 82.3697 462.705 83.2817H462.105C462.225 82.0817 463.029 81.3857 464.577 81.3857C465.957 81.3857 466.725 81.9977 466.725 83.2697V86.9177C466.725 87.2537 466.905 87.3497 467.121 87.3497C467.205 87.3497 467.301 87.3257 467.409 87.2897H467.445V87.7217C467.349 87.7697 467.205 87.8177 466.965 87.8177C466.485 87.8177 466.149 87.5537 466.149 86.9777V86.7617H466.113C465.765 87.2537 465.141 87.8777 463.869 87.8777ZM468.12 87.7217V81.5177H468.708V82.5617H468.732C469.14 81.9017 469.836 81.3977 470.892 81.3977C471.948 81.3977 472.788 82.0577 472.788 83.2937V87.7217H472.2V83.3537C472.2 82.3337 471.648 81.9017 470.784 81.9017C469.68 81.9017 468.708 82.6817 468.708 83.7137V87.7217H468.12ZM474.28 80.3657C474.04 80.3657 473.872 80.1737 473.872 79.9457C473.872 79.7177 474.04 79.5377 474.28 79.5377C474.52 79.5377 474.7 79.7177 474.7 79.9457C474.7 80.1737 474.52 80.3657 474.28 80.3657ZM473.98 87.7217V81.5177H474.568V87.7217H473.98ZM477.859 87.8777C476.239 87.8777 475.471 86.9177 475.411 85.8497H476.011C476.095 86.8697 476.827 87.3737 477.859 87.3737C478.903 87.3737 479.527 86.8577 479.527 86.0417C479.527 85.3697 479.203 85.1057 477.835 84.7817C476.563 84.4817 475.615 84.1457 475.615 83.0417C475.615 82.0097 476.551 81.3857 477.727 81.3857C479.155 81.3857 479.791 82.1417 479.935 83.1497H479.359C479.275 82.3577 478.663 81.9017 477.727 81.9017C476.719 81.9017 476.203 82.3817 476.203 83.0297C476.203 83.7497 476.779 83.9537 478.051 84.2537C479.299 84.5417 480.115 84.8777 480.115 86.0537C480.115 87.0617 479.311 87.8777 477.859 87.8777ZM481.334 80.3657C481.094 80.3657 480.926 80.1737 480.926 79.9457C480.926 79.7177 481.094 79.5377 481.334 79.5377C481.574 79.5377 481.754 79.7177 481.754 79.9457C481.754 80.1737 481.574 80.3657 481.334 80.3657ZM481.034 87.7217V81.5177H481.622V87.7217H481.034ZM482.862 87.7217V81.5177H483.45V82.5617H483.474C483.882 81.9017 484.578 81.3977 485.634 81.3977C486.69 81.3977 487.53 82.0577 487.53 83.2937V87.7217H486.942V83.3537C486.942 82.3337 486.39 81.9017 485.526 81.9017C484.422 81.9017 483.45 82.6817 483.45 83.7137V87.7217H482.862ZM491.038 87.1697C492.382 87.1697 493.15 86.1737 493.15 84.5657C493.15 83.0297 492.454 81.8897 491.074 81.8897C489.802 81.8897 488.986 82.9457 488.986 84.5657C488.986 86.0297 489.634 87.1697 491.038 87.1697ZM491.086 89.9657C489.61 89.9657 488.794 89.2457 488.698 88.4057H489.286C489.454 89.1497 490.186 89.4617 491.062 89.4617C492.502 89.4617 493.102 88.6577 493.102 87.5537V86.4977H493.066C492.61 87.2657 491.986 87.6617 491.014 87.6617C489.358 87.6617 488.386 86.4017 488.386 84.5537C488.386 82.4897 489.61 81.3857 491.05 81.3857C492.046 81.3857 492.658 81.8657 493.066 82.5857H493.102V81.5177H493.69V87.5417C493.69 88.2497 493.474 88.8257 493.078 89.2457C492.61 89.7137 491.974 89.9657 491.086 89.9657ZM499.327 87.8777C497.503 87.8777 496.519 86.5337 496.519 84.6257C496.519 82.7177 497.587 81.3857 499.279 81.3857C499.951 81.3857 500.503 81.6017 500.911 81.9857C501.595 82.6217 501.823 83.5097 501.811 84.6857H497.119C497.131 86.1737 497.803 87.3617 499.327 87.3617C500.443 87.3617 500.959 86.7137 501.211 85.8737H501.775C501.523 87.0257 500.707 87.8777 499.327 87.8777ZM497.131 84.2057H501.211C501.175 82.9817 500.647 81.8897 499.279 81.8897C497.935 81.8897 497.251 82.8977 497.131 84.2057ZM504.254 87.7217L502.046 81.5177H502.67L504.038 85.4537C504.254 86.0897 504.602 87.1937 504.602 87.1937H504.626C504.626 87.1937 504.986 86.0897 505.214 85.4537L506.654 81.5177H507.254L504.986 87.7217H504.254ZM510.296 87.8777C508.472 87.8777 507.488 86.5337 507.488 84.6257C507.488 82.7177 508.556 81.3857 510.248 81.3857C510.92 81.3857 511.472 81.6017 511.88 81.9857C512.564 82.6217 512.792 83.5097 512.78 84.6857H508.088C508.1 86.1737 508.771 87.3617 510.296 87.3617C511.412 87.3617 511.928 86.7137 512.18 85.8737H512.744C512.492 87.0257 511.676 87.8777 510.296 87.8777ZM508.1 84.2057H512.18C512.144 82.9817 511.616 81.8897 510.248 81.8897C508.904 81.8897 508.22 82.8977 508.1 84.2057ZM513.682 87.7217V81.5177H514.27V82.7417H514.294C514.69 81.9497 515.338 81.4817 516.226 81.4817H516.31V82.0697C515.89 82.0457 515.458 82.1297 515.086 82.4177C514.594 82.8017 514.27 83.3897 514.27 84.1337V87.7217H513.682ZM517.773 89.7737C517.557 89.7737 517.437 89.7377 517.305 89.7017V89.1737H517.329C517.425 89.1977 517.557 89.2337 517.821 89.2337C518.337 89.2337 518.709 88.9937 518.937 88.3337L519.117 87.8177L516.741 81.5177H517.353L518.865 85.6217C519.093 86.2337 519.405 87.1697 519.405 87.1697H519.429C519.429 87.1697 519.717 86.2457 519.933 85.6217L521.373 81.5177H521.973L519.477 88.4657C519.117 89.4737 518.613 89.7737 517.773 89.7737ZM524.788 87.3857C526.132 87.3857 526.936 86.2937 526.936 84.6497C526.936 83.0777 526.18 81.8897 524.8 81.8897C523.528 81.8897 522.748 82.9937 522.748 84.6497C522.748 86.1377 523.396 87.3857 524.788 87.3857ZM524.764 87.8777C523.108 87.8777 522.148 86.4857 522.148 84.6377C522.148 82.5737 523.312 81.3857 524.752 81.3857C525.748 81.3857 526.456 81.8537 526.852 82.6457H526.876V79.1417H527.464V87.7217H526.876V86.6897H526.852C526.396 87.4577 525.736 87.8777 524.764 87.8777ZM530.375 87.3857C531.779 87.3857 532.583 86.4497 532.583 85.5137V84.3617C532.151 84.5777 531.491 84.6617 530.855 84.7337C529.763 84.8537 528.935 84.9977 528.935 86.1737C528.935 87.0497 529.583 87.3857 530.375 87.3857ZM530.315 87.8777C529.175 87.8777 528.335 87.2897 528.335 86.1497C528.335 84.6737 529.487 84.3737 530.783 84.2417C532.247 84.0977 532.583 84.0257 532.583 83.4497V83.2337C532.583 82.2977 532.031 81.8897 531.023 81.8897C529.859 81.8897 529.235 82.3697 529.151 83.2817H528.551C528.671 82.0817 529.475 81.3857 531.023 81.3857C532.403 81.3857 533.171 81.9977 533.171 83.2697V86.9177C533.171 87.2537 533.351 87.3497 533.567 87.3497C533.651 87.3497 533.747 87.3257 533.855 87.2897H533.891V87.7217C533.795 87.7697 533.651 87.8177 533.411 87.8177C532.931 87.8177 532.595 87.5537 532.595 86.9777V86.7617H532.559C532.211 87.2537 531.587 87.8777 530.315 87.8777ZM534.812 89.7737C534.596 89.7737 534.476 89.7377 534.344 89.7017V89.1737H534.368C534.464 89.1977 534.596 89.2337 534.86 89.2337C535.376 89.2337 535.748 88.9937 535.976 88.3337L536.156 87.8177L533.78 81.5177H534.392L535.904 85.6217C536.132 86.2337 536.444 87.1697 536.444 87.1697H536.468C536.468 87.1697 536.756 86.2457 536.972 85.6217L538.412 81.5177H539.012L536.516 88.4657C536.156 89.4737 535.652 89.7737 534.812 89.7737ZM541.691 87.7217V79.1417H542.279V87.7217H541.691ZM543.854 80.3657C543.614 80.3657 543.446 80.1737 543.446 79.9457C543.446 79.7177 543.614 79.5377 543.854 79.5377C544.094 79.5377 544.274 79.7177 544.274 79.9457C544.274 80.1737 544.094 80.3657 543.854 80.3657ZM543.554 87.7217V81.5177H544.142V87.7217H543.554ZM545.849 87.7217V82.0097H544.925V81.5177H545.849V80.3417C545.849 79.5137 546.293 79.0937 547.181 79.0937H547.553V79.6097H547.217C546.605 79.6097 546.437 79.8977 546.437 80.3537V81.5177H547.589V82.0097H546.437V87.7217H545.849ZM550.549 87.8777C548.725 87.8777 547.741 86.5337 547.741 84.6257C547.741 82.7177 548.809 81.3857 550.501 81.3857C551.173 81.3857 551.725 81.6017 552.133 81.9857C552.817 82.6217 553.045 83.5097 553.033 84.6857H548.341C548.353 86.1737 549.025 87.3617 550.549 87.3617C551.665 87.3617 552.181 86.7137 552.433 85.8737H552.997C552.745 87.0257 551.929 87.8777 550.549 87.8777ZM548.353 84.2057H552.433C552.397 82.9817 551.869 81.8897 550.501 81.8897C549.157 81.8897 548.473 82.8977 548.353 84.2057ZM554.071 87.7577C553.819 87.7577 553.651 87.5657 553.651 87.3257C553.651 87.0857 553.819 86.9057 554.071 86.9057C554.323 86.9057 554.503 87.0857 554.503 87.3257C554.503 87.5657 554.323 87.7577 554.071 87.7577Z" fill="black"/>
<path d="M10.1841 30.6382H9.79688V30.251" stroke="#1E1E1E" stroke-width="0.5" stroke-miterlimit="10"/>
<path d="M9.79688 29.5415V27.8236L11.1482 26.1045" stroke="#1E1E1E" stroke-width="0.5" stroke-miterlimit="10" stroke-dasharray="4.85 4.85"/>
<path d="M11.3672 25.8256L11.606 25.521H11.9932" stroke="#1E1E1E" stroke-width="0.5" stroke-miterlimit="10"/>
<path d="M12.7897 25.521H15.9505C17.094 25.521 18.0246 24.473 18.0246 23.1849V21.3083C18.0246 20.0202 17.094 18.9722 15.9505 18.9722H9.96828C9.38232 18.9722 8.82088 19.2535 8.42852 19.7427L4.56558 24.562C4.22098 24.9918 4.03125 25.5481 4.03125 26.1276V29.8563" stroke="#1E1E1E" stroke-width="0.5" stroke-miterlimit="10" stroke-dasharray="5.41 5.41"/>
<path d="M4.02782 30.251V30.6382H3.64062" stroke="#1E1E1E" stroke-width="0.5" stroke-miterlimit="10"/>
<path d="M2.87907 30.6387H2.32409C1.18056 30.6387 0.25 31.6867 0.25 32.9748V34.8514C0.25 36.1395 1.18056 37.1875 2.32409 37.1875H3.2611" stroke="#1E1E1E" stroke-width="0.5" stroke-miterlimit="10" stroke-dasharray="5.21 5.21"/>
<path d="M3.64062 37.1875H4.02782V37.5747" stroke="#1E1E1E" stroke-width="0.5" stroke-miterlimit="10"/>
<path d="M4.03125 38.3449V58.3359C4.03125 59.624 4.96181 60.672 6.10534 60.672H7.72511C8.86863 60.672 9.7992 59.624 9.7992 58.3359V37.959" stroke="#1E1E1E" stroke-width="0.5" stroke-miterlimit="10" stroke-dasharray="5.26 5.26"/>
<path d="M9.79688 37.5747V37.1875H10.1841" stroke="#1E1E1E" stroke-width="0.5" stroke-miterlimit="10"/>
<path d="M10.9627 37.1875H15.4916C16.6351 37.1875 17.5657 36.1395 17.5657 34.8514V32.9748C17.5657 31.6867 16.6351 30.6387 15.4916 30.6387H10.5742" stroke="#1E1E1E" stroke-width="0.5" stroke-miterlimit="10" stroke-dasharray="5.3 5.3"/>
<path d="M30.8849 36.4246C30.4925 36.0232 29.9337 35.7935 29.3529 35.7935H20.8784C20.2963 35.7935 19.7375 36.0232 19.3464 36.4246L15.4835 40.374C15.1337 40.7315 14.9414 41.1949 14.9414 41.6789V54.7881C14.9414 55.2721 15.1337 55.7354 15.4835 56.0929L19.3464 60.0423C19.7388 60.4437 20.2963 60.6735 20.8784 60.6735H29.3529C29.935 60.6735 30.4938 60.4437 30.8849 60.0423L34.7478 56.0929C35.0976 55.7354 35.2899 55.2721 35.2899 54.7881V41.6789C35.2899 41.1949 35.0976 40.7315 34.7478 40.374L30.8849 36.4246Z" stroke="#1E1E1E" stroke-width="0.5" stroke-miterlimit="10" stroke-dasharray="5.31 5.31"/>
<path d="M27.9968 54.9712L27.727 55.2474H27.3398" stroke="#1E1E1E" stroke-width="0.5" stroke-miterlimit="10"/>
<path d="M26.4529 55.2476H23.3359" stroke="#1E1E1E" stroke-width="0.5" stroke-miterlimit="10" stroke-dasharray="6.08 6.08"/>
<path d="M22.8874 55.2474H22.5002L22.2305 54.9712" stroke="#1E1E1E" stroke-width="0.5" stroke-miterlimit="10"/>
<path d="M21.6892 54.4162L20.707 53.4095V43.0572L21.959 41.7729" stroke="#1E1E1E" stroke-width="0.5" stroke-miterlimit="10" stroke-dasharray="5.29 5.29"/>
<path d="M22.2305 41.4953L22.5002 41.2178H22.8874" stroke="#1E1E1E" stroke-width="0.5" stroke-miterlimit="10"/>
<path d="M23.7812 41.2178H26.8982" stroke="#1E1E1E" stroke-width="0.5" stroke-miterlimit="10" stroke-dasharray="6.08 6.08"/>
<path d="M27.3398 41.2178H27.727L27.9968 41.4953" stroke="#1E1E1E" stroke-width="0.5" stroke-miterlimit="10"/>
<path d="M28.5393 42.0503L29.5215 43.057V53.4094L28.2695 54.6936" stroke="#1E1E1E" stroke-width="0.5" stroke-miterlimit="10" stroke-dasharray="5.29 5.29"/>
<path d="M48.957 41.4966L49.2268 41.2178H49.614" stroke="#1E1E1E" stroke-width="0.5" stroke-miterlimit="10"/>
<path d="M50.413 41.2181H52.4187C53.5622 41.2181 54.4927 40.3495 54.4927 39.2834V37.7282C54.4927 36.6608 53.5622 35.7935 52.4187 35.7935H47.6006C47.0147 35.7935 46.4532 36.0258 46.0609 36.431L44.4062 38.1412" stroke="#1E1E1E" stroke-width="0.5" stroke-miterlimit="10" stroke-dasharray="5.45 5.45"/>
<path d="M44.1291 38.4273L43.8594 38.706V38.3188" stroke="#1E1E1E" stroke-width="0.5" stroke-miterlimit="10"/>
<path d="M43.8488 37.5423C43.7481 36.5627 42.8601 35.7935 41.7837 35.7935H40.1639C39.0204 35.7935 38.0898 36.6621 38.0898 37.7282V58.7375C38.0898 59.8049 39.0204 60.6722 40.1639 60.6722H41.7837C42.9272 60.6722 43.8578 59.8036 43.8578 58.7375V46.7511L48.6849 41.7744" stroke="#1E1E1E" stroke-width="0.5" stroke-miterlimit="10" stroke-dasharray="5.3 5.3"/>
<path d="M69.1432 36.9228L67.8784 36.1264C67.5338 35.9083 67.1324 35.7935 66.7168 35.7935C66.5684 35.7935 66.4187 35.8089 66.2689 35.8386C65.7165 35.9522 65.2325 36.2775 64.9409 36.7292L42.6693 71.2233C42.0988 72.1061 42.3698 73.2496 43.2862 73.8266L44.5523 74.6229C44.8969 74.841 45.2983 74.9559 45.7139 74.9559C45.8624 74.9559 46.0121 74.9404 46.1618 74.9107C46.7142 74.7971 47.1982 74.4719 47.4912 74.0189L69.7628 39.5247C70.3332 38.6419 70.0622 37.4984 69.1458 36.9215L69.1432 36.9228Z" stroke="#1E1E1E" stroke-width="0.5" stroke-miterlimit="10" stroke-dasharray="5.29 5.29"/>
<g clip-path="url(#clip0_268_41)">
<path d="M122.189 83.06H118.155L116.314 80.9739V69.3823H122.082C122.899 69.3823 123.566 68.7141 123.566 67.8915V66.4455C123.566 65.6246 122.901 64.9547 122.082 64.9547H116.314V61.1273C116.314 60.3065 115.649 59.6382 114.83 59.6382H113.43C112.613 59.6382 111.946 60.3065 111.946 61.1273V64.9547H108.727C108.476 64.9547 108.229 65.0194 108.011 65.1421C107.791 65.0194 107.547 64.9547 107.293 64.9547H98.463C98.0437 64.9547 97.6426 65.1338 97.362 65.4455L94.3857 68.7588L94.9701 67.205C95.1104 66.8302 95.0939 66.4074 94.9238 66.0442C94.7538 65.681 94.4402 65.3991 94.0621 65.2698L92.697 64.8005C92.5418 64.7474 92.38 64.7192 92.2166 64.7192C91.5976 64.7192 91.038 65.1122 90.8234 65.6959L85.7903 79.4781L80.7571 65.6959C80.5442 65.1122 79.9846 64.7192 79.3639 64.7192C79.1922 64.7192 79.0222 64.7491 78.8604 64.8088L77.5679 65.2781C77.4408 65.3245 77.3236 65.3858 77.2146 65.4638C76.9373 65.1454 76.5329 64.9547 76.0987 64.9547H67.2706C66.8513 64.9547 66.4501 65.1338 66.1695 65.4455L62.868 69.1237C62.6221 69.3973 62.485 69.7521 62.485 70.1219V73.1716C62.485 73.5414 62.6204 73.8962 62.868 74.1699L66.1695 77.8446C66.4501 78.1564 66.8513 78.3355 67.2706 78.3355H71.8794L73.6127 80.3039V81.1579L71.891 83.06H63.8981C63.081 83.06 62.4141 83.7283 62.4141 84.5508V85.9968C62.4141 86.8177 63.0793 87.4876 63.8981 87.4876H73.1588C73.5747 87.4876 73.9742 87.3102 74.2549 87.0018L77.5927 83.327C77.8419 83.0517 77.9806 82.6952 77.9806 82.322V79.0768C77.9806 78.7036 77.8436 78.3471 77.5927 78.0718L74.2549 74.397C73.9742 74.0886 73.5747 73.9112 73.1588 73.9112H68.5796L66.8529 71.9759V71.2844L68.5746 69.3823H76.102C76.5791 69.3823 77.005 69.1535 77.2774 68.8019L83.4924 85.642L81.5346 90.8805H79.08C78.2629 90.8805 77.596 91.5488 77.596 92.3713V93.8174C77.596 94.6382 78.2612 95.3082 79.08 95.3082H83.3868C84.0009 95.3082 84.5572 94.9201 84.7751 94.3447L93.6775 70.646V73.1732C93.6775 73.543 93.8129 73.8979 94.0605 74.1715L97.362 77.8463C97.6426 78.1581 98.0437 78.3372 98.463 78.3372H103.072L104.805 80.3056V81.1596L103.083 83.0616H95.0889C94.2718 83.0616 93.6049 83.7299 93.6049 84.5525V85.9985C93.6049 86.8194 94.2701 87.4893 95.0889 87.4893H104.35C104.766 87.4893 105.165 87.3119 105.446 87.0034L108.783 83.3286C109.033 83.0534 109.171 82.6968 109.171 82.3237V79.0784C109.171 78.7053 109.034 78.3488 108.783 78.0735L105.446 74.3987C105.165 74.0903 104.766 73.9128 104.35 73.9128H99.7704L98.0437 71.9776V71.2861L99.7655 69.384H107.293C107.549 69.384 107.793 69.3193 108.011 69.1983C108.229 69.3193 108.476 69.384 108.727 69.384H111.946V82.1662C111.946 82.536 112.082 82.8908 112.329 83.1645L115.774 86.9968C116.055 87.3085 116.456 87.4876 116.875 87.4876H122.188C123.005 87.4876 123.672 86.8194 123.672 85.9968V84.5508C123.672 83.7299 123.006 83.06 122.188 83.06H122.189Z" fill="#8EBCDF" stroke="#010101" stroke-width="0.5" stroke-miterlimit="10" stroke-dasharray="5.29 5.29"/>
<path d="M136.784 65.4419C136.503 65.1335 136.103 64.9561 135.688 64.9561H128.365C127.949 64.9561 127.549 65.1335 127.269 65.4419L123.931 69.1167C123.682 69.392 123.543 69.7485 123.543 70.1217V82.3218C123.543 82.6949 123.68 83.0514 123.931 83.3267L127.269 87.0015C127.549 87.3099 127.949 87.4874 128.365 87.4874H136.944C137.761 87.4874 138.428 86.8191 138.428 85.9965V84.5505C138.428 83.7296 137.762 83.0597 136.944 83.0597H129.631L127.909 81.1576V78.1412H135.688C136.107 78.1412 136.508 77.9621 136.789 77.6503L140.126 73.9357C140.372 73.6621 140.509 73.3072 140.509 72.9374V70.1217C140.509 69.7485 140.372 69.392 140.121 69.1167L136.784 65.4419ZM136.143 71.8181L134.416 73.7533H127.911V71.2841L129.633 69.3821H134.423L136.145 71.2841V71.8198L136.143 71.8181Z" fill="#8EBCDF" stroke="#010101" stroke-width="0.5" stroke-miterlimit="10" stroke-dasharray="5.29 5.29"/>
<path d="M169.686 69.1053L166.276 65.4289C165.997 65.1271 165.601 64.9546 165.191 64.9546H161.243C160.82 64.9546 160.416 65.137 160.135 65.4537L157.132 68.8433C156.786 68.4685 155.955 67.5747 153.965 65.4289C153.686 65.1271 153.289 64.9546 152.88 64.9546H148.895C148.469 64.9546 148.065 65.1387 147.784 65.4587L145.462 68.1004V66.4454C145.462 65.6245 144.796 64.9546 143.978 64.9546H142.578C141.761 64.9546 141.094 65.6229 141.094 66.4454V85.9951C141.094 86.8159 141.759 87.4859 142.578 87.4859H143.978C144.795 87.4859 145.462 86.8176 145.462 85.9951V74.717L150.206 69.3822H151.566L153.407 71.3075V85.9967C153.407 86.8176 154.072 87.4876 154.891 87.4876H156.291C157.108 87.4876 157.775 86.8193 157.775 85.9967V74.7203L162.552 69.3822H163.879L165.72 71.3075V85.9967C165.72 86.8176 166.385 87.4876 167.204 87.4876H168.603C169.421 87.4876 170.087 86.8193 170.087 85.9967V70.1218C170.087 69.7438 169.945 69.3822 169.69 69.1053H169.686Z" fill="#8EBCDF" stroke="#010101" stroke-width="0.5" stroke-miterlimit="10" stroke-dasharray="5.29 5.29"/>
</g>
<path d="M177.129 8.65821L286.539 8.6582V43.0132C286.539 43.0132 295.217 42.8222 300.218 44.1621C304.42 45.2881 306.458 45.5101 309.219 48.2713C311.709 50.7614 312.805 52.4546 313.77 56.0561C314.773 59.7998 313.233 65.8433 313.233 65.8433H306.458V77.3403H268.445V105.563L198.406 105.785C198.406 105.785 198.655 102.137 198.406 99.909C198.156 97.6809 197.936 96.4663 197.128 94.3748C196.049 91.5813 194.58 90.2637 192.101 88.5848C189.625 86.9088 187.816 86.5826 184.871 86.0682C180.946 85.3827 177.129 86.5157 177.129 86.5157L177.129 8.65821Z" stroke="black" stroke-width="0.25"/>
<rect x="241.926" y="10.8672" width="5" height="5" fill="#8EBCDF"/>
<rect x="261.926" y="10.8672" width="5" height="5" fill="#8EBCDF"/>
<rect x="261.926" y="19.4858" width="5" height="5" fill="#8EBCDF"/>
<rect x="206.926" y="15.8672" width="5" height="5" transform="rotate(-180 206.926 15.8672)" fill="#8EBCDF"/>
<rect x="206.926" y="24.4858" width="5" height="5" transform="rotate(-180 206.926 24.4858)" fill="#8EBCDF"/>
<rect x="206.926" y="33.1045" width="5" height="5" transform="rotate(-180 206.926 33.1045)" fill="#8EBCDF"/>
<rect x="206.926" y="52.3711" width="5" height="5" transform="rotate(-180 206.926 52.3711)" fill="#8EBCDF"/>
<rect x="256.926" y="52.3711" width="5" height="5" transform="rotate(-180 256.926 52.3711)" fill="#8EBCDF"/>
<rect x="310.352" y="62.2217" width="5" height="5" transform="rotate(-180 310.352 62.2217)" fill="#8EBCDF"/>
<rect x="226.926" y="15.8672" width="5" height="5" transform="rotate(-180 226.926 15.8672)" fill="#8EBCDF"/>
<rect x="226.926" y="52.3711" width="5" height="5" transform="rotate(-180 226.926 52.3711)" fill="#8EBCDF"/>
<rect x="186.926" y="15.8672" width="5" height="5" transform="rotate(-180 186.926 15.8672)" fill="#8EBCDF"/>
<rect x="186.926" y="24.4858" width="5" height="5" transform="rotate(-180 186.926 24.4858)" fill="#8EBCDF"/>
<rect x="236.926" y="15.8672" width="5" height="5" transform="rotate(-180 236.926 15.8672)" fill="#8EBCDF"/>
<rect x="256.926" y="15.8672" width="5" height="5" transform="rotate(-180 256.926 15.8672)" fill="#8EBCDF"/>
<rect x="276.926" y="15.8672" width="5" height="5" transform="rotate(-180 276.926 15.8672)" fill="#8EBCDF"/>
<rect x="236.926" y="24.4858" width="5" height="5" transform="rotate(-180 236.926 24.4858)" fill="#8EBCDF"/>
<rect x="276.926" y="24.4858" width="5" height="5" transform="rotate(-180 276.926 24.4858)" fill="#8EBCDF"/>
<rect x="236.926" y="33.1045" width="5" height="5" transform="rotate(-180 236.926 33.1045)" fill="#8EBCDF"/>
<rect x="236.926" y="52.3711" width="5" height="5" transform="rotate(-180 236.926 52.3711)" fill="#8EBCDF"/>
<rect x="196.926" y="15.8672" width="5" height="5" transform="rotate(-180 196.926 15.8672)" fill="#8EBCDF"/>
<rect x="196.926" y="24.4858" width="5" height="5" transform="rotate(-180 196.926 24.4858)" fill="#8EBCDF"/>
<rect x="246.926" y="52.3711" width="5" height="5" transform="rotate(-180 246.926 52.3711)" fill="#8EBCDF"/>
<rect x="216.926" y="15.8672" width="5" height="5" transform="rotate(-180 216.926 15.8672)" fill="#8EBCDF"/>
<rect x="216.926" y="52.3711" width="5" height="5" transform="rotate(-180 216.926 52.3711)" fill="#8EBCDF"/>
<defs>
<clipPath id="clip0_268_41">
<rect width="108" height="36" fill="white" transform="translate(62.25 59.4722)"/>
</clipPath>
</defs>
</svg>
