<svg width="561" height="115" viewBox="0 0 561 115" fill="none" xmlns="http://www.w3.org/2000/svg">
<rect width="560.754" height="114.444" transform="translate(0.25)" fill="white"/>
<path d="M318.004 0L318.004 114.444" stroke="black" stroke-width="0.5"/>
<mask id="path-2-outside-1_268_40" maskUnits="userSpaceOnUse" x="325.004" y="25.6187" width="131" height="12" fill="black">
<rect fill="white" x="325.004" y="25.6187" width="131" height="12"/>
<path d="M330.05 27.3367V36.6187H329.504V27.3367H326.214V26.8187H333.34V27.3367H330.05ZM339.893 36.6187V31.1587L338.885 30.1367H337.723L335.497 32.4187V36.6187H334.951V26.8187H335.497V31.6487L337.485 29.6187H339.137L340.439 30.9627V36.6187H339.893ZM347.116 33.2727H343.504V35.0927L344.498 36.1007H347.606V36.6187H344.26L342.958 35.3027V30.9347L344.26 29.6187H347.116L348.418 30.9347V31.9427L347.116 33.2727ZM347.872 31.1447L346.878 30.1367H344.498L343.504 31.1447V32.7687H346.878L347.872 31.7467V31.1447ZM354.951 36.6187L353.663 35.3027V30.9347L354.951 29.6187H357.975V30.1367H355.189L354.209 31.1447V35.0927L355.189 36.1007H358.087V36.6187H354.951ZM364.069 36.6187H361.213L359.911 35.3027V30.9347L361.213 29.6187H364.069L365.371 30.9347V35.3027L364.069 36.6187ZM364.825 31.1447L363.831 30.1367H361.451L360.457 31.1447V35.0927L361.451 36.1007H363.831L364.825 35.0927V31.1447ZM372.897 36.6187V31.1447L371.889 30.1367H370.727L368.501 32.3767V36.6187H367.955V29.6187H368.501V31.6207L370.489 29.6187H372.141L373.443 30.9347V36.6187H372.897ZM378.159 36.6187L376.815 35.2467V30.1367H374.981V29.6187H376.815V27.7147H377.361V29.6187H380.189V30.1367H377.361V35.0227L378.397 36.1007H380.231V36.6187H378.159ZM386.067 33.2727H382.455V35.0927L383.449 36.1007H386.557V36.6187H383.211L381.909 35.3027V30.9347L383.211 29.6187H386.067L387.369 30.9347V31.9427L386.067 33.2727ZM386.823 31.1447L385.829 30.1367H383.449L382.455 31.1447V32.7687H385.829L386.823 31.7467V31.1447ZM393.678 36.7307L391.298 33.5527L388.932 36.7307L388.484 36.4087L390.962 33.0907L388.526 29.8287L388.96 29.5067L391.298 32.6427L393.65 29.5067L394.084 29.8287L391.648 33.0907L394.126 36.4087L393.678 36.7307ZM398.079 36.6187L396.735 35.2467V30.1367H394.901V29.6187H396.735V27.7147H397.281V29.6187H400.109V30.1367H397.281V35.0227L398.317 36.1007H400.151V36.6187H398.079ZM407.047 36.6187V34.6167L405.059 36.6187H403.407L402.105 35.3027V29.6187H402.651V35.0927L403.659 36.1007H404.821L407.047 33.8607V29.6187H407.593V36.6187H407.047ZM414.704 36.6187V34.6167L412.716 36.6187H411.064L409.762 35.3027V34.1407L411.064 32.8247H414.704V31.1447L413.696 30.1367H410.35V29.6187H413.948L415.25 30.9347V36.6187H414.704ZM414.704 33.3147H411.316L410.308 34.3507V35.0927L411.316 36.1007H412.478L414.704 33.8607V33.3147ZM419.158 36.7307L417.912 35.3307V26.8187H418.458V35.1207L419.55 36.3667L419.158 36.7307ZM428.693 36.6187H425.081V36.1007H428.455L429.449 35.0927V34.3787L428.455 33.3427H426.397L425.109 32.0267V30.9347L426.397 29.6187H429.841V30.1367H426.649L425.655 31.1447V31.8027L426.649 32.8247H428.693L429.995 34.1407V35.3027L428.693 36.6187ZM433.249 36.6187L431.961 35.3027V30.9347L433.249 29.6187H436.273V30.1367H433.487L432.507 31.1447V35.0927L433.487 36.1007H436.385V36.6187H433.249ZM442.8 36.6187V34.6167L440.812 36.6187H439.16L437.858 35.3027V34.1407L439.16 32.8247H442.8V31.1447L441.792 30.1367H438.446V29.6187H442.044L443.346 30.9347V36.6187H442.8ZM442.8 33.3147H439.412L438.404 34.3507V35.0927L439.412 36.1007H440.574L442.8 33.8607V33.3147ZM447.253 36.7307L446.007 35.3307V26.8187H446.553V35.1207L447.645 36.3667L447.253 36.7307ZM453.838 33.2727H450.226V35.0927L451.22 36.1007H454.328V36.6187H450.982L449.68 35.3027V30.9347L450.982 29.6187H453.838L455.14 30.9347V31.9427L453.838 33.2727ZM454.594 31.1447L453.6 30.1367H451.22L450.226 31.1447V32.7687H453.6L454.594 31.7467V31.1447Z"/>
</mask>
<path d="M330.05 27.3367V36.6187H329.504V27.3367H326.214V26.8187H333.34V27.3367H330.05ZM339.893 36.6187V31.1587L338.885 30.1367H337.723L335.497 32.4187V36.6187H334.951V26.8187H335.497V31.6487L337.485 29.6187H339.137L340.439 30.9627V36.6187H339.893ZM347.116 33.2727H343.504V35.0927L344.498 36.1007H347.606V36.6187H344.26L342.958 35.3027V30.9347L344.26 29.6187H347.116L348.418 30.9347V31.9427L347.116 33.2727ZM347.872 31.1447L346.878 30.1367H344.498L343.504 31.1447V32.7687H346.878L347.872 31.7467V31.1447ZM354.951 36.6187L353.663 35.3027V30.9347L354.951 29.6187H357.975V30.1367H355.189L354.209 31.1447V35.0927L355.189 36.1007H358.087V36.6187H354.951ZM364.069 36.6187H361.213L359.911 35.3027V30.9347L361.213 29.6187H364.069L365.371 30.9347V35.3027L364.069 36.6187ZM364.825 31.1447L363.831 30.1367H361.451L360.457 31.1447V35.0927L361.451 36.1007H363.831L364.825 35.0927V31.1447ZM372.897 36.6187V31.1447L371.889 30.1367H370.727L368.501 32.3767V36.6187H367.955V29.6187H368.501V31.6207L370.489 29.6187H372.141L373.443 30.9347V36.6187H372.897ZM378.159 36.6187L376.815 35.2467V30.1367H374.981V29.6187H376.815V27.7147H377.361V29.6187H380.189V30.1367H377.361V35.0227L378.397 36.1007H380.231V36.6187H378.159ZM386.067 33.2727H382.455V35.0927L383.449 36.1007H386.557V36.6187H383.211L381.909 35.3027V30.9347L383.211 29.6187H386.067L387.369 30.9347V31.9427L386.067 33.2727ZM386.823 31.1447L385.829 30.1367H383.449L382.455 31.1447V32.7687H385.829L386.823 31.7467V31.1447ZM393.678 36.7307L391.298 33.5527L388.932 36.7307L388.484 36.4087L390.962 33.0907L388.526 29.8287L388.96 29.5067L391.298 32.6427L393.65 29.5067L394.084 29.8287L391.648 33.0907L394.126 36.4087L393.678 36.7307ZM398.079 36.6187L396.735 35.2467V30.1367H394.901V29.6187H396.735V27.7147H397.281V29.6187H400.109V30.1367H397.281V35.0227L398.317 36.1007H400.151V36.6187H398.079ZM407.047 36.6187V34.6167L405.059 36.6187H403.407L402.105 35.3027V29.6187H402.651V35.0927L403.659 36.1007H404.821L407.047 33.8607V29.6187H407.593V36.6187H407.047ZM414.704 36.6187V34.6167L412.716 36.6187H411.064L409.762 35.3027V34.1407L411.064 32.8247H414.704V31.1447L413.696 30.1367H410.35V29.6187H413.948L415.25 30.9347V36.6187H414.704ZM414.704 33.3147H411.316L410.308 34.3507V35.0927L411.316 36.1007H412.478L414.704 33.8607V33.3147ZM419.158 36.7307L417.912 35.3307V26.8187H418.458V35.1207L419.55 36.3667L419.158 36.7307ZM428.693 36.6187H425.081V36.1007H428.455L429.449 35.0927V34.3787L428.455 33.3427H426.397L425.109 32.0267V30.9347L426.397 29.6187H429.841V30.1367H426.649L425.655 31.1447V31.8027L426.649 32.8247H428.693L429.995 34.1407V35.3027L428.693 36.6187ZM433.249 36.6187L431.961 35.3027V30.9347L433.249 29.6187H436.273V30.1367H433.487L432.507 31.1447V35.0927L433.487 36.1007H436.385V36.6187H433.249ZM442.8 36.6187V34.6167L440.812 36.6187H439.16L437.858 35.3027V34.1407L439.16 32.8247H442.8V31.1447L441.792 30.1367H438.446V29.6187H442.044L443.346 30.9347V36.6187H442.8ZM442.8 33.3147H439.412L438.404 34.3507V35.0927L439.412 36.1007H440.574L442.8 33.8607V33.3147ZM447.253 36.7307L446.007 35.3307V26.8187H446.553V35.1207L447.645 36.3667L447.253 36.7307ZM453.838 33.2727H450.226V35.0927L451.22 36.1007H454.328V36.6187H450.982L449.68 35.3027V30.9347L450.982 29.6187H453.838L455.14 30.9347V31.9427L453.838 33.2727ZM454.594 31.1447L453.6 30.1367H451.22L450.226 31.1447V32.7687H453.6L454.594 31.7467V31.1447Z" fill="black"/>
<path d="M330.05 27.3367V27.0867H329.8V27.3367H330.05ZM330.05 36.6187V36.8687H330.3V36.6187H330.05ZM329.504 36.6187H329.254V36.8687H329.504V36.6187ZM329.504 27.3367H329.754V27.0867H329.504V27.3367ZM326.214 27.3367H325.964V27.5867H326.214V27.3367ZM326.214 26.8187V26.5687H325.964V26.8187H326.214ZM333.34 26.8187H333.59V26.5687H333.34V26.8187ZM333.34 27.3367V27.5867H333.59V27.3367H333.34ZM330.05 27.3367H329.8V36.6187H330.05H330.3V27.3367H330.05ZM330.05 36.6187V36.3687H329.504V36.6187V36.8687H330.05V36.6187ZM329.504 36.6187H329.754V27.3367H329.504H329.254V36.6187H329.504ZM329.504 27.3367V27.0867H326.214V27.3367V27.5867H329.504V27.3367ZM326.214 27.3367H326.464V26.8187H326.214H325.964V27.3367H326.214ZM326.214 26.8187V27.0687H333.34V26.8187V26.5687H326.214V26.8187ZM333.34 26.8187H333.09V27.3367H333.34H333.59V26.8187H333.34ZM333.34 27.3367V27.0867H330.05V27.3367V27.5867H333.34V27.3367ZM339.893 36.6187H339.643V36.8687H339.893V36.6187ZM339.893 31.1587H340.143V31.0561L340.071 30.9831L339.893 31.1587ZM338.885 30.1367L339.063 29.9611L338.989 29.8867H338.885V30.1367ZM337.723 30.1367V29.8867H337.617L337.544 29.9621L337.723 30.1367ZM335.497 32.4187L335.318 32.2441L335.247 32.3169V32.4187H335.497ZM335.497 36.6187V36.8687H335.747V36.6187H335.497ZM334.951 36.6187H334.701V36.8687H334.951V36.6187ZM334.951 26.8187V26.5687H334.701V26.8187H334.951ZM335.497 26.8187H335.747V26.5687H335.497V26.8187ZM335.497 31.6487H335.247V32.2612L335.675 31.8236L335.497 31.6487ZM337.485 29.6187V29.3687H337.38L337.306 29.4437L337.485 29.6187ZM339.137 29.6187L339.316 29.4447L339.243 29.3687H339.137V29.6187ZM340.439 30.9627H340.689V30.8614L340.618 30.7887L340.439 30.9627ZM340.439 36.6187V36.8687H340.689V36.6187H340.439ZM339.893 36.6187H340.143V31.1587H339.893H339.643V36.6187H339.893ZM339.893 31.1587L340.071 30.9831L339.063 29.9611L338.885 30.1367L338.707 30.3122L339.715 31.3342L339.893 31.1587ZM338.885 30.1367V29.8867H337.723V30.1367V30.3867H338.885V30.1367ZM337.723 30.1367L337.544 29.9621L335.318 32.2441L335.497 32.4187L335.676 32.5932L337.902 30.3112L337.723 30.1367ZM335.497 32.4187H335.247V36.6187H335.497H335.747V32.4187H335.497ZM335.497 36.6187V36.3687H334.951V36.6187V36.8687H335.497V36.6187ZM334.951 36.6187H335.201V26.8187H334.951H334.701V36.6187H334.951ZM334.951 26.8187V27.0687H335.497V26.8187V26.5687H334.951V26.8187ZM335.497 26.8187H335.247V31.6487H335.497H335.747V26.8187H335.497ZM335.497 31.6487L335.675 31.8236L337.663 29.7936L337.485 29.6187L337.306 29.4437L335.318 31.4737L335.497 31.6487ZM337.485 29.6187V29.8687H339.137V29.6187V29.3687H337.485V29.6187ZM339.137 29.6187L338.957 29.7926L340.259 31.1366L340.439 30.9627L340.618 30.7887L339.316 29.4447L339.137 29.6187ZM340.439 30.9627H340.189V36.6187H340.439H340.689V30.9627H340.439ZM340.439 36.6187V36.3687H339.893V36.6187V36.8687H340.439V36.6187ZM347.116 33.2727V33.5227H347.221L347.294 33.4475L347.116 33.2727ZM343.504 33.2727V33.0227H343.254V33.2727H343.504ZM343.504 35.0927H343.254V35.1952L343.326 35.2682L343.504 35.0927ZM344.498 36.1007L344.32 36.2762L344.393 36.3507H344.498V36.1007ZM347.606 36.1007H347.856V35.8507H347.606V36.1007ZM347.606 36.6187V36.8687H347.856V36.6187H347.606ZM344.26 36.6187L344.082 36.7945L344.155 36.8687H344.26V36.6187ZM342.958 35.3027H342.708V35.4054L342.78 35.4785L342.958 35.3027ZM342.958 30.9347L342.78 30.7588L342.708 30.8319V30.9347H342.958ZM344.26 29.6187V29.3687H344.155L344.082 29.4428L344.26 29.6187ZM347.116 29.6187L347.293 29.4428L347.22 29.3687H347.116V29.6187ZM348.418 30.9347H348.668V30.8319L348.595 30.7588L348.418 30.9347ZM348.418 31.9427L348.596 32.1175L348.668 32.0447V31.9427H348.418ZM347.872 31.1447H348.122V31.0421L348.05 30.9691L347.872 31.1447ZM346.878 30.1367L347.056 29.9611L346.982 29.8867H346.878V30.1367ZM344.498 30.1367V29.8867H344.393L344.32 29.9611L344.498 30.1367ZM343.504 31.1447L343.326 30.9691L343.254 31.0421V31.1447H343.504ZM343.504 32.7687H343.254V33.0187H343.504V32.7687ZM346.878 32.7687V33.0187H346.983L347.057 32.943L346.878 32.7687ZM347.872 31.7467L348.051 31.921L348.122 31.8482V31.7467H347.872ZM347.116 33.2727V33.0227H343.504V33.2727V33.5227H347.116V33.2727ZM343.504 33.2727H343.254V35.0927H343.504H343.754V33.2727H343.504ZM343.504 35.0927L343.326 35.2682L344.32 36.2762L344.498 36.1007L344.676 35.9251L343.682 34.9171L343.504 35.0927ZM344.498 36.1007V36.3507H347.606V36.1007V35.8507H344.498V36.1007ZM347.606 36.1007H347.356V36.6187H347.606H347.856V36.1007H347.606ZM347.606 36.6187V36.3687H344.26V36.6187V36.8687H347.606V36.6187ZM344.26 36.6187L344.437 36.4428L343.135 35.1268L342.958 35.3027L342.78 35.4785L344.082 36.7945L344.26 36.6187ZM342.958 35.3027H343.208V30.9347H342.958H342.708V35.3027H342.958ZM342.958 30.9347L343.135 31.1105L344.437 29.7945L344.26 29.6187L344.082 29.4428L342.78 30.7588L342.958 30.9347ZM344.26 29.6187V29.8687H347.116V29.6187V29.3687H344.26V29.6187ZM347.116 29.6187L346.938 29.7945L348.24 31.1105L348.418 30.9347L348.595 30.7588L347.293 29.4428L347.116 29.6187ZM348.418 30.9347H348.168V31.9427H348.418H348.668V30.9347H348.418ZM348.418 31.9427L348.239 31.7678L346.937 33.0978L347.116 33.2727L347.294 33.4475L348.596 32.1175L348.418 31.9427ZM347.872 31.1447L348.05 30.9691L347.056 29.9611L346.878 30.1367L346.7 30.3122L347.694 31.3202L347.872 31.1447ZM346.878 30.1367V29.8867H344.498V30.1367V30.3867H346.878V30.1367ZM344.498 30.1367L344.32 29.9611L343.326 30.9691L343.504 31.1447L343.682 31.3202L344.676 30.3122L344.498 30.1367ZM343.504 31.1447H343.254V32.7687H343.504H343.754V31.1447H343.504ZM343.504 32.7687V33.0187H346.878V32.7687V32.5187H343.504V32.7687ZM346.878 32.7687L347.057 32.943L348.051 31.921L347.872 31.7467L347.692 31.5723L346.698 32.5943L346.878 32.7687ZM347.872 31.7467H348.122V31.1447H347.872H347.622V31.7467H347.872ZM354.951 36.6187L354.772 36.7935L354.846 36.8687H354.951V36.6187ZM353.663 35.3027H353.413V35.4046L353.484 35.4775L353.663 35.3027ZM353.663 30.9347L353.484 30.7598L353.413 30.8327V30.9347H353.663ZM354.951 29.6187V29.3687H354.846L354.772 29.4438L354.951 29.6187ZM357.975 29.6187H358.225V29.3687H357.975V29.6187ZM357.975 30.1367V30.3867H358.225V30.1367H357.975ZM355.189 30.1367V29.8867H355.083L355.009 29.9624L355.189 30.1367ZM354.209 31.1447L354.029 30.9704L353.959 31.0432V31.1447H354.209ZM354.209 35.0927H353.959V35.1941L354.029 35.2669L354.209 35.0927ZM355.189 36.1007L355.009 36.2749L355.083 36.3507H355.189V36.1007ZM358.087 36.1007H358.337V35.8507H358.087V36.1007ZM358.087 36.6187V36.8687H358.337V36.6187H358.087ZM354.951 36.6187L355.129 36.4438L353.841 35.1278L353.663 35.3027L353.484 35.4775L354.772 36.7935L354.951 36.6187ZM353.663 35.3027H353.913V30.9347H353.663H353.413V35.3027H353.663ZM353.663 30.9347L353.841 31.1095L355.129 29.7935L354.951 29.6187L354.772 29.4438L353.484 30.7598L353.663 30.9347ZM354.951 29.6187V29.8687H357.975V29.6187V29.3687H354.951V29.6187ZM357.975 29.6187H357.725V30.1367H357.975H358.225V29.6187H357.975ZM357.975 30.1367V29.8867H355.189V30.1367V30.3867H357.975V30.1367ZM355.189 30.1367L355.009 29.9624L354.029 30.9704L354.209 31.1447L354.388 31.3189L355.368 30.3109L355.189 30.1367ZM354.209 31.1447H353.959V35.0927H354.209H354.459V31.1447H354.209ZM354.209 35.0927L354.029 35.2669L355.009 36.2749L355.189 36.1007L355.368 35.9264L354.388 34.9184L354.209 35.0927ZM355.189 36.1007V36.3507H358.087V36.1007V35.8507H355.189V36.1007ZM358.087 36.1007H357.837V36.6187H358.087H358.337V36.1007H358.087ZM358.087 36.6187V36.3687H354.951V36.6187V36.8687H358.087V36.6187ZM364.069 36.6187V36.8687H364.173L364.246 36.7945L364.069 36.6187ZM361.213 36.6187L361.035 36.7945L361.108 36.8687H361.213V36.6187ZM359.911 35.3027H359.661V35.4054L359.733 35.4785L359.911 35.3027ZM359.911 30.9347L359.733 30.7588L359.661 30.8319V30.9347H359.911ZM361.213 29.6187V29.3687H361.108L361.035 29.4428L361.213 29.6187ZM364.069 29.6187L364.246 29.4428L364.173 29.3687H364.069V29.6187ZM365.371 30.9347H365.621V30.8319L365.548 30.7588L365.371 30.9347ZM365.371 35.3027L365.548 35.4785L365.621 35.4054V35.3027H365.371ZM364.825 31.1447H365.075V31.0421L365.003 30.9691L364.825 31.1447ZM363.831 30.1367L364.009 29.9611L363.935 29.8867H363.831V30.1367ZM361.451 30.1367V29.8867H361.346L361.273 29.9611L361.451 30.1367ZM360.457 31.1447L360.279 30.9691L360.207 31.0421V31.1447H360.457ZM360.457 35.0927H360.207V35.1952L360.279 35.2682L360.457 35.0927ZM361.451 36.1007L361.273 36.2762L361.346 36.3507H361.451V36.1007ZM363.831 36.1007V36.3507H363.935L364.009 36.2762L363.831 36.1007ZM364.825 35.0927L365.003 35.2682L365.075 35.1952V35.0927H364.825ZM364.069 36.6187V36.3687H361.213V36.6187V36.8687H364.069V36.6187ZM361.213 36.6187L361.39 36.4428L360.088 35.1268L359.911 35.3027L359.733 35.4785L361.035 36.7945L361.213 36.6187ZM359.911 35.3027H360.161V30.9347H359.911H359.661V35.3027H359.911ZM359.911 30.9347L360.088 31.1105L361.39 29.7945L361.213 29.6187L361.035 29.4428L359.733 30.7588L359.911 30.9347ZM361.213 29.6187V29.8687H364.069V29.6187V29.3687H361.213V29.6187ZM364.069 29.6187L363.891 29.7945L365.193 31.1105L365.371 30.9347L365.548 30.7588L364.246 29.4428L364.069 29.6187ZM365.371 30.9347H365.121V35.3027H365.371H365.621V30.9347H365.371ZM365.371 35.3027L365.193 35.1268L363.891 36.4428L364.069 36.6187L364.246 36.7945L365.548 35.4785L365.371 35.3027ZM364.825 31.1447L365.003 30.9691L364.009 29.9611L363.831 30.1367L363.653 30.3122L364.647 31.3202L364.825 31.1447ZM363.831 30.1367V29.8867H361.451V30.1367V30.3867H363.831V30.1367ZM361.451 30.1367L361.273 29.9611L360.279 30.9691L360.457 31.1447L360.635 31.3202L361.629 30.3122L361.451 30.1367ZM360.457 31.1447H360.207V35.0927H360.457H360.707V31.1447H360.457ZM360.457 35.0927L360.279 35.2682L361.273 36.2762L361.451 36.1007L361.629 35.9251L360.635 34.9171L360.457 35.0927ZM361.451 36.1007V36.3507H363.831V36.1007V35.8507H361.451V36.1007ZM363.831 36.1007L364.009 36.2762L365.003 35.2682L364.825 35.0927L364.647 34.9171L363.653 35.9251L363.831 36.1007ZM364.825 35.0927H365.075V31.1447H364.825H364.575V35.0927H364.825ZM372.897 36.6187H372.647V36.8687H372.897V36.6187ZM372.897 31.1447H373.147V31.0411L373.073 30.9679L372.897 31.1447ZM371.889 30.1367L372.065 29.9599L371.992 29.8867H371.889V30.1367ZM370.727 30.1367V29.8867H370.623L370.549 29.9604L370.727 30.1367ZM368.501 32.3767L368.323 32.2004L368.251 32.2736V32.3767H368.501ZM368.501 36.6187V36.8687H368.751V36.6187H368.501ZM367.955 36.6187H367.705V36.8687H367.955V36.6187ZM367.955 29.6187V29.3687H367.705V29.6187H367.955ZM368.501 29.6187H368.751V29.3687H368.501V29.6187ZM368.501 31.6207H368.251V32.2272L368.678 31.7968L368.501 31.6207ZM370.489 29.6187V29.3687H370.385L370.311 29.4425L370.489 29.6187ZM372.141 29.6187L372.318 29.4428L372.245 29.3687H372.141V29.6187ZM373.443 30.9347H373.693V30.8319L373.62 30.7588L373.443 30.9347ZM373.443 36.6187V36.8687H373.693V36.6187H373.443ZM372.897 36.6187H373.147V31.1447H372.897H372.647V36.6187H372.897ZM372.897 31.1447L373.073 30.9679L372.065 29.9599L371.889 30.1367L371.712 30.3134L372.72 31.3214L372.897 31.1447ZM371.889 30.1367V29.8867H370.727V30.1367V30.3867H371.889V30.1367ZM370.727 30.1367L370.549 29.9604L368.323 32.2004L368.501 32.3767L368.678 32.5529L370.904 30.3129L370.727 30.1367ZM368.501 32.3767H368.251V36.6187H368.501H368.751V32.3767H368.501ZM368.501 36.6187V36.3687H367.955V36.6187V36.8687H368.501V36.6187ZM367.955 36.6187H368.205V29.6187H367.955H367.705V36.6187H367.955ZM367.955 29.6187V29.8687H368.501V29.6187V29.3687H367.955V29.6187ZM368.501 29.6187H368.251V31.6207H368.501H368.751V29.6187H368.501ZM368.501 31.6207L368.678 31.7968L370.666 29.7948L370.489 29.6187L370.311 29.4425L368.323 31.4445L368.501 31.6207ZM370.489 29.6187V29.8687H372.141V29.6187V29.3687H370.489V29.6187ZM372.141 29.6187L371.963 29.7945L373.265 31.1105L373.443 30.9347L373.62 30.7588L372.318 29.4428L372.141 29.6187ZM373.443 30.9347H373.193V36.6187H373.443H373.693V30.9347H373.443ZM373.443 36.6187V36.3687H372.897V36.6187V36.8687H373.443V36.6187ZM378.159 36.6187L377.981 36.7936L378.054 36.8687H378.159V36.6187ZM376.815 35.2467H376.565V35.3487L376.637 35.4216L376.815 35.2467ZM376.815 30.1367H377.065V29.8867H376.815V30.1367ZM374.981 30.1367H374.731V30.3867H374.981V30.1367ZM374.981 29.6187V29.3687H374.731V29.6187H374.981ZM376.815 29.6187V29.8687H377.065V29.6187H376.815ZM376.815 27.7147V27.4647H376.565V27.7147H376.815ZM377.361 27.7147H377.611V27.4647H377.361V27.7147ZM377.361 29.6187H377.111V29.8687H377.361V29.6187ZM380.189 29.6187H380.439V29.3687H380.189V29.6187ZM380.189 30.1367V30.3867H380.439V30.1367H380.189ZM377.361 30.1367V29.8867H377.111V30.1367H377.361ZM377.361 35.0227H377.111V35.1233L377.181 35.1959L377.361 35.0227ZM378.397 36.1007L378.217 36.2739L378.291 36.3507H378.397V36.1007ZM380.231 36.1007H380.481V35.8507H380.231V36.1007ZM380.231 36.6187V36.8687H380.481V36.6187H380.231ZM378.159 36.6187L378.338 36.4437L376.994 35.0717L376.815 35.2467L376.637 35.4216L377.981 36.7936L378.159 36.6187ZM376.815 35.2467H377.065V30.1367H376.815H376.565V35.2467H376.815ZM376.815 30.1367V29.8867H374.981V30.1367V30.3867H376.815V30.1367ZM374.981 30.1367H375.231V29.6187H374.981H374.731V30.1367H374.981ZM374.981 29.6187V29.8687H376.815V29.6187V29.3687H374.981V29.6187ZM376.815 29.6187H377.065V27.7147H376.815H376.565V29.6187H376.815ZM376.815 27.7147V27.9647H377.361V27.7147V27.4647H376.815V27.7147ZM377.361 27.7147H377.111V29.6187H377.361H377.611V27.7147H377.361ZM377.361 29.6187V29.8687H380.189V29.6187V29.3687H377.361V29.6187ZM380.189 29.6187H379.939V30.1367H380.189H380.439V29.6187H380.189ZM380.189 30.1367V29.8867H377.361V30.1367V30.3867H380.189V30.1367ZM377.361 30.1367H377.111V35.0227H377.361H377.611V30.1367H377.361ZM377.361 35.0227L377.181 35.1959L378.217 36.2739L378.397 36.1007L378.578 35.9274L377.542 34.8494L377.361 35.0227ZM378.397 36.1007V36.3507H380.231V36.1007V35.8507H378.397V36.1007ZM380.231 36.1007H379.981V36.6187H380.231H380.481V36.1007H380.231ZM380.231 36.6187V36.3687H378.159V36.6187V36.8687H380.231V36.6187ZM386.067 33.2727V33.5227H386.172L386.245 33.4475L386.067 33.2727ZM382.455 33.2727V33.0227H382.205V33.2727H382.455ZM382.455 35.0927H382.205V35.1952L382.277 35.2682L382.455 35.0927ZM383.449 36.1007L383.271 36.2762L383.344 36.3507H383.449V36.1007ZM386.557 36.1007H386.807V35.8507H386.557V36.1007ZM386.557 36.6187V36.8687H386.807V36.6187H386.557ZM383.211 36.6187L383.033 36.7945L383.106 36.8687H383.211V36.6187ZM381.909 35.3027H381.659V35.4054L381.731 35.4785L381.909 35.3027ZM381.909 30.9347L381.731 30.7588L381.659 30.8319V30.9347H381.909ZM383.211 29.6187V29.3687H383.106L383.033 29.4428L383.211 29.6187ZM386.067 29.6187L386.244 29.4428L386.171 29.3687H386.067V29.6187ZM387.369 30.9347H387.619V30.8319L387.546 30.7588L387.369 30.9347ZM387.369 31.9427L387.547 32.1175L387.619 32.0447V31.9427H387.369ZM386.823 31.1447H387.073V31.0421L387.001 30.9691L386.823 31.1447ZM385.829 30.1367L386.007 29.9611L385.933 29.8867H385.829V30.1367ZM383.449 30.1367V29.8867H383.344L383.271 29.9611L383.449 30.1367ZM382.455 31.1447L382.277 30.9691L382.205 31.0421V31.1447H382.455ZM382.455 32.7687H382.205V33.0187H382.455V32.7687ZM385.829 32.7687V33.0187H385.934L386.008 32.943L385.829 32.7687ZM386.823 31.7467L387.002 31.921L387.073 31.8482V31.7467H386.823ZM386.067 33.2727V33.0227H382.455V33.2727V33.5227H386.067V33.2727ZM382.455 33.2727H382.205V35.0927H382.455H382.705V33.2727H382.455ZM382.455 35.0927L382.277 35.2682L383.271 36.2762L383.449 36.1007L383.627 35.9251L382.633 34.9171L382.455 35.0927ZM383.449 36.1007V36.3507H386.557V36.1007V35.8507H383.449V36.1007ZM386.557 36.1007H386.307V36.6187H386.557H386.807V36.1007H386.557ZM386.557 36.6187V36.3687H383.211V36.6187V36.8687H386.557V36.6187ZM383.211 36.6187L383.388 36.4428L382.086 35.1268L381.909 35.3027L381.731 35.4785L383.033 36.7945L383.211 36.6187ZM381.909 35.3027H382.159V30.9347H381.909H381.659V35.3027H381.909ZM381.909 30.9347L382.086 31.1105L383.388 29.7945L383.211 29.6187L383.033 29.4428L381.731 30.7588L381.909 30.9347ZM383.211 29.6187V29.8687H386.067V29.6187V29.3687H383.211V29.6187ZM386.067 29.6187L385.889 29.7945L387.191 31.1105L387.369 30.9347L387.546 30.7588L386.244 29.4428L386.067 29.6187ZM387.369 30.9347H387.119V31.9427H387.369H387.619V30.9347H387.369ZM387.369 31.9427L387.19 31.7678L385.888 33.0978L386.067 33.2727L386.245 33.4475L387.547 32.1175L387.369 31.9427ZM386.823 31.1447L387.001 30.9691L386.007 29.9611L385.829 30.1367L385.651 30.3122L386.645 31.3202L386.823 31.1447ZM385.829 30.1367V29.8867H383.449V30.1367V30.3867H385.829V30.1367ZM383.449 30.1367L383.271 29.9611L382.277 30.9691L382.455 31.1447L382.633 31.3202L383.627 30.3122L383.449 30.1367ZM382.455 31.1447H382.205V32.7687H382.455H382.705V31.1447H382.455ZM382.455 32.7687V33.0187H385.829V32.7687V32.5187H382.455V32.7687ZM385.829 32.7687L386.008 32.943L387.002 31.921L386.823 31.7467L386.644 31.5723L385.65 32.5943L385.829 32.7687ZM386.823 31.7467H387.073V31.1447H386.823H386.573V31.7467H386.823ZM393.678 36.7307L393.478 36.8805L393.625 37.0767L393.824 36.9337L393.678 36.7307ZM391.298 33.5527L391.498 33.4028L391.297 33.1348L391.097 33.4034L391.298 33.5527ZM388.932 36.7307L388.786 36.9337L388.986 37.0771L389.132 36.8799L388.932 36.7307ZM388.484 36.4087L388.284 36.2591L388.131 36.4631L388.338 36.6117L388.484 36.4087ZM390.962 33.0907L391.162 33.2402L391.274 33.0907L391.162 32.9411L390.962 33.0907ZM388.526 29.8287L388.377 29.6279L388.175 29.7773L388.326 29.9782L388.526 29.8287ZM388.96 29.5067L389.16 29.3572L389.011 29.1573L388.811 29.3059L388.96 29.5067ZM391.298 32.6427L391.097 32.7921L391.297 33.0601L391.498 32.7927L391.298 32.6427ZM393.65 29.5067L393.799 29.3059L393.599 29.1577L393.45 29.3567L393.65 29.5067ZM394.084 29.8287L394.284 29.9782L394.434 29.7773L394.233 29.6279L394.084 29.8287ZM391.648 33.0907L391.448 32.9411L391.336 33.0907L391.448 33.2402L391.648 33.0907ZM394.126 36.4087L394.272 36.6117L394.478 36.4631L394.326 36.2591L394.126 36.4087ZM393.678 36.7307L393.878 36.5808L391.498 33.4028L391.298 33.5527L391.098 33.7025L393.478 36.8805L393.678 36.7307ZM391.298 33.5527L391.097 33.4034L388.731 36.5814L388.932 36.7307L389.132 36.8799L391.498 33.7019L391.298 33.5527ZM388.932 36.7307L389.078 36.5276L388.63 36.2056L388.484 36.4087L388.338 36.6117L388.786 36.9337L388.932 36.7307ZM388.484 36.4087L388.684 36.5582L391.162 33.2402L390.962 33.0907L390.762 32.9411L388.284 36.2591L388.484 36.4087ZM390.962 33.0907L391.162 32.9411L388.726 29.6791L388.526 29.8287L388.326 29.9782L390.762 33.2402L390.962 33.0907ZM388.526 29.8287L388.675 30.0294L389.109 29.7074L388.96 29.5067L388.811 29.3059L388.377 29.6279L388.526 29.8287ZM388.96 29.5067L388.759 29.6561L391.097 32.7921L391.298 32.6427L391.498 32.4932L389.16 29.3572L388.96 29.5067ZM391.298 32.6427L391.498 32.7927L393.85 29.6567L393.65 29.5067L393.45 29.3567L391.098 32.4927L391.298 32.6427ZM393.65 29.5067L393.501 29.7074L393.935 30.0294L394.084 29.8287L394.233 29.6279L393.799 29.3059L393.65 29.5067ZM394.084 29.8287L393.884 29.6791L391.448 32.9411L391.648 33.0907L391.848 33.2402L394.284 29.9782L394.084 29.8287ZM391.648 33.0907L391.448 33.2402L393.926 36.5582L394.126 36.4087L394.326 36.2591L391.848 32.9411L391.648 33.0907ZM394.126 36.4087L393.98 36.2056L393.532 36.5276L393.678 36.7307L393.824 36.9337L394.272 36.6117L394.126 36.4087ZM398.079 36.6187L397.901 36.7936L397.974 36.8687H398.079V36.6187ZM396.735 35.2467H396.485V35.3487L396.557 35.4216L396.735 35.2467ZM396.735 30.1367H396.985V29.8867H396.735V30.1367ZM394.901 30.1367H394.651V30.3867H394.901V30.1367ZM394.901 29.6187V29.3687H394.651V29.6187H394.901ZM396.735 29.6187V29.8687H396.985V29.6187H396.735ZM396.735 27.7147V27.4647H396.485V27.7147H396.735ZM397.281 27.7147H397.531V27.4647H397.281V27.7147ZM397.281 29.6187H397.031V29.8687H397.281V29.6187ZM400.109 29.6187H400.359V29.3687H400.109V29.6187ZM400.109 30.1367V30.3867H400.359V30.1367H400.109ZM397.281 30.1367V29.8867H397.031V30.1367H397.281ZM397.281 35.0227H397.031V35.1233L397.101 35.1959L397.281 35.0227ZM398.317 36.1007L398.137 36.2739L398.211 36.3507H398.317V36.1007ZM400.151 36.1007H400.401V35.8507H400.151V36.1007ZM400.151 36.6187V36.8687H400.401V36.6187H400.151ZM398.079 36.6187L398.258 36.4437L396.914 35.0717L396.735 35.2467L396.557 35.4216L397.901 36.7936L398.079 36.6187ZM396.735 35.2467H396.985V30.1367H396.735H396.485V35.2467H396.735ZM396.735 30.1367V29.8867H394.901V30.1367V30.3867H396.735V30.1367ZM394.901 30.1367H395.151V29.6187H394.901H394.651V30.1367H394.901ZM394.901 29.6187V29.8687H396.735V29.6187V29.3687H394.901V29.6187ZM396.735 29.6187H396.985V27.7147H396.735H396.485V29.6187H396.735ZM396.735 27.7147V27.9647H397.281V27.7147V27.4647H396.735V27.7147ZM397.281 27.7147H397.031V29.6187H397.281H397.531V27.7147H397.281ZM397.281 29.6187V29.8687H400.109V29.6187V29.3687H397.281V29.6187ZM400.109 29.6187H399.859V30.1367H400.109H400.359V29.6187H400.109ZM400.109 30.1367V29.8867H397.281V30.1367V30.3867H400.109V30.1367ZM397.281 30.1367H397.031V35.0227H397.281H397.531V30.1367H397.281ZM397.281 35.0227L397.101 35.1959L398.137 36.2739L398.317 36.1007L398.498 35.9274L397.462 34.8494L397.281 35.0227ZM398.317 36.1007V36.3507H400.151V36.1007V35.8507H398.317V36.1007ZM400.151 36.1007H399.901V36.6187H400.151H400.401V36.1007H400.151ZM400.151 36.6187V36.3687H398.079V36.6187V36.8687H400.151V36.6187ZM407.047 36.6187H406.797V36.8687H407.047V36.6187ZM407.047 34.6167H407.297V34.0101L406.87 34.4405L407.047 34.6167ZM405.059 36.6187V36.8687H405.163L405.237 36.7948L405.059 36.6187ZM403.407 36.6187L403.23 36.7945L403.303 36.8687H403.407V36.6187ZM402.105 35.3027H401.855V35.4054L401.928 35.4785L402.105 35.3027ZM402.105 29.6187V29.3687H401.855V29.6187H402.105ZM402.651 29.6187H402.901V29.3687H402.651V29.6187ZM402.651 35.0927H402.401V35.1962L402.475 35.2694L402.651 35.0927ZM403.659 36.1007L403.483 36.2774L403.556 36.3507H403.659V36.1007ZM404.821 36.1007V36.3507H404.925L404.999 36.2769L404.821 36.1007ZM407.047 33.8607L407.225 34.0369L407.297 33.9637V33.8607H407.047ZM407.047 29.6187V29.3687H406.797V29.6187H407.047ZM407.593 29.6187H407.843V29.3687H407.593V29.6187ZM407.593 36.6187V36.8687H407.843V36.6187H407.593ZM407.047 36.6187H407.297V34.6167H407.047H406.797V36.6187H407.047ZM407.047 34.6167L406.87 34.4405L404.882 36.4425L405.059 36.6187L405.237 36.7948L407.225 34.7928L407.047 34.6167ZM405.059 36.6187V36.3687H403.407V36.6187V36.8687H405.059V36.6187ZM403.407 36.6187L403.585 36.4428L402.283 35.1268L402.105 35.3027L401.928 35.4785L403.23 36.7945L403.407 36.6187ZM402.105 35.3027H402.355V29.6187H402.105H401.855V35.3027H402.105ZM402.105 29.6187V29.8687H402.651V29.6187V29.3687H402.105V29.6187ZM402.651 29.6187H402.401V35.0927H402.651H402.901V29.6187H402.651ZM402.651 35.0927L402.475 35.2694L403.483 36.2774L403.659 36.1007L403.836 35.9239L402.828 34.9159L402.651 35.0927ZM403.659 36.1007V36.3507H404.821V36.1007V35.8507H403.659V36.1007ZM404.821 36.1007L404.999 36.2769L407.225 34.0369L407.047 33.8607L406.87 33.6844L404.644 35.9244L404.821 36.1007ZM407.047 33.8607H407.297V29.6187H407.047H406.797V33.8607H407.047ZM407.047 29.6187V29.8687H407.593V29.6187V29.3687H407.047V29.6187ZM407.593 29.6187H407.343V36.6187H407.593H407.843V29.6187H407.593ZM407.593 36.6187V36.3687H407.047V36.6187V36.8687H407.593V36.6187ZM414.704 36.6187H414.454V36.8687H414.704V36.6187ZM414.704 34.6167H414.954V34.0101L414.527 34.4405L414.704 34.6167ZM412.716 36.6187V36.8687H412.82L412.894 36.7948L412.716 36.6187ZM411.064 36.6187L410.886 36.7945L410.96 36.8687H411.064V36.6187ZM409.762 35.3027H409.512V35.4054L409.584 35.4785L409.762 35.3027ZM409.762 34.1407L409.584 33.9648L409.512 34.0379V34.1407H409.762ZM411.064 32.8247V32.5747H410.96L410.886 32.6488L411.064 32.8247ZM414.704 32.8247V33.0747H414.954V32.8247H414.704ZM414.704 31.1447H414.954V31.0411L414.881 30.9679L414.704 31.1447ZM413.696 30.1367L413.873 29.9599L413.8 29.8867H413.696V30.1367ZM410.35 30.1367H410.1V30.3867H410.35V30.1367ZM410.35 29.6187V29.3687H410.1V29.6187H410.35ZM413.948 29.6187L414.126 29.4428L414.053 29.3687H413.948V29.6187ZM415.25 30.9347H415.5V30.8319L415.428 30.7588L415.25 30.9347ZM415.25 36.6187V36.8687H415.5V36.6187H415.25ZM414.704 33.3147H414.954V33.0647H414.704V33.3147ZM411.316 33.3147V33.0647H411.211L411.137 33.1403L411.316 33.3147ZM410.308 34.3507L410.129 34.1763L410.058 34.2491V34.3507H410.308ZM410.308 35.0927H410.058V35.1962L410.131 35.2694L410.308 35.0927ZM411.316 36.1007L411.139 36.2774L411.213 36.3507H411.316V36.1007ZM412.478 36.1007V36.3507H412.582L412.656 36.2769L412.478 36.1007ZM414.704 33.8607L414.882 34.0369L414.954 33.9637V33.8607H414.704ZM414.704 36.6187H414.954V34.6167H414.704H414.454V36.6187H414.704ZM414.704 34.6167L414.527 34.4405L412.539 36.4425L412.716 36.6187L412.894 36.7948L414.882 34.7928L414.704 34.6167ZM412.716 36.6187V36.3687H411.064V36.6187V36.8687H412.716V36.6187ZM411.064 36.6187L411.242 36.4428L409.94 35.1268L409.762 35.3027L409.584 35.4785L410.886 36.7945L411.064 36.6187ZM409.762 35.3027H410.012V34.1407H409.762H409.512V35.3027H409.762ZM409.762 34.1407L409.94 34.3165L411.242 33.0005L411.064 32.8247L410.886 32.6488L409.584 33.9648L409.762 34.1407ZM411.064 32.8247V33.0747H414.704V32.8247V32.5747H411.064V32.8247ZM414.704 32.8247H414.954V31.1447H414.704H414.454V32.8247H414.704ZM414.704 31.1447L414.881 30.9679L413.873 29.9599L413.696 30.1367L413.519 30.3134L414.527 31.3214L414.704 31.1447ZM413.696 30.1367V29.8867H410.35V30.1367V30.3867H413.696V30.1367ZM410.35 30.1367H410.6V29.6187H410.35H410.1V30.1367H410.35ZM410.35 29.6187V29.8687H413.948V29.6187V29.3687H410.35V29.6187ZM413.948 29.6187L413.77 29.7945L415.072 31.1105L415.25 30.9347L415.428 30.7588L414.126 29.4428L413.948 29.6187ZM415.25 30.9347H415V36.6187H415.25H415.5V30.9347H415.25ZM415.25 36.6187V36.3687H414.704V36.6187V36.8687H415.25V36.6187ZM414.704 33.3147V33.0647H411.316V33.3147V33.5647H414.704V33.3147ZM411.316 33.3147L411.137 33.1403L410.129 34.1763L410.308 34.3507L410.487 34.525L411.495 33.489L411.316 33.3147ZM410.308 34.3507H410.058V35.0927H410.308H410.558V34.3507H410.308ZM410.308 35.0927L410.131 35.2694L411.139 36.2774L411.316 36.1007L411.493 35.9239L410.485 34.9159L410.308 35.0927ZM411.316 36.1007V36.3507H412.478V36.1007V35.8507H411.316V36.1007ZM412.478 36.1007L412.656 36.2769L414.882 34.0369L414.704 33.8607L414.527 33.6844L412.301 35.9244L412.478 36.1007ZM414.704 33.8607H414.954V33.3147H414.704H414.454V33.8607H414.704ZM419.158 36.7307L418.971 36.8969L419.141 37.0876L419.328 36.9139L419.158 36.7307ZM417.912 35.3307H417.662V35.4258L417.725 35.4969L417.912 35.3307ZM417.912 26.8187V26.5687H417.662V26.8187H417.912ZM418.458 26.8187H418.708V26.5687H418.458V26.8187ZM418.458 35.1207H418.208V35.2147L418.27 35.2854L418.458 35.1207ZM419.55 36.3667L419.72 36.5499L419.898 36.3846L419.738 36.2019L419.55 36.3667ZM419.158 36.7307L419.344 36.5644L418.098 35.1644L417.912 35.3307L417.725 35.4969L418.971 36.8969L419.158 36.7307ZM417.912 35.3307H418.162V26.8187H417.912H417.662V35.3307H417.912ZM417.912 26.8187V27.0687H418.458V26.8187V26.5687H417.912V26.8187ZM418.458 26.8187H418.208V35.1207H418.458H418.708V26.8187H418.458ZM418.458 35.1207L418.27 35.2854L419.362 36.5314L419.55 36.3667L419.738 36.2019L418.646 34.9559L418.458 35.1207ZM419.55 36.3667L419.38 36.1835L418.988 36.5475L419.158 36.7307L419.328 36.9139L419.72 36.5499L419.55 36.3667ZM428.693 36.6187V36.8687H428.798L428.871 36.7945L428.693 36.6187ZM425.081 36.6187H424.831V36.8687H425.081V36.6187ZM425.081 36.1007V35.8507H424.831V36.1007H425.081ZM428.455 36.1007V36.3507H428.56L428.633 36.2762L428.455 36.1007ZM429.449 35.0927L429.627 35.2682L429.699 35.1952V35.0927H429.449ZM429.449 34.3787H429.699V34.2781L429.63 34.2056L429.449 34.3787ZM428.455 33.3427L428.636 33.1696L428.562 33.0927H428.455V33.3427ZM426.397 33.3427L426.219 33.5175L426.292 33.5927H426.397V33.3427ZM425.109 32.0267H424.859V32.1286L424.931 32.2015L425.109 32.0267ZM425.109 30.9347L424.931 30.7598L424.859 30.8327V30.9347H425.109ZM426.397 29.6187V29.3687H426.292L426.219 29.4438L426.397 29.6187ZM429.841 29.6187H430.091V29.3687H429.841V29.6187ZM429.841 30.1367V30.3867H430.091V30.1367H429.841ZM426.649 30.1367V29.8867H426.545L426.471 29.9611L426.649 30.1367ZM425.655 31.1447L425.477 30.9691L425.405 31.0421V31.1447H425.655ZM425.655 31.8027H425.405V31.9042L425.476 31.977L425.655 31.8027ZM426.649 32.8247L426.47 32.999L426.544 33.0747H426.649V32.8247ZM428.693 32.8247L428.871 32.6488L428.798 32.5747H428.693V32.8247ZM429.995 34.1407H430.245V34.0379L430.173 33.9648L429.995 34.1407ZM429.995 35.3027L430.173 35.4785L430.245 35.4054V35.3027H429.995ZM428.693 36.6187V36.3687H425.081V36.6187V36.8687H428.693V36.6187ZM425.081 36.6187H425.331V36.1007H425.081H424.831V36.6187H425.081ZM425.081 36.1007V36.3507H428.455V36.1007V35.8507H425.081V36.1007ZM428.455 36.1007L428.633 36.2762L429.627 35.2682L429.449 35.0927L429.271 34.9171L428.277 35.9251L428.455 36.1007ZM429.449 35.0927H429.699V34.3787H429.449H429.199V35.0927H429.449ZM429.449 34.3787L429.63 34.2056L428.636 33.1696L428.455 33.3427L428.275 33.5157L429.269 34.5517L429.449 34.3787ZM428.455 33.3427V33.0927H426.397V33.3427V33.5927H428.455V33.3427ZM426.397 33.3427L426.576 33.1678L425.288 31.8518L425.109 32.0267L424.931 32.2015L426.219 33.5175L426.397 33.3427ZM425.109 32.0267H425.359V30.9347H425.109H424.859V32.0267H425.109ZM425.109 30.9347L425.288 31.1095L426.576 29.7935L426.397 29.6187L426.219 29.4438L424.931 30.7598L425.109 30.9347ZM426.397 29.6187V29.8687H429.841V29.6187V29.3687H426.397V29.6187ZM429.841 29.6187H429.591V30.1367H429.841H430.091V29.6187H429.841ZM429.841 30.1367V29.8867H426.649V30.1367V30.3867H429.841V30.1367ZM426.649 30.1367L426.471 29.9611L425.477 30.9691L425.655 31.1447L425.833 31.3202L426.827 30.3122L426.649 30.1367ZM425.655 31.1447H425.405V31.8027H425.655H425.905V31.1447H425.655ZM425.655 31.8027L425.476 31.977L426.47 32.999L426.649 32.8247L426.828 32.6503L425.834 31.6283L425.655 31.8027ZM426.649 32.8247V33.0747H428.693V32.8247V32.5747H426.649V32.8247ZM428.693 32.8247L428.516 33.0005L429.818 34.3165L429.995 34.1407L430.173 33.9648L428.871 32.6488L428.693 32.8247ZM429.995 34.1407H429.745V35.3027H429.995H430.245V34.1407H429.995ZM429.995 35.3027L429.818 35.1268L428.516 36.4428L428.693 36.6187L428.871 36.7945L430.173 35.4785L429.995 35.3027ZM433.249 36.6187L433.071 36.7935L433.144 36.8687H433.249V36.6187ZM431.961 35.3027H431.711V35.4046L431.783 35.4775L431.961 35.3027ZM431.961 30.9347L431.783 30.7598L431.711 30.8327V30.9347H431.961ZM433.249 29.6187V29.3687H433.144L433.071 29.4438L433.249 29.6187ZM436.273 29.6187H436.523V29.3687H436.273V29.6187ZM436.273 30.1367V30.3867H436.523V30.1367H436.273ZM433.487 30.1367V29.8867H433.382L433.308 29.9624L433.487 30.1367ZM432.507 31.1447L432.328 30.9704L432.257 31.0432V31.1447H432.507ZM432.507 35.0927H432.257V35.1941L432.328 35.2669L432.507 35.0927ZM433.487 36.1007L433.308 36.2749L433.382 36.3507H433.487V36.1007ZM436.385 36.1007H436.635V35.8507H436.385V36.1007ZM436.385 36.6187V36.8687H436.635V36.6187H436.385ZM433.249 36.6187L433.428 36.4438L432.14 35.1278L431.961 35.3027L431.783 35.4775L433.071 36.7935L433.249 36.6187ZM431.961 35.3027H432.211V30.9347H431.961H431.711V35.3027H431.961ZM431.961 30.9347L432.14 31.1095L433.428 29.7935L433.249 29.6187L433.071 29.4438L431.783 30.7598L431.961 30.9347ZM433.249 29.6187V29.8687H436.273V29.6187V29.3687H433.249V29.6187ZM436.273 29.6187H436.023V30.1367H436.273H436.523V29.6187H436.273ZM436.273 30.1367V29.8867H433.487V30.1367V30.3867H436.273V30.1367ZM433.487 30.1367L433.308 29.9624L432.328 30.9704L432.507 31.1447L432.687 31.3189L433.667 30.3109L433.487 30.1367ZM432.507 31.1447H432.257V35.0927H432.507H432.757V31.1447H432.507ZM432.507 35.0927L432.328 35.2669L433.308 36.2749L433.487 36.1007L433.667 35.9264L432.687 34.9184L432.507 35.0927ZM433.487 36.1007V36.3507H436.385V36.1007V35.8507H433.487V36.1007ZM436.385 36.1007H436.135V36.6187H436.385H436.635V36.1007H436.385ZM436.385 36.6187V36.3687H433.249V36.6187V36.8687H436.385V36.6187ZM442.8 36.6187H442.55V36.8687H442.8V36.6187ZM442.8 34.6167H443.05V34.0101L442.622 34.4405L442.8 34.6167ZM440.812 36.6187V36.8687H440.916L440.989 36.7948L440.812 36.6187ZM439.16 36.6187L438.982 36.7945L439.056 36.8687H439.16V36.6187ZM437.858 35.3027H437.608V35.4054L437.68 35.4785L437.858 35.3027ZM437.858 34.1407L437.68 33.9648L437.608 34.0379V34.1407H437.858ZM439.16 32.8247V32.5747H439.056L438.982 32.6488L439.16 32.8247ZM442.8 32.8247V33.0747H443.05V32.8247H442.8ZM442.8 31.1447H443.05V31.0411L442.977 30.9679L442.8 31.1447ZM441.792 30.1367L441.969 29.9599L441.895 29.8867H441.792V30.1367ZM438.446 30.1367H438.196V30.3867H438.446V30.1367ZM438.446 29.6187V29.3687H438.196V29.6187H438.446ZM442.044 29.6187L442.222 29.4428L442.148 29.3687H442.044V29.6187ZM443.346 30.9347H443.596V30.8319L443.524 30.7588L443.346 30.9347ZM443.346 36.6187V36.8687H443.596V36.6187H443.346ZM442.8 33.3147H443.05V33.0647H442.8V33.3147ZM439.412 33.3147V33.0647H439.306L439.233 33.1403L439.412 33.3147ZM438.404 34.3507L438.225 34.1763L438.154 34.2491V34.3507H438.404ZM438.404 35.0927H438.154V35.1962L438.227 35.2694L438.404 35.0927ZM439.412 36.1007L439.235 36.2774L439.308 36.3507H439.412V36.1007ZM440.574 36.1007V36.3507H440.678L440.751 36.2769L440.574 36.1007ZM442.8 33.8607L442.977 34.0369L443.05 33.9637V33.8607H442.8ZM442.8 36.6187H443.05V34.6167H442.8H442.55V36.6187H442.8ZM442.8 34.6167L442.622 34.4405L440.634 36.4425L440.812 36.6187L440.989 36.7948L442.977 34.7928L442.8 34.6167ZM440.812 36.6187V36.3687H439.16V36.6187V36.8687H440.812V36.6187ZM439.16 36.6187L439.338 36.4428L438.036 35.1268L437.858 35.3027L437.68 35.4785L438.982 36.7945L439.16 36.6187ZM437.858 35.3027H438.108V34.1407H437.858H437.608V35.3027H437.858ZM437.858 34.1407L438.036 34.3165L439.338 33.0005L439.16 32.8247L438.982 32.6488L437.68 33.9648L437.858 34.1407ZM439.16 32.8247V33.0747H442.8V32.8247V32.5747H439.16V32.8247ZM442.8 32.8247H443.05V31.1447H442.8H442.55V32.8247H442.8ZM442.8 31.1447L442.977 30.9679L441.969 29.9599L441.792 30.1367L441.615 30.3134L442.623 31.3214L442.8 31.1447ZM441.792 30.1367V29.8867H438.446V30.1367V30.3867H441.792V30.1367ZM438.446 30.1367H438.696V29.6187H438.446H438.196V30.1367H438.446ZM438.446 29.6187V29.8687H442.044V29.6187V29.3687H438.446V29.6187ZM442.044 29.6187L441.866 29.7945L443.168 31.1105L443.346 30.9347L443.524 30.7588L442.222 29.4428L442.044 29.6187ZM443.346 30.9347H443.096V36.6187H443.346H443.596V30.9347H443.346ZM443.346 36.6187V36.3687H442.8V36.6187V36.8687H443.346V36.6187ZM442.8 33.3147V33.0647H439.412V33.3147V33.5647H442.8V33.3147ZM439.412 33.3147L439.233 33.1403L438.225 34.1763L438.404 34.3507L438.583 34.525L439.591 33.489L439.412 33.3147ZM438.404 34.3507H438.154V35.0927H438.404H438.654V34.3507H438.404ZM438.404 35.0927L438.227 35.2694L439.235 36.2774L439.412 36.1007L439.589 35.9239L438.581 34.9159L438.404 35.0927ZM439.412 36.1007V36.3507H440.574V36.1007V35.8507H439.412V36.1007ZM440.574 36.1007L440.751 36.2769L442.977 34.0369L442.8 33.8607L442.623 33.6844L440.397 35.9244L440.574 36.1007ZM442.8 33.8607H443.05V33.3147H442.8H442.55V33.8607H442.8ZM447.253 36.7307L447.067 36.8969L447.236 37.0876L447.424 36.9139L447.253 36.7307ZM446.007 35.3307H445.757V35.4258L445.821 35.4969L446.007 35.3307ZM446.007 26.8187V26.5687H445.757V26.8187H446.007ZM446.553 26.8187H446.803V26.5687H446.553V26.8187ZM446.553 35.1207H446.303V35.2147L446.365 35.2854L446.553 35.1207ZM447.645 36.3667L447.816 36.5499L447.994 36.3846L447.833 36.2019L447.645 36.3667ZM447.253 36.7307L447.44 36.5644L446.194 35.1644L446.007 35.3307L445.821 35.4969L447.067 36.8969L447.253 36.7307ZM446.007 35.3307H446.257V26.8187H446.007H445.757V35.3307H446.007ZM446.007 26.8187V27.0687H446.553V26.8187V26.5687H446.007V26.8187ZM446.553 26.8187H446.303V35.1207H446.553H446.803V26.8187H446.553ZM446.553 35.1207L446.365 35.2854L447.457 36.5314L447.645 36.3667L447.833 36.2019L446.741 34.9559L446.553 35.1207ZM447.645 36.3667L447.475 36.1835L447.083 36.5475L447.253 36.7307L447.424 36.9139L447.816 36.5499L447.645 36.3667ZM453.838 33.2727V33.5227H453.943L454.017 33.4475L453.838 33.2727ZM450.226 33.2727V33.0227H449.976V33.2727H450.226ZM450.226 35.0927H449.976V35.1952L450.048 35.2682L450.226 35.0927ZM451.22 36.1007L451.042 36.2762L451.116 36.3507H451.22V36.1007ZM454.328 36.1007H454.578V35.8507H454.328V36.1007ZM454.328 36.6187V36.8687H454.578V36.6187H454.328ZM450.982 36.6187L450.805 36.7945L450.878 36.8687H450.982V36.6187ZM449.68 35.3027H449.43V35.4054L449.503 35.4785L449.68 35.3027ZM449.68 30.9347L449.503 30.7588L449.43 30.8319V30.9347H449.68ZM450.982 29.6187V29.3687H450.878L450.805 29.4428L450.982 29.6187ZM453.838 29.6187L454.016 29.4428L453.943 29.3687H453.838V29.6187ZM455.14 30.9347H455.39V30.8319L455.318 30.7588L455.14 30.9347ZM455.14 31.9427L455.319 32.1175L455.39 32.0447V31.9427H455.14ZM454.594 31.1447H454.844V31.0421L454.772 30.9691L454.594 31.1447ZM453.6 30.1367L453.778 29.9611L453.705 29.8867H453.6V30.1367ZM451.22 30.1367V29.8867H451.116L451.042 29.9611L451.22 30.1367ZM450.226 31.1447L450.048 30.9691L449.976 31.0421V31.1447H450.226ZM450.226 32.7687H449.976V33.0187H450.226V32.7687ZM453.6 32.7687V33.0187H453.706L453.779 32.943L453.6 32.7687ZM454.594 31.7467L454.773 31.921L454.844 31.8482V31.7467H454.594ZM453.838 33.2727V33.0227H450.226V33.2727V33.5227H453.838V33.2727ZM450.226 33.2727H449.976V35.0927H450.226H450.476V33.2727H450.226ZM450.226 35.0927L450.048 35.2682L451.042 36.2762L451.22 36.1007L451.398 35.9251L450.404 34.9171L450.226 35.0927ZM451.22 36.1007V36.3507H454.328V36.1007V35.8507H451.22V36.1007ZM454.328 36.1007H454.078V36.6187H454.328H454.578V36.1007H454.328ZM454.328 36.6187V36.3687H450.982V36.6187V36.8687H454.328V36.6187ZM450.982 36.6187L451.16 36.4428L449.858 35.1268L449.68 35.3027L449.503 35.4785L450.805 36.7945L450.982 36.6187ZM449.68 35.3027H449.93V30.9347H449.68H449.43V35.3027H449.68ZM449.68 30.9347L449.858 31.1105L451.16 29.7945L450.982 29.6187L450.805 29.4428L449.503 30.7588L449.68 30.9347ZM450.982 29.6187V29.8687H453.838V29.6187V29.3687H450.982V29.6187ZM453.838 29.6187L453.661 29.7945L454.963 31.1105L455.14 30.9347L455.318 30.7588L454.016 29.4428L453.838 29.6187ZM455.14 30.9347H454.89V31.9427H455.14H455.39V30.9347H455.14ZM455.14 31.9427L454.962 31.7678L453.66 33.0978L453.838 33.2727L454.017 33.4475L455.319 32.1175L455.14 31.9427ZM454.594 31.1447L454.772 30.9691L453.778 29.9611L453.6 30.1367L453.422 30.3122L454.416 31.3202L454.594 31.1447ZM453.6 30.1367V29.8867H451.22V30.1367V30.3867H453.6V30.1367ZM451.22 30.1367L451.042 29.9611L450.048 30.9691L450.226 31.1447L450.404 31.3202L451.398 30.3122L451.22 30.1367ZM450.226 31.1447H449.976V32.7687H450.226H450.476V31.1447H450.226ZM450.226 32.7687V33.0187H453.6V32.7687V32.5187H450.226V32.7687ZM453.6 32.7687L453.779 32.943L454.773 31.921L454.594 31.7467L454.415 31.5723L453.421 32.5943L453.6 32.7687ZM454.594 31.7467H454.844V31.1447H454.594H454.344V31.7467H454.594Z" fill="black" mask="url(#path-2-outside-1_268_40)"/>
<path d="M326.178 67.6187V59.0387H329.178C331.674 59.0387 332.754 60.8387 332.754 63.3587C332.754 65.8787 331.59 67.6187 329.094 67.6187H326.178ZM326.802 67.0667H329.07C331.146 67.0667 332.106 65.6267 332.106 63.3587C332.106 61.0907 331.23 59.6027 329.154 59.6027H326.802V67.0667ZM336.264 67.7747C334.44 67.7747 333.456 66.4307 333.456 64.5227C333.456 62.6147 334.524 61.2827 336.216 61.2827C336.888 61.2827 337.44 61.4987 337.848 61.8827C338.532 62.5187 338.76 63.4067 338.748 64.5827H334.056C334.068 66.0707 334.74 67.2587 336.264 67.2587C337.38 67.2587 337.896 66.6107 338.148 65.7707H338.712C338.46 66.9227 337.644 67.7747 336.264 67.7747ZM334.068 64.1027H338.148C338.112 62.8787 337.584 61.7867 336.216 61.7867C334.872 61.7867 334.188 62.7947 334.068 64.1027ZM341.703 67.7747C340.083 67.7747 339.315 66.8147 339.255 65.7467H339.855C339.939 66.7667 340.671 67.2707 341.703 67.2707C342.747 67.2707 343.371 66.7547 343.371 65.9387C343.371 65.2667 343.047 65.0027 341.679 64.6787C340.407 64.3787 339.459 64.0427 339.459 62.9387C339.459 61.9067 340.395 61.2827 341.571 61.2827C342.999 61.2827 343.635 62.0387 343.779 63.0467H343.203C343.119 62.2547 342.507 61.7987 341.571 61.7987C340.563 61.7987 340.047 62.2787 340.047 62.9267C340.047 63.6467 340.623 63.8507 341.895 64.1507C343.143 64.4387 343.959 64.7747 343.959 65.9507C343.959 66.9587 343.155 67.7747 341.703 67.7747ZM345.178 60.2627C344.938 60.2627 344.77 60.0707 344.77 59.8427C344.77 59.6147 344.938 59.4347 345.178 59.4347C345.418 59.4347 345.598 59.6147 345.598 59.8427C345.598 60.0707 345.418 60.2627 345.178 60.2627ZM344.878 67.6187V61.4147H345.466V67.6187H344.878ZM349.057 67.0667C350.401 67.0667 351.169 66.0707 351.169 64.4627C351.169 62.9267 350.473 61.7867 349.093 61.7867C347.821 61.7867 347.005 62.8427 347.005 64.4627C347.005 65.9267 347.653 67.0667 349.057 67.0667ZM349.105 69.8627C347.629 69.8627 346.813 69.1427 346.717 68.3027H347.305C347.473 69.0467 348.205 69.3587 349.081 69.3587C350.521 69.3587 351.121 68.5547 351.121 67.4507V66.3947H351.085C350.629 67.1627 350.005 67.5587 349.033 67.5587C347.377 67.5587 346.405 66.2987 346.405 64.4507C346.405 62.3867 347.629 61.2827 349.069 61.2827C350.065 61.2827 350.677 61.7627 351.085 62.4827H351.121V61.4147H351.709V67.4387C351.709 68.1467 351.493 68.7227 351.097 69.1427C350.629 69.6107 349.993 69.8627 349.105 69.8627ZM352.905 67.6187V61.4147H353.493V62.4587H353.517C353.925 61.7987 354.621 61.2947 355.677 61.2947C356.733 61.2947 357.573 61.9547 357.573 63.1907V67.6187H356.985V63.2507C356.985 62.2307 356.433 61.7987 355.569 61.7987C354.465 61.7987 353.493 62.5787 353.493 63.6107V67.6187H352.905ZM362.247 67.6667C361.611 67.6667 361.191 67.3427 361.191 66.6107V61.9067H360.231V61.4147H361.191V59.5427H361.779V61.4147H362.907V61.9067H361.779V66.5627C361.779 67.0187 361.959 67.1627 362.367 67.1627C362.523 67.1627 362.727 67.1147 362.835 67.0547H362.871V67.5587C362.679 67.6307 362.499 67.6667 362.247 67.6667ZM363.91 67.6187V59.0387H364.498V62.4587H364.522C364.93 61.7987 365.626 61.2947 366.682 61.2947C367.738 61.2947 368.578 61.9547 368.578 63.1907V67.6187H367.99V63.2507C367.99 62.2307 367.438 61.7987 366.574 61.7987C365.47 61.7987 364.498 62.5787 364.498 63.6107V67.6187H363.91ZM371.449 67.2827C372.853 67.2827 373.657 66.3467 373.657 65.4107V64.2587C373.225 64.4747 372.565 64.5587 371.929 64.6307C370.837 64.7507 370.009 64.8947 370.009 66.0707C370.009 66.9467 370.657 67.2827 371.449 67.2827ZM371.389 67.7747C370.249 67.7747 369.409 67.1867 369.409 66.0467C369.409 64.5707 370.561 64.2707 371.857 64.1387C373.321 63.9947 373.657 63.9227 373.657 63.3467V63.1307C373.657 62.1947 373.105 61.7867 372.097 61.7867C370.933 61.7867 370.309 62.2667 370.225 63.1787H369.625C369.745 61.9787 370.549 61.2827 372.097 61.2827C373.477 61.2827 374.245 61.8947 374.245 63.1667V66.8147C374.245 67.1507 374.425 67.2467 374.641 67.2467C374.725 67.2467 374.821 67.2227 374.929 67.1867H374.965V67.6187C374.869 67.6667 374.725 67.7147 374.485 67.7147C374.005 67.7147 373.669 67.4507 373.669 66.8747V66.6587H373.633C373.285 67.1507 372.661 67.7747 371.389 67.7747ZM376.989 67.6667C376.353 67.6667 375.933 67.3427 375.933 66.6107V61.9067H374.973V61.4147H375.933V59.5427H376.521V61.4147H377.649V61.9067H376.521V66.5627C376.521 67.0187 376.701 67.1627 377.109 67.1627C377.265 67.1627 377.469 67.1147 377.577 67.0547H377.613V67.5587C377.421 67.6307 377.241 67.6667 376.989 67.6667ZM382.578 67.7747C380.958 67.7747 380.19 66.8147 380.13 65.7467H380.73C380.814 66.7667 381.546 67.2707 382.578 67.2707C383.622 67.2707 384.246 66.7547 384.246 65.9387C384.246 65.2667 383.922 65.0027 382.554 64.6787C381.282 64.3787 380.334 64.0427 380.334 62.9387C380.334 61.9067 381.27 61.2827 382.446 61.2827C383.874 61.2827 384.51 62.0387 384.654 63.0467H384.078C383.994 62.2547 383.382 61.7987 382.446 61.7987C381.438 61.7987 380.922 62.2787 380.922 62.9267C380.922 63.6467 381.498 63.8507 382.77 64.1507C384.018 64.4387 384.834 64.7747 384.834 65.9507C384.834 66.9587 384.03 67.7747 382.578 67.7747ZM385.777 67.6187V59.0387H386.365V62.4587H386.389C386.797 61.7987 387.493 61.2947 388.549 61.2947C389.605 61.2947 390.445 61.9547 390.445 63.1907V67.6187H389.857V63.2507C389.857 62.2307 389.305 61.7987 388.441 61.7987C387.337 61.7987 386.365 62.5787 386.365 63.6107V67.6187H385.777ZM393.316 67.2827C394.72 67.2827 395.524 66.3467 395.524 65.4107V64.2587C395.092 64.4747 394.432 64.5587 393.796 64.6307C392.704 64.7507 391.876 64.8947 391.876 66.0707C391.876 66.9467 392.524 67.2827 393.316 67.2827ZM393.256 67.7747C392.116 67.7747 391.276 67.1867 391.276 66.0467C391.276 64.5707 392.428 64.2707 393.724 64.1387C395.188 63.9947 395.524 63.9227 395.524 63.3467V63.1307C395.524 62.1947 394.972 61.7867 393.964 61.7867C392.8 61.7867 392.176 62.2667 392.092 63.1787H391.492C391.612 61.9787 392.416 61.2827 393.964 61.2827C395.344 61.2827 396.112 61.8947 396.112 63.1667V66.8147C396.112 67.1507 396.292 67.2467 396.508 67.2467C396.592 67.2467 396.688 67.2227 396.796 67.1867H396.832V67.6187C396.736 67.6667 396.592 67.7147 396.352 67.7147C395.872 67.7147 395.536 67.4507 395.536 66.8747V66.6587H395.5C395.152 67.1507 394.528 67.7747 393.256 67.7747ZM400.218 67.2587C401.55 67.2587 402.198 65.9987 402.198 64.5227C402.198 62.8667 401.478 61.7867 400.206 61.7867C398.826 61.7867 398.034 62.9747 398.034 64.5467C398.034 66.1907 398.814 67.2587 400.218 67.2587ZM397.506 69.6107V61.4147H398.094V62.6027H398.118C398.538 61.8107 399.246 61.2827 400.29 61.2827C401.73 61.2827 402.798 62.4467 402.798 64.5107C402.798 66.3587 401.838 67.7507 400.242 67.7507C399.21 67.7507 398.562 67.3067 398.118 66.5987H398.094V69.6107H397.506ZM406.202 67.7747C404.378 67.7747 403.394 66.4307 403.394 64.5227C403.394 62.6147 404.462 61.2827 406.154 61.2827C406.826 61.2827 407.378 61.4987 407.786 61.8827C408.47 62.5187 408.698 63.4067 408.686 64.5827H403.994C404.006 66.0707 404.678 67.2587 406.202 67.2587C407.318 67.2587 407.834 66.6107 408.086 65.7707H408.65C408.398 66.9227 407.582 67.7747 406.202 67.7747ZM404.006 64.1027H408.086C408.05 62.8787 407.522 61.7867 406.154 61.7867C404.81 61.7867 404.126 62.7947 404.006 64.1027ZM411.64 67.7747C410.02 67.7747 409.252 66.8147 409.192 65.7467H409.792C409.876 66.7667 410.608 67.2707 411.64 67.2707C412.684 67.2707 413.308 66.7547 413.308 65.9387C413.308 65.2667 412.984 65.0027 411.616 64.6787C410.344 64.3787 409.396 64.0427 409.396 62.9387C409.396 61.9067 410.332 61.2827 411.508 61.2827C412.936 61.2827 413.572 62.0387 413.716 63.0467H413.14C413.056 62.2547 412.444 61.7987 411.508 61.7987C410.5 61.7987 409.984 62.2787 409.984 62.9267C409.984 63.6467 410.56 63.8507 411.832 64.1507C413.08 64.4387 413.896 64.7747 413.896 65.9507C413.896 66.9587 413.092 67.7747 411.64 67.7747ZM418.297 67.6667C417.661 67.6667 417.241 67.3427 417.241 66.6107V61.9067H416.281V61.4147H417.241V59.5427H417.829V61.4147H418.957V61.9067H417.829V66.5627C417.829 67.0187 418.009 67.1627 418.417 67.1627C418.573 67.1627 418.777 67.1147 418.885 67.0547H418.921V67.5587C418.729 67.6307 418.549 67.6667 418.297 67.6667ZM419.961 67.6187V59.0387H420.549V62.4587H420.573C420.981 61.7987 421.677 61.2947 422.733 61.2947C423.789 61.2947 424.629 61.9547 424.629 63.1907V67.6187H424.041V63.2507C424.041 62.2307 423.489 61.7987 422.625 61.7987C421.521 61.7987 420.549 62.5787 420.549 63.6107V67.6187H419.961ZM428.292 67.7747C426.468 67.7747 425.484 66.4307 425.484 64.5227C425.484 62.6147 426.552 61.2827 428.244 61.2827C428.916 61.2827 429.468 61.4987 429.876 61.8827C430.56 62.5187 430.788 63.4067 430.776 64.5827H426.084C426.096 66.0707 426.768 67.2587 428.292 67.2587C429.408 67.2587 429.924 66.6107 430.176 65.7707H430.74C430.488 66.9227 429.672 67.7747 428.292 67.7747ZM426.096 64.1027H430.176C430.14 62.8787 429.612 61.7867 428.244 61.7867C426.9 61.7867 426.216 62.7947 426.096 64.1027ZM433.612 67.6187V61.4147H434.2V62.6387H434.224C434.62 61.8467 435.268 61.3787 436.156 61.3787H436.24V61.9667C435.82 61.9427 435.388 62.0267 435.016 62.3147C434.524 62.6987 434.2 63.2867 434.2 64.0307V67.6187H433.612ZM439.154 67.7747C437.414 67.7747 436.37 66.3947 436.37 64.5227C436.37 62.6507 437.414 61.2827 439.154 61.2827C440.906 61.2827 441.938 62.6507 441.938 64.5227C441.938 66.3947 440.906 67.7747 439.154 67.7747ZM439.154 67.2707C440.582 67.2707 441.338 66.0347 441.338 64.5227C441.338 63.0107 440.582 61.7747 439.154 61.7747C437.726 61.7747 436.97 63.0107 436.97 64.5227C436.97 66.0347 437.726 67.2707 439.154 67.2707ZM445.318 67.7747C443.578 67.7747 442.534 66.3947 442.534 64.5227C442.534 62.6507 443.578 61.2827 445.318 61.2827C447.07 61.2827 448.102 62.6507 448.102 64.5227C448.102 66.3947 447.07 67.7747 445.318 67.7747ZM445.318 67.2707C446.746 67.2707 447.502 66.0347 447.502 64.5227C447.502 63.0107 446.746 61.7747 445.318 61.7747C443.89 61.7747 443.134 63.0107 443.134 64.5227C443.134 66.0347 443.89 67.2707 445.318 67.2707ZM448.998 67.6187V61.4147H449.586V62.3867H449.61C450.018 61.7507 450.57 61.2947 451.53 61.2947C452.298 61.2947 452.97 61.6787 453.21 62.4347H453.246C453.654 61.7267 454.338 61.2947 455.298 61.2947C456.33 61.2947 457.17 61.9547 457.17 63.1907V67.6187H456.582V63.2507C456.582 62.2307 456.018 61.7987 455.166 61.7987C454.194 61.7987 453.378 62.4227 453.378 63.6107V67.6187H452.79V63.2507C452.79 62.2307 452.202 61.7987 451.422 61.7987C450.45 61.7987 449.586 62.5787 449.586 63.6107V67.6187H448.998ZM460.379 67.7747C458.759 67.7747 457.991 66.8147 457.931 65.7467H458.531C458.615 66.7667 459.347 67.2707 460.379 67.2707C461.423 67.2707 462.047 66.7547 462.047 65.9387C462.047 65.2667 461.723 65.0027 460.355 64.6787C459.083 64.3787 458.135 64.0427 458.135 62.9387C458.135 61.9067 459.071 61.2827 460.247 61.2827C461.675 61.2827 462.311 62.0387 462.455 63.0467H461.879C461.795 62.2547 461.183 61.7987 460.247 61.7987C459.239 61.7987 458.723 62.2787 458.723 62.9267C458.723 63.6467 459.299 63.8507 460.571 64.1507C461.819 64.4387 462.635 64.7747 462.635 65.9507C462.635 66.9587 461.831 67.7747 460.379 67.7747ZM463.374 68.7467V68.3267C463.638 68.1347 463.734 67.9187 463.746 67.6307C463.518 67.6187 463.35 67.4627 463.35 67.2107C463.35 66.9827 463.518 66.8027 463.758 66.8027C464.034 66.8027 464.202 67.0667 464.202 67.4867C464.202 68.0507 463.902 68.5187 463.374 68.7467ZM469.646 67.7747C467.907 67.7747 466.863 66.3947 466.863 64.5227C466.863 62.6507 467.907 61.2827 469.646 61.2827C471.399 61.2827 472.431 62.6507 472.431 64.5227C472.431 66.3947 471.399 67.7747 469.646 67.7747ZM469.646 67.2707C471.075 67.2707 471.831 66.0347 471.831 64.5227C471.831 63.0107 471.075 61.7747 469.646 61.7747C468.219 61.7747 467.463 63.0107 467.463 64.5227C467.463 66.0347 468.219 67.2707 469.646 67.2707ZM476.063 67.7747C475.031 67.7747 474.407 67.3547 473.939 66.5987H473.915V67.6187H473.327V59.0387H473.915V62.6027H473.939C474.359 61.8227 475.067 61.2827 476.111 61.2827C477.551 61.2827 478.619 62.4707 478.619 64.5347C478.619 66.3827 477.659 67.7747 476.063 67.7747ZM476.039 67.2827C477.371 67.2827 478.019 66.0227 478.019 64.5467C478.019 62.8907 477.299 61.7867 476.027 61.7867C474.647 61.7867 473.855 62.9747 473.855 64.5467C473.855 66.1907 474.635 67.2827 476.039 67.2827ZM479.85 60.2627C479.61 60.2627 479.442 60.0707 479.442 59.8427C479.442 59.6147 479.61 59.4347 479.85 59.4347C480.09 59.4347 480.27 59.6147 480.27 59.8427C480.27 60.0707 480.09 60.2627 479.85 60.2627ZM478.89 69.6107H478.734V69.1067H478.854C479.334 69.1067 479.55 68.8787 479.55 68.3267V61.4147H480.138V68.3387C480.138 69.2507 479.718 69.6107 478.89 69.6107ZM483.885 67.7747C482.061 67.7747 481.077 66.4307 481.077 64.5227C481.077 62.6147 482.145 61.2827 483.837 61.2827C484.509 61.2827 485.061 61.4987 485.469 61.8827C486.153 62.5187 486.381 63.4067 486.369 64.5827H481.677C481.689 66.0707 482.361 67.2587 483.885 67.2587C485.001 67.2587 485.517 66.6107 485.769 65.7707H486.333C486.081 66.9227 485.265 67.7747 483.885 67.7747ZM481.689 64.1027H485.769C485.733 62.8787 485.205 61.7867 483.837 61.7867C482.493 61.7867 481.809 62.7947 481.689 64.1027ZM489.672 67.7747C487.884 67.7747 486.972 66.3947 486.972 64.5227C486.972 62.6507 487.908 61.2827 489.684 61.2827C490.98 61.2827 491.88 61.9547 492.072 63.2027H491.496C491.292 62.2187 490.656 61.7867 489.684 61.7867C488.184 61.7867 487.572 63.0347 487.572 64.5227C487.572 66.0107 488.196 67.2587 489.672 67.2587C490.752 67.2587 491.46 66.5387 491.592 65.5187H492.144C491.988 66.8627 491.1 67.7747 489.672 67.7747ZM494.516 67.6667C493.88 67.6667 493.46 67.3427 493.46 66.6107V61.9067H492.5V61.4147H493.46V59.5427H494.048V61.4147H495.176V61.9067H494.048V66.5627C494.048 67.0187 494.228 67.1627 494.636 67.1627C494.792 67.1627 494.996 67.1147 495.104 67.0547H495.14V67.5587C494.948 67.6307 494.768 67.6667 494.516 67.6667ZM498.054 67.7747C496.434 67.7747 495.666 66.8147 495.606 65.7467H496.206C496.29 66.7667 497.022 67.2707 498.054 67.2707C499.098 67.2707 499.722 66.7547 499.722 65.9387C499.722 65.2667 499.398 65.0027 498.03 64.6787C496.758 64.3787 495.81 64.0427 495.81 62.9387C495.81 61.9067 496.746 61.2827 497.922 61.2827C499.35 61.2827 499.986 62.0387 500.13 63.0467H499.554C499.47 62.2547 498.858 61.7987 497.922 61.7987C496.914 61.7987 496.398 62.2787 496.398 62.9267C496.398 63.6467 496.974 63.8507 498.246 64.1507C499.494 64.4387 500.31 64.7747 500.31 65.9507C500.31 66.9587 499.506 67.7747 498.054 67.7747ZM501.05 68.7467V68.3267C501.314 68.1347 501.41 67.9187 501.422 67.6307C501.194 67.6187 501.026 67.4627 501.026 67.2107C501.026 66.9827 501.194 66.8027 501.434 66.8027C501.71 66.8027 501.878 67.0667 501.878 67.4867C501.878 68.0507 501.578 68.5187 501.05 68.7467ZM506.554 67.2827C507.958 67.2827 508.762 66.3467 508.762 65.4107V64.2587C508.33 64.4747 507.67 64.5587 507.034 64.6307C505.942 64.7507 505.114 64.8947 505.114 66.0707C505.114 66.9467 505.762 67.2827 506.554 67.2827ZM506.494 67.7747C505.354 67.7747 504.514 67.1867 504.514 66.0467C504.514 64.5707 505.666 64.2707 506.962 64.1387C508.426 63.9947 508.762 63.9227 508.762 63.3467V63.1307C508.762 62.1947 508.21 61.7867 507.202 61.7867C506.038 61.7867 505.414 62.2667 505.33 63.1787H504.73C504.85 61.9787 505.654 61.2827 507.202 61.2827C508.582 61.2827 509.35 61.8947 509.35 63.1667V66.8147C509.35 67.1507 509.53 67.2467 509.746 67.2467C509.83 67.2467 509.926 67.2227 510.034 67.1867H510.07V67.6187C509.974 67.6667 509.83 67.7147 509.59 67.7147C509.11 67.7147 508.774 67.4507 508.774 66.8747V66.6587H508.738C508.39 67.1507 507.766 67.7747 506.494 67.7747ZM510.745 67.6187V61.4147H511.333V62.4587H511.357C511.765 61.7987 512.461 61.2947 513.517 61.2947C514.573 61.2947 515.413 61.9547 515.413 63.1907V67.6187H514.825V63.2507C514.825 62.2307 514.273 61.7987 513.409 61.7987C512.305 61.7987 511.333 62.5787 511.333 63.6107V67.6187H510.745ZM518.909 67.2827C520.253 67.2827 521.057 66.1907 521.057 64.5467C521.057 62.9747 520.301 61.7867 518.921 61.7867C517.649 61.7867 516.869 62.8907 516.869 64.5467C516.869 66.0347 517.517 67.2827 518.909 67.2827ZM518.885 67.7747C517.229 67.7747 516.269 66.3827 516.269 64.5347C516.269 62.4707 517.433 61.2827 518.873 61.2827C519.869 61.2827 520.577 61.7507 520.973 62.5427H520.997V59.0387H521.585V67.6187H520.997V66.5867H520.973C520.517 67.3547 519.857 67.7747 518.885 67.7747ZM328.542 85.7747C326.718 85.7747 325.734 84.4307 325.734 82.5227C325.734 80.6147 326.802 79.2827 328.494 79.2827C329.166 79.2827 329.718 79.4987 330.126 79.8827C330.81 80.5187 331.038 81.4067 331.026 82.5827H326.334C326.346 84.0707 327.018 85.2587 328.542 85.2587C329.658 85.2587 330.174 84.6107 330.426 83.7707H330.99C330.738 84.9227 329.922 85.7747 328.542 85.7747ZM326.346 82.1027H330.426C330.39 80.8787 329.862 79.7867 328.494 79.7867C327.15 79.7867 326.466 80.7947 326.346 82.1027ZM331.928 85.6187V79.4147H332.516V80.4587H332.54C332.948 79.7987 333.644 79.2947 334.7 79.2947C335.756 79.2947 336.596 79.9547 336.596 81.1907V85.6187H336.008V81.2507C336.008 80.2307 335.456 79.7987 334.592 79.7987C333.488 79.7987 332.516 80.5787 332.516 81.6107V85.6187H331.928ZM339.351 85.6187L337.143 79.4147H337.767L339.135 83.3507C339.351 83.9867 339.699 85.0907 339.699 85.0907H339.723C339.723 85.0907 340.083 83.9867 340.311 83.3507L341.751 79.4147H342.351L340.083 85.6187H339.351ZM343.397 78.2627C343.157 78.2627 342.989 78.0707 342.989 77.8427C342.989 77.6147 343.157 77.4347 343.397 77.4347C343.637 77.4347 343.817 77.6147 343.817 77.8427C343.817 78.0707 343.637 78.2627 343.397 78.2627ZM343.097 85.6187V79.4147H343.685V85.6187H343.097ZM344.924 85.6187V79.4147H345.512V80.6387H345.536C345.932 79.8467 346.58 79.3787 347.468 79.3787H347.552V79.9667C347.132 79.9427 346.7 80.0267 346.328 80.3147C345.836 80.6987 345.512 81.2867 345.512 82.0307V85.6187H344.924ZM350.467 85.7747C348.727 85.7747 347.683 84.3947 347.683 82.5227C347.683 80.6507 348.727 79.2827 350.467 79.2827C352.219 79.2827 353.251 80.6507 353.251 82.5227C353.251 84.3947 352.219 85.7747 350.467 85.7747ZM350.467 85.2707C351.895 85.2707 352.651 84.0347 352.651 82.5227C352.651 81.0107 351.895 79.7747 350.467 79.7747C349.039 79.7747 348.283 81.0107 348.283 82.5227C348.283 84.0347 349.039 85.2707 350.467 85.2707ZM354.147 85.6187V79.4147H354.735V80.4587H354.759C355.167 79.7987 355.863 79.2947 356.919 79.2947C357.975 79.2947 358.815 79.9547 358.815 81.1907V85.6187H358.227V81.2507C358.227 80.2307 357.675 79.7987 356.811 79.7987C355.707 79.7987 354.735 80.5787 354.735 81.6107V85.6187H354.147ZM359.971 85.6187V79.4147H360.559V80.3867H360.583C360.991 79.7507 361.543 79.2947 362.503 79.2947C363.271 79.2947 363.943 79.6787 364.183 80.4347H364.219C364.627 79.7267 365.311 79.2947 366.271 79.2947C367.303 79.2947 368.143 79.9547 368.143 81.1907V85.6187H367.555V81.2507C367.555 80.2307 366.991 79.7987 366.139 79.7987C365.167 79.7987 364.351 80.4227 364.351 81.6107V85.6187H363.763V81.2507C363.763 80.2307 363.175 79.7987 362.395 79.7987C361.423 79.7987 360.559 80.5787 360.559 81.6107V85.6187H359.971ZM371.807 85.7747C369.983 85.7747 368.999 84.4307 368.999 82.5227C368.999 80.6147 370.067 79.2827 371.759 79.2827C372.431 79.2827 372.983 79.4987 373.391 79.8827C374.075 80.5187 374.303 81.4067 374.291 82.5827H369.599C369.611 84.0707 370.283 85.2587 371.807 85.2587C372.923 85.2587 373.439 84.6107 373.691 83.7707H374.255C374.003 84.9227 373.187 85.7747 371.807 85.7747ZM369.611 82.1027H373.691C373.655 80.8787 373.127 79.7867 371.759 79.7867C370.415 79.7867 369.731 80.7947 369.611 82.1027ZM375.194 85.6187V79.4147H375.782V80.4587H375.806C376.214 79.7987 376.91 79.2947 377.966 79.2947C379.022 79.2947 379.862 79.9547 379.862 81.1907V85.6187H379.274V81.2507C379.274 80.2307 378.722 79.7987 377.858 79.7987C376.754 79.7987 375.782 80.5787 375.782 81.6107V85.6187H375.194ZM382.485 85.6667C381.849 85.6667 381.429 85.3427 381.429 84.6107V79.9067H380.469V79.4147H381.429V77.5427H382.017V79.4147H383.145V79.9067H382.017V84.5627C382.017 85.0187 382.197 85.1627 382.605 85.1627C382.761 85.1627 382.965 85.1147 383.073 85.0547H383.109V85.5587C382.917 85.6307 382.737 85.6667 382.485 85.6667ZM386.023 85.7747C384.403 85.7747 383.635 84.8147 383.575 83.7467H384.175C384.259 84.7667 384.991 85.2707 386.023 85.2707C387.067 85.2707 387.691 84.7547 387.691 83.9387C387.691 83.2667 387.367 83.0027 385.999 82.6787C384.727 82.3787 383.779 82.0427 383.779 80.9387C383.779 79.9067 384.715 79.2827 385.891 79.2827C387.319 79.2827 387.955 80.0387 388.099 81.0467H387.523C387.439 80.2547 386.827 79.7987 385.891 79.7987C384.883 79.7987 384.367 80.2787 384.367 80.9267C384.367 81.6467 384.943 81.8507 386.215 82.1507C387.463 82.4387 388.279 82.7747 388.279 83.9507C388.279 84.9587 387.475 85.7747 386.023 85.7747ZM392.428 85.6187L390.664 79.4147H391.276L392.332 83.2547C392.524 83.9387 392.776 85.0787 392.776 85.0787H392.8C392.8 85.0787 393.076 83.9627 393.244 83.3387L394.312 79.4147H394.972L396.004 83.3387C396.16 83.9507 396.424 85.0787 396.424 85.0787H396.448C396.448 85.0787 396.748 83.9267 396.94 83.2547L398.08 79.4147H398.668L396.772 85.6187H396.064L394.984 81.5147C394.816 80.8787 394.648 80.0387 394.648 80.0387H394.624C394.624 80.0387 394.444 80.8787 394.276 81.5147L393.16 85.6187H392.428ZM401.772 85.7747C399.948 85.7747 398.964 84.4307 398.964 82.5227C398.964 80.6147 400.032 79.2827 401.724 79.2827C402.396 79.2827 402.948 79.4987 403.356 79.8827C404.04 80.5187 404.268 81.4067 404.256 82.5827H399.564C399.576 84.0707 400.248 85.2587 401.772 85.2587C402.888 85.2587 403.404 84.6107 403.656 83.7707H404.22C403.968 84.9227 403.152 85.7747 401.772 85.7747ZM399.576 82.1027H403.656C403.62 80.8787 403.092 79.7867 401.724 79.7867C400.38 79.7867 399.696 80.7947 399.576 82.1027ZM407.092 85.6187V79.4147H407.68V80.3867H407.704C408.112 79.7507 408.664 79.2947 409.624 79.2947C410.392 79.2947 411.064 79.6787 411.304 80.4347H411.34C411.748 79.7267 412.432 79.2947 413.392 79.2947C414.424 79.2947 415.264 79.9547 415.264 81.1907V85.6187H414.676V81.2507C414.676 80.2307 414.112 79.7987 413.26 79.7987C412.288 79.7987 411.472 80.4227 411.472 81.6107V85.6187H410.884V81.2507C410.884 80.2307 410.296 79.7987 409.516 79.7987C408.544 79.7987 407.68 80.5787 407.68 81.6107V85.6187H407.092ZM418.904 85.7747C417.164 85.7747 416.12 84.3947 416.12 82.5227C416.12 80.6507 417.164 79.2827 418.904 79.2827C420.656 79.2827 421.688 80.6507 421.688 82.5227C421.688 84.3947 420.656 85.7747 418.904 85.7747ZM418.904 85.2707C420.332 85.2707 421.088 84.0347 421.088 82.5227C421.088 81.0107 420.332 79.7747 418.904 79.7747C417.476 79.7747 416.72 81.0107 416.72 82.5227C416.72 84.0347 417.476 85.2707 418.904 85.2707ZM424.125 85.6187L421.917 79.4147H422.541L423.909 83.3507C424.125 83.9867 424.473 85.0907 424.473 85.0907H424.497C424.497 85.0907 424.857 83.9867 425.085 83.3507L426.525 79.4147H427.125L424.857 85.6187H424.125ZM430.167 85.7747C428.343 85.7747 427.359 84.4307 427.359 82.5227C427.359 80.6147 428.427 79.2827 430.119 79.2827C430.791 79.2827 431.343 79.4987 431.751 79.8827C432.435 80.5187 432.663 81.4067 432.651 82.5827H427.959C427.971 84.0707 428.643 85.2587 430.167 85.2587C431.283 85.2587 431.799 84.6107 432.051 83.7707H432.615C432.363 84.9227 431.547 85.7747 430.167 85.7747ZM427.971 82.1027H432.051C432.015 80.8787 431.487 79.7867 430.119 79.7867C428.775 79.7867 428.091 80.7947 427.971 82.1027ZM437.071 85.6667C436.435 85.6667 436.015 85.3427 436.015 84.6107V79.9067H435.055V79.4147H436.015V77.5427H436.603V79.4147H437.731V79.9067H436.603V84.5627C436.603 85.0187 436.783 85.1627 437.191 85.1627C437.347 85.1627 437.551 85.1147 437.659 85.0547H437.695V85.5587C437.503 85.6307 437.323 85.6667 437.071 85.6667ZM438.734 85.6187V77.0387H439.322V80.4587H439.346C439.754 79.7987 440.45 79.2947 441.506 79.2947C442.562 79.2947 443.402 79.9547 443.402 81.1907V85.6187H442.814V81.2507C442.814 80.2307 442.262 79.7987 441.398 79.7987C440.294 79.7987 439.322 80.5787 439.322 81.6107V85.6187H438.734ZM444.557 85.6187V79.4147H445.145V80.6387H445.169C445.565 79.8467 446.213 79.3787 447.101 79.3787H447.185V79.9667C446.765 79.9427 446.333 80.0267 445.961 80.3147C445.469 80.6987 445.145 81.2867 445.145 82.0307V85.6187H444.557ZM450.1 85.7747C448.36 85.7747 447.316 84.3947 447.316 82.5227C447.316 80.6507 448.36 79.2827 450.1 79.2827C451.852 79.2827 452.884 80.6507 452.884 82.5227C452.884 84.3947 451.852 85.7747 450.1 85.7747ZM450.1 85.2707C451.528 85.2707 452.284 84.0347 452.284 82.5227C452.284 81.0107 451.528 79.7747 450.1 79.7747C448.672 79.7747 447.916 81.0107 447.916 82.5227C447.916 84.0347 448.672 85.2707 450.1 85.2707ZM455.724 85.7627C454.584 85.7627 453.732 85.0787 453.732 83.8427V79.4147H454.32V83.7827C454.32 84.8027 454.908 85.2587 455.832 85.2587C456.924 85.2587 457.74 84.4307 457.74 83.3387V79.4147H458.328V85.6187H457.74V84.6707H457.716C457.308 85.2707 456.768 85.7627 455.724 85.7627ZM461.874 85.0667C463.218 85.0667 463.986 84.0707 463.986 82.4627C463.986 80.9267 463.29 79.7867 461.91 79.7867C460.638 79.7867 459.822 80.8427 459.822 82.4627C459.822 83.9267 460.47 85.0667 461.874 85.0667ZM461.922 87.8627C460.446 87.8627 459.63 87.1427 459.534 86.3027H460.122C460.29 87.0467 461.022 87.3587 461.898 87.3587C463.338 87.3587 463.938 86.5547 463.938 85.4507V84.3947H463.902C463.446 85.1627 462.822 85.5587 461.85 85.5587C460.194 85.5587 459.222 84.2987 459.222 82.4507C459.222 80.3867 460.446 79.2827 461.886 79.2827C462.882 79.2827 463.494 79.7627 463.902 80.4827H463.938V79.4147H464.526V85.4387C464.526 86.1467 464.31 86.7227 463.914 87.1427C463.446 87.6107 462.81 87.8627 461.922 87.8627ZM465.781 85.6187V77.0387H466.369V80.4587H466.393C466.801 79.7987 467.497 79.2947 468.553 79.2947C469.609 79.2947 470.449 79.9547 470.449 81.1907V85.6187H469.861V81.2507C469.861 80.2307 469.309 79.7987 468.445 79.7987C467.341 79.7987 466.369 80.5787 466.369 81.6107V85.6187H465.781ZM476.046 85.7747C474.222 85.7747 473.238 84.4307 473.238 82.5227C473.238 80.6147 474.306 79.2827 475.998 79.2827C476.67 79.2827 477.222 79.4987 477.63 79.8827C478.314 80.5187 478.542 81.4067 478.53 82.5827H473.838C473.85 84.0707 474.521 85.2587 476.046 85.2587C477.162 85.2587 477.678 84.6107 477.93 83.7707H478.494C478.242 84.9227 477.426 85.7747 476.046 85.7747ZM473.85 82.1027H477.93C477.894 80.8787 477.366 79.7867 475.998 79.7867C474.654 79.7867 473.97 80.7947 473.85 82.1027ZM480.972 85.6187L478.764 79.4147H479.388L480.756 83.3507C480.972 83.9867 481.32 85.0907 481.32 85.0907H481.344C481.344 85.0907 481.704 83.9867 481.932 83.3507L483.372 79.4147H483.972L481.704 85.6187H480.972ZM487.014 85.7747C485.19 85.7747 484.206 84.4307 484.206 82.5227C484.206 80.6147 485.274 79.2827 486.966 79.2827C487.638 79.2827 488.19 79.4987 488.598 79.8827C489.282 80.5187 489.51 81.4067 489.498 82.5827H484.806C484.818 84.0707 485.49 85.2587 487.014 85.2587C488.13 85.2587 488.646 84.6107 488.898 83.7707H489.462C489.21 84.9227 488.394 85.7747 487.014 85.7747ZM484.818 82.1027H488.898C488.862 80.8787 488.334 79.7867 486.966 79.7867C485.622 79.7867 484.938 80.7947 484.818 82.1027ZM490.401 85.6187V79.4147H490.989V80.6387H491.013C491.409 79.8467 492.057 79.3787 492.945 79.3787H493.029V79.9667C492.609 79.9427 492.177 80.0267 491.805 80.3147C491.313 80.6987 490.989 81.2867 490.989 82.0307V85.6187H490.401ZM494.492 87.6707C494.276 87.6707 494.156 87.6347 494.024 87.5987V87.0707H494.048C494.144 87.0947 494.276 87.1307 494.54 87.1307C495.056 87.1307 495.428 86.8907 495.656 86.2307L495.836 85.7147L493.46 79.4147H494.072L495.584 83.5187C495.812 84.1307 496.124 85.0667 496.124 85.0667H496.148C496.148 85.0667 496.436 84.1427 496.652 83.5187L498.092 79.4147H498.692L496.196 86.3627C495.836 87.3707 495.332 87.6707 494.492 87.6707ZM503.674 85.2827C505.018 85.2827 505.822 84.1907 505.822 82.5467C505.822 80.9747 505.066 79.7867 503.686 79.7867C502.414 79.7867 501.634 80.8907 501.634 82.5467C501.634 84.0347 502.282 85.2827 503.674 85.2827ZM503.65 85.7747C501.994 85.7747 501.034 84.3827 501.034 82.5347C501.034 80.4707 502.198 79.2827 503.638 79.2827C504.634 79.2827 505.342 79.7507 505.738 80.5427H505.762V77.0387H506.35V85.6187H505.762V84.5867H505.738C505.282 85.3547 504.622 85.7747 503.65 85.7747ZM509.261 85.2827C510.665 85.2827 511.469 84.3467 511.469 83.4107V82.2587C511.037 82.4747 510.377 82.5587 509.741 82.6307C508.649 82.7507 507.821 82.8947 507.821 84.0707C507.821 84.9467 508.469 85.2827 509.261 85.2827ZM509.201 85.7747C508.061 85.7747 507.221 85.1867 507.221 84.0467C507.221 82.5707 508.373 82.2707 509.669 82.1387C511.133 81.9947 511.469 81.9227 511.469 81.3467V81.1307C511.469 80.1947 510.917 79.7867 509.909 79.7867C508.745 79.7867 508.121 80.2667 508.037 81.1787H507.437C507.557 79.9787 508.361 79.2827 509.909 79.2827C511.289 79.2827 512.057 79.8947 512.057 81.1667V84.8147C512.057 85.1507 512.237 85.2467 512.453 85.2467C512.537 85.2467 512.633 85.2227 512.741 85.1867H512.777V85.6187C512.681 85.6667 512.537 85.7147 512.297 85.7147C511.817 85.7147 511.481 85.4507 511.481 84.8747V84.6587H511.445C511.097 85.1507 510.473 85.7747 509.201 85.7747ZM513.699 87.6707C513.483 87.6707 513.363 87.6347 513.231 87.5987V87.0707H513.255C513.351 87.0947 513.483 87.1307 513.747 87.1307C514.263 87.1307 514.635 86.8907 514.863 86.2307L515.043 85.7147L512.667 79.4147H513.279L514.791 83.5187C515.019 84.1307 515.331 85.0667 515.331 85.0667H515.355C515.355 85.0667 515.643 84.1427 515.859 83.5187L517.299 79.4147H517.899L515.403 86.3627C515.043 87.3707 514.539 87.6707 513.699 87.6707ZM518.016 85.6547C517.764 85.6547 517.596 85.4627 517.596 85.2227C517.596 84.9827 517.764 84.8027 518.016 84.8027C518.268 84.8027 518.448 84.9827 518.448 85.2227C518.448 85.4627 518.268 85.6547 518.016 85.6547Z" fill="black"/>
<path d="M10.1841 30.6377H9.79688V30.2505" stroke="#1E1E1E" stroke-width="0.5" stroke-miterlimit="10"/>
<path d="M9.79688 29.541V27.8232L11.1482 26.104" stroke="#1E1E1E" stroke-width="0.5" stroke-miterlimit="10" stroke-dasharray="4.85 4.85"/>
<path d="M11.3672 25.8251L11.606 25.5205H11.9932" stroke="#1E1E1E" stroke-width="0.5" stroke-miterlimit="10"/>
<path d="M12.7897 25.5205H15.9505C17.094 25.5205 18.0246 24.4725 18.0246 23.1844V21.3078C18.0246 20.0197 17.094 18.9717 15.9505 18.9717H9.96828C9.38232 18.9717 8.82088 19.253 8.42852 19.7422L4.56558 24.5615C4.22098 24.9913 4.03125 25.5476 4.03125 26.1271V29.8558" stroke="#1E1E1E" stroke-width="0.5" stroke-miterlimit="10" stroke-dasharray="5.41 5.41"/>
<path d="M4.02782 30.2505V30.6377H3.64062" stroke="#1E1E1E" stroke-width="0.5" stroke-miterlimit="10"/>
<path d="M2.87907 30.6382H2.32409C1.18056 30.6382 0.25 31.6862 0.25 32.9743V34.8509C0.25 36.139 1.18056 37.187 2.32409 37.187H3.2611" stroke="#1E1E1E" stroke-width="0.5" stroke-miterlimit="10" stroke-dasharray="5.21 5.21"/>
<path d="M3.64062 37.187H4.02782V37.5742" stroke="#1E1E1E" stroke-width="0.5" stroke-miterlimit="10"/>
<path d="M4.03125 38.3444V58.3354C4.03125 59.6235 4.96181 60.6715 6.10534 60.6715H7.72511C8.86863 60.6715 9.7992 59.6235 9.7992 58.3354V37.9585" stroke="#1E1E1E" stroke-width="0.5" stroke-miterlimit="10" stroke-dasharray="5.26 5.26"/>
<path d="M9.79688 37.5742V37.187H10.1841" stroke="#1E1E1E" stroke-width="0.5" stroke-miterlimit="10"/>
<path d="M10.9627 37.187H15.4916C16.6351 37.187 17.5657 36.139 17.5657 34.8509V32.9743C17.5657 31.6862 16.6351 30.6382 15.4916 30.6382H10.5742" stroke="#1E1E1E" stroke-width="0.5" stroke-miterlimit="10" stroke-dasharray="5.3 5.3"/>
<path d="M30.8849 36.4241C30.4925 36.0227 29.9337 35.793 29.3529 35.793H20.8784C20.2963 35.793 19.7375 36.0227 19.3464 36.4241L15.4835 40.3735C15.1337 40.731 14.9414 41.1944 14.9414 41.6784V54.7876C14.9414 55.2716 15.1337 55.7349 15.4835 56.0924L19.3464 60.0418C19.7388 60.4432 20.2963 60.673 20.8784 60.673H29.3529C29.935 60.673 30.4938 60.4432 30.8849 60.0418L34.7478 56.0924C35.0976 55.7349 35.2899 55.2716 35.2899 54.7876V41.6784C35.2899 41.1944 35.0976 40.731 34.7478 40.3735L30.8849 36.4241Z" stroke="#1E1E1E" stroke-width="0.5" stroke-miterlimit="10" stroke-dasharray="5.31 5.31"/>
<path d="M27.9968 54.9707L27.727 55.2469H27.3398" stroke="#1E1E1E" stroke-width="0.5" stroke-miterlimit="10"/>
<path d="M26.4529 55.2471H23.3359" stroke="#1E1E1E" stroke-width="0.5" stroke-miterlimit="10" stroke-dasharray="6.08 6.08"/>
<path d="M22.8874 55.2469H22.5002L22.2305 54.9707" stroke="#1E1E1E" stroke-width="0.5" stroke-miterlimit="10"/>
<path d="M21.6892 54.4157L20.707 53.409V43.0567L21.959 41.7725" stroke="#1E1E1E" stroke-width="0.5" stroke-miterlimit="10" stroke-dasharray="5.29 5.29"/>
<path d="M22.2305 41.4948L22.5002 41.2173H22.8874" stroke="#1E1E1E" stroke-width="0.5" stroke-miterlimit="10"/>
<path d="M23.7812 41.2173H26.8982" stroke="#1E1E1E" stroke-width="0.5" stroke-miterlimit="10" stroke-dasharray="6.08 6.08"/>
<path d="M27.3398 41.2173H27.727L27.9968 41.4948" stroke="#1E1E1E" stroke-width="0.5" stroke-miterlimit="10"/>
<path d="M28.5393 42.0498L29.5215 43.0565V53.4089L28.2695 54.6931" stroke="#1E1E1E" stroke-width="0.5" stroke-miterlimit="10" stroke-dasharray="5.29 5.29"/>
<path d="M48.957 41.4961L49.2268 41.2173H49.614" stroke="#1E1E1E" stroke-width="0.5" stroke-miterlimit="10"/>
<path d="M50.413 41.2176H52.4187C53.5622 41.2176 54.4927 40.349 54.4927 39.2829V37.7277C54.4927 36.6603 53.5622 35.793 52.4187 35.793H47.6006C47.0147 35.793 46.4532 36.0253 46.0609 36.4306L44.4062 38.1407" stroke="#1E1E1E" stroke-width="0.5" stroke-miterlimit="10" stroke-dasharray="5.45 5.45"/>
<path d="M44.1291 38.4268L43.8594 38.7056V38.3184" stroke="#1E1E1E" stroke-width="0.5" stroke-miterlimit="10"/>
<path d="M43.8488 37.5418C43.7481 36.5622 42.8601 35.793 41.7837 35.793H40.1639C39.0204 35.793 38.0898 36.6616 38.0898 37.7277V58.737C38.0898 59.8044 39.0204 60.6717 40.1639 60.6717H41.7837C42.9272 60.6717 43.8578 59.8031 43.8578 58.737V46.7507L48.6849 41.7739" stroke="#1E1E1E" stroke-width="0.5" stroke-miterlimit="10" stroke-dasharray="5.3 5.3"/>
<path d="M69.1432 36.9223L67.8784 36.126C67.5338 35.9078 67.1324 35.793 66.7168 35.793C66.5684 35.793 66.4187 35.8085 66.2689 35.8381C65.7165 35.9517 65.2325 36.277 64.9409 36.7287L42.6693 71.2228C42.0988 72.1056 42.3698 73.2491 43.2862 73.8261L44.5523 74.6224C44.8969 74.8405 45.2983 74.9554 45.7139 74.9554C45.8624 74.9554 46.0121 74.9399 46.1618 74.9102C46.7142 74.7966 47.1982 74.4714 47.4912 74.0184L69.7628 39.5243C70.3332 38.6415 70.0622 37.4979 69.1458 36.921L69.1432 36.9223Z" stroke="#1E1E1E" stroke-width="0.5" stroke-miterlimit="10" stroke-dasharray="5.29 5.29"/>
<path d="M73.9913 74.7499C73.7315 74.4618 73.362 74.2975 72.9775 74.2975H68.3903L66.6214 72.3026V71.5355L68.3846 69.5753H75.8987C76.6562 69.5753 77.2718 68.9528 77.2718 68.1868V66.7416C77.2718 65.9756 76.6562 65.353 75.8987 65.353H67.1351C66.7472 65.353 66.3754 65.5197 66.1156 65.8112L62.8386 69.4828C62.6109 69.7385 62.485 70.0683 62.485 70.4131V73.4597C62.485 73.8046 62.6109 74.1343 62.8386 74.3901L66.1156 78.0616C66.3754 78.3532 66.7472 78.5198 67.1351 78.5198H71.752L73.5267 80.5482V81.4774L71.7635 83.4387H63.7871C63.0297 83.4387 62.4141 84.0612 62.4141 84.8272V86.2724C62.4141 87.0384 63.0297 87.661 63.7871 87.661H72.9764C73.3608 87.661 73.7315 87.4955 73.9913 87.2085L77.3038 83.537C77.5349 83.2801 77.6619 82.9481 77.6619 82.6009V79.3587C77.6619 79.0116 77.5349 78.6795 77.3038 78.4226L73.9913 74.7511V74.7499Z" fill="#449751" stroke="#010101" stroke-width="0.25" stroke-miterlimit="10" stroke-dasharray="3.87 3.87"/>
<path d="M92.0195 65.8112C91.7598 65.5197 91.3879 65.353 91 65.353H86.7973C86.4094 65.353 86.0387 65.5197 85.7778 65.8112L83.1118 68.7966V66.7416C83.1118 65.9756 82.4962 65.353 81.7387 65.353H80.3496C79.5922 65.353 78.9766 65.9756 78.9766 66.7416V94.0829C78.9766 94.8489 79.5922 95.4715 80.3496 95.4715H81.7387C82.4962 95.4715 83.1118 94.8489 83.1118 94.0829V87.5441C83.2834 87.6205 83.4699 87.6598 83.6621 87.6598H91C91.3902 87.6598 91.7644 87.4909 92.0241 87.1958L95.3366 83.4468C95.562 83.1922 95.6856 82.8636 95.6856 82.5211V70.4524C95.6856 70.1076 95.5597 69.7778 95.332 69.5221L92.0195 65.8112ZM91.5515 81.438L89.7528 83.4375H84.9116L83.1129 81.438V75.0496L88.0125 69.5753H89.7471L91.5515 71.6084V81.4369V81.438Z" fill="#449751" stroke="#010101" stroke-width="0.25" stroke-miterlimit="10" stroke-dasharray="3.87 3.87"/>
<path d="M109.504 65.8055C109.245 65.5173 108.875 65.353 108.489 65.353H99.3357C98.5782 65.353 97.9626 65.9756 97.9626 66.7416V68.1868C97.9626 68.9528 98.5782 69.5753 99.3357 69.5753H107.247L109.04 71.5413V74.2975H101.152C100.766 74.2975 100.396 74.463 100.137 74.7499L96.8241 78.4214C96.593 78.6783 96.4648 79.0104 96.4648 79.3575V82.5998C96.4648 82.9469 96.5919 83.279 96.8241 83.5359L100.137 87.2074C100.396 87.4955 100.766 87.6598 101.152 87.6598H105.354C105.739 87.6598 106.107 87.4955 106.367 87.2085L109.039 84.2579V86.2713C109.039 87.0373 109.654 87.6598 110.412 87.6598H111.801C112.558 87.6598 113.174 87.0373 113.174 86.2713V70.4131C113.174 70.0659 113.047 69.7338 112.815 69.477L109.502 65.8055H109.504ZM104.146 83.4375H102.395L100.602 81.4716V80.4753L102.407 78.4423H108.674L104.146 83.4375Z" fill="#449751" stroke="#010101" stroke-width="0.25" stroke-miterlimit="10" stroke-dasharray="3.87 3.87"/>
<path d="M127.476 83.4377H120.716L118.983 81.4822V71.5299L120.716 69.5743H127.192C127.949 69.5743 128.565 68.9518 128.565 68.1858V66.7406C128.565 65.9746 127.949 65.3521 127.192 65.3521H119.498C119.11 65.3521 118.738 65.5187 118.478 65.8103L115.201 69.4818C114.974 69.7375 114.848 70.0673 114.848 70.4121V82.5988C114.848 82.9436 114.974 83.2734 115.201 83.5291L118.478 87.2006C118.738 87.4922 119.11 87.6588 119.498 87.6588H127.476C128.234 87.6588 128.849 87.0363 128.849 86.2703V84.8251C128.849 84.0591 128.234 83.4365 127.476 83.4365V83.4377Z" fill="#449751" stroke="#010101" stroke-width="0.25" stroke-miterlimit="10" stroke-dasharray="3.87 3.87"/>
<path d="M145.547 69.477L142.235 65.8055C141.975 65.5173 141.605 65.353 141.221 65.353H133.955C133.571 65.353 133.2 65.5185 132.94 65.8055L129.628 69.477C129.397 69.7338 129.27 70.0659 129.27 70.4131V82.5998C129.27 82.9469 129.397 83.279 129.628 83.5359L132.94 87.2074C133.2 87.4955 133.57 87.6598 133.954 87.6598H142.467C143.224 87.6598 143.84 87.0373 143.84 86.2713V84.826C143.84 84.06 143.224 83.4375 142.467 83.4375H135.167L133.404 81.4762V78.3242H141.22C141.608 78.3242 141.98 78.1576 142.239 77.866L145.552 74.1552C145.779 73.8994 145.905 73.5697 145.905 73.2249V70.4131C145.905 70.0659 145.778 69.7338 145.547 69.477ZM141.771 72.1476L140.002 74.1413H133.404V71.5355L135.167 69.5753H140.007L141.77 71.5355V72.1464L141.771 72.1476Z" fill="#449751" stroke="#010101" stroke-width="0.25" stroke-miterlimit="10" stroke-dasharray="3.87 3.87"/>
<path d="M174.145 8.65821L283.554 8.6582V43.0132C283.554 43.0132 292.233 42.8222 297.234 44.1621C301.436 45.2881 303.474 45.5101 306.235 48.2713C308.725 50.7614 309.821 52.4546 310.786 56.0561C311.789 59.7998 310.248 65.8433 310.248 65.8433H303.474V77.3403H265.46V105.563L195.422 105.785C195.422 105.785 195.671 102.137 195.422 99.909C195.172 97.6809 194.952 96.4663 194.144 94.3748C193.065 91.5813 191.596 90.2637 189.116 88.5848C186.641 86.9088 184.831 86.5826 181.887 86.0682C177.961 85.3827 174.145 86.5157 174.145 86.5157L174.145 8.65821Z" stroke="black" stroke-width="0.25"/>
<rect x="178.941" y="20.1187" width="5" height="5" transform="rotate(-90 178.941 20.1187)" fill="#449751"/>
<rect x="187.723" y="20.1187" width="5" height="5" transform="rotate(-90 187.723 20.1187)" fill="#449751"/>
<rect x="183.941" y="55.1187" width="5" height="5" transform="rotate(90 183.941 55.1187)" fill="#449751"/>
<rect x="192.723" y="55.1187" width="5" height="5" transform="rotate(90 192.723 55.1187)" fill="#449751"/>
<rect x="201.504" y="55.1187" width="5" height="5" transform="rotate(90 201.504 55.1187)" fill="#449751"/>
<rect x="183.941" y="35.1187" width="5" height="5" transform="rotate(90 183.941 35.1187)" fill="#449751"/>
<rect x="192.723" y="35.1187" width="5" height="5" transform="rotate(90 192.723 35.1187)" fill="#449751"/>
<rect x="201.504" y="35.1187" width="5" height="5" transform="rotate(90 201.504 35.1187)" fill="#449751"/>
<rect x="183.941" y="75.1187" width="5" height="5" transform="rotate(90 183.941 75.1187)" fill="#449751"/>
<rect x="192.723" y="75.1187" width="5" height="5" transform="rotate(90 192.723 75.1187)" fill="#449751"/>
<rect x="183.941" y="25.1187" width="5" height="5" transform="rotate(90 183.941 25.1187)" fill="#449751"/>
<rect x="192.723" y="25.1187" width="5" height="5" transform="rotate(90 192.723 25.1187)" fill="#449751"/>
<rect x="201.504" y="25.1187" width="5" height="5" transform="rotate(90 201.504 25.1187)" fill="#449751"/>
<rect x="183.941" y="65.1187" width="5" height="5" transform="rotate(90 183.941 65.1187)" fill="#449751"/>
<rect x="192.723" y="65.1187" width="5" height="5" transform="rotate(90 192.723 65.1187)" fill="#449751"/>
<rect x="201.504" y="65.1187" width="5" height="5" transform="rotate(90 201.504 65.1187)" fill="#449751"/>
<rect x="183.941" y="45.1187" width="5" height="5" transform="rotate(90 183.941 45.1187)" fill="#449751"/>
<rect x="192.723" y="45.1187" width="5" height="5" transform="rotate(90 192.723 45.1187)" fill="#449751"/>
<rect x="201.504" y="45.1187" width="5" height="5" transform="rotate(90 201.504 45.1187)" fill="#449751"/>
</svg>
