<svg width="1161" height="524" viewBox="0 0 1161 524" fill="none" xmlns="http://www.w3.org/2000/svg">
<path d="M69.0708 80.8847H66.4277V78.2416" stroke="#1E1E1E" stroke-width="2.5" stroke-miterlimit="10"/>
<path d="M66.4277 73.3961V61.6698L75.6519 49.9347" stroke="#1E1E1E" stroke-width="2.5" stroke-miterlimit="10" stroke-dasharray="4.85 4.85"/>
<path d="M77.1494 48.0317L78.7793 45.9525H81.4223" stroke="#1E1E1E" stroke-width="2.5" stroke-miterlimit="10"/>
<path d="M86.8318 45.9525H108.408C116.214 45.9525 122.566 38.7987 122.566 30.0062V17.1963C122.566 8.40382 116.214 1.25 108.408 1.25H67.5729C63.5731 1.25 59.7407 3.17061 57.0624 6.50964L30.6938 39.4066C28.3415 42.3404 27.0464 46.1376 27.0464 50.0933V75.5457" stroke="#1E1E1E" stroke-width="2.5" stroke-miterlimit="10" stroke-dasharray="5.41 5.41"/>
<path d="M27.0464 78.2416V80.8847H24.4033" stroke="#1E1E1E" stroke-width="2.5" stroke-miterlimit="10"/>
<path d="M19.1962 80.8847H15.4079C7.60209 80.8847 1.25 88.0385 1.25 96.831V109.641C1.25 118.433 7.60209 125.587 15.4079 125.587H21.804" stroke="#1E1E1E" stroke-width="2.5" stroke-miterlimit="10" stroke-dasharray="5.21 5.21"/>
<path d="M24.4033 125.587H27.0464V128.23" stroke="#1E1E1E" stroke-width="2.5" stroke-miterlimit="10"/>
<path d="M27.0464 133.49V269.95C27.0464 278.742 33.3985 285.896 41.2042 285.896H52.2609C60.0667 285.896 66.4188 278.742 66.4188 269.95V130.856" stroke="#1E1E1E" stroke-width="2.5" stroke-miterlimit="10" stroke-dasharray="5.26 5.26"/>
<path d="M66.4277 128.23V125.587H69.0708" stroke="#1E1E1E" stroke-width="2.5" stroke-miterlimit="10"/>
<path d="M74.374 125.587H105.289C113.094 125.587 119.447 118.433 119.447 109.641V96.831C119.447 88.0385 113.094 80.8847 105.289 80.8847H71.7222" stroke="#1E1E1E" stroke-width="2.5" stroke-miterlimit="10" stroke-dasharray="5.3 5.3"/>
<path d="M210.366 120.38C207.688 117.64 203.873 116.072 199.908 116.072H142.061C138.088 116.072 134.273 117.64 131.604 120.38L105.235 147.339C102.847 149.78 101.535 152.943 101.535 156.246V245.731C101.535 249.034 102.847 252.197 105.235 254.638L131.604 281.597C134.282 284.337 138.088 285.905 142.061 285.905H199.908C203.882 285.905 207.697 284.337 210.366 281.597L236.735 254.638C239.122 252.197 240.435 249.034 240.435 245.731V156.246C240.435 152.943 239.122 149.78 236.735 147.339L210.366 120.38Z" stroke="#1E1E1E" stroke-width="2.5" stroke-miterlimit="10" stroke-dasharray="5.31 5.31"/>
<path d="M190.666 246.982L188.825 248.867H186.182" stroke="#1E1E1E" stroke-width="2.5" stroke-miterlimit="10"/>
<path d="M180.103 248.867H158.827" stroke="#1E1E1E" stroke-width="2.5" stroke-miterlimit="10" stroke-dasharray="6.08 6.08"/>
<path d="M155.787 248.867H153.144L151.303 246.982" stroke="#1E1E1E" stroke-width="2.5" stroke-miterlimit="10"/>
<path d="M147.612 243.193L140.907 236.321V165.656L149.453 156.889" stroke="#1E1E1E" stroke-width="2.5" stroke-miterlimit="10" stroke-dasharray="5.29 5.29"/>
<path d="M151.303 154.995L153.144 153.101H155.787" stroke="#1E1E1E" stroke-width="2.5" stroke-miterlimit="10"/>
<path d="M161.866 153.101H183.143" stroke="#1E1E1E" stroke-width="2.5" stroke-miterlimit="10" stroke-dasharray="6.08 6.08"/>
<path d="M186.182 153.101H188.825L190.666 154.995" stroke="#1E1E1E" stroke-width="2.5" stroke-miterlimit="10"/>
<path d="M194.358 158.784L201.063 165.656V236.321L192.517 245.088" stroke="#1E1E1E" stroke-width="2.5" stroke-miterlimit="10" stroke-dasharray="5.29 5.29"/>
<path d="M333.726 155.004L335.567 153.101H338.21" stroke="#1E1E1E" stroke-width="2.5" stroke-miterlimit="10"/>
<path d="M343.663 153.101H357.354C365.16 153.101 371.512 147.172 371.512 139.895V129.279C371.512 121.993 365.16 116.072 357.354 116.072H324.466C320.466 116.072 316.633 117.658 313.955 120.424L302.661 132.098" stroke="#1E1E1E" stroke-width="2.5" stroke-miterlimit="10" stroke-dasharray="5.45 5.45"/>
<path d="M300.767 134.054L298.926 135.957V133.314" stroke="#1E1E1E" stroke-width="2.5" stroke-miterlimit="10"/>
<path d="M298.864 128.01C298.177 121.323 292.115 116.072 284.768 116.072H273.711C265.905 116.072 259.553 122.001 259.553 129.279V272.69C259.553 279.976 265.905 285.896 273.711 285.896H284.768C292.574 285.896 298.926 279.967 298.926 272.69V190.87L331.875 156.898" stroke="#1E1E1E" stroke-width="2.5" stroke-miterlimit="10" stroke-dasharray="5.3 5.3"/>
<path d="M471.507 123.781L462.873 118.345C460.521 116.856 457.781 116.072 454.944 116.072C453.931 116.072 452.909 116.178 451.887 116.381C448.116 117.156 444.812 119.376 442.821 122.46L290.794 357.919C286.9 363.945 288.75 371.751 295.005 375.689L303.648 381.125C306 382.613 308.74 383.398 311.577 383.398C312.59 383.398 313.612 383.292 314.634 383.089C318.405 382.314 321.708 380.094 323.708 377.001L475.736 141.542C479.63 135.516 477.78 127.71 471.524 123.772L471.507 123.781Z" stroke="#1E1E1E" stroke-width="2.5" stroke-miterlimit="10" stroke-dasharray="5.29 5.29"/>
<g clip-path="url(#clip0_7_561)">
<path d="M831.946 438.822H804.34L791.746 424.566V345.358H831.212C836.803 345.358 841.366 340.791 841.366 335.17V325.289C841.366 319.68 836.814 315.102 831.212 315.102H791.746V288.948C791.746 283.339 787.194 278.773 781.591 278.773H772.013C766.422 278.773 761.858 283.339 761.858 288.948V315.102H739.832C738.115 315.102 736.421 315.544 734.93 316.382C733.428 315.544 731.756 315.102 730.017 315.102H669.598C666.729 315.102 663.984 316.326 662.064 318.456L641.698 341.097L645.697 330.479C646.657 327.918 646.544 325.029 645.38 322.547C644.217 320.065 642.071 318.139 639.484 317.255L630.143 314.048C629.081 313.685 627.974 313.493 626.856 313.493C622.62 313.493 618.791 316.178 617.323 320.167L582.883 414.345L548.443 320.167C546.986 316.178 543.157 313.493 538.91 313.493C537.735 313.493 536.572 313.697 535.465 314.105L526.621 317.312C525.751 317.629 524.949 318.048 524.204 318.581C522.306 316.405 519.539 315.102 516.568 315.102H456.16C453.291 315.102 450.546 316.326 448.626 318.456L426.035 343.59C424.352 345.46 423.415 347.885 423.415 350.412V371.251C423.415 373.778 424.341 376.203 426.035 378.072L448.626 403.183C450.546 405.314 453.291 406.537 456.16 406.537H487.697L499.557 419.988V425.824L487.776 438.822H433.084C427.493 438.822 422.929 443.388 422.929 449.009V458.89C422.929 464.499 427.481 469.077 433.084 469.077H496.451C499.297 469.077 502.031 467.865 503.951 465.757L526.79 440.646C528.496 438.765 529.445 436.329 529.445 433.779V411.603C529.445 409.053 528.507 406.617 526.79 404.736L503.951 379.625C502.031 377.517 499.297 376.305 496.451 376.305H465.117L453.302 363.08V358.355L465.084 345.358H516.59C519.855 345.358 522.769 343.794 524.633 341.392L567.16 456.465L553.764 492.262H536.967C531.376 492.262 526.813 496.829 526.813 502.449V512.33C526.813 517.94 531.365 522.518 536.967 522.518H566.437C570.639 522.518 574.445 519.866 575.936 515.934L636.852 353.992V371.262C636.852 373.789 637.779 376.214 639.473 378.084L662.064 403.195C663.984 405.325 666.729 406.549 669.598 406.549H701.134L712.994 420V425.835L701.213 438.833H646.51C640.919 438.833 636.355 443.4 636.355 449.02V458.901C636.355 464.511 640.907 469.089 646.51 469.089H709.877C712.723 469.089 715.457 467.876 717.377 465.768L740.216 440.657C741.922 438.776 742.871 436.34 742.871 433.79V411.614C742.871 409.064 741.933 406.628 740.216 404.747L717.377 379.636C715.457 377.528 712.723 376.316 709.877 376.316H678.544L666.729 363.092V358.366L678.51 345.369H730.017C731.767 345.369 733.439 344.927 734.93 344.1C736.421 344.927 738.115 345.369 739.832 345.369H761.858V432.714C761.858 435.241 762.784 437.666 764.479 439.535L788.052 465.723C789.972 467.853 792.717 469.077 795.586 469.077H831.935C837.526 469.077 842.089 464.511 842.089 458.89V449.009C842.089 443.4 837.537 438.822 831.935 438.822H831.946Z" fill="#8EBCDF" stroke="#010101" stroke-width="2" stroke-miterlimit="10" stroke-dasharray="5.29 5.29"/>
<path d="M931.798 318.433C929.878 316.326 927.145 315.113 924.298 315.113H874.192C871.346 315.113 868.612 316.326 866.692 318.433L843.853 343.545C842.147 345.426 841.198 347.862 841.198 350.412V433.779C841.198 436.329 842.136 438.765 843.853 440.646L866.692 465.757C868.612 467.865 871.346 469.077 874.192 469.077H932.894C938.485 469.077 943.049 464.51 943.049 458.89V449.009C943.049 443.4 938.497 438.822 932.894 438.822H882.856L871.075 425.824V405.212H924.298C927.167 405.212 929.912 403.988 931.832 401.858L954.672 376.474C956.355 374.605 957.292 372.18 957.292 369.653V350.412C957.292 347.862 956.355 345.426 954.638 343.545L931.798 318.433ZM927.416 362.004L915.601 375.228H871.086V358.355L882.867 345.358H915.646L927.427 358.355V362.015L927.416 362.004Z" fill="#8EBCDF" stroke="#010101" stroke-width="2" stroke-miterlimit="10" stroke-dasharray="5.29 5.29"/>
<path d="M1156.95 343.465L1133.61 318.343C1131.7 316.28 1128.99 315.102 1126.19 315.102H1099.17C1096.28 315.102 1093.51 316.348 1091.59 318.513L1071.05 341.675C1068.68 339.114 1062.99 333.006 1049.37 318.343C1047.46 316.28 1044.75 315.102 1041.95 315.102H1014.68C1011.77 315.102 1009 316.36 1007.08 318.547L991.189 336.598V325.289C991.189 319.68 986.637 315.102 981.035 315.102H971.456C965.865 315.102 961.302 319.669 961.302 325.289V458.879C961.302 464.488 965.854 469.066 971.456 469.066H981.035C986.626 469.066 991.189 464.499 991.189 458.879V381.812L1023.65 345.358H1032.96L1045.55 358.514V458.89C1045.55 464.499 1050.11 469.077 1055.71 469.077H1065.29C1070.88 469.077 1075.44 464.511 1075.44 458.89V381.834L1108.13 345.358H1117.21L1129.81 358.514V458.89C1129.81 464.499 1134.36 469.077 1139.96 469.077H1149.54C1155.13 469.077 1159.69 464.511 1159.69 458.89V350.412C1159.69 347.828 1158.72 345.358 1156.97 343.465H1156.95Z" fill="#8EBCDF" stroke="#010101" stroke-width="2" stroke-miterlimit="10" stroke-dasharray="5.29 5.29"/>
</g>
<defs>
<clipPath id="clip0_7_561">
<rect width="739" height="246" fill="white" transform="translate(421.8 277.639)"/>
</clipPath>
</defs>
</svg>
