<svg width="3953" height="357" viewBox="0 0 3953 357" fill="none" xmlns="http://www.w3.org/2000/svg">
<mask id="path-1-outside-1_2788_809" maskUnits="userSpaceOnUse" x="0" y="0.174805" width="1474" height="356" fill="black">
<rect fill="white" y="0.174805" width="1474" height="356"/>
<path fill-rule="evenodd" clip-rule="evenodd" d="M829.155 31.8243L829.155 65.0613C829.155 67.2705 830.946 69.0614 833.155 69.0614H911.753C913.962 69.0614 915.753 67.2705 915.753 65.0614V14.1748C915.753 11.9657 913.962 10.1748 911.753 10.1748H833.155C830.946 10.1748 829.155 11.9657 829.155 14.1748L829.155 31.8243ZM1309.3 344.443C1289.96 344.443 1273.22 339.536 1259.07 329.721C1245.22 319.618 1234.39 305.474 1226.6 287.288C1219.09 268.814 1215.34 247.164 1215.34 222.34C1215.34 197.515 1219.24 176.01 1227.03 157.824C1234.82 139.35 1245.79 125.206 1259.94 115.391C1274.08 105.288 1290.54 100.237 1309.3 100.237C1326.62 100.237 1341.05 103.701 1352.6 110.628C1359.21 114.594 1364.92 119.41 1369.73 125.078C1372.46 128.295 1379.01 126.482 1379.01 122.261V35.8243C1379.01 33.6151 1380.8 31.8243 1383.01 31.8243H1459.01C1461.22 31.8243 1463.01 33.6151 1463.01 35.8243V335.247C1463.01 337.456 1461.22 339.247 1459.01 339.247H1385.02C1382.87 339.247 1381.11 337.548 1381.03 335.401L1380.46 320.765C1380.31 316.649 1374.12 315.07 1371.49 318.237C1366.09 324.728 1359.51 330.144 1351.73 334.484C1339.61 341.123 1325.46 344.443 1309.3 344.443ZM932.397 31.8243C930.187 31.8243 928.397 33.6151 928.397 35.8243V335.247C928.397 337.456 930.187 339.247 932.397 339.247H1009.26C1011.47 339.247 1013.26 337.456 1013.26 335.247V188.683C1013.26 184.662 1018.53 183.155 1020.66 186.566L1114.71 337.364C1115.44 338.535 1116.72 339.247 1118.1 339.247H1197.61C1199.82 339.247 1201.61 337.456 1201.61 335.247V35.8243C1201.61 33.6151 1199.82 31.8243 1197.61 31.8243H1120.75C1118.54 31.8243 1116.75 33.6151 1116.75 35.8243V190.422C1116.75 194.491 1111.38 195.961 1109.31 192.461L1015.29 33.7853C1014.57 32.5697 1013.26 31.8243 1011.85 31.8243H932.397ZM834.454 326.257C832.245 326.257 830.454 324.466 830.454 322.257V96.4428C830.454 94.2337 832.245 92.4428 834.454 92.4428H910.454C912.663 92.4428 914.454 94.2337 914.454 96.4428V322.257C914.454 324.466 912.663 326.257 910.454 326.257H834.454ZM624.13 339.247C622.444 339.247 620.939 338.19 620.367 336.604L512.407 37.181C511.467 34.5741 513.398 31.8243 516.17 31.8243H594.22C595.927 31.8243 597.446 32.9079 598.002 34.5222L666.033 232.137C667.272 235.734 672.359 235.734 673.598 232.137L741.629 34.5222C742.185 32.9079 743.704 31.8243 745.411 31.8243H829.155L718.401 336.613C717.827 338.194 716.324 339.247 714.642 339.247H624.13ZM251.919 300.08L251.971 300.079C252.019 300.079 252.071 300.079 252.125 300.079C252.05 300.079 251.981 300.079 251.919 300.08ZM251.919 300.08C251.833 300.08 251.762 300.081 251.715 300.081C251.732 300.079 251.75 300.076 251.768 300.074C251.805 300.07 251.843 300.068 251.88 300.066M251.688 300.086L251.919 300.08C251.811 300.079 251.73 300.086 251.688 300.086C251.693 300.085 251.709 300.082 251.715 300.081C251.642 300.082 251.616 300.085 251.688 300.086C251.684 300.086 251.691 300.085 251.688 300.086ZM251.919 300.08C251.919 300.072 251.912 300.066 251.904 300.066ZM1328.02 285.989C1341.01 285.989 1350.97 280.649 1357.9 269.969C1364.82 259.288 1368.29 243.989 1368.29 224.072C1368.29 204.443 1364.82 189.288 1357.9 178.608C1350.97 167.639 1341.01 162.154 1328.02 162.154C1315.03 162.154 1305.07 167.639 1298.14 178.608C1291.22 189.288 1287.75 204.443 1287.75 224.072C1287.75 243.989 1291.22 259.288 1298.14 269.969C1305.07 280.649 1315.03 285.989 1328.02 285.989Z"/>
<path d="M472.952 269.969C466.024 280.649 456.065 285.989 443.076 285.989C430.086 285.989 420.127 280.649 413.199 269.969C406.271 259.288 402.808 243.989 402.808 224.072C402.808 204.443 406.271 189.288 413.199 178.608C420.127 167.639 430.086 162.154 443.076 162.154C456.065 162.154 466.024 167.639 472.952 178.608C479.88 189.288 483.344 204.443 483.344 224.072C483.344 243.989 479.88 259.288 472.952 269.969Z"/>
<path d="M1328.02 285.989C1341.01 285.989 1350.97 280.649 1357.9 269.969C1364.82 259.288 1368.29 243.989 1368.29 224.072C1368.29 204.443 1364.82 189.288 1357.9 178.608C1350.97 167.639 1341.01 162.154 1328.02 162.154C1315.03 162.154 1305.07 167.639 1298.14 178.608C1291.22 189.288 1287.75 204.443 1287.75 224.072C1287.75 243.989 1291.22 259.288 1298.14 269.969C1305.07 280.649 1315.03 285.989 1328.02 285.989Z"/>
<path fill-rule="evenodd" clip-rule="evenodd" d="M251.904 300.066C251.912 300.066 251.919 300.072 251.919 300.08L254.381 335.524C254.526 337.621 256.269 339.247 258.371 339.247H300C302.209 339.247 304 337.456 304 335.247V180.443C304 178.234 302.209 176.443 300 176.443H165.546C163.337 176.443 161.546 178.234 161.546 180.443V228.731C161.546 230.941 163.337 232.731 165.546 232.731H214.482C216.93 232.731 218.814 234.915 218.286 237.305C216.605 244.916 213.712 251.618 209.608 257.412C204.99 264.051 198.783 269.247 190.99 272.999C183.484 276.463 174.392 278.195 163.711 278.195C148.412 278.195 135.856 274.443 126.041 266.938C116.227 259.144 108.866 248.319 103.959 234.463C99.3402 220.608 97.0309 204.443 97.0309 185.969C97.0309 167.206 99.4845 150.896 104.392 137.041C109.588 123.185 116.948 112.36 126.474 104.567C136.289 96.7727 148.124 92.8758 161.979 92.8758C178.144 92.8758 190.412 97.0614 198.783 105.432C206.512 112.895 211.781 123.433 214.588 137.048C214.994 139.017 216.741 140.445 218.75 140.366L298.416 137.227C300.886 137.129 302.68 134.836 302.124 132.428C297.114 110.735 289.079 92.0664 278.021 76.4222C266.474 59.6799 251.031 46.9789 231.691 38.3191C212.639 29.3707 189.113 24.8964 161.113 24.8964C129.361 24.8964 102.227 31.9686 79.7113 46.1129C57.1959 59.9686 39.8763 79.0201 27.7526 103.268C15.9175 127.515 10 155.082 10 185.969C10 218.01 15.7732 246.01 27.3196 269.969C39.1546 293.927 55.8969 312.69 77.5464 326.257C99.1959 339.536 125.031 346.175 155.052 346.175C173.237 346.175 189.691 343.432 204.412 337.948C219.423 332.175 231.691 324.237 241.216 314.133C243.041 312.255 244.742 309.387 246.317 306.73C248.306 303.375 250.096 300.356 251.688 300.086L250.309 300.087L251.88 300.066C251.888 300.066 251.896 300.066 251.904 300.066ZM376.395 331.02C395.447 341.123 417.674 346.175 443.076 346.175C468.478 346.175 490.56 341.123 509.323 331.02C528.375 320.917 543.096 306.773 553.488 288.587C564.168 270.113 569.509 248.608 569.509 224.072C569.509 199.536 564.168 178.175 553.488 159.989C543.096 141.804 528.375 127.659 509.323 117.556C490.56 107.165 468.478 101.969 443.076 101.969C417.674 101.969 395.447 107.165 376.395 117.556C357.632 127.659 342.911 141.804 332.23 159.989C321.838 178.175 316.643 199.536 316.643 224.072C316.643 248.608 321.838 270.113 332.23 288.587C342.911 306.773 357.632 320.917 376.395 331.02ZM443.076 285.989C456.065 285.989 466.024 280.649 472.952 269.969C479.88 259.288 483.344 243.989 483.344 224.072C483.344 204.443 479.88 189.288 472.952 178.608C466.024 167.639 456.065 162.154 443.076 162.154C430.086 162.154 420.127 167.639 413.199 178.608C406.271 189.288 402.808 204.443 402.808 224.072C402.808 243.989 406.271 259.288 413.199 269.969C420.127 280.649 430.086 285.989 443.076 285.989Z"/>
</mask>
<path fill-rule="evenodd" clip-rule="evenodd" d="M829.155 31.8243L829.155 65.0613C829.155 67.2705 830.946 69.0614 833.155 69.0614H911.753C913.962 69.0614 915.753 67.2705 915.753 65.0614V14.1748C915.753 11.9657 913.962 10.1748 911.753 10.1748H833.155C830.946 10.1748 829.155 11.9657 829.155 14.1748L829.155 31.8243ZM1309.3 344.443C1289.96 344.443 1273.22 339.536 1259.07 329.721C1245.22 319.618 1234.39 305.474 1226.6 287.288C1219.09 268.814 1215.34 247.164 1215.34 222.34C1215.34 197.515 1219.24 176.01 1227.03 157.824C1234.82 139.35 1245.79 125.206 1259.94 115.391C1274.08 105.288 1290.54 100.237 1309.3 100.237C1326.62 100.237 1341.05 103.701 1352.6 110.628C1359.21 114.594 1364.92 119.41 1369.73 125.078C1372.46 128.295 1379.01 126.482 1379.01 122.261V35.8243C1379.01 33.6151 1380.8 31.8243 1383.01 31.8243H1459.01C1461.22 31.8243 1463.01 33.6151 1463.01 35.8243V335.247C1463.01 337.456 1461.22 339.247 1459.01 339.247H1385.02C1382.87 339.247 1381.11 337.548 1381.03 335.401L1380.46 320.765C1380.31 316.649 1374.12 315.07 1371.49 318.237C1366.09 324.728 1359.51 330.144 1351.73 334.484C1339.61 341.123 1325.46 344.443 1309.3 344.443ZM932.397 31.8243C930.187 31.8243 928.397 33.6151 928.397 35.8243V335.247C928.397 337.456 930.187 339.247 932.397 339.247H1009.26C1011.47 339.247 1013.26 337.456 1013.26 335.247V188.683C1013.26 184.662 1018.53 183.155 1020.66 186.566L1114.71 337.364C1115.44 338.535 1116.72 339.247 1118.1 339.247H1197.61C1199.82 339.247 1201.61 337.456 1201.61 335.247V35.8243C1201.61 33.6151 1199.82 31.8243 1197.61 31.8243H1120.75C1118.54 31.8243 1116.75 33.6151 1116.75 35.8243V190.422C1116.75 194.491 1111.38 195.961 1109.31 192.461L1015.29 33.7853C1014.57 32.5697 1013.26 31.8243 1011.85 31.8243H932.397ZM834.454 326.257C832.245 326.257 830.454 324.466 830.454 322.257V96.4428C830.454 94.2337 832.245 92.4428 834.454 92.4428H910.454C912.663 92.4428 914.454 94.2337 914.454 96.4428V322.257C914.454 324.466 912.663 326.257 910.454 326.257H834.454ZM624.13 339.247C622.444 339.247 620.939 338.19 620.367 336.604L512.407 37.181C511.467 34.5741 513.398 31.8243 516.17 31.8243H594.22C595.927 31.8243 597.446 32.9079 598.002 34.5222L666.033 232.137C667.272 235.734 672.359 235.734 673.598 232.137L741.629 34.5222C742.185 32.9079 743.704 31.8243 745.411 31.8243H829.155L718.401 336.613C717.827 338.194 716.324 339.247 714.642 339.247H624.13ZM251.919 300.08L251.971 300.079C252.019 300.079 252.071 300.079 252.125 300.079C252.05 300.079 251.981 300.079 251.919 300.08ZM251.919 300.08C251.833 300.08 251.762 300.081 251.715 300.081C251.732 300.079 251.75 300.076 251.768 300.074C251.805 300.07 251.843 300.068 251.88 300.066M251.688 300.086L251.919 300.08C251.811 300.079 251.73 300.086 251.688 300.086C251.693 300.085 251.709 300.082 251.715 300.081C251.642 300.082 251.616 300.085 251.688 300.086C251.684 300.086 251.691 300.085 251.688 300.086ZM251.919 300.08C251.919 300.072 251.912 300.066 251.904 300.066ZM1328.02 285.989C1341.01 285.989 1350.97 280.649 1357.9 269.969C1364.82 259.288 1368.29 243.989 1368.29 224.072C1368.29 204.443 1364.82 189.288 1357.9 178.608C1350.97 167.639 1341.01 162.154 1328.02 162.154C1315.03 162.154 1305.07 167.639 1298.14 178.608C1291.22 189.288 1287.75 204.443 1287.75 224.072C1287.75 243.989 1291.22 259.288 1298.14 269.969C1305.07 280.649 1315.03 285.989 1328.02 285.989Z" fill="black" fill-opacity="0.01"/>
<path d="M472.952 269.969C466.024 280.649 456.065 285.989 443.076 285.989C430.086 285.989 420.127 280.649 413.199 269.969C406.271 259.288 402.808 243.989 402.808 224.072C402.808 204.443 406.271 189.288 413.199 178.608C420.127 167.639 430.086 162.154 443.076 162.154C456.065 162.154 466.024 167.639 472.952 178.608C479.88 189.288 483.344 204.443 483.344 224.072C483.344 243.989 479.88 259.288 472.952 269.969Z" fill="black" fill-opacity="0.01"/>
<path d="M1328.02 285.989C1341.01 285.989 1350.97 280.649 1357.9 269.969C1364.82 259.288 1368.29 243.989 1368.29 224.072C1368.29 204.443 1364.82 189.288 1357.9 178.608C1350.97 167.639 1341.01 162.154 1328.02 162.154C1315.03 162.154 1305.07 167.639 1298.14 178.608C1291.22 189.288 1287.75 204.443 1287.75 224.072C1287.75 243.989 1291.22 259.288 1298.14 269.969C1305.07 280.649 1315.03 285.989 1328.02 285.989Z" fill="black" fill-opacity="0.01"/>
<path fill-rule="evenodd" clip-rule="evenodd" d="M251.904 300.066C251.912 300.066 251.919 300.072 251.919 300.08L254.381 335.524C254.526 337.621 256.269 339.247 258.371 339.247H300C302.209 339.247 304 337.456 304 335.247V180.443C304 178.234 302.209 176.443 300 176.443H165.546C163.337 176.443 161.546 178.234 161.546 180.443V228.731C161.546 230.941 163.337 232.731 165.546 232.731H214.482C216.93 232.731 218.814 234.915 218.286 237.305C216.605 244.916 213.712 251.618 209.608 257.412C204.99 264.051 198.783 269.247 190.99 272.999C183.484 276.463 174.392 278.195 163.711 278.195C148.412 278.195 135.856 274.443 126.041 266.938C116.227 259.144 108.866 248.319 103.959 234.463C99.3402 220.608 97.0309 204.443 97.0309 185.969C97.0309 167.206 99.4845 150.896 104.392 137.041C109.588 123.185 116.948 112.36 126.474 104.567C136.289 96.7727 148.124 92.8758 161.979 92.8758C178.144 92.8758 190.412 97.0614 198.783 105.432C206.512 112.895 211.781 123.433 214.588 137.048C214.994 139.017 216.741 140.445 218.75 140.366L298.416 137.227C300.886 137.129 302.68 134.836 302.124 132.428C297.114 110.735 289.079 92.0664 278.021 76.4222C266.474 59.6799 251.031 46.9789 231.691 38.3191C212.639 29.3707 189.113 24.8964 161.113 24.8964C129.361 24.8964 102.227 31.9686 79.7113 46.1129C57.1959 59.9686 39.8763 79.0201 27.7526 103.268C15.9175 127.515 10 155.082 10 185.969C10 218.01 15.7732 246.01 27.3196 269.969C39.1546 293.927 55.8969 312.69 77.5464 326.257C99.1959 339.536 125.031 346.175 155.052 346.175C173.237 346.175 189.691 343.432 204.412 337.948C219.423 332.175 231.691 324.237 241.216 314.133C243.041 312.255 244.742 309.387 246.317 306.73C248.306 303.375 250.096 300.356 251.688 300.086L250.309 300.087L251.88 300.066C251.888 300.066 251.896 300.066 251.904 300.066ZM376.395 331.02C395.447 341.123 417.674 346.175 443.076 346.175C468.478 346.175 490.56 341.123 509.323 331.02C528.375 320.917 543.096 306.773 553.488 288.587C564.168 270.113 569.509 248.608 569.509 224.072C569.509 199.536 564.168 178.175 553.488 159.989C543.096 141.804 528.375 127.659 509.323 117.556C490.56 107.165 468.478 101.969 443.076 101.969C417.674 101.969 395.447 107.165 376.395 117.556C357.632 127.659 342.911 141.804 332.23 159.989C321.838 178.175 316.643 199.536 316.643 224.072C316.643 248.608 321.838 270.113 332.23 288.587C342.911 306.773 357.632 320.917 376.395 331.02ZM443.076 285.989C456.065 285.989 466.024 280.649 472.952 269.969C479.88 259.288 483.344 243.989 483.344 224.072C483.344 204.443 479.88 189.288 472.952 178.608C466.024 167.639 456.065 162.154 443.076 162.154C430.086 162.154 420.127 167.639 413.199 178.608C406.271 189.288 402.808 204.443 402.808 224.072C402.808 243.989 406.271 259.288 413.199 269.969C420.127 280.649 430.086 285.989 443.076 285.989Z" fill="black" fill-opacity="0.01"/>
<path d="M1357.9 178.608L1353.67 181.278L1353.68 181.303L1353.7 181.329L1357.9 178.608ZM1298.14 178.608L1302.34 181.329L1302.35 181.303L1302.37 181.278L1298.14 178.608ZM413.199 178.608L417.394 181.329L417.411 181.303L417.427 181.278L413.199 178.608ZM472.952 178.608L468.724 181.278L468.741 181.303L468.757 181.329L472.952 178.608ZM1328.02 285.989V290.989C1342.66 290.989 1354.22 284.826 1362.09 272.69L1357.9 269.969L1353.7 267.248C1347.72 276.472 1339.36 280.989 1328.02 280.989V285.989ZM1357.9 269.969L1362.09 272.69C1369.76 260.862 1373.29 244.453 1373.29 224.072H1368.29H1363.29C1363.29 243.525 1359.88 257.715 1353.7 267.248L1357.9 269.969ZM1368.29 224.072H1373.29C1373.29 203.961 1369.76 187.706 1362.09 175.887L1357.9 178.608L1353.7 181.329C1359.89 190.871 1363.29 204.924 1363.29 224.072H1368.29ZM1357.9 178.608L1362.12 175.938C1354.28 163.516 1342.72 157.154 1328.02 157.154V162.154V167.154C1339.3 167.154 1347.66 171.761 1353.67 181.278L1357.9 178.608ZM1328.02 162.154V157.154C1313.32 157.154 1301.76 163.516 1293.92 175.938L1298.14 178.608L1302.37 181.278C1308.38 171.761 1316.74 167.154 1328.02 167.154V162.154ZM1298.14 178.608L1293.95 175.887C1286.28 187.706 1282.75 203.961 1282.75 224.072H1287.75H1292.75C1292.75 204.924 1296.15 190.871 1302.34 181.329L1298.14 178.608ZM1287.75 224.072H1282.75C1282.75 244.453 1286.28 260.862 1293.95 272.69L1298.14 269.969L1302.34 267.248C1296.15 257.715 1292.75 243.525 1292.75 224.072H1287.75ZM1298.14 269.969L1293.95 272.69C1301.82 284.826 1313.38 290.989 1328.02 290.989V285.989V280.989C1316.68 280.989 1308.32 276.472 1302.34 267.248L1298.14 269.969ZM472.952 269.969L468.757 267.248C462.774 276.472 454.413 280.989 443.076 280.989V285.989V290.989C457.718 290.989 469.274 284.826 477.147 272.69L472.952 269.969ZM443.076 285.989V280.989C431.738 280.989 423.378 276.472 417.394 267.248L413.199 269.969L409.004 272.69C416.877 284.826 428.434 290.989 443.076 290.989V285.989ZM413.199 269.969L417.394 267.248C411.211 257.715 407.808 243.525 407.808 224.072H402.808H397.808C397.808 244.453 401.332 260.862 409.004 272.69L413.199 269.969ZM402.808 224.072H407.808C407.808 204.924 411.205 190.871 417.394 181.329L413.199 178.608L409.004 175.887C401.338 187.706 397.808 203.962 397.808 224.072H402.808ZM413.199 178.608L417.427 181.278C423.437 171.761 431.799 167.154 443.076 167.154V162.154V157.154C428.373 157.154 416.817 163.516 408.972 175.938L413.199 178.608ZM443.076 162.154V167.154C454.352 167.154 462.714 171.761 468.724 181.278L472.952 178.608L477.179 175.938C469.334 163.516 457.778 157.154 443.076 157.154V162.154ZM472.952 178.608L468.757 181.329C474.947 190.871 478.344 204.924 478.344 224.072H483.344H488.344C488.344 203.962 484.813 187.706 477.147 175.887L472.952 178.608ZM483.344 224.072H478.344C478.344 243.525 474.94 257.715 468.757 267.248L472.952 269.969L477.147 272.69C484.819 260.862 488.344 244.453 488.344 224.072H483.344ZM251.919 300.08L256.907 299.731C256.724 297.116 254.54 295.043 251.862 295.066L251.904 300.066L251.947 305.066C249.284 305.089 247.113 303.028 246.931 300.428L251.919 300.08ZM829.156 31.8243L839.156 31.8243V31.8242L829.156 31.8243ZM1259.07 329.721L1253.18 337.801L1253.27 337.87L1253.37 337.937L1259.07 329.721ZM1226.6 287.288L1217.33 291.052L1217.37 291.14L1217.41 291.227L1226.6 287.288ZM1227.03 157.824L1236.22 161.763L1236.23 161.737L1236.24 161.711L1227.03 157.824ZM1259.94 115.391L1265.64 123.607L1265.69 123.568L1265.75 123.529L1259.94 115.391ZM1352.6 110.628L1347.45 119.203V119.203L1352.6 110.628ZM1351.73 334.484L1356.53 343.255L1356.57 343.236L1356.6 343.216L1351.73 334.484ZM251.971 300.079L252.028 310.079L252.034 310.079L251.971 300.079ZM252.125 300.078L252.18 310.078L252.071 290.079L252.125 300.078ZM251.768 300.074L250.657 290.136L250.649 290.137L250.641 290.138L251.768 300.074ZM251.88 300.066L252.155 310.063L252.167 310.062L251.88 300.066ZM209.608 257.412L201.448 251.632L201.423 251.666L201.399 251.701L209.608 257.412ZM190.99 272.999L195.18 282.079L195.254 282.045L195.328 282.009L190.99 272.999ZM126.041 266.938L119.822 274.769L119.894 274.826L119.967 274.881L126.041 266.938ZM103.959 234.463L94.4719 237.626L94.5014 237.714L94.5325 237.802L103.959 234.463ZM104.392 137.041L95.0284 133.53L94.9961 133.616L94.9655 133.702L104.392 137.041ZM126.474 104.567L120.255 96.7354L120.198 96.7807L120.142 96.8269L126.474 104.567ZM198.783 105.432L191.712 112.504L191.774 112.566L191.838 112.627L198.783 105.432ZM278.021 76.4222L269.788 82.0995L269.821 82.1472L269.855 82.1945L278.021 76.4222ZM231.691 38.3191L227.439 47.3704L227.521 47.4089L227.604 47.4459L231.691 38.3191ZM79.7113 46.1129L84.9523 54.6295L84.9917 54.6053L85.0308 54.5807L79.7113 46.1129ZM27.7526 103.268L18.8083 98.7954L18.7869 98.8382L18.7659 98.8812L27.7526 103.268ZM27.3196 269.969L18.3111 274.31L18.3323 274.354L18.3538 274.397L27.3196 269.969ZM77.5464 326.257L72.2362 334.731L72.277 334.756L72.3181 334.782L77.5464 326.257ZM204.412 337.948L207.903 347.319L207.953 347.3L208.002 347.281L204.412 337.948ZM241.216 314.133L234.044 307.166L233.992 307.219L233.941 307.273L241.216 314.133ZM246.317 306.73L254.919 311.83V311.83L246.317 306.73ZM250.309 300.087L250.179 290.088L250.319 310.087L250.309 300.087ZM376.395 331.02L371.654 339.825L371.682 339.84L371.71 339.855L376.395 331.02ZM509.323 331.02L504.638 322.186L504.61 322.2L504.582 322.215L509.323 331.02ZM553.488 288.587L544.831 283.582L544.818 283.604L544.805 283.626L553.488 288.587ZM553.488 159.989L544.805 164.951L544.835 165.002L544.865 165.053L553.488 159.989ZM509.323 117.556L504.478 126.304L504.558 126.348L504.638 126.391L509.323 117.556ZM376.395 117.556L381.136 126.361L381.16 126.348L381.184 126.335L376.395 117.556ZM332.23 159.989L323.607 154.925L323.577 154.976L323.548 155.028L332.23 159.989ZM332.23 288.587L323.514 293.49L323.56 293.571L323.607 293.651L332.23 288.587ZM718.401 336.613L727.8 340.028L718.401 336.613ZM741.629 34.5222L732.173 31.2671L741.629 34.5222ZM666.033 232.137L675.489 228.882L666.033 232.137ZM673.598 232.137L683.053 235.392L673.598 232.137ZM598.002 34.5222L607.457 31.2671L598.002 34.5222ZM512.407 37.181L521.814 33.7892L512.407 37.181ZM298.416 137.227L298.81 147.219V147.219L298.416 137.227ZM302.124 132.428L311.867 130.178L302.124 132.428ZM620.367 336.604L629.775 333.212L620.367 336.604ZM214.588 137.048L204.794 139.067L214.588 137.048ZM218.75 140.366L218.356 130.374L218.75 140.366ZM1015.29 33.7853L1023.89 28.6879L1015.29 33.7853ZM1109.31 192.461L1100.7 197.558L1109.31 192.461ZM1020.66 186.566L1029.14 181.274L1020.66 186.566ZM218.286 237.305L228.051 239.462L218.286 237.305ZM1380.46 320.765L1390.46 320.381L1380.46 320.765ZM1371.49 318.237L1363.8 311.844L1371.49 318.237ZM254.381 335.524L264.357 334.831V334.831L254.381 335.524ZM1381.03 335.401L1391.02 335.016L1381.03 335.401ZM829.155 14.1748L819.155 14.1749L829.155 14.1748ZM1369.73 125.078L1377.35 118.605L1369.73 125.078ZM1114.71 337.364L1106.22 342.656L1114.71 337.364ZM829.155 65.0613L839.155 65.0614L829.155 65.0613ZM829.156 31.8243L819.156 31.8242L819.155 65.0613L829.155 65.0613L839.155 65.0614L839.156 31.8243L829.156 31.8243ZM833.155 69.0614V79.0614H911.753V69.0614V59.0614H833.155V69.0614ZM915.753 65.0614H925.753V14.1748H915.753H905.753V65.0614H915.753ZM911.753 10.1748V0.174805H833.155V10.1748V20.1748H911.753V10.1748ZM829.155 14.1748L819.155 14.1749L819.156 31.8244L829.156 31.8243L839.156 31.8242L839.155 14.1747L829.155 14.1748ZM1309.3 344.443V334.443C1291.73 334.443 1277.04 330.017 1264.77 321.505L1259.07 329.721L1253.37 337.937C1269.39 349.054 1288.18 354.443 1309.3 354.443V344.443ZM1259.07 329.721L1264.96 321.641C1252.77 312.751 1242.98 300.141 1235.79 283.349L1226.6 287.288L1217.41 291.227C1225.8 310.807 1237.66 326.485 1253.18 337.801L1259.07 329.721ZM1226.6 287.288L1235.86 283.524C1228.95 266.499 1225.34 246.18 1225.34 222.34H1215.34H1205.34C1205.34 248.149 1209.24 271.129 1217.33 291.052L1226.6 287.288ZM1215.34 222.34H1225.34C1225.34 198.536 1229.08 178.431 1236.22 161.763L1227.03 157.824L1217.84 153.885C1209.39 173.589 1205.34 196.494 1205.34 222.34H1215.34ZM1227.03 157.824L1236.24 161.711C1243.42 144.691 1253.29 132.173 1265.64 123.607L1259.94 115.391L1254.24 107.175C1238.29 118.239 1226.22 134.009 1217.82 153.937L1227.03 157.824ZM1259.94 115.391L1265.75 123.529C1278.06 114.735 1292.44 110.237 1309.3 110.237V100.237V90.2366C1288.63 90.2366 1270.1 95.8417 1254.12 107.254L1259.94 115.391ZM1309.3 100.237V110.237C1325.31 110.237 1337.85 113.439 1347.45 119.203L1352.6 110.628L1357.74 102.053C1344.26 93.9619 1327.92 90.2366 1309.3 90.2366V100.237ZM1352.6 110.628L1347.45 119.203C1353.16 122.628 1358.02 126.744 1362.11 131.55L1369.73 125.078L1377.35 118.605C1371.81 112.076 1365.25 106.559 1357.74 102.053L1352.6 110.628ZM1379.01 122.261H1389.01V35.8243H1379.01H1369.01V122.261H1379.01ZM1383.01 31.8243V41.8243H1459.01V31.8243V21.8243H1383.01V31.8243ZM1463.01 35.8243H1453.01V335.247H1463.01H1473.01V35.8243H1463.01ZM1459.01 339.247V329.247H1385.02V339.247V349.247H1459.01V339.247ZM1381.03 335.401L1391.02 335.016L1390.46 320.381L1380.46 320.765L1370.47 321.149L1371.03 335.785L1381.03 335.401ZM1371.49 318.237L1363.8 311.844C1359.23 317.338 1353.62 321.979 1346.86 325.752L1351.73 334.484L1356.6 343.216C1365.4 338.31 1372.95 332.119 1379.18 324.629L1371.49 318.237ZM1351.73 334.484L1346.93 325.713C1336.51 331.419 1324.07 334.443 1309.3 334.443V344.443V354.443C1326.86 354.443 1342.71 350.827 1356.53 343.255L1351.73 334.484ZM928.397 35.8243H918.397V335.247H928.397H938.397V35.8243H928.397ZM932.397 339.247V349.247H1009.26V339.247V329.247H932.397V339.247ZM1013.26 335.247H1023.26V188.683H1013.26H1003.26V335.247H1013.26ZM1020.66 186.566L1012.17 191.858L1106.22 342.656L1114.71 337.364L1123.19 332.072L1029.14 181.274L1020.66 186.566ZM1118.1 339.247V349.247H1197.61V339.247V329.247H1118.1V339.247ZM1201.61 335.247H1211.61V35.8243H1201.61H1191.61V335.247H1201.61ZM1197.61 31.8243V21.8243H1120.75V31.8243V41.8243H1197.61V31.8243ZM1116.75 35.8243H1106.75V190.422H1116.75H1126.75V35.8243H1116.75ZM1109.31 192.461L1117.91 187.364L1023.89 28.6879L1015.29 33.7853L1006.69 38.8827L1100.7 197.558L1109.31 192.461ZM1011.85 31.8243V21.8243H932.397V31.8243V41.8243H1011.85V31.8243ZM830.454 322.257H840.454V96.4428H830.454H820.454V322.257H830.454ZM834.454 92.4428V102.443H910.454V92.4428V82.4428H834.454V92.4428ZM914.454 96.4428H904.454V322.257H914.454H924.454V96.4428H914.454ZM910.454 326.257V316.257H834.454V326.257V336.257H910.454V326.257ZM620.367 336.604L629.775 333.212L521.814 33.7892L512.407 37.181L502.999 40.5729L610.96 339.996L620.367 336.604ZM516.17 31.8243V41.8243H594.22V31.8243V21.8243H516.17V31.8243ZM598.002 34.5222L588.547 37.7774L656.578 235.392L666.033 232.137L675.489 228.882L607.457 31.2671L598.002 34.5222ZM673.598 232.137L683.053 235.392L751.084 37.7774L741.629 34.5222L732.173 31.2671L664.142 228.882L673.598 232.137ZM745.411 31.8243V41.8243H829.156V31.8243V21.8243H745.411V31.8243ZM829.156 31.8243L819.757 28.409L709.003 333.198L718.401 336.613L727.8 340.028L838.554 35.2396L829.156 31.8243ZM714.642 339.247V329.247H624.13V339.247V349.247H714.642V339.247ZM251.919 300.08L251.976 310.08L252.028 310.079L251.971 300.079L251.915 290.08L251.862 290.08L251.919 300.08ZM251.971 300.079L252.034 310.079C252.078 310.079 252.127 310.079 252.18 310.078L252.125 300.078L252.069 290.079C252.014 290.079 251.96 290.079 251.909 290.08L251.971 300.079ZM252.125 300.078L252.071 290.079C251.995 290.079 251.922 290.079 251.855 290.08L251.919 300.08L251.983 310.079C252.04 310.079 252.106 310.079 252.178 310.078L252.125 300.078ZM251.919 300.08L251.854 290.08C251.771 290.08 251.674 290.081 251.595 290.082L251.715 300.081L251.834 310.081C251.85 310.08 251.894 310.08 251.984 310.079L251.919 300.08ZM251.715 300.081L253.201 309.97C253.1 309.985 252.998 309.999 252.895 310.011L251.768 300.074L250.641 290.138C250.503 290.154 250.365 290.172 250.228 290.192L251.715 300.081ZM251.768 300.074L252.879 310.012C252.642 310.039 252.4 310.056 252.155 310.063L251.88 300.066L251.606 290.07C251.286 290.079 250.969 290.101 250.657 290.136L251.768 300.074ZM251.688 300.086L251.945 310.082L252.176 310.076L251.919 300.08L251.662 290.083L251.431 290.089L251.688 300.086ZM251.919 300.08L251.965 290.08C251.688 290.079 251.466 290.087 251.368 290.091C251.347 290.092 251.324 290.093 251.324 290.093C251.316 290.093 251.33 290.093 251.351 290.092C251.371 290.091 251.421 290.089 251.486 290.088C251.521 290.087 251.565 290.086 251.616 290.086C251.667 290.086 251.731 290.085 251.806 290.086L251.688 300.086L251.569 310.085C251.723 310.087 251.849 310.085 251.924 310.083C252.002 310.081 252.066 310.079 252.102 310.078C252.138 310.076 252.169 310.075 252.178 310.075C252.195 310.074 252.191 310.074 252.19 310.074C252.17 310.075 252.043 310.08 251.873 310.08L251.919 300.08ZM251.688 300.086L253.303 309.954C253.296 309.955 253.292 309.956 253.291 309.956C253.289 309.957 253.288 309.957 253.286 309.957C253.284 309.957 253.279 309.958 253.272 309.959C253.269 309.96 253.263 309.961 253.255 309.962C253.248 309.963 253.233 309.965 253.213 309.969L251.715 300.081L250.217 290.194C250.18 290.2 250.151 290.204 250.145 290.205C250.134 290.207 250.123 290.209 250.116 290.21C250.104 290.212 250.088 290.214 250.073 290.217L251.688 300.086ZM251.715 300.081L251.596 290.082C251.533 290.083 251.445 290.084 251.344 290.088C251.295 290.089 251.212 290.092 251.11 290.098C251.092 290.099 250.765 290.114 250.363 290.166C250.245 290.182 250.01 290.214 249.716 290.272C249.585 290.297 248.757 290.451 247.776 290.863C247.417 291.013 245.966 291.62 244.571 293.016C243.802 293.786 242.673 295.171 242.059 297.237C241.386 299.504 241.558 301.853 242.401 303.897C243.791 307.267 246.49 308.666 246.903 308.888C247.753 309.346 248.478 309.574 248.776 309.663C249.43 309.859 249.958 309.942 250.111 309.966C250.34 310.001 250.524 310.022 250.628 310.032C250.837 310.054 251.002 310.064 251.074 310.068C251.331 310.083 251.544 310.085 251.568 310.085L251.688 300.086L251.807 290.086C251.829 290.087 251.869 290.087 251.922 290.089C251.96 290.09 252.077 290.093 252.229 290.101C252.298 290.105 252.46 290.115 252.668 290.137C252.77 290.147 252.954 290.167 253.182 290.203C253.334 290.227 253.862 290.309 254.516 290.505C254.814 290.594 255.538 290.822 256.388 291.28C256.8 291.502 259.5 292.901 260.89 296.271C261.733 298.315 261.905 300.664 261.231 302.931C260.618 304.997 259.489 306.382 258.72 307.151C257.325 308.548 255.874 309.154 255.515 309.305C254.535 309.716 253.706 309.87 253.576 309.896C253.283 309.953 253.049 309.985 252.931 310.001C252.532 310.052 252.211 310.067 252.201 310.068C252.106 310.073 252.033 310.076 251.996 310.077C251.918 310.079 251.86 310.08 251.833 310.081L251.715 300.081ZM251.688 300.086L253.362 309.945C253.365 309.944 253.371 309.943 253.378 309.942C253.383 309.941 253.398 309.938 253.416 309.935C253.425 309.934 253.443 309.93 253.466 309.926C253.478 309.924 253.497 309.921 253.52 309.916C253.532 309.914 253.548 309.911 253.567 309.907C253.585 309.904 253.612 309.899 253.644 309.892C253.661 309.889 253.681 309.885 253.705 309.88C253.729 309.875 253.759 309.869 253.796 309.861C253.83 309.854 253.881 309.842 253.943 309.828C253.969 309.822 254.027 309.808 254.058 309.801C254.096 309.791 254.18 309.77 254.226 309.758C254.285 309.743 254.419 309.706 254.494 309.684C254.597 309.653 254.844 309.575 254.988 309.525C255.211 309.445 255.808 309.198 256.178 309.021C256.936 308.598 259.468 306.369 260.79 304.23C261.589 298.678 257.273 291.79 254.871 290.605C253.995 290.355 252.68 290.135 252.257 290.102C252.015 290.091 251.616 290.086 251.461 290.088C251.352 290.091 251.164 290.099 251.084 290.104C251.023 290.108 250.913 290.116 250.865 290.119C250.826 290.123 250.754 290.129 250.722 290.132C250.695 290.135 250.645 290.14 250.622 290.143C250.602 290.145 250.565 290.149 250.547 290.151C250.505 290.156 250.47 290.16 250.444 290.163C250.417 290.167 250.394 290.17 250.376 290.172C250.34 290.177 250.311 290.181 250.292 290.184C250.272 290.186 250.255 290.189 250.242 290.191C250.217 290.194 250.197 290.197 250.185 290.199C250.172 290.201 250.161 290.203 250.153 290.204C250.138 290.206 250.126 290.208 250.119 290.21C250.104 290.212 250.093 290.214 250.087 290.215C250.075 290.216 250.065 290.218 250.059 290.219C250.052 290.22 250.042 290.222 250.03 290.224C250.025 290.225 250.014 290.227 249.999 290.229C249.992 290.23 249.98 290.232 249.965 290.235C249.957 290.236 249.947 290.238 249.934 290.241C249.922 290.243 249.902 290.246 249.877 290.251C249.865 290.253 249.848 290.256 249.828 290.26C249.809 290.264 249.781 290.269 249.746 290.276C249.729 290.279 249.707 290.284 249.681 290.289C249.656 290.294 249.622 290.301 249.582 290.31C249.544 290.318 249.487 290.331 249.417 290.347C249.387 290.354 249.32 290.37 249.284 290.379C249.239 290.39 249.139 290.416 249.084 290.431C249.012 290.45 248.844 290.498 248.748 290.527C248.614 290.57 248.277 290.685 248.076 290.76C247.742 290.897 246.766 291.38 246.145 291.762C244.624 293.006 241.699 299.597 242.873 304.81C244.978 307.502 248.911 309.693 249.99 309.941C250.471 310.012 251.224 310.075 251.493 310.084C251.663 310.086 251.949 310.082 252.065 310.079C252.15 310.075 252.299 310.067 252.364 310.063C252.414 310.059 252.506 310.052 252.547 310.049C252.58 310.046 252.642 310.04 252.67 310.037C252.736 310.031 252.79 310.025 252.826 310.021C252.864 310.016 252.896 310.012 252.92 310.009C252.945 310.006 252.966 310.004 252.984 310.001C253.017 309.997 253.045 309.993 253.063 309.991C253.082 309.988 253.099 309.986 253.111 309.984C253.135 309.98 253.154 309.978 253.166 309.976C253.189 309.972 253.208 309.969 253.217 309.968C253.235 309.965 253.25 309.963 253.255 309.962C253.262 309.961 253.268 309.96 253.271 309.959L251.688 300.086L250.104 290.212C250.107 290.211 250.113 290.21 250.12 290.209C250.125 290.209 250.139 290.206 250.157 290.203C250.166 290.202 250.184 290.199 250.207 290.196C250.219 290.194 250.239 290.191 250.262 290.188C250.275 290.186 250.291 290.184 250.31 290.181C250.329 290.178 250.356 290.175 250.39 290.17C250.407 290.168 250.428 290.165 250.453 290.162C250.477 290.159 250.509 290.155 250.547 290.151C250.584 290.147 250.638 290.141 250.703 290.134C250.731 290.132 250.793 290.126 250.827 290.123C250.868 290.119 250.959 290.112 251.009 290.109C251.074 290.105 251.223 290.097 251.308 290.093C251.425 290.089 251.711 290.086 251.88 290.088C252.15 290.097 252.902 290.16 253.383 290.231C254.462 290.479 258.395 292.67 260.501 295.362C261.675 300.574 258.749 307.165 257.229 308.41C256.608 308.791 255.631 309.275 255.297 309.411C255.096 309.487 254.759 309.602 254.625 309.644C254.529 309.673 254.361 309.721 254.29 309.741C254.234 309.756 254.134 309.782 254.09 309.793C254.053 309.802 253.987 309.818 253.957 309.825C253.887 309.841 253.829 309.854 253.791 309.862C253.752 309.87 253.718 309.877 253.693 309.883C253.667 309.888 253.645 309.892 253.627 309.896C253.592 309.903 253.564 309.908 253.545 309.912C253.525 309.915 253.508 309.918 253.496 309.921C253.472 309.925 253.452 309.929 253.44 309.931C253.427 309.933 253.416 309.935 253.409 309.936C253.394 309.939 253.381 309.941 253.374 309.942C253.36 309.945 253.349 309.947 253.344 309.948C253.332 309.949 253.323 309.951 253.317 309.952C253.31 309.953 253.301 309.955 253.289 309.957C253.284 309.957 253.273 309.959 253.259 309.961C253.252 309.963 253.239 309.965 253.224 309.967C253.216 309.968 253.206 309.97 253.193 309.972C253.18 309.974 253.16 309.977 253.136 309.98C253.123 309.982 253.106 309.985 253.085 309.987C253.066 309.99 253.037 309.994 253.001 309.999C252.983 310.001 252.96 310.004 252.933 310.008C252.907 310.011 252.872 310.015 252.83 310.02C252.813 310.022 252.776 310.026 252.756 310.028C252.733 310.031 252.682 310.036 252.655 310.039C252.623 310.042 252.552 310.048 252.512 310.051C252.464 310.055 252.355 310.063 252.294 310.067C252.214 310.072 252.025 310.08 251.917 310.083C251.761 310.085 251.363 310.08 251.12 310.069C250.698 310.036 249.382 309.816 248.507 309.566C246.105 308.381 241.788 301.493 242.588 295.941C243.909 293.802 246.441 291.573 247.2 291.15C247.57 290.973 248.167 290.726 248.389 290.646C248.533 290.596 248.781 290.518 248.883 290.487C248.959 290.465 249.093 290.428 249.151 290.413C249.198 290.401 249.282 290.379 249.32 290.37C249.351 290.363 249.408 290.349 249.435 290.343C249.496 290.329 249.547 290.317 249.582 290.31C249.618 290.302 249.649 290.296 249.672 290.291C249.696 290.286 249.717 290.282 249.733 290.279C249.766 290.272 249.792 290.267 249.81 290.263C249.829 290.26 249.845 290.257 249.857 290.255C249.881 290.25 249.9 290.247 249.911 290.245C249.934 290.241 249.953 290.237 249.961 290.236C249.979 290.233 249.993 290.23 249.998 290.229C250.005 290.228 250.01 290.227 250.014 290.227L251.688 300.086ZM251.919 300.08L241.943 300.772L244.405 336.217L254.381 335.524L264.357 334.831L261.895 299.387L251.919 300.08ZM258.371 339.247V349.247H300V339.247V329.247H258.371V339.247ZM304 335.247H314V180.443H304H294V335.247H304ZM300 176.443V166.443H165.546V176.443V186.443H300V176.443ZM161.546 180.443H151.546V228.731H161.546H171.546V180.443H161.546ZM165.546 232.731V242.731H214.482V232.731V222.731H165.546V232.731ZM218.286 237.305L208.521 235.148C207.1 241.584 204.708 247.029 201.448 251.632L209.608 257.412L217.768 263.192C222.716 256.207 226.11 248.247 228.051 239.462L218.286 237.305ZM209.608 257.412L201.399 251.701C197.833 256.827 193.004 260.931 186.651 263.989L190.99 272.999L195.328 282.009C204.563 277.563 212.146 271.275 217.817 263.122L209.608 257.412ZM190.99 272.999L186.799 263.92C180.932 266.628 173.351 268.195 163.711 268.195V278.195V288.195C175.432 288.195 186.037 286.299 195.18 282.079L190.99 272.999ZM163.711 278.195V268.195C150.074 268.195 139.805 264.874 132.116 258.994L126.041 266.938L119.967 274.881C131.907 284.012 146.751 288.195 163.711 288.195V278.195ZM126.041 266.938L132.26 259.106C124.153 252.669 117.776 243.522 113.385 231.125L103.959 234.463L94.5325 237.802C99.9562 253.116 108.3 265.619 119.822 274.769L126.041 266.938ZM103.959 234.463L113.446 231.301C109.243 218.694 107.031 203.639 107.031 185.969H97.0309H87.0309C87.0309 205.246 89.4371 222.521 94.4719 237.626L103.959 234.463ZM97.0309 185.969H107.031C107.031 168.044 109.379 152.913 113.818 140.379L104.392 137.041L94.9655 133.702C89.59 148.88 87.0309 166.368 87.0309 185.969H97.0309ZM104.392 137.041L113.755 140.552C118.457 128.014 124.899 118.776 132.807 112.306L126.474 104.567L120.142 96.8269C108.998 105.945 100.718 118.356 95.0284 133.53L104.392 137.041ZM126.474 104.567L132.693 112.398C140.55 106.158 150.129 102.876 161.979 102.876V92.8758V82.8758C146.118 82.8758 132.027 87.3875 120.255 96.7354L126.474 104.567ZM161.979 92.8758V102.876C176.485 102.876 185.818 106.609 191.712 112.504L198.783 105.432L205.855 98.3614C195.007 87.5135 179.804 82.8758 161.979 82.8758V92.8758ZM198.783 105.432L191.838 112.627C197.746 118.331 202.275 126.85 204.794 139.067L214.588 137.048L224.382 135.028C221.287 120.017 215.279 107.459 205.729 98.2385L198.783 105.432ZM218.75 140.366L219.143 150.358L298.81 147.219L298.416 137.227L298.022 127.234L218.356 130.374L218.75 140.366ZM302.124 132.428L311.867 130.178C306.612 107.422 298.106 87.512 286.186 70.6498L278.021 76.4222L269.855 82.1945C280.053 96.6208 287.616 114.048 292.38 134.678L302.124 132.428ZM278.021 76.4222L286.253 70.7449C273.622 52.43 256.716 38.5677 235.777 29.1923L231.691 38.3191L227.604 47.4459C245.346 55.3901 259.327 66.9299 269.788 82.0995L278.021 76.4222ZM231.691 38.3191L235.942 29.2678C215.197 19.524 190.121 14.8964 161.113 14.8964V24.8964V34.8964C188.106 34.8964 210.081 39.2173 227.439 47.3704L231.691 38.3191ZM161.113 24.8964V14.8964C127.848 14.8964 98.7871 22.3199 74.3918 37.6452L79.7113 46.1129L85.0308 54.5807C105.666 41.6173 130.874 34.8964 161.113 34.8964V24.8964ZM79.7113 46.1129L74.4703 37.5963C50.3257 52.4546 31.7431 72.9258 18.8083 98.7954L27.7526 103.268L36.6968 107.74C48.0094 85.1145 64.066 67.4826 84.9523 54.6295L79.7113 46.1129ZM27.7526 103.268L18.7659 98.8812C6.17368 124.68 0 153.782 0 185.969H10H20C20 156.382 25.6614 130.35 36.7392 107.654L27.7526 103.268ZM10 185.969H0C0 219.21 5.99205 248.748 18.3111 274.31L27.3196 269.969L36.328 265.627C25.5543 243.272 20 216.81 20 185.969H10ZM27.3196 269.969L18.3538 274.397C30.9698 299.937 48.9433 320.134 72.2362 334.731L77.5464 326.257L82.8565 317.784C62.8505 305.246 47.3395 287.917 36.2854 265.54L27.3196 269.969ZM77.5464 326.257L72.3181 334.782C95.8072 349.188 123.525 356.175 155.052 356.175V346.175V336.175C126.537 336.175 102.585 329.883 82.7747 317.733L77.5464 326.257ZM155.052 346.175V356.175C174.244 356.175 191.904 353.279 207.903 347.319L204.412 337.948L200.921 328.577C187.477 333.586 172.23 336.175 155.052 336.175V346.175ZM204.412 337.948L208.002 347.281C224.19 341.055 237.788 332.347 248.492 320.994L241.216 314.133L233.941 307.273C225.593 316.126 214.655 323.294 200.823 328.614L204.412 337.948ZM241.216 314.133L248.389 321.101C251.216 318.191 253.543 314.15 254.919 311.83L246.317 306.73L237.715 301.63C235.94 304.624 234.867 306.318 234.044 307.166L241.216 314.133ZM246.317 306.73L254.919 311.83C255.428 310.971 255.856 310.249 256.262 309.599C256.669 308.943 256.968 308.499 257.186 308.205C257.436 307.868 257.396 307.979 257.078 308.26C256.901 308.417 256.532 308.72 255.971 309.034C255.406 309.351 254.524 309.747 253.362 309.944L251.688 300.086L250.013 290.227C246.992 290.74 244.904 292.328 243.835 293.272C242.672 294.3 241.762 295.426 241.117 296.298C239.851 298.007 238.623 300.099 237.715 301.63L246.317 306.73ZM251.688 300.086L251.678 290.086L250.299 290.087L250.309 300.087L250.319 310.087L251.698 310.086L251.688 300.086ZM250.309 300.087L250.44 310.086L252.011 310.066L251.88 300.066L251.75 290.067L250.179 290.088L250.309 300.087ZM251.88 300.066L252.167 310.062C252.098 310.064 252.038 310.065 251.99 310.066L251.904 300.066L251.819 290.066C251.755 290.067 251.679 290.068 251.594 290.071L251.88 300.066ZM376.395 331.02L371.71 339.855C392.441 350.849 416.331 356.175 443.076 356.175V346.175V336.175C419.016 336.175 398.452 331.398 381.08 322.186L376.395 331.02ZM443.076 346.175V356.175C469.816 356.175 493.588 350.85 514.064 339.825L509.323 331.02L504.582 322.215C487.532 331.396 467.14 336.175 443.076 336.175V346.175ZM509.323 331.02L514.008 339.855C534.68 328.893 550.811 313.428 562.17 293.549L553.488 288.587L544.805 283.626C535.382 300.117 522.07 312.942 504.638 322.186L509.323 331.02ZM553.488 288.587L562.145 293.592C573.83 273.381 579.509 250.098 579.509 224.072H569.509H559.509C559.509 247.117 554.507 266.845 544.831 283.582L553.488 288.587ZM569.509 224.072H579.509C579.509 198.05 573.831 174.881 562.111 154.925L553.488 159.989L544.865 165.053C554.505 181.468 559.509 201.022 559.509 224.072H569.509ZM553.488 159.989L562.17 155.028C550.811 135.148 534.68 119.684 514.008 108.722L509.323 117.556L504.638 126.391C522.07 135.635 535.382 148.459 544.805 164.951L553.488 159.989ZM509.323 117.556L514.168 108.808C493.671 97.4561 469.86 91.9687 443.076 91.9687V101.969V111.969C467.096 111.969 487.449 116.873 504.478 126.304L509.323 117.556ZM443.076 101.969V91.9687C416.287 91.9687 392.36 97.4576 371.607 108.777L376.395 117.556L381.184 126.335C398.534 116.872 419.06 111.969 443.076 111.969V101.969ZM376.395 117.556L371.654 108.752C351.297 119.713 335.225 135.144 323.607 154.925L332.23 159.989L340.853 165.053C350.596 148.464 363.967 135.606 381.136 126.361L376.395 117.556ZM332.23 159.989L323.548 155.028C312.155 174.966 306.643 198.096 306.643 224.072H316.643H326.643C326.643 200.975 331.522 181.384 340.913 164.951L332.23 159.989ZM316.643 224.072H306.643C306.643 250.052 312.156 273.297 323.514 293.49L332.23 288.587L340.946 283.685C331.521 266.929 326.643 247.164 326.643 224.072H316.643ZM332.23 288.587L323.607 293.651C335.225 313.433 351.297 328.863 371.654 339.825L376.395 331.02L381.136 322.215C363.967 312.971 350.596 300.113 340.853 283.523L332.23 288.587ZM304 180.443H314C314 172.711 307.732 166.443 300 166.443V176.443V186.443C296.686 186.443 294 183.757 294 180.443H304ZM718.401 336.613L709.003 333.198C709.865 330.826 712.118 329.247 714.642 329.247V339.247V349.247C720.53 349.247 725.789 345.562 727.8 340.028L718.401 336.613ZM741.629 34.5222L751.084 37.7774C750.251 40.1988 747.972 41.8243 745.411 41.8243V31.8243V21.8243C739.435 21.8243 734.119 25.617 732.173 31.2671L741.629 34.5222ZM666.033 232.137L656.578 235.392C660.912 247.982 678.719 247.982 683.053 235.392L673.598 232.137L664.142 228.882C666 223.486 673.631 223.486 675.489 228.882L666.033 232.137ZM594.22 31.8243V41.8243C591.659 41.8243 589.38 40.1988 588.547 37.7774L598.002 34.5222L607.457 31.2671C605.512 25.617 600.195 21.8243 594.22 21.8243V31.8243ZM512.407 37.181L521.814 33.7892C523.224 37.6996 520.326 41.8243 516.17 41.8243V31.8243V21.8243C506.47 21.8243 499.71 31.4486 502.999 40.5729L512.407 37.181ZM298.416 137.227L298.81 147.219C307.387 146.881 313.87 138.849 311.867 130.178L302.124 132.428L292.38 134.678C291.49 130.823 294.385 127.378 298.022 127.234L298.416 137.227ZM620.367 336.604L610.96 339.996C612.962 345.547 618.229 349.247 624.13 349.247V339.247V329.247C626.659 329.247 628.917 330.833 629.775 333.212L620.367 336.604ZM214.588 137.048L204.794 139.067C206.143 145.606 212.022 150.639 219.143 150.358L218.75 140.366L218.356 130.374C221.459 130.252 223.846 132.427 224.382 135.028L214.588 137.048ZM914.454 322.257H904.454C904.454 318.943 907.141 316.257 910.454 316.257V326.257V336.257C918.186 336.257 924.454 329.989 924.454 322.257H914.454ZM910.454 92.4428V102.443C907.141 102.443 904.454 99.7565 904.454 96.4428H914.454H924.454C924.454 88.7108 918.186 82.4428 910.454 82.4428V92.4428ZM830.454 96.4428H840.454C840.454 99.7565 837.768 102.443 834.454 102.443V92.4428V82.4428C826.722 82.4428 820.454 88.7108 820.454 96.4428H830.454ZM830.454 322.257H820.454C820.454 329.989 826.722 336.257 834.454 336.257V326.257V316.257C837.768 316.257 840.454 318.943 840.454 322.257H830.454ZM1015.29 33.7853L1023.89 28.6879C1021.37 24.4333 1016.79 21.8243 1011.85 21.8243V31.8243V41.8243C1009.73 41.8243 1007.77 40.7061 1006.69 38.8827L1015.29 33.7853ZM1116.75 190.422H1106.75C1106.75 184.319 1114.8 182.113 1117.91 187.364L1109.31 192.461L1100.7 197.558C1107.96 209.809 1126.75 204.662 1126.75 190.422H1116.75ZM1013.26 188.683H1023.26C1023.26 194.714 1015.36 196.976 1012.17 191.858L1020.66 186.566L1029.14 181.274C1021.69 169.334 1003.26 174.61 1003.26 188.683H1013.26ZM214.482 232.731V242.731C211.032 242.731 207.566 239.473 208.521 235.148L218.286 237.305L228.051 239.462C230.062 230.356 222.828 222.731 214.482 222.731V232.731ZM1009.26 339.247V349.247C1016.99 349.247 1023.26 342.979 1023.26 335.247H1013.26H1003.26C1003.26 331.933 1005.95 329.247 1009.26 329.247V339.247ZM161.546 228.731H151.546C151.546 236.463 157.814 242.731 165.546 242.731V232.731V222.731C168.86 222.731 171.546 225.418 171.546 228.731H161.546ZM928.397 335.247H918.397C918.397 342.979 924.665 349.247 932.397 349.247V339.247V329.247C935.71 329.247 938.397 331.933 938.397 335.247H928.397ZM165.546 176.443V166.443C157.814 166.443 151.546 172.711 151.546 180.443H161.546H171.546C171.546 183.757 168.86 186.443 165.546 186.443V176.443ZM928.397 35.8243H938.397C938.397 39.138 935.71 41.8243 932.397 41.8243V31.8243V21.8243C924.665 21.8243 918.397 28.0923 918.397 35.8243H928.397ZM300 339.247V349.247C307.732 349.247 314 342.979 314 335.247H304H294C294 331.933 296.686 329.247 300 329.247V339.247ZM1380.46 320.765L1390.46 320.381C1390.16 312.599 1384.16 308.376 1379.52 307.118C1374.92 305.87 1368.25 306.484 1363.8 311.844L1371.49 318.237L1379.18 324.629C1377.36 326.822 1375.1 326.642 1374.29 326.422C1373.44 326.19 1370.61 324.815 1370.47 321.149L1380.46 320.765ZM254.381 335.524L244.405 336.217C244.914 343.555 251.015 349.247 258.371 349.247V339.247V329.247C261.523 329.247 264.138 331.686 264.357 334.831L254.381 335.524ZM1385.02 339.247V329.247C1388.25 329.247 1390.9 331.795 1391.02 335.016L1381.03 335.401L1371.03 335.785C1371.32 343.302 1377.5 349.247 1385.02 349.247V339.247ZM1463.01 335.247H1453.01C1453.01 331.933 1455.7 329.247 1459.01 329.247V339.247V349.247C1466.74 349.247 1473.01 342.979 1473.01 335.247H1463.01ZM1459.01 31.8243V41.8243C1455.7 41.8243 1453.01 39.138 1453.01 35.8243H1463.01H1473.01C1473.01 28.0923 1466.74 21.8243 1459.01 21.8243V31.8243ZM1120.75 31.8243V21.8243C1113.02 21.8243 1106.75 28.0923 1106.75 35.8243H1116.75H1126.75C1126.75 39.138 1124.06 41.8243 1120.75 41.8243V31.8243ZM833.155 10.1748V0.174805C825.423 0.174805 819.155 6.4429 819.155 14.1749L829.155 14.1748L839.155 14.1747C839.155 17.4885 836.469 20.1748 833.155 20.1748V10.1748ZM1197.61 339.247V349.247C1205.34 349.247 1211.61 342.979 1211.61 335.247H1201.61H1191.61C1191.61 331.933 1194.3 329.247 1197.61 329.247V339.247ZM911.753 69.0614V79.0614C919.485 79.0614 925.753 72.7934 925.753 65.0614H915.753H905.753C905.753 61.7477 908.44 59.0614 911.753 59.0614V69.0614ZM1369.73 125.078L1362.11 131.55C1366.78 137.05 1373.68 137.377 1378.2 136.057C1382.72 134.735 1389.01 130.38 1389.01 122.261H1379.01H1369.01C1369.01 120.541 1369.73 119.089 1370.59 118.161C1371.35 117.333 1372.12 116.998 1372.59 116.861C1373.14 116.698 1375.41 116.323 1377.35 118.605L1369.73 125.078ZM1379.01 35.8243H1389.01C1389.01 39.138 1386.32 41.8243 1383.01 41.8243V31.8243V21.8243C1375.28 21.8243 1369.01 28.0923 1369.01 35.8243H1379.01ZM1201.61 35.8243H1211.61C1211.61 28.0923 1205.34 21.8243 1197.61 21.8243V31.8243V41.8243C1194.3 41.8243 1191.61 39.138 1191.61 35.8243H1201.61ZM915.753 14.1748H925.753C925.753 6.44281 919.485 0.174805 911.753 0.174805V10.1748V20.1748C908.44 20.1748 905.753 17.4885 905.753 14.1748H915.753ZM1114.71 337.364L1106.22 342.656C1108.78 346.755 1113.27 349.247 1118.1 349.247V339.247V329.247C1120.17 329.247 1122.1 330.315 1123.19 332.072L1114.71 337.364ZM829.155 65.0613L819.155 65.0613C819.155 72.7933 825.423 79.0614 833.155 79.0614V69.0614V59.0614C836.469 59.0614 839.155 61.7477 839.155 65.0614L829.155 65.0613Z" fill="black" mask="url(#path-1-outside-1_2788_809)"/>
<path d="M3827.51 21.6738C3831.2 21.6738 3834.51 23.9251 3835.87 27.3301L3836 27.6631L3946.56 339.163C3948.63 345.021 3944.29 351.174 3938.07 351.174H3852.63C3848.69 351.174 3845.21 348.607 3844.04 344.842L3825.75 285.924H3723.32L3705.04 344.842C3703.87 348.607 3700.38 351.174 3696.44 351.174H3611C3604.79 351.174 3600.44 345.021 3602.52 339.163L3713.08 27.6631L3713.21 27.3301C3714.57 23.9253 3717.87 21.6739 3721.56 21.6738H3827.51ZM3774.54 115.46C3771.68 127.593 3768.28 139.15 3764.92 150.095L3764.92 150.094L3745.74 212.924H3803.33L3784.16 150.083V150.082C3780.79 139.141 3777.39 127.589 3774.54 115.46Z" stroke="black" stroke-width="10"/>
<path d="M3581.14 107.667C3586.11 107.667 3590.14 111.697 3590.14 116.667V333.667C3590.14 338.638 3586.11 342.667 3581.14 342.667H3498.24C3493.27 342.667 3489.24 338.637 3489.24 333.667V116.667C3489.24 111.697 3493.27 107.667 3498.24 107.667H3581.14ZM3582.04 5.06738C3587.01 5.06751 3591.04 9.0969 3591.04 14.0674V81.667C3591.04 86.6375 3587.01 90.6669 3582.04 90.667H3497.34C3492.37 90.667 3488.34 86.6376 3488.34 81.667V14.0674C3488.34 9.09681 3492.37 5.06738 3497.34 5.06738H3582.04Z" stroke="black" stroke-width="10"/>
<path d="M3348.39 21.6738C3353.36 21.6738 3357.39 25.7033 3357.39 30.6738V265.574H3468.54C3473.51 265.574 3477.54 269.604 3477.54 274.574V342.174C3477.54 347.144 3473.51 351.174 3468.54 351.174H3262.34C3257.37 351.174 3253.34 347.144 3253.34 342.174V30.6738C3253.34 25.7033 3257.37 21.6738 3262.34 21.6738H3348.39Z" stroke="black" stroke-width="10"/>
<path d="M3105.54 105.374C3145.13 105.374 3175.1 112.624 3195.2 128.936C3215.54 145.436 3224.84 170.41 3224.84 203.524V285.424C3224.84 304.365 3226.52 322.837 3228.95 334.693C3230.07 340.185 3226 345.774 3220.02 345.774H3141.16C3136.96 345.774 3133.2 342.835 3132.38 338.554C3131.57 334.324 3130.98 330.073 3130.56 325.694C3130.41 325.59 3130.16 325.451 3129.8 325.346C3129.33 325.208 3128.9 325.195 3128.62 325.239C3128.57 325.247 3128.53 325.256 3128.5 325.264C3112.71 341.691 3087.5 351.174 3059.64 351.174C3035.3 351.174 3014.49 344.149 2999.69 331.465C2984.81 318.724 2976.34 300.555 2976.34 279.124C2976.34 257.806 2982.56 241.406 2996.53 229.428C3011.15 216.776 3033.93 208.962 3066.99 203.979L3067.01 203.978L3123.94 195.604V190.024C3123.94 182.246 3122 177.406 3119.17 174.498C3116.36 171.614 3111.89 169.824 3105.09 169.824C3097.7 169.824 3092.69 171.578 3089.32 174.454C3085.96 177.321 3083.56 181.877 3082.54 188.853C3081.91 193.15 3078.28 196.824 3073.48 196.824H2992.86C2987.67 196.824 2983.34 192.346 2984 186.911L2984.16 185.688C2987.61 160.068 3000.53 139.898 3021.34 126.206C3042.33 112.399 3071.03 105.374 3105.54 105.374ZM3106.93 249.834C3096.03 252.017 3088.62 255.071 3084.01 258.736C3079.65 262.213 3077.69 266.308 3077.69 271.474C3077.69 276.094 3079.53 279.879 3082.69 282.58C3085.9 285.329 3090.76 287.174 3096.99 287.174C3106.34 287.174 3113.88 284.335 3119.01 279.856C3124.09 275.421 3127.09 269.153 3127.09 261.574V246.011L3106.93 249.834Z" stroke="black" stroke-width="10"/>
<path d="M2658.95 21.6738C2663.3 21.674 2667.03 24.7906 2667.8 29.0752L2698.75 200.609L2731.01 29.0107C2731.81 24.7561 2735.53 21.6738 2739.86 21.6738H2827.72C2832.05 21.6739 2835.76 24.7561 2836.56 29.0107L2868.82 200.609L2899.77 29.0752C2900.55 24.7905 2904.28 21.6738 2908.63 21.6738H2995.17C3000.99 21.6738 3005.28 27.1026 3003.93 32.7578L2929.78 344.258C2928.82 348.312 2925.2 351.174 2921.03 351.174H2824.51C2820.13 351.174 2816.38 348.018 2815.64 343.699L2783.79 158.46L2751.94 343.699C2751.19 348.018 2747.45 351.174 2743.07 351.174H2646.55C2642.38 351.174 2638.76 348.312 2637.79 344.258L2563.65 32.7578C2562.3 27.1027 2566.59 21.6741 2572.4 21.6738H2658.95Z" stroke="black" stroke-width="10"/>
<path d="M2422.24 110.774C2427.21 110.775 2431.24 114.804 2431.24 119.774V245.824C2431.24 256.385 2433.2 263.45 2436.39 267.775C2439.37 271.814 2443.91 274.124 2450.99 274.124C2457.79 274.124 2462.72 271.726 2466.04 267.719C2469.47 263.591 2471.64 257.201 2471.64 248.524V119.774C2471.64 114.804 2475.67 110.775 2480.64 110.774H2563.54C2568.51 110.774 2572.54 114.804 2572.54 119.774V336.774C2572.54 341.745 2568.51 345.774 2563.54 345.774H2484.69C2479.72 345.774 2475.69 341.745 2475.69 336.774V323.088C2475.55 323.021 2475.37 322.945 2475.13 322.884C2474.64 322.754 2474.18 322.759 2473.89 322.82C2473.85 322.828 2473.82 322.837 2473.8 322.844C2459.28 340.983 2436.82 351.175 2410.49 351.175C2383.82 351.175 2363.48 343.184 2349.9 327.574C2336.44 312.091 2330.34 289.908 2330.34 262.925V119.774C2330.34 114.804 2334.37 110.774 2339.34 110.774H2422.24Z" stroke="black" stroke-width="10"/>
<path d="M2185.39 21.6738C2190.36 21.6738 2194.39 25.7033 2194.39 30.6738V265.574H2305.54C2310.51 265.574 2314.54 269.604 2314.54 274.574V342.174C2314.54 347.144 2310.51 351.174 2305.54 351.174H2099.34C2094.37 351.174 2090.34 347.144 2090.34 342.174V30.6738C2090.34 25.7033 2094.37 21.6738 2099.34 21.6738H2185.39Z" stroke="black" stroke-width="10"/>
<path d="M1908.24 5C1913.21 5.00022 1917.24 9.02957 1917.24 14V131.851C1917.25 131.852 1917.27 131.854 1917.28 131.854C1917.28 131.855 1917.28 131.854 1917.29 131.854C1932.78 110.954 1954.73 100.85 1982.44 100.85C2007.85 100.85 2027.79 108.904 2041.22 125.483C2054.5 141.869 2060.79 165.807 2060.79 196.3V332.25C2060.79 337.221 2056.76 341.25 2051.79 341.25H1968.89C1963.92 341.25 1959.89 337.221 1959.89 332.25V205.75C1959.89 195.184 1957.92 188.259 1954.76 184.062C1951.81 180.146 1947.29 177.9 1940.14 177.9C1932.62 177.9 1927.24 180.71 1923.53 186.005C1919.64 191.572 1917.24 200.408 1917.24 212.95V332.25C1917.24 337.22 1913.21 341.25 1908.24 341.25H1825.34C1820.37 341.25 1816.34 337.221 1816.34 332.25V14C1816.34 9.02945 1820.37 5 1825.34 5H1908.24Z" stroke="black" stroke-width="10"/>
<path d="M1685.18 21.6738C1688.88 21.6738 1692.18 23.9251 1693.54 27.3301L1693.67 27.6631L1804.23 339.163C1806.31 345.021 1801.96 351.174 1795.75 351.174H1710.31C1706.36 351.174 1702.88 348.607 1701.71 344.842L1683.43 285.924H1580.99L1562.71 344.842C1561.54 348.607 1558.06 351.174 1554.11 351.174H1468.67C1462.46 351.174 1458.11 345.021 1460.19 339.163L1570.75 27.6631L1570.88 27.3301C1572.24 23.9253 1575.54 21.6739 1579.23 21.6738H1685.18ZM1632.21 115.46C1629.35 127.593 1625.96 139.15 1622.59 150.095L1622.59 150.094L1603.41 212.924H1661.01L1641.83 150.083V150.082C1638.46 139.141 1635.07 127.589 1632.21 115.46Z" stroke="black" stroke-width="10"/>
</svg>
