<svg width="650" height="392" viewBox="0 0 650 392" fill="none" xmlns="http://www.w3.org/2000/svg">
<path d="M185.319 10.5C216.79 10.5 243.976 15.5151 266.457 26.0576C289.119 36.225 307.414 51.2401 321.088 71.0674H321.087C334.053 89.4407 343.294 111.152 348.981 135.988C351.035 144.956 344.336 153.273 335.448 153.623L248.1 157.065C240.731 157.356 234.622 152.148 233.24 145.345C230.501 131.863 225.525 122.439 218.988 116.128L218.923 116.064L218.857 115.999C212.355 109.497 202.097 105.42 186.262 105.42C173.339 105.42 162.863 108.991 154.26 115.795C145.641 122.861 138.629 132.923 133.51 146.534C128.685 160.196 126.137 176.665 126.137 196.148C126.137 215.345 128.534 231.724 133.097 245.458C137.875 258.91 144.809 268.872 153.631 275.905C162.064 282.327 173.294 285.936 188.145 285.936C198.625 285.936 206.902 284.237 213.332 281.285C220.254 277.937 225.532 273.448 229.434 267.84L229.459 267.803L229.484 267.767C231.66 264.696 233.481 261.284 234.924 257.498H189.791C181.783 257.498 175.291 251.006 175.291 242.998V189.791C175.291 181.783 181.783 175.291 189.791 175.291H336.693C344.701 175.291 351.193 181.783 351.193 189.791V358.823C351.193 366.831 344.701 373.323 336.693 373.323H290.751C283.133 373.323 276.814 367.427 276.286 359.827L275.418 347.334C264.617 357.406 251.465 365.328 236.172 371.21L236.12 371.23L236.068 371.25C218.719 377.714 199.561 380.856 178.729 380.856C144.503 380.856 114.433 373.272 88.96 357.648L88.917 357.622L88.874 357.595C63.607 341.761 44.1083 319.853 30.4189 292.141L30.374 292.049C17.0072 264.313 10.5 232.25 10.5 196.148C10.5001 161.198 17.2038 129.61 30.8682 101.614L30.8896 101.569L30.9121 101.524C44.947 73.4546 65.107 51.2472 91.3008 35.1279C117.741 18.5426 149.241 10.5001 185.319 10.5Z" fill="white" stroke="black" stroke-width="21"/>
<path d="M513.46 25.4282C519.598 25.4282 525.072 29.2938 527.125 35.0786L637.686 346.579C641.035 356.017 634.036 365.928 624.021 365.928H538.582C532.229 365.928 526.616 361.793 524.733 355.726L507.649 300.678H413.321L396.236 355.726C394.353 361.793 388.741 365.928 382.389 365.928H296.949C286.934 365.928 279.935 356.017 283.284 346.579L393.845 35.0786C395.898 29.2939 401.371 25.4283 407.51 25.4282H513.46ZM460.484 146.333C459.05 151.34 457.582 156.22 456.121 160.966L439.117 216.678H481.853L464.85 160.966L463.837 157.659C462.712 153.961 461.588 150.184 460.484 146.333Z" fill="white" stroke="black" stroke-width="21"/>
</svg>
