<svg width="3917" height="379" viewBox="0 0 3917 379" fill="none" xmlns="http://www.w3.org/2000/svg">
<mask id="path-1-outside-1_2751_836" maskUnits="userSpaceOnUse" x="0" y="25.7744" width="1385" height="353" fill="black">
<rect fill="white" y="25.7744" width="1385" height="353"/>
<path fill-rule="evenodd" clip-rule="evenodd" d="M777.744 66.7744L777.744 97.1744C777.744 99.3835 779.535 101.174 781.744 101.174H853.744C855.953 101.174 857.744 99.3835 857.744 97.1744V50.7744C857.744 48.5653 855.953 46.7744 853.744 46.7744H781.744C779.535 46.7744 777.744 48.5653 777.744 50.7745L777.744 66.7744ZM1221.3 355.574C1203.44 355.574 1187.97 351.041 1174.9 341.974C1162.1 332.641 1152.1 319.574 1144.9 302.774C1137.97 285.708 1134.5 265.708 1134.5 242.774C1134.5 219.841 1138.1 199.974 1145.3 183.174C1152.5 166.108 1162.64 153.041 1175.7 143.974C1188.77 134.641 1203.97 129.974 1221.3 129.974C1237.3 129.974 1250.64 133.174 1261.3 139.574C1267.03 143.008 1272.02 147.132 1276.28 151.948C1279.08 155.107 1285.7 153.251 1285.7 149.03V70.7744C1285.7 68.5653 1287.5 66.7744 1289.7 66.7744H1359.3C1361.51 66.7744 1363.3 68.5653 1363.3 70.7744V346.774C1363.3 348.984 1361.51 350.774 1359.3 350.774H1291.55C1289.4 350.774 1287.64 349.076 1287.56 346.928L1287.09 334.866C1286.93 330.75 1280.7 329.138 1278 332.254C1273.16 337.859 1267.33 342.565 1260.5 346.374C1249.3 352.508 1236.24 355.574 1221.3 355.574ZM873.424 66.7744C871.215 66.7744 869.424 68.5653 869.424 70.7744V346.774C869.424 348.984 871.215 350.774 873.424 350.774H943.824C946.033 350.774 947.824 348.984 947.824 346.774V212.747C947.824 208.726 953.09 207.218 955.218 210.63L1041.45 348.891C1042.18 350.063 1043.46 350.774 1044.84 350.774H1117.82C1120.03 350.774 1121.82 348.984 1121.82 346.774V70.7744C1121.82 68.5653 1120.03 66.7744 1117.82 66.7744H1047.42C1045.21 66.7744 1043.42 68.5653 1043.42 70.7744V212.176C1043.42 216.245 1038.06 217.716 1035.98 214.215L949.786 68.7354C949.066 67.5199 947.757 66.7744 946.344 66.7744H873.424ZM782.944 338.774C780.735 338.774 778.944 336.984 778.944 334.774V126.774C778.944 124.565 780.735 122.774 782.944 122.774H852.544C854.753 122.774 856.544 124.565 856.544 126.774V334.774C856.544 336.984 854.753 338.774 852.544 338.774H782.944ZM588.554 350.774C586.868 350.774 585.363 349.717 584.791 348.131L485.275 72.1312C484.335 69.5242 486.267 66.7744 489.038 66.7744H560.491C562.198 66.7744 563.717 67.858 564.273 69.4724L626.762 250.988C628 254.585 633.088 254.585 634.326 250.988L696.815 69.4724C697.371 67.8581 698.89 66.7744 700.597 66.7744H777.744L675.501 348.141C674.926 349.722 673.424 350.774 671.742 350.774H588.554ZM244.487 314.591L244.536 314.591C244.58 314.591 244.627 314.591 244.677 314.59C244.608 314.591 244.544 314.591 244.487 314.591ZM244.487 314.591C244.407 314.592 244.342 314.592 244.298 314.593C244.315 314.59 244.331 314.588 244.348 314.586C244.382 314.583 244.417 314.58 244.451 314.579M244.273 314.597L244.487 314.591C244.388 314.591 244.312 314.597 244.273 314.597C244.279 314.596 244.293 314.594 244.298 314.593C244.231 314.594 244.207 314.596 244.273 314.597C244.27 314.597 244.277 314.596 244.273 314.597ZM244.487 314.591C244.487 314.584 244.481 314.579 244.474 314.579ZM1238.6 301.575C1250.6 301.575 1259.8 296.641 1266.2 286.775C1272.6 276.908 1275.8 262.775 1275.8 244.375C1275.8 226.241 1272.6 212.241 1266.2 202.374C1259.8 192.241 1250.6 187.174 1238.6 187.174C1226.6 187.174 1217.4 192.241 1211 202.374C1204.6 212.241 1201.4 226.241 1201.4 244.375C1201.4 262.775 1204.6 276.908 1211 286.775C1217.4 296.641 1226.6 301.575 1238.6 301.575Z"/>
<path d="M448.679 286.775C442.279 296.641 433.079 301.575 421.079 301.575C409.079 301.575 399.879 296.641 393.479 286.775C387.079 276.908 383.879 262.775 383.879 244.375C383.879 226.241 387.079 212.241 393.479 202.374C399.879 192.241 409.079 187.174 421.079 187.174C433.079 187.174 442.279 192.241 448.679 202.374C455.079 212.241 458.279 226.241 458.279 244.375C458.279 262.775 455.079 276.908 448.679 286.775Z"/>
<path d="M1238.6 301.575C1250.6 301.575 1259.8 296.641 1266.2 286.775C1272.6 276.908 1275.8 262.775 1275.8 244.375C1275.8 226.241 1272.6 212.241 1266.2 202.374C1259.8 192.241 1250.6 187.174 1238.6 187.174C1226.6 187.174 1217.4 192.241 1211 202.374C1204.6 212.241 1201.4 226.241 1201.4 244.375C1201.4 262.775 1204.6 276.908 1211 286.775C1217.4 296.641 1226.6 301.575 1238.6 301.575Z"/>
<path fill-rule="evenodd" clip-rule="evenodd" d="M244.474 314.579C244.481 314.579 244.487 314.584 244.487 314.591L246.741 347.052C246.887 349.148 248.63 350.774 250.732 350.774H288.6C290.809 350.774 292.6 348.984 292.6 346.774V204.374C292.6 202.165 290.809 200.374 288.6 200.374H165C162.791 200.374 161 202.165 161 204.374V248.374C161 250.584 162.791 252.374 165 252.374H209.548C211.996 252.374 213.881 254.558 213.339 256.945C211.775 263.834 209.129 269.91 205.4 275.174C201.133 281.308 195.4 286.108 188.2 289.574C181.267 292.774 172.867 294.374 163 294.374C148.867 294.374 137.267 290.908 128.2 283.974C119.133 276.774 112.333 266.774 107.8 253.974C103.533 241.174 101.4 226.241 101.4 209.174C101.4 191.841 103.667 176.774 108.2 163.974C113 151.174 119.8 141.174 128.6 133.974C137.667 126.774 148.6 123.174 161.4 123.174C176.333 123.174 187.667 127.041 195.4 134.774C202.49 141.62 207.339 151.269 209.946 163.719C210.358 165.687 212.104 167.115 214.113 167.036L287.082 164.16C289.552 164.063 291.346 161.769 290.785 159.362C286.152 139.471 278.757 122.342 268.6 107.974C257.933 92.5077 243.667 80.7744 225.8 72.7744C208.2 64.5077 186.467 60.3744 160.6 60.3744C131.267 60.3744 106.2 66.9077 85.4 79.9744C64.6 92.7744 48.6 110.374 37.4 132.774C26.4667 155.174 21 180.641 21 209.174C21 238.774 26.3333 264.641 37 286.774C47.9333 308.908 63.4 326.241 83.4 338.774C103.4 351.041 127.267 357.174 155 357.174C171.8 357.174 187 354.641 200.6 349.574C214.467 344.241 225.8 336.908 234.6 327.574C236.286 325.839 237.857 323.19 239.312 320.735C241.15 317.636 242.803 314.847 244.273 314.597L243 314.598L244.451 314.579C244.459 314.579 244.466 314.579 244.474 314.579ZM359.479 343.174C377.079 352.508 397.613 357.174 421.079 357.174C444.546 357.174 464.946 352.508 482.279 343.174C499.879 333.841 513.479 320.775 523.079 303.975C532.946 286.908 537.88 267.041 537.88 244.375C537.88 221.708 532.946 201.975 523.079 185.174C513.479 168.374 499.879 155.308 482.279 145.975C464.946 136.374 444.546 131.574 421.079 131.574C397.613 131.574 377.079 136.374 359.479 145.975C342.146 155.308 328.546 168.374 318.679 185.174C309.079 201.975 304.279 221.708 304.279 244.375C304.279 267.041 309.079 286.908 318.679 303.975C328.546 320.775 342.146 333.841 359.479 343.174ZM421.079 301.575C433.079 301.575 442.279 296.641 448.679 286.775C455.079 276.908 458.279 262.775 458.279 244.375C458.279 226.241 455.079 212.241 448.679 202.374C442.279 192.241 433.079 187.174 421.079 187.174C409.079 187.174 399.879 192.241 393.479 202.374C387.079 212.241 383.879 226.241 383.879 244.375C383.879 262.775 387.079 276.908 393.479 286.775C399.879 296.641 409.079 301.575 421.079 301.575Z"/>
</mask>
<path fill-rule="evenodd" clip-rule="evenodd" d="M777.744 66.7744L777.744 97.1744C777.744 99.3835 779.535 101.174 781.744 101.174H853.744C855.953 101.174 857.744 99.3835 857.744 97.1744V50.7744C857.744 48.5653 855.953 46.7744 853.744 46.7744H781.744C779.535 46.7744 777.744 48.5653 777.744 50.7745L777.744 66.7744ZM1221.3 355.574C1203.44 355.574 1187.97 351.041 1174.9 341.974C1162.1 332.641 1152.1 319.574 1144.9 302.774C1137.97 285.708 1134.5 265.708 1134.5 242.774C1134.5 219.841 1138.1 199.974 1145.3 183.174C1152.5 166.108 1162.64 153.041 1175.7 143.974C1188.77 134.641 1203.97 129.974 1221.3 129.974C1237.3 129.974 1250.64 133.174 1261.3 139.574C1267.03 143.008 1272.02 147.132 1276.28 151.948C1279.08 155.107 1285.7 153.251 1285.7 149.03V70.7744C1285.7 68.5653 1287.5 66.7744 1289.7 66.7744H1359.3C1361.51 66.7744 1363.3 68.5653 1363.3 70.7744V346.774C1363.3 348.984 1361.51 350.774 1359.3 350.774H1291.55C1289.4 350.774 1287.64 349.076 1287.56 346.928L1287.09 334.866C1286.93 330.75 1280.7 329.138 1278 332.254C1273.16 337.859 1267.33 342.565 1260.5 346.374C1249.3 352.508 1236.24 355.574 1221.3 355.574ZM873.424 66.7744C871.215 66.7744 869.424 68.5653 869.424 70.7744V346.774C869.424 348.984 871.215 350.774 873.424 350.774H943.824C946.033 350.774 947.824 348.984 947.824 346.774V212.747C947.824 208.726 953.09 207.218 955.218 210.63L1041.45 348.891C1042.18 350.063 1043.46 350.774 1044.84 350.774H1117.82C1120.03 350.774 1121.82 348.984 1121.82 346.774V70.7744C1121.82 68.5653 1120.03 66.7744 1117.82 66.7744H1047.42C1045.21 66.7744 1043.42 68.5653 1043.42 70.7744V212.176C1043.42 216.245 1038.06 217.716 1035.98 214.215L949.786 68.7354C949.066 67.5199 947.757 66.7744 946.344 66.7744H873.424ZM782.944 338.774C780.735 338.774 778.944 336.984 778.944 334.774V126.774C778.944 124.565 780.735 122.774 782.944 122.774H852.544C854.753 122.774 856.544 124.565 856.544 126.774V334.774C856.544 336.984 854.753 338.774 852.544 338.774H782.944ZM588.554 350.774C586.868 350.774 585.363 349.717 584.791 348.131L485.275 72.1312C484.335 69.5242 486.267 66.7744 489.038 66.7744H560.491C562.198 66.7744 563.717 67.858 564.273 69.4724L626.762 250.988C628 254.585 633.088 254.585 634.326 250.988L696.815 69.4724C697.371 67.8581 698.89 66.7744 700.597 66.7744H777.744L675.501 348.141C674.926 349.722 673.424 350.774 671.742 350.774H588.554ZM244.487 314.591L244.536 314.591C244.58 314.591 244.627 314.591 244.677 314.59C244.608 314.591 244.544 314.591 244.487 314.591ZM244.487 314.591C244.407 314.592 244.342 314.592 244.298 314.593C244.315 314.59 244.331 314.588 244.348 314.586C244.382 314.583 244.417 314.58 244.451 314.579M244.273 314.597L244.487 314.591C244.388 314.591 244.312 314.597 244.273 314.597C244.279 314.596 244.293 314.594 244.298 314.593C244.231 314.594 244.207 314.596 244.273 314.597C244.27 314.597 244.277 314.596 244.273 314.597ZM244.487 314.591C244.487 314.584 244.481 314.579 244.474 314.579ZM1238.6 301.575C1250.6 301.575 1259.8 296.641 1266.2 286.775C1272.6 276.908 1275.8 262.775 1275.8 244.375C1275.8 226.241 1272.6 212.241 1266.2 202.374C1259.8 192.241 1250.6 187.174 1238.6 187.174C1226.6 187.174 1217.4 192.241 1211 202.374C1204.6 212.241 1201.4 226.241 1201.4 244.375C1201.4 262.775 1204.6 276.908 1211 286.775C1217.4 296.641 1226.6 301.575 1238.6 301.575Z" fill="black" fill-opacity="0.01"/>
<path d="M448.679 286.775C442.279 296.641 433.079 301.575 421.079 301.575C409.079 301.575 399.879 296.641 393.479 286.775C387.079 276.908 383.879 262.775 383.879 244.375C383.879 226.241 387.079 212.241 393.479 202.374C399.879 192.241 409.079 187.174 421.079 187.174C433.079 187.174 442.279 192.241 448.679 202.374C455.079 212.241 458.279 226.241 458.279 244.375C458.279 262.775 455.079 276.908 448.679 286.775Z" fill="black" fill-opacity="0.01"/>
<path d="M1238.6 301.575C1250.6 301.575 1259.8 296.641 1266.2 286.775C1272.6 276.908 1275.8 262.775 1275.8 244.375C1275.8 226.241 1272.6 212.241 1266.2 202.374C1259.8 192.241 1250.6 187.174 1238.6 187.174C1226.6 187.174 1217.4 192.241 1211 202.374C1204.6 212.241 1201.4 226.241 1201.4 244.375C1201.4 262.775 1204.6 276.908 1211 286.775C1217.4 296.641 1226.6 301.575 1238.6 301.575Z" fill="black" fill-opacity="0.01"/>
<path fill-rule="evenodd" clip-rule="evenodd" d="M244.474 314.579C244.481 314.579 244.487 314.584 244.487 314.591L246.741 347.052C246.887 349.148 248.63 350.774 250.732 350.774H288.6C290.809 350.774 292.6 348.984 292.6 346.774V204.374C292.6 202.165 290.809 200.374 288.6 200.374H165C162.791 200.374 161 202.165 161 204.374V248.374C161 250.584 162.791 252.374 165 252.374H209.548C211.996 252.374 213.881 254.558 213.339 256.945C211.775 263.834 209.129 269.91 205.4 275.174C201.133 281.308 195.4 286.108 188.2 289.574C181.267 292.774 172.867 294.374 163 294.374C148.867 294.374 137.267 290.908 128.2 283.974C119.133 276.774 112.333 266.774 107.8 253.974C103.533 241.174 101.4 226.241 101.4 209.174C101.4 191.841 103.667 176.774 108.2 163.974C113 151.174 119.8 141.174 128.6 133.974C137.667 126.774 148.6 123.174 161.4 123.174C176.333 123.174 187.667 127.041 195.4 134.774C202.49 141.62 207.339 151.269 209.946 163.719C210.358 165.687 212.104 167.115 214.113 167.036L287.082 164.16C289.552 164.063 291.346 161.769 290.785 159.362C286.152 139.471 278.757 122.342 268.6 107.974C257.933 92.5077 243.667 80.7744 225.8 72.7744C208.2 64.5077 186.467 60.3744 160.6 60.3744C131.267 60.3744 106.2 66.9077 85.4 79.9744C64.6 92.7744 48.6 110.374 37.4 132.774C26.4667 155.174 21 180.641 21 209.174C21 238.774 26.3333 264.641 37 286.774C47.9333 308.908 63.4 326.241 83.4 338.774C103.4 351.041 127.267 357.174 155 357.174C171.8 357.174 187 354.641 200.6 349.574C214.467 344.241 225.8 336.908 234.6 327.574C236.286 325.839 237.857 323.19 239.312 320.735C241.15 317.636 242.803 314.847 244.273 314.597L243 314.598L244.451 314.579C244.459 314.579 244.466 314.579 244.474 314.579ZM359.479 343.174C377.079 352.508 397.613 357.174 421.079 357.174C444.546 357.174 464.946 352.508 482.279 343.174C499.879 333.841 513.479 320.775 523.079 303.975C532.946 286.908 537.88 267.041 537.88 244.375C537.88 221.708 532.946 201.975 523.079 185.174C513.479 168.374 499.879 155.308 482.279 145.975C464.946 136.374 444.546 131.574 421.079 131.574C397.613 131.574 377.079 136.374 359.479 145.975C342.146 155.308 328.546 168.374 318.679 185.174C309.079 201.975 304.279 221.708 304.279 244.375C304.279 267.041 309.079 286.908 318.679 303.975C328.546 320.775 342.146 333.841 359.479 343.174ZM421.079 301.575C433.079 301.575 442.279 296.641 448.679 286.775C455.079 276.908 458.279 262.775 458.279 244.375C458.279 226.241 455.079 212.241 448.679 202.374C442.279 192.241 433.079 187.174 421.079 187.174C409.079 187.174 399.879 192.241 393.479 202.374C387.079 212.241 383.879 226.241 383.879 244.375C383.879 262.775 387.079 276.908 393.479 286.775C399.879 296.641 409.079 301.575 421.079 301.575Z" fill="black" fill-opacity="0.01"/>
<path d="M1266.2 202.374L1257.32 207.981L1257.36 208.035L1257.39 208.089L1266.2 202.374ZM1211 202.374L1219.81 208.089L1219.84 208.035L1219.88 207.981L1211 202.374ZM393.479 202.374L402.289 208.089L402.323 208.035L402.357 207.981L393.479 202.374ZM448.679 202.374L439.802 207.981L439.836 208.035L439.87 208.089L448.679 202.374ZM1238.6 301.575V312.075C1254.07 312.075 1266.63 305.413 1275.01 292.489L1266.2 286.775L1257.39 281.06C1252.97 287.87 1247.13 291.075 1238.6 291.075V301.575ZM1266.2 286.775L1275.01 292.489C1282.97 280.212 1286.3 263.749 1286.3 244.375H1275.8H1265.3C1265.3 261.8 1262.23 273.604 1257.39 281.06L1266.2 286.775ZM1275.8 244.375H1286.3C1286.3 225.23 1282.96 208.918 1275.01 196.66L1266.2 202.374L1257.39 208.089C1262.24 215.565 1265.3 227.252 1265.3 244.375H1275.8ZM1266.2 202.374L1275.08 196.768C1266.75 183.584 1254.2 176.674 1238.6 176.674V187.174V197.674C1247 197.674 1252.85 200.899 1257.32 207.981L1266.2 202.374ZM1238.6 187.174V176.674C1223 176.674 1210.45 183.584 1202.12 196.768L1211 202.374L1219.88 207.981C1224.35 200.899 1230.2 197.674 1238.6 197.674V187.174ZM1211 202.374L1202.19 196.66C1194.24 208.918 1190.9 225.23 1190.9 244.375H1201.4H1211.9C1211.9 227.252 1214.96 215.565 1219.81 208.089L1211 202.374ZM1201.4 244.375H1190.9C1190.9 263.749 1194.23 280.212 1202.19 292.489L1211 286.775L1219.81 281.06C1214.97 273.604 1211.9 261.8 1211.9 244.375H1201.4ZM1211 286.775L1202.19 292.489C1210.57 305.413 1223.13 312.075 1238.6 312.075V301.575V291.075C1230.07 291.075 1224.23 287.87 1219.81 281.06L1211 286.775ZM448.679 286.775L439.87 281.061C435.454 287.87 429.61 291.075 421.079 291.075V301.575V312.075C436.549 312.075 449.105 305.413 457.489 292.489L448.679 286.775ZM421.079 301.575V291.075C412.549 291.075 406.705 287.87 402.289 281.061L393.479 286.775L384.67 292.489C393.054 305.413 405.61 312.075 421.079 312.075V301.575ZM393.479 286.775L402.289 281.061C397.452 273.604 394.379 261.8 394.379 244.375H383.879H373.379C373.379 263.749 376.707 280.212 384.67 292.489L393.479 286.775ZM383.879 244.375H394.379C394.379 227.252 397.439 215.565 402.289 208.089L393.479 202.374L384.67 196.66C376.72 208.918 373.379 225.23 373.379 244.375H383.879ZM393.479 202.374L402.357 207.981C406.83 200.899 412.677 197.674 421.079 197.674V187.174V176.674C405.482 176.674 392.929 183.584 384.602 196.768L393.479 202.374ZM421.079 187.174V197.674C429.482 197.674 435.329 200.899 439.802 207.981L448.679 202.374L457.557 196.768C449.23 183.584 436.677 176.674 421.079 176.674V187.174ZM448.679 202.374L439.87 208.089C444.72 215.565 447.779 227.252 447.779 244.375H458.279H468.779C468.779 225.23 465.439 208.918 457.489 196.66L448.679 202.374ZM458.279 244.375H447.779C447.779 261.8 444.707 273.604 439.87 281.061L448.679 286.775L457.489 292.489C465.452 280.212 468.779 263.749 468.779 244.375H458.279ZM244.487 314.591L254.962 313.859C254.579 308.376 250 304.031 244.384 304.079L244.474 314.579L244.564 325.078C238.962 325.126 234.395 320.793 234.013 315.323L244.487 314.591ZM777.744 66.7744L798.744 66.7745V66.7742L777.744 66.7744ZM1174.9 341.974L1162.53 358.943L1162.73 359.088L1162.93 359.228L1174.9 341.974ZM1144.9 302.774L1125.45 310.678L1125.52 310.863L1125.6 311.047L1144.9 302.774ZM1145.3 183.174L1164.61 191.447L1164.63 191.392L1164.65 191.337L1145.3 183.174ZM1175.7 143.974L1187.68 161.228L1187.79 161.146L1187.91 161.063L1175.7 143.974ZM1261.3 139.574L1250.5 157.582V157.582L1261.3 139.574ZM1260.5 346.374L1270.59 364.793L1270.67 364.753L1270.74 364.712L1260.5 346.374ZM244.536 314.591L244.655 335.591L244.666 335.591L244.536 314.591ZM244.677 314.59L244.793 335.59L244.565 293.591L244.677 314.59ZM244.348 314.586L242.014 293.716L241.998 293.718L241.982 293.72L244.348 314.586ZM244.451 314.579L245.027 335.571L245.04 335.571L245.053 335.571L244.451 314.579ZM205.4 275.174L188.263 263.036L188.212 263.109L188.161 263.182L205.4 275.174ZM188.2 289.574L197 308.642L197.156 308.57L197.31 308.495L188.2 289.574ZM128.2 283.974L115.14 300.42L115.291 300.539L115.444 300.656L128.2 283.974ZM107.8 253.974L87.8777 260.615L87.9395 260.801L88.0048 260.985L107.8 253.974ZM108.2 163.974L88.5371 156.601L88.4693 156.782L88.4048 156.964L108.2 163.974ZM128.6 133.974L115.54 117.529L115.421 117.624L115.302 117.721L128.6 133.974ZM195.4 134.774L180.551 149.624L180.681 149.754L180.814 149.882L195.4 134.774ZM268.6 107.974L251.313 119.897L251.382 119.997L251.452 120.096L268.6 107.974ZM225.8 72.7744L216.872 91.7821L217.044 91.863L217.218 91.9408L225.8 72.7744ZM85.4 79.9744L96.4061 97.8592L96.4887 97.8083L96.5709 97.7567L85.4 79.9744ZM37.4 132.774L18.617 123.383L18.5721 123.473L18.528 123.563L37.4 132.774ZM37 286.774L18.0823 295.891L18.1266 295.983L18.1719 296.075L37 286.774ZM83.4 338.774L72.2487 356.569L72.3344 356.623L72.4206 356.676L83.4 338.774ZM200.6 349.574L207.931 369.253L208.035 369.214L208.139 369.175L200.6 349.574ZM234.6 327.574L219.537 312.942L219.428 313.054L219.321 313.168L234.6 327.574ZM239.312 320.735L257.376 331.445V331.445L239.312 320.735ZM243 314.598L242.726 293.6L243.021 335.598L243 314.598ZM359.479 343.174L349.523 361.664L349.582 361.696L349.641 361.727L359.479 343.174ZM482.279 343.174L472.441 324.622L472.382 324.653L472.323 324.685L482.279 343.174ZM523.079 303.975L504.899 293.464L504.873 293.51L504.846 293.556L523.079 303.975ZM523.079 185.174L504.846 195.593L504.908 195.702L504.971 195.809L523.079 185.174ZM482.279 145.975L472.105 164.345L472.272 164.438L472.441 164.527L482.279 145.975ZM359.479 145.975L369.436 164.464L369.486 164.437L369.535 164.41L359.479 145.975ZM318.679 185.174L300.571 174.54L300.508 174.647L300.446 174.756L318.679 185.174ZM318.679 303.975L300.376 314.27L300.472 314.441L300.571 314.609L318.679 303.975ZM675.501 348.141L695.238 355.313L675.501 348.141ZM696.815 69.4724L676.959 62.6366L696.815 69.4724ZM626.762 250.988L646.618 244.152L626.762 250.988ZM634.326 250.988L654.182 257.824V257.824L634.326 250.988ZM564.273 69.4724L584.129 62.6366L564.273 69.4724ZM485.275 72.1312L505.03 65.0082L485.275 72.1312ZM287.082 164.16L287.909 185.144L287.082 164.16ZM290.785 159.362L270.333 164.127L290.785 159.362ZM584.791 348.131L604.546 341.008L584.791 348.131ZM209.946 163.719L189.392 168.023L209.946 163.719ZM214.113 167.036L213.286 146.052L214.113 167.036ZM949.786 68.7354L967.853 58.0308L949.786 68.7354ZM1035.98 214.215L1017.92 224.92L1035.98 214.215ZM955.218 210.63L973.036 199.517L955.218 210.63ZM213.339 256.945L192.86 252.296L213.339 256.945ZM1287.09 334.866L1266.11 335.673L1287.09 334.866ZM1278 332.254L1293.9 345.982L1278 332.254ZM246.741 347.052L267.691 345.597L246.741 347.052ZM1287.56 346.928L1266.57 347.735L1287.56 346.928ZM777.744 50.7745L798.744 50.7743L777.744 50.7745ZM1276.28 151.948L1260.56 165.87L1276.28 151.948ZM1041.45 348.891L1059.27 337.778L1041.45 348.891ZM777.744 97.1744L798.744 97.1745L777.744 97.1744ZM777.744 66.7744L756.744 66.7743L756.744 97.1743L777.744 97.1744L798.744 97.1745L798.744 66.7745L777.744 66.7744ZM781.744 101.174V122.174H853.744V101.174V80.1744H781.744V101.174ZM857.744 97.1744H878.744V50.7744H857.744H836.744V97.1744H857.744ZM853.744 46.7744V25.7744H781.744V46.7744V67.7744H853.744V46.7744ZM777.744 50.7745L756.744 50.7746L756.744 66.7746L777.744 66.7744L798.744 66.7742L798.744 50.7743L777.744 50.7745ZM1221.3 355.574V334.574C1207.17 334.574 1196 331.053 1186.88 324.721L1174.9 341.974L1162.93 359.228C1179.94 371.029 1199.71 376.574 1221.3 376.574V355.574ZM1174.9 341.974L1187.28 325.006C1177.97 318.22 1170.15 308.375 1164.21 294.502L1144.9 302.774L1125.6 311.047C1134.06 330.774 1146.24 347.063 1162.53 358.943L1174.9 341.974ZM1144.9 302.774L1164.36 294.87C1158.66 280.847 1155.5 263.639 1155.5 242.774H1134.5H1113.5C1113.5 267.776 1117.28 290.569 1125.45 310.678L1144.9 302.774ZM1134.5 242.774H1155.5C1155.5 221.985 1158.77 205.058 1164.61 191.447L1145.3 183.174L1126 174.902C1117.44 194.891 1113.5 217.697 1113.5 242.774H1134.5ZM1145.3 183.174L1164.65 191.337C1170.57 177.323 1178.39 167.672 1187.68 161.228L1175.7 143.974L1163.73 126.721C1146.89 138.41 1134.44 154.892 1125.96 175.012L1145.3 183.174ZM1175.7 143.974L1187.91 161.063C1197.13 154.479 1207.98 150.974 1221.3 150.974V129.974V108.974C1199.96 108.974 1180.41 114.803 1163.5 126.886L1175.7 143.974ZM1221.3 129.974V150.974C1234.57 150.974 1243.91 153.626 1250.5 157.582L1261.3 139.574L1272.11 121.567C1257.37 112.723 1240.04 108.974 1221.3 108.974V129.974ZM1261.3 139.574L1250.5 157.582C1254.45 159.954 1257.77 162.719 1260.56 165.87L1276.28 151.948L1292.01 138.025C1286.27 131.546 1279.6 126.062 1272.11 121.567L1261.3 139.574ZM1285.7 149.03H1306.7V70.7744H1285.7H1264.7V149.03H1285.7ZM1289.7 66.7744V87.7744H1359.3V66.7744V45.7744H1289.7V66.7744ZM1363.3 70.7744H1342.3V346.774H1363.3H1384.3V70.7744H1363.3ZM1359.3 350.774V329.774H1291.55V350.774V371.774H1359.3V350.774ZM1287.56 346.928L1308.54 346.121L1308.08 334.059L1287.09 334.866L1266.11 335.673L1266.57 347.735L1287.56 346.928ZM1278 332.254L1262.11 318.527C1258.96 322.175 1255.07 325.356 1250.27 328.037L1260.5 346.374L1270.74 364.712C1279.58 359.775 1287.36 353.542 1293.9 345.982L1278 332.254ZM1260.5 346.374L1250.42 327.955C1242.8 332.129 1233.31 334.574 1221.3 334.574V355.574V376.574C1239.16 376.574 1255.81 372.887 1270.59 364.793L1260.5 346.374ZM869.424 70.7744H848.424V346.774H869.424H890.424V70.7744H869.424ZM873.424 350.774V371.774H943.824V350.774V329.774H873.424V350.774ZM947.824 346.774H968.824V212.747H947.824H926.824V346.774H947.824ZM955.218 210.63L937.399 221.743L1023.63 360.004L1041.45 348.891L1059.27 337.778L973.036 199.517L955.218 210.63ZM1044.84 350.774V371.774H1117.82V350.774V329.774H1044.84V350.774ZM1121.82 346.774H1142.82V70.7744H1121.82H1100.82V346.774H1121.82ZM1117.82 66.7744V45.7744H1047.42V66.7744V87.7744H1117.82V66.7744ZM1043.42 70.7744H1022.42V212.176H1043.42H1064.42V70.7744H1043.42ZM1035.98 214.215L1054.05 203.511L967.853 58.0308L949.786 68.7354L931.719 79.4401L1017.92 224.92L1035.98 214.215ZM946.344 66.7744V45.7744H873.424V66.7744V87.7744H946.344V66.7744ZM778.944 334.774H799.944V126.774H778.944H757.944V334.774H778.944ZM782.944 122.774V143.774H852.544V122.774V101.774H782.944V122.774ZM856.544 126.774H835.544V334.774H856.544H877.544V126.774H856.544ZM852.544 338.774V317.774H782.944V338.774V359.774H852.544V338.774ZM584.791 348.131L604.546 341.008L505.03 65.0082L485.275 72.1312L465.52 79.2542L565.036 355.254L584.791 348.131ZM489.038 66.7744V87.7744H560.491V66.7744V45.7744H489.038V66.7744ZM564.273 69.4724L544.416 76.3081L606.906 257.824L626.762 250.988L646.618 244.152L584.129 62.6366L564.273 69.4724ZM634.326 250.988L654.182 257.824L716.671 76.3081L696.815 69.4724L676.959 62.6366L614.47 244.152L634.326 250.988ZM700.597 66.7744V87.7744H777.744V66.7744V45.7744H700.597V66.7744ZM777.744 66.7744L758.007 59.6023L655.764 340.968L675.501 348.141L695.238 355.313L797.481 73.9466L777.744 66.7744ZM671.742 350.774V329.774H588.554V350.774V371.774H671.742V350.774ZM244.487 314.591L244.607 335.591L244.655 335.591L244.536 314.591L244.416 293.591L244.368 293.592L244.487 314.591ZM244.536 314.591L244.666 335.591C244.704 335.59 244.746 335.59 244.793 335.59L244.677 314.59L244.561 293.591C244.508 293.591 244.455 293.591 244.405 293.592L244.536 314.591ZM244.677 314.59L244.565 293.591C244.492 293.591 244.42 293.591 244.352 293.592L244.487 314.591L244.622 335.591C244.669 335.591 244.725 335.59 244.789 335.59L244.677 314.59ZM244.487 314.591L244.351 293.592C244.278 293.592 244.157 293.593 244.048 293.594L244.298 314.593L244.549 335.591C244.537 335.592 244.531 335.592 244.532 335.592C244.533 335.592 244.537 335.592 244.545 335.591C244.563 335.591 244.588 335.591 244.624 335.591L244.487 314.591ZM244.298 314.593L247.419 335.36C247.186 335.395 246.951 335.426 246.713 335.453L244.348 314.586L241.982 293.72C241.711 293.751 241.443 293.786 241.177 293.826L244.298 314.593ZM244.348 314.586L246.681 335.456C246.139 335.517 245.587 335.556 245.027 335.571L244.451 314.579L243.875 293.587C243.247 293.604 242.626 293.648 242.014 293.716L244.348 314.586ZM244.273 314.597L244.813 335.59L245.027 335.584L244.487 314.591L243.948 293.598L243.734 293.604L244.273 314.597ZM244.487 314.591L244.584 293.592C244.322 293.59 244.092 293.594 243.905 293.598C243.72 293.603 243.572 293.609 243.495 293.612C243.476 293.613 243.459 293.613 243.45 293.614C243.445 293.614 243.44 293.614 243.438 293.614C243.436 293.614 243.436 293.614 243.435 293.614C243.435 293.614 243.434 293.614 243.435 293.614C243.435 293.614 243.437 293.614 243.44 293.614C243.443 293.614 243.449 293.614 243.456 293.614C243.469 293.613 243.491 293.612 243.521 293.611C243.55 293.61 243.591 293.608 243.64 293.607C243.69 293.605 243.754 293.603 243.83 293.602C243.906 293.6 244.002 293.598 244.113 293.598C244.169 293.597 244.231 293.597 244.299 293.597C244.366 293.597 244.441 293.597 244.522 293.598L244.273 314.597L244.025 335.595C244.19 335.597 244.334 335.597 244.45 335.596C244.566 335.595 244.668 335.594 244.749 335.592C244.906 335.588 245.032 335.584 245.098 335.581C245.164 335.579 245.219 335.576 245.229 335.576C245.254 335.575 245.234 335.576 245.22 335.576C245.132 335.58 244.81 335.593 244.391 335.591L244.487 314.591ZM244.273 314.597L247.665 335.321C247.649 335.324 247.638 335.326 247.634 335.326C247.628 335.327 247.621 335.328 247.614 335.33C247.607 335.331 247.594 335.333 247.577 335.335C247.568 335.337 247.554 335.339 247.536 335.342C247.521 335.344 247.487 335.349 247.444 335.356L244.298 314.593L241.152 293.83C241.078 293.841 241.018 293.851 241.009 293.852C240.988 293.856 240.969 293.858 240.958 293.86C240.939 293.863 240.912 293.868 240.882 293.873L244.273 314.597ZM244.298 314.593L244.049 293.594C243.938 293.596 243.771 293.598 243.572 293.605C243.478 293.608 243.308 293.614 243.099 293.626C243.065 293.627 242.382 293.66 241.54 293.769C241.291 293.801 240.798 293.869 240.182 293.99C239.908 294.044 238.168 294.367 236.108 295.231C235.355 295.547 232.308 296.82 229.378 299.753C227.763 301.37 225.392 304.277 224.104 308.616C222.689 313.377 223.05 318.311 224.821 322.603C227.74 329.68 233.409 332.617 234.275 333.084C236.06 334.045 237.582 334.525 238.208 334.712C239.581 335.124 240.69 335.297 241.01 335.347C241.491 335.421 241.877 335.464 242.094 335.486C242.532 335.531 242.878 335.552 243.028 335.561C243.559 335.592 243.994 335.595 244.022 335.595L244.273 314.597L244.525 293.598C244.58 293.599 244.674 293.6 244.792 293.603C244.878 293.606 245.129 293.612 245.452 293.631C245.599 293.64 245.942 293.661 246.378 293.705C246.595 293.727 246.981 293.77 247.46 293.845C247.779 293.894 248.888 294.067 250.262 294.479C250.887 294.666 252.409 295.146 254.194 296.107C255.06 296.574 260.729 299.511 263.648 306.588C265.418 310.88 265.779 315.814 264.365 320.575C263.076 324.913 260.706 327.821 259.091 329.437C256.161 332.37 253.114 333.643 252.361 333.959C250.301 334.823 248.562 335.146 248.288 335.2C247.672 335.321 247.18 335.389 246.932 335.421C246.093 335.53 245.415 335.562 245.388 335.563C245.186 335.574 245.026 335.58 244.942 335.583C244.764 335.588 244.625 335.591 244.547 335.591L244.298 314.593ZM244.273 314.597L247.789 335.301C247.796 335.299 247.808 335.297 247.823 335.295C247.834 335.293 247.864 335.288 247.902 335.281C247.92 335.278 247.958 335.271 248.007 335.262C248.031 335.258 248.071 335.251 248.12 335.242C248.146 335.237 248.179 335.231 248.219 335.223C248.257 335.216 248.313 335.205 248.381 335.191C248.416 335.184 248.459 335.176 248.509 335.165C248.558 335.155 248.623 335.142 248.699 335.125C248.772 335.11 248.879 335.086 249.008 335.056C249.063 335.043 249.184 335.015 249.25 334.999C249.329 334.979 249.506 334.935 249.603 334.91C249.726 334.877 250.007 334.799 250.166 334.753C250.381 334.689 250.901 334.524 251.204 334.421C251.671 334.251 252.925 333.732 253.701 333.362C255.295 332.473 260.612 327.791 263.386 323.3C265.065 311.641 256.001 297.176 250.956 294.688C249.118 294.163 246.355 293.7 245.468 293.631C244.959 293.608 244.123 293.597 243.796 293.602C243.567 293.609 243.172 293.626 243.004 293.635C242.876 293.643 242.646 293.66 242.545 293.668C242.462 293.675 242.312 293.689 242.245 293.695C242.188 293.701 242.082 293.711 242.034 293.717C241.992 293.721 241.914 293.73 241.877 293.734C241.79 293.744 241.715 293.753 241.661 293.76C241.605 293.767 241.556 293.773 241.518 293.778C241.443 293.788 241.382 293.797 241.341 293.803C241.299 293.809 241.263 293.814 241.236 293.818C241.184 293.825 241.142 293.832 241.116 293.836C241.089 293.84 241.066 293.843 241.05 293.846C241.018 293.851 240.992 293.855 240.977 293.857C240.947 293.862 240.924 293.866 240.912 293.868C240.887 293.872 240.866 293.875 240.853 293.877C240.839 293.88 240.819 293.883 240.794 293.887C240.782 293.889 240.759 293.893 240.729 293.898C240.714 293.901 240.689 293.905 240.657 293.911C240.641 293.913 240.618 293.917 240.591 293.922C240.566 293.927 240.524 293.934 240.473 293.944C240.447 293.948 240.412 293.955 240.37 293.963C240.33 293.97 240.271 293.982 240.198 293.996C240.161 294.003 240.114 294.013 240.06 294.024C240.007 294.035 239.936 294.049 239.853 294.067C239.773 294.085 239.652 294.111 239.506 294.145C239.442 294.16 239.303 294.194 239.227 294.212C239.133 294.236 238.923 294.29 238.806 294.321C238.656 294.362 238.304 294.463 238.102 294.524C237.82 294.613 237.113 294.855 236.691 295.013C235.989 295.3 233.938 296.316 232.634 297.117C229.441 299.73 223.298 313.571 225.763 324.517C230.184 330.17 238.444 334.772 240.71 335.293C241.72 335.441 243.301 335.575 243.866 335.593C244.222 335.597 244.823 335.59 245.068 335.582C245.246 335.574 245.559 335.558 245.695 335.549C245.801 335.541 245.993 335.526 246.079 335.519C246.149 335.513 246.279 335.501 246.338 335.495C246.475 335.482 246.589 335.469 246.665 335.46C246.745 335.451 246.812 335.443 246.863 335.437C246.915 335.43 246.96 335.424 246.996 335.42C247.066 335.411 247.124 335.403 247.163 335.397C247.203 335.392 247.238 335.387 247.263 335.383C247.314 335.376 247.354 335.37 247.379 335.366C247.428 335.359 247.467 335.353 247.485 335.35C247.524 335.344 247.554 335.339 247.565 335.337C247.58 335.335 247.592 335.333 247.599 335.332L244.273 314.597L240.948 293.862C240.955 293.861 240.967 293.859 240.981 293.857C240.992 293.855 241.022 293.85 241.06 293.844C241.078 293.841 241.117 293.835 241.166 293.828C241.191 293.824 241.231 293.818 241.282 293.811C241.307 293.807 241.342 293.803 241.382 293.797C241.421 293.791 241.479 293.784 241.549 293.774C241.585 293.77 241.63 293.764 241.682 293.757C241.733 293.751 241.8 293.743 241.88 293.734C241.957 293.725 242.07 293.712 242.207 293.699C242.266 293.693 242.396 293.681 242.466 293.675C242.552 293.668 242.744 293.653 242.85 293.645C242.986 293.636 243.299 293.62 243.477 293.612C243.722 293.604 244.323 293.597 244.679 293.601C245.245 293.62 246.826 293.753 247.835 293.901C250.101 294.422 258.361 299.024 262.782 304.677C265.247 315.623 259.104 329.464 255.911 332.077C254.607 332.878 252.556 333.894 251.854 334.181C251.432 334.339 250.725 334.581 250.443 334.67C250.241 334.731 249.889 334.832 249.739 334.873C249.622 334.904 249.412 334.958 249.319 334.982C249.242 335.001 249.103 335.034 249.04 335.049C248.893 335.083 248.772 335.109 248.692 335.127C248.609 335.145 248.538 335.159 248.485 335.17C248.431 335.181 248.384 335.191 248.347 335.198C248.275 335.212 248.215 335.224 248.175 335.231C248.134 335.239 248.098 335.246 248.072 335.25C248.021 335.26 247.979 335.267 247.954 335.272C247.927 335.277 247.905 335.281 247.888 335.283C247.857 335.289 247.831 335.293 247.817 335.296C247.787 335.301 247.763 335.305 247.752 335.307C247.727 335.311 247.707 335.314 247.694 335.316C247.681 335.319 247.661 335.322 247.636 335.326C247.625 335.328 247.601 335.332 247.571 335.336C247.557 335.339 247.531 335.343 247.499 335.348C247.483 335.35 247.46 335.354 247.433 335.358C247.407 335.362 247.365 335.368 247.313 335.376C247.286 335.38 247.25 335.385 247.208 335.391C247.167 335.397 247.106 335.405 247.031 335.415C246.993 335.42 246.944 335.426 246.888 335.433C246.833 335.44 246.759 335.449 246.672 335.459C246.635 335.464 246.557 335.472 246.515 335.477C246.467 335.482 246.361 335.493 246.304 335.498C246.236 335.505 246.086 335.518 246.004 335.525C245.903 335.533 245.673 335.55 245.545 335.558C245.377 335.568 244.982 335.585 244.753 335.591C244.426 335.596 243.59 335.586 243.08 335.563C242.194 335.493 239.431 335.031 237.592 334.505C232.548 332.018 223.483 317.552 225.163 305.894C227.937 301.402 233.254 296.721 234.848 295.831C235.624 295.461 236.878 294.942 237.345 294.773C237.648 294.67 238.168 294.504 238.383 294.44C238.541 294.394 238.823 294.317 238.946 294.284C239.043 294.259 239.22 294.214 239.299 294.195C239.365 294.179 239.485 294.15 239.541 294.137C239.67 294.107 239.777 294.084 239.85 294.068C239.926 294.052 239.991 294.038 240.04 294.028C240.09 294.018 240.133 294.009 240.168 294.002C240.236 293.989 240.292 293.978 240.33 293.971C240.369 293.963 240.403 293.957 240.428 293.952C240.478 293.943 240.517 293.936 240.542 293.931C240.59 293.922 240.629 293.916 240.647 293.912C240.685 293.906 240.714 293.901 240.725 293.899C240.739 293.896 240.751 293.894 240.758 293.893L244.273 314.597ZM244.487 314.591L223.538 316.046L225.792 348.506L246.741 347.052L267.691 345.597L265.437 313.137L244.487 314.591ZM250.732 350.774V371.774H288.6V350.774V329.774H250.732V350.774ZM292.6 346.774H313.6V204.374H292.6H271.6V346.774H292.6ZM288.6 200.374V179.374H165V200.374V221.374H288.6V200.374ZM161 204.374H140V248.374H161H182V204.374H161ZM165 252.374V273.374H209.548V252.374V231.374H165V252.374ZM213.339 256.945L192.86 252.296C191.849 256.749 190.251 260.229 188.263 263.036L205.4 275.174L222.537 287.313C228.006 279.59 231.701 270.918 233.818 261.594L213.339 256.945ZM205.4 275.174L188.161 263.182C186.105 266.137 183.263 268.644 179.09 270.653L188.2 289.574L197.31 308.495C207.537 303.571 216.161 296.478 222.639 287.167L205.4 275.174ZM188.2 289.574L179.4 270.507C175.907 272.119 170.681 273.374 163 273.374V294.374V315.374C175.052 315.374 186.626 313.43 197 308.642L188.2 289.574ZM163 294.374V273.374C152.356 273.374 145.56 270.813 140.956 267.293L128.2 283.974L115.444 300.656C128.974 311.002 145.377 315.374 163 315.374V294.374ZM128.2 283.974L141.26 267.529C135.779 263.177 131.044 256.701 127.595 246.964L107.8 253.974L88.0048 260.985C93.6228 276.848 102.488 290.372 115.14 300.42L128.2 283.974ZM107.8 253.974L127.722 247.334C124.33 237.156 122.4 224.554 122.4 209.174H101.4H80.4C80.4 227.928 82.737 245.193 87.8777 260.615L107.8 253.974ZM101.4 209.174H122.4C122.4 193.601 124.445 181.009 127.995 170.985L108.2 163.974L88.4048 156.964C82.8882 172.54 80.4 190.081 80.4 209.174H101.4ZM108.2 163.974L127.863 171.348C131.625 161.315 136.496 154.648 141.898 150.227L128.6 133.974L115.302 117.721C103.104 127.701 94.3747 141.034 88.5371 156.601L108.2 163.974ZM128.6 133.974L141.66 150.42C146.616 146.483 152.811 144.174 161.4 144.174V123.174V102.174C144.389 102.174 128.717 107.065 115.54 117.529L128.6 133.974ZM161.4 123.174V144.174C172.849 144.174 178.019 147.092 180.551 149.624L195.4 134.774L210.249 119.925C197.315 106.991 179.818 102.174 161.4 102.174V123.174ZM195.4 134.774L180.814 149.882C184.108 153.063 187.398 158.502 189.392 168.023L209.946 163.719L230.5 159.415C227.28 144.035 220.873 130.178 209.986 119.667L195.4 134.774ZM214.113 167.036L214.939 188.02L287.909 185.144L287.082 164.16L286.255 143.177L213.286 146.052L214.113 167.036ZM290.785 159.362L311.238 154.598C306.086 132.483 297.702 112.763 285.748 95.8524L268.6 107.974L251.452 120.096C259.811 131.922 266.217 146.459 270.333 164.127L290.785 159.362ZM268.6 107.974L285.887 96.052C272.943 77.2828 255.605 63.1109 234.382 53.608L225.8 72.7744L217.218 91.9408C231.728 98.4379 242.923 107.733 251.313 119.897L268.6 107.974ZM225.8 72.7744L234.728 53.7667C213.572 43.8297 188.582 39.3744 160.6 39.3744V60.3744V81.3744C184.352 81.3744 202.828 85.1857 216.872 91.7821L225.8 72.7744ZM160.6 60.3744V39.3744C128.09 39.3744 98.9767 46.6455 74.2291 62.1921L85.4 79.9744L96.5709 97.7567C113.423 87.1699 134.444 81.3744 160.6 81.3744V60.3744ZM85.4 79.9744L74.3939 62.0896C50.1727 76.995 31.5204 97.5763 18.617 123.383L37.4 132.774L56.183 142.166C65.6796 123.173 79.0273 108.554 96.4061 97.8592L85.4 79.9744ZM37.4 132.774L18.528 123.563C6.00459 149.221 0 177.912 0 209.174H21H42C42 183.37 46.9287 161.128 56.272 141.986L37.4 132.774ZM21 209.174H0C0 241.294 5.79294 270.391 18.0823 295.891L37 286.774L55.9177 277.657C46.8737 258.891 42 236.255 42 209.174H21ZM37 286.774L18.1719 296.075C30.7452 321.528 48.7974 341.873 72.2487 356.569L83.4 338.774L94.5513 320.98C78.0026 310.609 65.1215 296.287 55.8281 277.474L37 286.774ZM83.4 338.774L72.4206 356.676C96.2838 371.312 124.105 378.174 155 378.174V357.174V336.174C130.429 336.174 110.516 330.77 94.3794 320.873L83.4 338.774ZM155 357.174V378.174C173.915 378.174 191.648 375.32 207.931 369.253L200.6 349.574L193.269 329.896C182.352 333.963 169.685 336.174 155 336.174V357.174ZM200.6 349.574L208.139 369.175C224.479 362.89 238.604 353.939 249.879 341.981L234.6 327.574L219.321 313.168C212.996 319.876 204.455 325.592 193.061 329.974L200.6 349.574ZM234.6 327.574L249.663 342.207C253.453 338.305 256.34 333.193 257.376 331.445L239.312 320.735L221.248 310.025C220.471 311.337 219.98 312.155 219.533 312.831C219.331 313.135 219.216 313.29 219.18 313.339C219.136 313.395 219.255 313.232 219.537 312.942L234.6 327.574ZM239.312 320.735L257.376 331.445C257.86 330.628 258.19 330.074 258.485 329.6C258.785 329.117 258.872 329.007 258.803 329.1C258.801 329.103 258.207 329.933 257.042 330.962C256.076 331.815 252.931 334.427 247.79 335.3L244.273 314.597L240.757 293.893C234.881 294.892 230.978 297.946 229.231 299.489C227.285 301.208 225.887 302.976 225.058 304.095C223.451 306.263 221.985 308.783 221.248 310.025L239.312 320.735ZM244.273 314.597L244.253 293.597L242.979 293.598L243 314.598L243.021 335.598L244.294 335.597L244.273 314.597ZM243 314.598L243.274 335.596L244.725 335.577L244.451 314.579L244.177 293.581L242.726 293.6L243 314.598ZM244.451 314.579L245.053 335.571C244.898 335.575 244.764 335.577 244.654 335.578L244.474 314.579L244.294 293.58C244.169 293.581 244.019 293.583 243.85 293.588L244.451 314.579ZM359.479 343.174L349.641 361.727C370.768 372.931 394.793 378.174 421.079 378.174V357.174V336.174C400.433 336.174 383.391 332.085 369.318 324.622L359.479 343.174ZM421.079 357.174V378.174C447.356 378.174 471.306 372.934 492.236 361.664L482.279 343.174L472.323 324.685C458.587 332.081 441.736 336.174 421.079 336.174V357.174ZM482.279 343.174L492.118 361.727C513.12 350.59 529.68 334.751 541.313 314.393L523.079 303.975L504.846 293.556C497.279 306.798 486.639 317.093 472.441 324.622L482.279 343.174ZM523.079 303.975L541.26 314.485C553.235 293.771 558.88 270.171 558.88 244.375H537.88H516.88C516.88 263.911 512.657 280.045 504.899 293.464L523.079 303.975ZM537.88 244.375H558.88C558.88 218.587 553.238 195.058 541.188 174.54L523.079 185.174L504.971 195.809C512.654 208.891 516.88 224.829 516.88 244.375H537.88ZM523.079 185.174L541.313 174.756C529.68 154.398 513.12 138.559 492.118 127.422L482.279 145.975L472.441 164.527C486.639 172.056 497.279 182.351 504.846 195.593L523.079 185.174ZM482.279 145.975L492.454 127.604C471.478 115.987 447.449 110.574 421.079 110.574V131.574V152.574C441.644 152.574 458.414 156.762 472.105 164.345L482.279 145.975ZM421.079 131.574V110.574C394.701 110.574 370.596 115.99 349.424 127.539L359.479 145.975L369.535 164.41C383.563 156.759 400.525 152.574 421.079 152.574V131.574ZM359.479 145.975L349.523 127.485C328.842 138.621 312.406 154.388 300.571 174.54L318.679 185.174L336.787 195.809C344.686 182.361 355.45 171.995 369.436 164.464L359.479 145.975ZM318.679 185.174L300.446 174.756C288.744 195.235 283.279 218.685 283.279 244.375H304.279H325.279C325.279 224.731 329.415 208.714 336.913 195.593L318.679 185.174ZM304.279 244.375H283.279C283.279 270.074 288.747 293.595 300.376 314.27L318.679 303.975L336.983 293.679C329.412 280.221 325.279 264.009 325.279 244.375H304.279ZM318.679 303.975L300.571 314.609C312.406 334.761 328.842 350.528 349.523 361.664L359.479 343.174L369.436 324.685C355.45 317.154 344.686 306.788 336.787 293.34L318.679 303.975ZM292.6 204.374H313.6C313.6 190.567 302.407 179.374 288.6 179.374V200.374V221.374C279.211 221.374 271.6 213.763 271.6 204.374H292.6ZM675.501 348.141L655.764 340.968C658.206 334.248 664.591 329.774 671.742 329.774V350.774V371.774C682.256 371.774 691.647 365.195 695.238 355.313L675.501 348.141ZM696.815 69.4724L716.671 76.3081C714.309 83.169 707.853 87.7744 700.597 87.7744V66.7744V45.7744C689.927 45.7744 680.432 52.5472 676.959 62.6366L696.815 69.4724ZM626.762 250.988L606.906 257.824C614.645 280.307 646.442 280.307 654.182 257.824L634.326 250.988L614.47 244.152C619.733 228.864 641.355 228.864 646.618 244.152L626.762 250.988ZM560.491 66.7744V87.7744C553.234 87.7744 546.778 83.169 544.416 76.3081L564.273 69.4724L584.129 62.6366C580.656 52.5471 571.161 45.7744 560.491 45.7744V66.7744ZM485.275 72.1312L505.03 65.0082C509.025 76.0877 500.816 87.7744 489.038 87.7744V66.7744V45.7744C471.718 45.7744 459.645 62.9608 465.52 79.2542L485.275 72.1312ZM287.082 164.16L287.909 185.144C303.196 184.542 314.87 170.191 311.238 154.598L290.785 159.362L270.333 164.127C267.822 153.348 275.908 143.584 286.255 143.177L287.082 164.16ZM584.791 348.131L565.036 355.254C568.61 365.167 578.016 371.774 588.554 371.774V350.774V329.774C595.719 329.774 602.115 334.267 604.546 341.008L584.791 348.131ZM209.946 163.719L189.392 168.023C191.799 179.52 202.182 188.522 214.939 188.02L214.113 167.036L213.286 146.052C222.025 145.708 228.917 151.853 230.5 159.415L209.946 163.719ZM856.544 334.774H835.544C835.544 325.386 843.155 317.774 852.544 317.774V338.774V359.774C866.351 359.774 877.544 348.582 877.544 334.774H856.544ZM852.544 122.774V143.774C843.155 143.774 835.544 136.163 835.544 126.774H856.544H877.544C877.544 112.967 866.351 101.774 852.544 101.774V122.774ZM778.944 126.774H799.944C799.944 136.163 792.333 143.774 782.944 143.774V122.774V101.774C769.137 101.774 757.944 112.967 757.944 126.774H778.944ZM778.944 334.774H757.944C757.944 348.581 769.137 359.774 782.944 359.774V338.774V317.774C792.333 317.774 799.944 325.386 799.944 334.774H778.944ZM949.786 68.7354L967.853 58.0308C963.351 50.4334 955.175 45.7744 946.344 45.7744V66.7744V87.7744C940.339 87.7744 934.78 84.6063 931.719 79.4401L949.786 68.7354ZM1043.42 212.176H1022.42C1022.42 194.885 1045.24 188.634 1054.05 203.511L1035.98 214.215L1017.92 224.92C1030.88 246.797 1064.42 237.605 1064.42 212.176H1043.42ZM947.824 212.747H968.824C968.824 229.835 946.442 236.242 937.399 221.743L955.218 210.63L973.036 199.517C959.738 178.194 926.824 187.617 926.824 212.747H947.824ZM209.548 252.374V273.374C199.657 273.374 190.173 264.134 192.86 252.296L213.339 256.945L233.818 261.594C237.589 244.983 224.335 231.374 209.548 231.374V252.374ZM943.824 350.774V371.774C957.631 371.774 968.824 360.582 968.824 346.774H947.824H926.824C926.824 337.386 934.435 329.774 943.824 329.774V350.774ZM161 248.374H140C140 262.182 151.193 273.374 165 273.374V252.374V231.374C174.389 231.374 182 238.986 182 248.374H161ZM869.424 346.774H848.424C848.424 360.582 859.617 371.774 873.424 371.774V350.774V329.774C882.813 329.774 890.424 337.386 890.424 346.774H869.424ZM165 200.374V179.374C151.193 179.374 140 190.567 140 204.374H161H182C182 213.763 174.389 221.374 165 221.374V200.374ZM869.424 70.7744H890.424C890.424 80.1633 882.813 87.7744 873.424 87.7744V66.7744V45.7744C859.617 45.7744 848.424 56.9673 848.424 70.7744H869.424ZM288.6 350.774V371.774C302.407 371.774 313.6 360.582 313.6 346.774H292.6H271.6C271.6 337.386 279.211 329.774 288.6 329.774V350.774ZM1287.09 334.866L1308.08 334.059C1307.53 319.897 1296.58 312.67 1289.08 310.603C1281.63 308.551 1270.15 309.222 1262.11 318.527L1278 332.254L1293.9 345.982C1288.55 352.17 1281.53 352.089 1277.92 351.093C1274.25 350.082 1266.49 345.719 1266.11 335.673L1287.09 334.866ZM246.741 347.052L225.792 348.506C226.702 361.61 237.597 371.774 250.732 371.774V350.774V329.774C259.664 329.774 267.072 336.686 267.691 345.597L246.741 347.052ZM1291.55 350.774V329.774C1300.69 329.774 1308.19 336.993 1308.54 346.121L1287.56 346.928L1266.57 347.735C1267.09 361.159 1278.12 371.774 1291.55 371.774V350.774ZM1363.3 346.774H1342.3C1342.3 337.386 1349.92 329.774 1359.3 329.774V350.774V371.774C1373.11 371.774 1384.3 360.582 1384.3 346.774H1363.3ZM1359.3 66.7744V87.7744C1349.92 87.7744 1342.3 80.1632 1342.3 70.7744H1363.3H1384.3C1384.3 56.9673 1373.11 45.7744 1359.3 45.7744V66.7744ZM1047.42 66.7744V45.7744C1033.62 45.7744 1022.42 56.9673 1022.42 70.7744H1043.42H1064.42C1064.42 80.1632 1056.81 87.7744 1047.42 87.7744V66.7744ZM781.744 46.7744V25.7744C767.937 25.7744 756.744 36.9674 756.744 50.7746L777.744 50.7745L798.744 50.7743C798.744 60.1632 791.133 67.7744 781.744 67.7744V46.7744ZM1117.82 350.774V371.774C1131.63 371.774 1142.82 360.582 1142.82 346.774H1121.82H1100.82C1100.82 337.386 1108.43 329.774 1117.82 329.774V350.774ZM853.744 101.174V122.174C867.551 122.174 878.744 110.982 878.744 97.1744H857.744H836.744C836.744 87.7856 844.355 80.1744 853.744 80.1744V101.174ZM1276.28 151.948L1260.56 165.87C1269.02 175.416 1280.89 175.511 1288.03 173.384C1295.16 171.264 1306.7 163.857 1306.7 149.03H1285.7H1264.7C1264.7 138.424 1272.94 134.056 1276.05 133.129C1279.19 132.196 1286.35 131.639 1292.01 138.025L1276.28 151.948ZM1285.7 70.7744H1306.7C1306.7 80.1632 1299.09 87.7744 1289.7 87.7744V66.7744V45.7744C1275.9 45.7744 1264.7 56.9673 1264.7 70.7744H1285.7ZM1121.82 70.7744H1142.82C1142.82 56.9673 1131.63 45.7744 1117.82 45.7744V66.7744V87.7744C1108.43 87.7744 1100.82 80.1632 1100.82 70.7744H1121.82ZM857.744 50.7744H878.744C878.744 36.9673 867.551 25.7744 853.744 25.7744V46.7744V67.7744C844.355 67.7744 836.744 60.1633 836.744 50.7744H857.744ZM1041.45 348.891L1023.63 360.004C1028.2 367.325 1036.22 371.774 1044.84 371.774V350.774V329.774C1050.71 329.774 1056.16 332.8 1059.27 337.778L1041.45 348.891ZM777.744 97.1744L756.744 97.1743C756.744 110.981 767.937 122.174 781.744 122.174V101.174V80.1744C791.133 80.1744 798.744 87.7856 798.744 97.1745L777.744 97.1744Z" fill="black" mask="url(#path-1-outside-1_2751_836)"/>
<path d="M3781.38 27.1738C3787.52 27.1738 3792.99 31.0394 3795.05 36.8242L3905.61 348.324C3908.96 357.762 3901.96 367.674 3891.94 367.674H3806.5C3800.15 367.674 3794.54 363.539 3792.66 357.472L3775.57 302.424H3681.24L3664.16 357.472C3662.28 363.539 3656.66 367.674 3650.31 367.674H3564.87C3554.86 367.674 3547.86 357.762 3551.21 348.324L3661.77 36.8242C3663.82 31.0395 3669.29 27.1739 3675.43 27.1738H3781.38ZM3728.41 148.08C3726.97 153.086 3725.5 157.966 3724.04 162.712L3707.04 218.424H3749.77L3732.77 162.712L3731.76 159.404C3730.63 155.707 3729.51 151.931 3728.41 148.08Z" stroke="black" stroke-width="21"/>
<path d="M3535.01 113.167C3543.01 113.167 3549.51 119.659 3549.51 127.667V344.667C3549.51 352.675 3543.01 359.167 3535.01 359.167H3452.11C3444.1 359.167 3437.61 352.675 3437.61 344.667V127.667C3437.61 119.659 3444.1 113.167 3452.11 113.167H3535.01ZM3535.91 10.5674C3543.92 10.5675 3550.41 17.0593 3550.41 25.0674V92.667C3550.41 100.675 3543.92 107.167 3535.91 107.167H3451.21C3443.2 107.167 3436.71 100.675 3436.71 92.667V25.0674C3436.71 17.0592 3443.2 10.5674 3451.21 10.5674H3535.91Z" stroke="black" stroke-width="21"/>
<path d="M3302.26 27.1738C3310.26 27.1738 3316.76 33.6657 3316.76 41.6738V271.074H3422.41C3430.42 271.074 3436.91 277.566 3436.91 285.574V353.174C3436.91 361.182 3430.42 367.674 3422.41 367.674H3216.21C3208.2 367.674 3201.71 361.182 3201.71 353.174V41.6738C3201.71 33.6657 3208.2 27.1738 3216.21 27.1738H3302.26Z" stroke="black" stroke-width="21"/>
<path d="M3059.41 110.874C3099.49 110.874 3130.98 118.177 3152.54 135.664C3174.58 153.547 3184.21 180.376 3184.21 214.524V296.424C3184.21 315.118 3185.88 333.202 3188.21 344.591C3189.99 353.288 3183.56 362.274 3173.89 362.274H3095.03C3088.27 362.274 3082.18 357.542 3080.85 350.585C3080.55 349.031 3080.28 347.474 3080.04 345.912C3063.06 359.962 3039.16 367.674 3013.51 367.674C2988.14 367.674 2965.98 360.347 2949.98 346.643C2933.84 332.819 2924.71 313.102 2924.71 290.124C2924.71 267.982 2931.13 250.093 2946.1 236.878L2946.82 236.252C2959.17 225.573 2976.52 218.362 2999.35 213.324H2946.73C2938.4 213.324 2931.33 206.112 2932.41 197.244L2932.58 195.945C2936.25 168.759 2950.04 147.181 2972.19 132.611C2994.36 118.025 3024.23 110.874 3059.41 110.874ZM3061.85 266.233C3051.33 268.343 3044.92 271.166 3041.31 274.039C3038.2 276.515 3037.06 279.05 3037.06 282.474C3037.06 285.495 3038.2 287.749 3040.13 289.4C3042.18 291.152 3045.7 292.674 3050.86 292.674C3059.1 292.674 3065.3 290.177 3069.27 286.713C3073.13 283.339 3075.46 278.59 3075.46 272.574V263.652L3061.85 266.233ZM3058.96 186.324C3052.41 186.324 3048.83 187.872 3046.76 189.639C3044.71 191.386 3042.74 194.544 3041.85 200.646C3041.54 202.793 3040.74 204.855 3039.55 206.672L3072.31 201.854V201.024C3072.31 194.095 3070.58 190.861 3069.09 189.334C3067.66 187.856 3064.84 186.324 3058.96 186.324Z" stroke="black" stroke-width="21"/>
<path d="M2612.81 27.1738C2619.61 27.174 2625.46 31.8865 2626.95 38.457L2627.08 39.0986L2652.73 181.251L2679.47 38.9951C2680.76 32.1401 2686.75 27.1738 2693.73 27.1738H2781.59C2788.56 27.1739 2794.55 32.1401 2795.84 38.9951L2822.58 181.249L2848.23 39.0986L2848.36 38.457C2849.85 31.8865 2855.7 27.1738 2862.5 27.1738H2949.04C2958.41 27.1738 2965.32 35.9201 2963.15 45.0312L2889 356.531C2887.45 363.063 2881.61 367.674 2874.9 367.674H2778.38C2771.32 367.674 2765.28 362.589 2764.09 355.631L2737.66 201.916L2711.23 355.631C2710.03 362.589 2704 367.674 2696.94 367.674H2600.42C2593.7 367.674 2587.87 363.063 2586.31 356.531L2512.17 45.0312C2510 35.9202 2516.9 27.1741 2526.27 27.1738H2612.81Z" stroke="black" stroke-width="21"/>
<path d="M2376.11 116.274C2384.12 116.275 2390.61 122.766 2390.61 130.774V256.824C2390.61 266.875 2392.51 272.554 2394.69 275.512C2396.43 277.867 2399.15 279.624 2404.86 279.624C2410.22 279.624 2413.52 277.806 2415.68 275.207C2418.04 272.354 2420.01 267.351 2420.01 259.524V130.774C2420.01 122.766 2426.5 116.275 2434.51 116.274H2517.41C2525.42 116.274 2531.91 122.766 2531.91 130.774V347.774C2531.91 355.782 2525.42 362.274 2517.41 362.274H2438.56C2430.55 362.274 2424.06 355.782 2424.06 347.774V345.772C2408.69 359.975 2387.83 367.675 2364.36 367.675C2336.57 367.675 2314.51 359.308 2299.62 342.183C2284.96 325.322 2278.71 301.632 2278.71 273.925V130.774C2278.71 122.766 2285.2 116.274 2293.21 116.274H2376.11Z" stroke="black" stroke-width="21"/>
<path d="M2139.26 27.1738C2147.26 27.1738 2153.76 33.6657 2153.76 41.6738V271.074H2259.41C2267.42 271.074 2273.91 277.566 2273.91 285.574V353.174C2273.91 361.182 2267.42 367.674 2259.41 367.674H2053.21C2045.2 367.674 2038.71 361.182 2038.71 353.174V41.6738C2038.71 33.6657 2045.2 27.1738 2053.21 27.1738H2139.26Z" stroke="black" stroke-width="21"/>
<path d="M1862.11 10.5C1870.12 10.5002 1876.61 16.992 1876.61 25V128.385C1892.27 113.527 1912.44 106.35 1936.31 106.35C1962.94 106.35 1984.64 114.847 1999.36 133.021C2013.76 150.787 2020.16 176.183 2020.16 207.3V343.25C2020.16 351.258 2013.67 357.75 2005.66 357.75H1922.76C1914.75 357.75 1908.26 351.258 1908.26 343.25V216.75C1908.26 206.689 1906.35 201.18 1904.24 198.37C1902.56 196.146 1899.86 194.4 1894.01 194.4C1888.12 194.4 1884.49 196.465 1881.91 200.159C1878.92 204.424 1876.61 211.967 1876.61 223.95V343.25C1876.61 351.258 1870.12 357.75 1862.11 357.75H1779.21C1771.2 357.75 1764.71 351.258 1764.71 343.25V25C1764.71 16.9919 1771.2 10.5 1779.21 10.5H1862.11Z" stroke="black" stroke-width="21"/>
<path d="M1639.06 27.1738C1645.2 27.1738 1650.67 31.0394 1652.72 36.8242L1763.28 348.324C1766.63 357.762 1759.63 367.674 1749.62 367.674H1664.18C1657.83 367.674 1652.21 363.539 1650.33 357.472L1633.25 302.424H1538.92L1521.83 357.472C1519.95 363.539 1514.34 367.674 1507.99 367.674H1422.55C1412.53 367.674 1405.53 357.762 1408.88 348.324L1519.44 36.8242C1521.5 31.0395 1526.97 27.1739 1533.11 27.1738H1639.06ZM1586.08 148.079C1584.65 153.085 1583.18 157.966 1581.72 162.712L1564.71 218.424H1607.45L1590.45 162.712L1589.43 159.404C1588.31 155.706 1587.19 151.93 1586.08 148.079Z" stroke="black" stroke-width="21"/>
</svg>
