<svg width="1385" height="353" viewBox="0 0 1385 353" fill="none" xmlns="http://www.w3.org/2000/svg">
<mask id="path-1-outside-1_2719_903" maskUnits="userSpaceOnUse" x="0" y="0" width="1385" height="353" fill="black">
<rect fill="white" width="1385" height="353"/>
<path fill-rule="evenodd" clip-rule="evenodd" d="M781.744 75.4C779.535 75.4 777.744 73.6091 777.744 71.4L777.744 41L777.744 25C777.744 22.7909 779.535 21 781.744 21H853.744C855.953 21 857.744 22.7909 857.744 25V71.4C857.744 73.6091 855.953 75.4 853.744 75.4H781.744ZM1174.9 316.2C1187.97 325.267 1203.44 329.8 1221.3 329.8C1236.24 329.8 1249.3 326.733 1260.5 320.6C1267.33 316.791 1273.16 312.084 1278 306.48C1280.7 303.363 1286.93 304.976 1287.09 309.091L1287.56 321.154C1287.64 323.301 1289.4 325 1291.55 325H1359.3C1361.51 325 1363.3 323.209 1363.3 321V45C1363.3 42.7909 1361.51 41 1359.3 41H1289.7C1287.5 41 1285.7 42.7909 1285.7 45V123.256C1285.7 127.477 1279.08 129.333 1276.28 126.173C1272.02 121.358 1267.03 117.234 1261.3 113.8C1250.64 107.4 1237.3 104.2 1221.3 104.2C1203.97 104.2 1188.77 108.867 1175.7 118.2C1162.64 127.267 1152.5 140.333 1145.3 157.4C1138.1 174.2 1134.5 194.067 1134.5 217C1134.5 239.933 1137.97 259.933 1144.9 277C1152.1 293.8 1162.1 306.867 1174.9 316.2ZM873.424 325C871.215 325 869.424 323.209 869.424 321V45C869.424 42.7909 871.215 41 873.424 41H946.344C947.757 41 949.065 41.7454 949.786 42.961L1035.98 188.441C1038.06 191.941 1043.42 190.47 1043.42 186.402V45C1043.42 42.7909 1045.21 41 1047.42 41H1117.82C1120.03 41 1121.82 42.7909 1121.82 45V321C1121.82 323.209 1120.03 325 1117.82 325H1044.84C1043.46 325 1042.18 324.288 1041.45 323.117L955.218 184.855C953.09 181.444 947.824 182.951 947.824 186.972V321C947.824 323.209 946.033 325 943.824 325H873.424ZM782.944 97C780.735 97 778.944 98.7909 778.944 101V309C778.944 311.209 780.735 313 782.944 313H852.544C854.753 313 856.544 311.209 856.544 309V101C856.544 98.7908 854.753 97 852.544 97H782.944ZM489.038 41C486.267 41 484.335 43.7498 485.275 46.3568L584.791 322.357C585.363 323.943 586.868 325 588.554 325H671.742C673.424 325 674.926 323.947 675.501 322.366L777.744 41H700.597C698.89 41 697.371 42.0836 696.815 43.6979L634.326 225.214C633.088 228.811 628 228.811 626.762 225.214L564.273 43.698C563.717 42.0836 562.198 41 560.491 41H489.038ZM359.479 317.4C377.079 326.733 397.613 331.4 421.079 331.4C444.546 331.4 464.946 326.733 482.279 317.4C499.879 308.067 513.479 295 523.079 278.2C532.946 261.133 537.88 241.267 537.88 218.6C537.88 195.933 532.946 176.2 523.079 159.4C513.479 142.6 499.879 129.533 482.279 120.2C464.946 110.6 444.546 105.8 421.079 105.8C397.613 105.8 377.079 110.6 359.479 120.2C342.146 129.533 328.546 142.6 318.679 159.4C309.079 176.2 304.279 195.933 304.279 218.6C304.279 241.267 309.079 261.133 318.679 278.2C328.546 295 342.146 308.067 359.479 317.4ZM421.079 275.8C433.079 275.8 442.279 270.867 448.679 261C455.079 251.133 458.279 237 458.279 218.6C458.279 200.467 455.079 186.467 448.679 176.6C442.279 166.467 433.079 161.4 421.079 161.4C409.079 161.4 399.879 166.467 393.479 176.6C387.079 186.467 383.879 200.467 383.879 218.6C383.879 237 387.079 251.133 393.479 261C399.879 270.867 409.079 275.8 421.079 275.8ZM83.4 313C103.4 325.267 127.267 331.4 155 331.4C171.8 331.4 187 328.867 200.6 323.8C214.467 318.467 225.8 311.133 234.6 301.8C238.518 297.767 241.813 288.8 244.486 288.804L246.741 321.277C246.887 323.374 248.63 325 250.732 325H288.6C290.809 325 292.6 323.209 292.6 321V178.6C292.6 176.391 290.809 174.6 288.6 174.6H165C162.791 174.6 161 176.391 161 178.6V222.6C161 224.809 162.791 226.6 165 226.6H209.548C211.996 226.6 213.881 228.784 213.339 231.171C211.775 238.059 209.129 244.136 205.4 249.4C201.133 255.533 195.4 260.333 188.2 263.8C181.267 267 172.867 268.6 163 268.6C148.867 268.6 137.267 265.133 128.2 258.2C119.133 251 112.333 241 107.8 228.2C103.533 215.4 101.4 200.467 101.4 183.4C101.4 166.067 103.667 151 108.2 138.2C113 125.4 119.8 115.4 128.6 108.2C137.667 101 148.6 97.4 161.4 97.4C176.333 97.4 187.667 101.267 195.4 109C202.49 115.846 207.339 125.494 209.946 137.944C210.358 139.912 212.104 141.341 214.113 141.262L287.082 138.386C289.552 138.289 291.346 135.995 290.785 133.588C286.152 113.697 278.757 96.5678 268.6 82.2C257.933 66.7333 243.667 55 225.8 47C208.2 38.7333 186.467 34.6 160.6 34.6C131.267 34.6 106.2 41.1333 85.4 54.2C64.6 67 48.6 84.6 37.4 107C26.4667 129.4 21 154.867 21 183.4C21 213 26.3333 238.867 37 261C47.9333 283.133 63.4 300.467 83.4 313ZM244.486 288.804L243 288.824L244.488 288.822C243.125 288.816 247.999 288.81 244.486 288.804ZM1266.2 261C1259.8 270.867 1250.6 275.8 1238.6 275.8C1226.6 275.8 1217.4 270.867 1211 261C1204.6 251.133 1201.4 237 1201.4 218.6C1201.4 200.467 1204.6 186.467 1211 176.6C1217.4 166.467 1226.6 161.4 1238.6 161.4C1250.6 161.4 1259.8 166.467 1266.2 176.6C1272.6 186.467 1275.8 200.467 1275.8 218.6C1275.8 237 1272.6 251.133 1266.2 261Z"/>
<path d="M448.679 261C442.279 270.867 433.079 275.8 421.079 275.8C409.079 275.8 399.879 270.867 393.479 261C387.079 251.133 383.879 237 383.879 218.6C383.879 200.467 387.079 186.467 393.479 176.6C399.879 166.467 409.079 161.4 421.079 161.4C433.079 161.4 442.279 166.467 448.679 176.6C455.079 186.467 458.279 200.467 458.279 218.6C458.279 237 455.079 251.133 448.679 261Z"/>
<path d="M1238.6 275.8C1250.6 275.8 1259.8 270.867 1266.2 261C1272.6 251.133 1275.8 237 1275.8 218.6C1275.8 200.467 1272.6 186.467 1266.2 176.6C1259.8 166.467 1250.6 161.4 1238.6 161.4C1226.6 161.4 1217.4 166.467 1211 176.6C1204.6 186.467 1201.4 200.467 1201.4 218.6C1201.4 237 1204.6 251.133 1211 261C1217.4 270.867 1226.6 275.8 1238.6 275.8Z"/>
</mask>
<path d="M448.679 176.6L439.802 182.207L439.836 182.261L439.87 182.314L448.679 176.6ZM393.479 176.6L402.289 182.314L402.323 182.261L402.357 182.207L393.479 176.6ZM1211 176.6L1219.81 182.314L1219.84 182.261L1219.88 182.207L1211 176.6ZM1266.2 176.6L1257.32 182.207L1257.36 182.261L1257.39 182.314L1266.2 176.6ZM421.079 275.8V286.3C436.549 286.3 449.105 279.638 457.489 266.714L448.679 261L439.87 255.286C435.454 262.095 429.61 265.3 421.079 265.3V275.8ZM448.679 261L457.489 266.714C465.452 254.437 468.779 237.975 468.779 218.6H458.279H447.779C447.779 236.026 444.707 247.83 439.87 255.286L448.679 261ZM458.279 218.6H468.779C468.779 199.456 465.439 183.143 457.489 170.886L448.679 176.6L439.87 182.314C444.72 189.79 447.779 201.478 447.779 218.6H458.279ZM448.679 176.6L457.557 170.993C449.23 157.809 436.677 150.9 421.079 150.9V161.4V171.9C429.482 171.9 435.329 175.124 439.802 182.207L448.679 176.6ZM421.079 161.4V150.9C405.482 150.9 392.929 157.809 384.602 170.993L393.479 176.6L402.357 182.207C406.83 175.124 412.677 171.9 421.079 171.9V161.4ZM393.479 176.6L384.67 170.886C376.72 183.143 373.379 199.456 373.379 218.6H383.879H394.379C394.379 201.478 397.439 189.79 402.289 182.314L393.479 176.6ZM383.879 218.6H373.379C373.379 237.975 376.707 254.437 384.67 266.714L393.479 261L402.289 255.286C397.452 247.83 394.379 236.026 394.379 218.6H383.879ZM393.479 261L384.67 266.714C393.054 279.638 405.61 286.3 421.079 286.3V275.8V265.3C412.549 265.3 406.705 262.095 402.289 255.286L393.479 261ZM1266.2 261L1257.39 255.286C1252.97 262.095 1247.13 265.3 1238.6 265.3V275.8V286.3C1254.07 286.3 1266.63 279.638 1275.01 266.714L1266.2 261ZM1238.6 275.8V265.3C1230.07 265.3 1224.23 262.095 1219.81 255.286L1211 261L1202.19 266.714C1210.57 279.638 1223.13 286.3 1238.6 286.3V275.8ZM1211 261L1219.81 255.286C1214.97 247.829 1211.9 236.025 1211.9 218.6H1201.4H1190.9C1190.9 237.975 1194.23 254.437 1202.19 266.714L1211 261ZM1201.4 218.6H1211.9C1211.9 201.478 1214.96 189.79 1219.81 182.314L1211 176.6L1202.19 170.886C1194.24 183.143 1190.9 199.456 1190.9 218.6H1201.4ZM1211 176.6L1219.88 182.207C1224.35 175.124 1230.2 171.9 1238.6 171.9V161.4V150.9C1223 150.9 1210.45 157.809 1202.12 170.993L1211 176.6ZM1238.6 161.4V171.9C1247 171.9 1252.85 175.124 1257.32 182.207L1266.2 176.6L1275.08 170.993C1266.75 157.809 1254.2 150.9 1238.6 150.9V161.4ZM1266.2 176.6L1257.39 182.314C1262.24 189.79 1265.3 201.478 1265.3 218.6H1275.8H1286.3C1286.3 199.456 1282.96 183.143 1275.01 170.886L1266.2 176.6ZM1275.8 218.6H1265.3C1265.3 236.025 1262.23 247.829 1257.39 255.286L1266.2 261L1275.01 266.714C1282.97 254.437 1286.3 237.975 1286.3 218.6H1275.8ZM777.744 41L798.744 41.0001V40.9998L777.744 41ZM1174.9 316.2L1162.53 333.168L1162.73 333.313L1162.93 333.453L1174.9 316.2ZM1260.5 320.6L1270.59 339.019L1270.67 338.978L1270.74 338.937L1260.5 320.6ZM1261.3 113.8L1250.5 131.807V131.807L1261.3 113.8ZM1175.7 118.2L1187.68 135.453L1187.79 135.372L1187.91 135.288L1175.7 118.2ZM1145.3 157.4L1164.61 165.672L1164.63 165.618L1164.65 165.563L1145.3 157.4ZM1144.9 277L1125.45 284.904L1125.52 285.089L1125.6 285.272L1144.9 277ZM359.479 317.4L349.523 335.89L349.582 335.922L349.641 335.953L359.479 317.4ZM482.279 317.4L472.441 298.847L472.382 298.879L472.323 298.91L482.279 317.4ZM523.079 278.2L504.899 267.69L504.873 267.735L504.846 267.781L523.079 278.2ZM523.079 159.4L504.846 169.819L504.908 169.927L504.971 170.035L523.079 159.4ZM482.279 120.2L472.105 138.571L472.272 138.663L472.441 138.753L482.279 120.2ZM359.479 120.2L369.436 138.69L369.486 138.663L369.535 138.636L359.479 120.2ZM318.679 159.4L300.571 148.765L300.508 148.873L300.446 148.981L318.679 159.4ZM318.679 278.2L300.376 288.496L300.472 288.666L300.571 288.835L318.679 278.2ZM83.4 313L72.2487 330.795L72.3344 330.848L72.4206 330.901L83.4 313ZM200.6 323.8L207.931 343.479L208.035 343.44L208.139 343.4L200.6 323.8ZM234.6 301.8L219.537 287.167L219.428 287.28L219.321 287.394L234.6 301.8ZM205.4 249.4L188.263 237.262L188.212 237.334L188.161 237.408L205.4 249.4ZM188.2 263.8L197 282.867L197.156 282.795L197.31 282.721L188.2 263.8ZM128.2 258.2L115.14 274.645L115.291 274.765L115.444 274.882L128.2 258.2ZM107.8 228.2L87.8777 234.841L87.9395 235.026L88.0048 235.211L107.8 228.2ZM108.2 138.2L88.5371 130.826L88.4693 131.007L88.4048 131.189L108.2 138.2ZM128.6 108.2L115.54 91.7546L115.421 91.8499L115.302 91.9469L128.6 108.2ZM195.4 109L180.551 123.849L180.681 123.979L180.814 124.107L195.4 109ZM268.6 82.2L251.313 94.1224L251.382 94.2226L251.452 94.3219L268.6 82.2ZM225.8 47L216.872 66.0077L217.044 66.0886L217.218 66.1664L225.8 47ZM85.4 54.2L96.4061 72.0848L96.4887 72.0339L96.5709 71.9823L85.4 54.2ZM37.4 107L18.617 97.6085L18.5721 97.6984L18.528 97.7887L37.4 107ZM37 261L18.0823 270.117L18.1266 270.209L18.1719 270.301L37 261ZM243 288.824L242.726 267.826L243.021 309.824L243 288.824ZM244.488 288.822L244.508 309.822L244.587 267.822L244.488 288.822ZM246.741 321.277L267.691 319.822L246.741 321.277ZM564.273 43.698L584.129 36.8622L564.273 43.698ZM634.326 225.214L654.182 232.05V232.05L634.326 225.214ZM626.762 225.214L646.618 218.378L626.762 225.214ZM696.815 43.6979L676.959 36.8622L696.815 43.6979ZM675.501 322.366L695.238 329.538L675.501 322.366ZM287.082 138.386L287.909 159.37L287.082 138.386ZM290.785 133.588L270.333 138.352L290.785 133.588ZM584.791 322.357L604.546 315.234L584.791 322.357ZM209.946 137.944L189.392 142.248L209.946 137.944ZM214.113 141.262L213.286 120.278L214.113 141.262ZM485.275 46.3568L505.03 39.2338L485.275 46.3568ZM955.218 184.855L973.036 173.742L955.218 184.855ZM949.786 42.961L967.853 32.2564L949.786 42.961ZM1287.56 321.154L1266.57 321.961L1287.56 321.154ZM1041.45 323.117L1059.27 312.004L1041.45 323.117ZM1278 306.48L1262.11 292.752L1278 306.48ZM1287.09 309.091L1266.11 309.898L1287.09 309.091ZM1276.28 126.173L1292.01 112.25L1276.28 126.173ZM777.744 25L798.744 24.9998L777.744 25ZM213.339 231.171L192.86 226.522L213.339 231.171ZM1035.98 188.441L1017.92 199.145L1035.98 188.441ZM777.744 71.4L798.744 71.4001L777.744 71.4ZM777.744 71.4L798.744 71.4001L798.744 41.0001L777.744 41L756.744 40.9999L756.744 71.3999L777.744 71.4ZM777.744 41L798.744 40.9998L798.744 24.9998L777.744 25L756.744 25.0002L756.744 41.0002L777.744 41ZM781.744 21V42H853.744V21V0H781.744V21ZM857.744 25H836.744V71.4H857.744H878.744V25H857.744ZM853.744 75.4V54.4H781.744V75.4V96.4H853.744V75.4ZM1174.9 316.2L1162.93 333.453C1179.94 345.255 1199.71 350.8 1221.3 350.8V329.8V308.8C1207.17 308.8 1196 305.279 1186.88 298.947L1174.9 316.2ZM1221.3 329.8V350.8C1239.16 350.8 1255.81 347.112 1270.59 339.019L1260.5 320.6L1250.42 302.181C1242.8 306.354 1233.31 308.8 1221.3 308.8V329.8ZM1260.5 320.6L1270.74 338.937C1279.58 334 1287.36 327.768 1293.9 320.208L1278 306.48L1262.11 292.752C1258.96 296.401 1255.07 299.581 1250.27 302.263L1260.5 320.6ZM1287.09 309.091L1266.11 309.898L1266.57 321.961L1287.56 321.154L1308.54 320.347L1308.08 308.284L1287.09 309.091ZM1291.55 325V346H1359.3V325V304H1291.55V325ZM1363.3 321H1384.3V45H1363.3H1342.3V321H1363.3ZM1359.3 41V20H1289.7V41V62H1359.3V41ZM1285.7 45H1264.7V123.256H1285.7H1306.7V45H1285.7ZM1276.28 126.173L1292.01 112.25C1286.27 105.771 1279.6 100.287 1272.11 95.7927L1261.3 113.8L1250.5 131.807C1254.45 134.18 1257.77 136.945 1260.56 140.096L1276.28 126.173ZM1261.3 113.8L1272.11 95.7927C1257.37 86.9488 1240.04 83.2 1221.3 83.2V104.2V125.2C1234.57 125.2 1243.91 127.851 1250.5 131.807L1261.3 113.8ZM1221.3 104.2V83.2C1199.96 83.2 1180.41 89.029 1163.5 101.112L1175.7 118.2L1187.91 135.288C1197.13 128.704 1207.98 125.2 1221.3 125.2V104.2ZM1175.7 118.2L1163.73 100.947C1146.89 112.636 1134.44 129.118 1125.96 149.237L1145.3 157.4L1164.65 165.563C1170.57 151.549 1178.39 141.897 1187.68 135.453L1175.7 118.2ZM1145.3 157.4L1126 149.128C1117.44 169.116 1113.5 191.923 1113.5 217H1134.5H1155.5C1155.5 196.211 1158.77 179.284 1164.61 165.672L1145.3 157.4ZM1134.5 217H1113.5C1113.5 242.002 1117.28 264.794 1125.45 284.904L1144.9 277L1164.36 269.096C1158.66 255.072 1155.5 237.865 1155.5 217H1134.5ZM1144.9 277L1125.6 285.272C1134.06 304.999 1146.24 321.288 1162.53 333.168L1174.9 316.2L1187.28 299.232C1177.97 292.445 1170.15 282.601 1164.21 268.728L1144.9 277ZM869.424 321H890.424V45H869.424H848.424V321H869.424ZM873.424 41V62H946.344V41V20H873.424V41ZM949.786 42.961L931.719 53.6656L1017.92 199.145L1035.98 188.441L1054.05 177.736L967.853 32.2564L949.786 42.961ZM1043.42 186.402H1064.42V45H1043.42H1022.42V186.402H1043.42ZM1047.42 41V62H1117.82V41V20H1047.42V41ZM1121.82 45H1100.82V321H1121.82H1142.82V45H1121.82ZM1117.82 325V304H1044.84V325V346H1117.82V325ZM1041.45 323.117L1059.27 312.004L973.036 173.742L955.218 184.855L937.399 195.968L1023.63 334.23L1041.45 323.117ZM947.824 186.972H926.824V321H947.824H968.824V186.972H947.824ZM943.824 325V304H873.424V325V346H943.824V325ZM778.944 101H757.944V309H778.944H799.944V101H778.944ZM782.944 313V334H852.544V313V292H782.944V313ZM856.544 309H877.544V101H856.544H835.544V309H856.544ZM852.544 97V76H782.944V97V118H852.544V97ZM485.275 46.3568L465.52 53.4797L565.036 329.48L584.791 322.357L604.546 315.234L505.03 39.2338L485.275 46.3568ZM588.554 325V346H671.742V325V304H588.554V325ZM675.501 322.366L695.238 329.538L797.481 48.1721L777.744 41L758.007 33.8279L655.764 315.194L675.501 322.366ZM777.744 41V20H700.597V41V62H777.744V41ZM696.815 43.6979L676.959 36.8622L614.47 218.378L634.326 225.214L654.182 232.05L716.671 50.5337L696.815 43.6979ZM626.762 225.214L646.618 218.378L584.129 36.8622L564.273 43.698L544.416 50.5337L606.906 232.05L626.762 225.214ZM560.491 41V20H489.038V41V62H560.491V41ZM359.479 317.4L349.641 335.953C370.768 347.157 394.793 352.4 421.079 352.4V331.4V310.4C400.433 310.4 383.391 306.31 369.318 298.847L359.479 317.4ZM421.079 331.4V352.4C447.356 352.4 471.306 347.16 492.236 335.89L482.279 317.4L472.323 298.91C458.587 306.307 441.736 310.4 421.079 310.4V331.4ZM482.279 317.4L492.118 335.953C513.12 324.815 529.68 308.976 541.313 288.619L523.079 278.2L504.846 267.781C497.279 281.024 486.639 291.318 472.441 298.847L482.279 317.4ZM523.079 278.2L541.26 288.711C553.235 267.996 558.88 244.396 558.88 218.6H537.88H516.88C516.88 238.137 512.657 254.271 504.899 267.69L523.079 278.2ZM537.88 218.6H558.88C558.88 192.813 553.238 169.284 541.188 148.765L523.079 159.4L504.971 170.035C512.654 183.116 516.88 199.054 516.88 218.6H537.88ZM523.079 159.4L541.313 148.981C529.68 128.624 513.12 112.785 492.118 101.647L482.279 120.2L472.441 138.753C486.639 146.282 497.279 156.576 504.846 169.819L523.079 159.4ZM482.279 120.2L492.454 101.829C471.478 90.2123 447.449 84.8001 421.079 84.8001V105.8V126.8C441.644 126.8 458.414 130.988 472.105 138.571L482.279 120.2ZM421.079 105.8V84.8001C394.701 84.8001 370.596 90.2155 349.424 101.764L359.479 120.2L369.535 138.636C383.563 130.985 400.525 126.8 421.079 126.8V105.8ZM359.479 120.2L349.523 101.71C328.842 112.846 312.406 128.614 300.571 148.765L318.679 159.4L336.787 170.035C344.686 156.586 355.45 146.221 369.436 138.69L359.479 120.2ZM318.679 159.4L300.446 148.981C288.744 169.461 283.279 192.91 283.279 218.6H304.279H325.279C325.279 198.957 329.415 182.939 336.913 169.819L318.679 159.4ZM304.279 218.6H283.279C283.279 244.299 288.747 267.821 300.376 288.496L318.679 278.2L336.983 267.905C329.412 254.446 325.279 238.234 325.279 218.6H304.279ZM318.679 278.2L300.571 288.835C312.406 308.986 328.842 324.754 349.523 335.89L359.479 317.4L369.436 298.91C355.45 291.38 344.686 281.014 336.787 267.565L318.679 278.2ZM83.4 313L72.4206 330.901C96.2838 345.537 124.105 352.4 155 352.4V331.4V310.4C130.429 310.4 110.516 304.996 94.3794 295.099L83.4 313ZM155 331.4V352.4C173.915 352.4 191.648 349.545 207.931 343.479L200.6 323.8L193.269 304.121C182.352 308.188 169.685 310.4 155 310.4V331.4ZM200.6 323.8L208.139 343.4C224.479 337.116 238.604 328.165 249.879 316.206L234.6 301.8L219.321 287.394C212.996 294.102 204.455 299.818 193.061 304.2L200.6 323.8ZM234.6 301.8L249.663 316.432C252.124 313.899 253.965 311.175 255.105 309.394C256.224 307.647 257.466 305.511 258.016 304.595C258.375 303.997 258.602 303.633 258.756 303.4C258.927 303.139 258.847 303.287 258.555 303.641C258.345 303.895 257.383 305.054 255.664 306.282C253.994 307.475 250.09 309.813 244.453 309.804L244.486 288.804L244.519 267.804C238.214 267.794 233.622 270.412 231.246 272.11C228.819 273.844 227.131 275.734 226.175 276.891C224.298 279.164 222.782 281.686 222.004 282.981C220.906 284.81 220.422 285.672 219.738 286.741C219.075 287.775 219.035 287.685 219.537 287.167L234.6 301.8ZM244.486 288.804L223.537 290.259L225.792 322.732L246.741 321.277L267.691 319.822L265.436 287.349L244.486 288.804ZM250.732 325V346H288.6V325V304H250.732V325ZM292.6 321H313.6V178.6H292.6H271.6V321H292.6ZM288.6 174.6V153.6H165V174.6V195.6H288.6V174.6ZM161 178.6H140V222.6H161H182V178.6H161ZM165 226.6V247.6H209.548V226.6V205.6H165V226.6ZM213.339 231.171L192.86 226.522C191.849 230.975 190.251 234.455 188.263 237.262L205.4 249.4L222.537 261.538C228.006 253.816 231.701 245.143 233.818 235.82L213.339 231.171ZM205.4 249.4L188.161 237.408C186.105 240.363 183.263 242.87 179.09 244.879L188.2 263.8L197.31 282.721C207.537 277.797 216.161 270.704 222.639 261.392L205.4 249.4ZM188.2 263.8L179.4 244.733C175.907 246.345 170.681 247.6 163 247.6V268.6V289.6C175.052 289.6 186.626 287.655 197 282.867L188.2 263.8ZM163 268.6V247.6C152.356 247.6 145.56 245.039 140.956 241.518L128.2 258.2L115.444 274.882C128.974 285.228 145.377 289.6 163 289.6V268.6ZM128.2 258.2L141.26 241.755C135.779 237.403 131.044 230.927 127.595 221.189L107.8 228.2L88.0048 235.211C93.6228 251.073 102.488 264.597 115.14 274.645L128.2 258.2ZM107.8 228.2L127.722 221.559C124.33 211.381 122.4 198.779 122.4 183.4H101.4H80.4C80.4 202.154 82.737 219.419 87.8777 234.841L107.8 228.2ZM101.4 183.4H122.4C122.4 167.826 124.445 155.234 127.995 145.211L108.2 138.2L88.4048 131.189C82.8882 146.765 80.4 164.307 80.4 183.4H101.4ZM108.2 138.2L127.863 145.574C131.625 135.541 136.496 128.873 141.898 124.453L128.6 108.2L115.302 91.9469C103.104 101.927 94.3747 115.259 88.5371 130.826L108.2 138.2ZM128.6 108.2L141.66 124.645C146.616 120.709 152.811 118.4 161.4 118.4V97.4V76.4C144.389 76.4 128.717 81.291 115.54 91.7546L128.6 108.2ZM161.4 97.4V118.4C172.849 118.4 178.019 121.317 180.551 123.849L195.4 109L210.249 94.1507C197.315 81.2162 179.818 76.4 161.4 76.4V97.4ZM195.4 109L180.814 124.107C184.108 127.289 187.398 132.727 189.392 142.248L209.946 137.944L230.5 133.641C227.28 118.261 220.873 104.403 209.986 93.8925L195.4 109ZM214.113 141.262L214.939 162.245L287.909 159.37L287.082 138.386L286.255 117.402L213.286 120.278L214.113 141.262ZM290.785 133.588L311.238 128.823C306.086 106.709 297.702 86.9883 285.748 70.078L268.6 82.2L251.452 94.3219C259.811 106.147 266.217 120.685 270.333 138.352L290.785 133.588ZM268.6 82.2L285.887 70.2776C272.943 51.5084 255.605 37.3364 234.382 27.8336L225.8 47L217.218 66.1664C231.728 72.6635 242.923 81.9583 251.313 94.1224L268.6 82.2ZM225.8 47L234.728 27.9923C213.572 18.0553 188.582 13.6 160.6 13.6V34.6V55.6C184.352 55.6 202.828 59.4113 216.872 66.0077L225.8 47ZM160.6 34.6V13.6C128.09 13.6 98.9767 20.8711 74.2291 36.4177L85.4 54.2L96.5709 71.9823C113.423 61.3955 134.444 55.6 160.6 55.6V34.6ZM85.4 54.2L74.3939 36.3152C50.1727 51.2206 31.5204 71.8018 18.617 97.6085L37.4 107L56.183 116.391C65.6796 97.3982 79.0273 82.7794 96.4061 72.0848L85.4 54.2ZM37.4 107L18.528 97.7887C6.00459 123.446 0 152.137 0 183.4H21H42C42 157.596 46.9287 135.354 56.272 116.211L37.4 107ZM21 183.4H0C0 215.52 5.79294 244.617 18.0823 270.117L37 261L55.9177 251.883C46.8737 233.117 42 210.48 42 183.4H21ZM37 261L18.1719 270.301C30.7452 295.754 48.7974 316.098 72.2487 330.795L83.4 313L94.5513 295.205C78.0026 284.835 65.1215 270.513 55.8281 251.699L37 261ZM244.486 288.804L244.212 267.806L242.726 267.826L243 288.824L243.274 309.822L244.761 309.803L244.486 288.804ZM243 288.824L243.021 309.824L244.508 309.822L244.488 288.822L244.467 267.822L242.979 267.824L243 288.824ZM244.488 288.822L244.587 267.822C244.553 267.822 244.53 267.822 244.514 267.822C244.498 267.822 244.498 267.822 244.511 267.822C244.518 267.822 244.534 267.822 244.556 267.823C244.567 267.823 244.582 267.823 244.601 267.823C244.618 267.824 244.643 267.824 244.672 267.825C244.7 267.825 244.741 267.826 244.791 267.827C244.816 267.828 244.847 267.829 244.883 267.83C244.918 267.831 244.962 267.832 245.013 267.834C245.064 267.836 245.132 267.839 245.212 267.842C245.245 267.844 245.317 267.848 245.355 267.85C245.399 267.852 245.495 267.857 245.547 267.861C245.608 267.865 245.744 267.874 245.817 267.879C245.908 267.886 246.113 267.904 246.226 267.914C246.374 267.929 246.718 267.967 246.915 267.991C247.194 268.029 247.892 268.14 248.31 268.218C249.015 268.37 251.101 268.972 252.455 269.493C255.981 271.408 264.693 284.058 264.116 295.599C260.545 302.054 252.954 307.927 250.844 308.754C249.899 309.043 248.413 309.401 247.881 309.502C247.545 309.558 246.976 309.641 246.745 309.67C246.576 309.689 246.278 309.721 246.15 309.733C246.049 309.742 245.866 309.757 245.785 309.763C245.718 309.768 245.595 309.776 245.539 309.78C245.491 309.782 245.402 309.788 245.361 309.79C245.326 309.792 245.259 309.795 245.228 309.796C245.152 309.8 245.088 309.803 245.04 309.804C244.991 309.806 244.949 309.808 244.916 309.809C244.882 309.81 244.852 309.811 244.827 309.811C244.779 309.813 244.739 309.814 244.712 309.814C244.683 309.815 244.659 309.815 244.642 309.816C244.607 309.816 244.581 309.817 244.568 309.817C244.553 309.817 244.543 309.817 244.538 309.817C244.533 309.817 244.531 309.817 244.532 309.817C244.535 309.817 244.544 309.817 244.562 309.817C244.596 309.817 244.645 309.816 244.708 309.816C244.77 309.816 244.84 309.815 244.916 309.815C244.993 309.815 245.072 309.814 245.154 309.814C245.234 309.813 245.317 309.813 245.396 309.813C245.475 309.812 245.554 309.812 245.627 309.811C245.663 309.811 245.7 309.811 245.735 309.811C245.77 309.811 245.806 309.81 245.842 309.81C245.876 309.81 245.919 309.809 245.963 309.809C245.986 309.809 246.014 309.808 246.045 309.808C246.061 309.808 246.08 309.807 246.1 309.807C246.12 309.807 246.145 309.806 246.174 309.806C246.201 309.805 246.238 309.804 246.281 309.803C246.303 309.803 246.329 309.802 246.358 309.801C246.387 309.801 246.422 309.8 246.462 309.798C246.501 309.797 246.552 309.795 246.612 309.793C246.636 309.792 246.687 309.79 246.714 309.789C246.745 309.787 246.811 309.784 246.847 309.782C246.887 309.78 246.976 309.775 247.024 309.773C247.08 309.769 247.204 309.761 247.273 309.756C247.356 309.75 247.544 309.735 247.649 309.726C247.784 309.714 248.102 309.681 248.284 309.66C248.541 309.628 249.189 309.531 249.578 309.464C250.236 309.332 252.217 308.8 253.516 308.335C257.056 306.529 266.321 293.202 265.182 280.761C261.31 274.667 253.715 269.363 251.748 268.673C250.886 268.438 249.532 268.146 249.047 268.064C248.742 268.018 248.226 267.951 248.015 267.928C247.862 267.912 247.591 267.887 247.474 267.877C247.382 267.87 247.216 267.858 247.142 267.853C247.081 267.849 246.968 267.842 246.917 267.839C246.873 267.837 246.792 267.833 246.755 267.831C246.722 267.83 246.661 267.827 246.632 267.826C246.606 267.825 246.558 267.823 246.535 267.822C246.48 267.82 246.431 267.819 246.394 267.818C246.356 267.816 246.322 267.816 246.294 267.815C246.24 267.814 246.194 267.813 246.162 267.812C246.128 267.811 246.099 267.811 246.075 267.811C246.03 267.81 245.99 267.809 245.962 267.809C245.932 267.809 245.904 267.809 245.88 267.808C245.856 267.808 245.832 267.808 245.81 267.808C245.765 267.808 245.718 267.807 245.67 267.807C245.621 267.807 245.568 267.807 245.511 267.807C245.397 267.806 245.26 267.806 245.097 267.805C244.934 267.805 244.742 267.805 244.519 267.804L244.486 288.804L244.453 309.804C244.67 309.805 244.852 309.805 245.004 309.805C245.156 309.806 245.276 309.806 245.367 309.806C245.413 309.806 245.45 309.807 245.479 309.807C245.509 309.807 245.528 309.807 245.539 309.807C245.544 309.807 245.545 309.807 245.542 309.807C245.541 309.807 245.533 309.807 245.52 309.807C245.508 309.807 245.483 309.806 245.45 309.806C245.432 309.806 245.408 309.805 245.379 309.805C245.352 309.804 245.31 309.803 245.26 309.802C245.234 309.802 245.202 309.801 245.165 309.8C245.129 309.799 245.082 309.797 245.028 309.795C245.005 309.794 244.958 309.793 244.933 309.792C244.905 309.79 244.844 309.788 244.812 309.786C244.775 309.785 244.694 309.78 244.651 309.778C244.6 309.775 244.488 309.769 244.427 309.765C244.353 309.76 244.187 309.748 244.096 309.741C243.979 309.731 243.709 309.706 243.556 309.69C243.345 309.667 242.829 309.6 242.524 309.554C242.039 309.472 240.685 309.18 239.823 308.945C237.857 308.255 230.261 302.951 226.389 296.857C225.25 284.416 234.516 271.089 238.056 269.283C239.355 268.818 241.335 268.286 241.993 268.154C242.383 268.087 243.03 267.991 243.287 267.958C243.469 267.937 243.786 267.904 243.921 267.892C244.026 267.883 244.214 267.868 244.297 267.862C244.365 267.857 244.489 267.849 244.545 267.846C244.592 267.843 244.68 267.838 244.72 267.836C244.755 267.834 244.821 267.831 244.851 267.83C244.878 267.829 244.929 267.827 244.952 267.826C245.01 267.823 245.06 267.822 245.098 267.82C245.137 267.819 245.17 267.818 245.197 267.817C245.225 267.817 245.249 267.816 245.269 267.816C245.309 267.815 245.341 267.814 245.364 267.814C245.388 267.813 245.407 267.813 245.422 267.812C245.437 267.812 245.449 267.812 245.459 267.812C245.477 267.812 245.49 267.812 245.497 267.811C245.508 267.811 245.511 267.811 245.5 267.811C245.491 267.811 245.477 267.812 245.456 267.812C245.436 267.812 245.412 267.812 245.384 267.812C245.329 267.812 245.264 267.813 245.19 267.813C245.117 267.814 245.039 267.814 244.958 267.814C244.878 267.815 244.794 267.815 244.713 267.815C244.632 267.816 244.551 267.816 244.474 267.817C244.399 267.817 244.322 267.818 244.251 267.818C244.216 267.818 244.177 267.819 244.139 267.819C244.119 267.819 244.098 267.819 244.075 267.82C244.053 267.82 244.026 267.82 243.997 267.821C243.969 267.821 243.931 267.822 243.885 267.822C243.862 267.823 243.833 267.823 243.8 267.824C243.768 267.825 243.724 267.826 243.673 267.827C243.646 267.828 243.615 267.829 243.579 267.83C243.544 267.831 243.5 267.833 243.45 267.834C243.401 267.836 243.336 267.839 243.259 267.843C243.228 267.844 243.16 267.847 243.124 267.849C243.083 267.852 242.994 267.857 242.946 267.86C242.889 267.863 242.766 267.872 242.698 267.876C242.616 267.883 242.434 267.898 242.332 267.907C242.204 267.919 241.906 267.95 241.736 267.97C241.505 267.999 240.936 268.081 240.6 268.138C240.068 268.238 238.582 268.596 237.637 268.885C235.527 269.713 227.935 275.585 224.365 282.041C223.787 293.582 232.5 306.231 236.026 308.146C237.379 308.667 239.466 309.27 240.171 309.422C240.589 309.5 241.287 309.611 241.566 309.649C241.763 309.673 242.108 309.711 242.256 309.726C242.369 309.736 242.574 309.754 242.665 309.761C242.74 309.766 242.875 309.775 242.937 309.779C242.989 309.783 243.086 309.788 243.13 309.791C243.169 309.793 243.241 309.796 243.275 309.798C243.356 309.802 243.425 309.804 243.477 309.806C243.53 309.808 243.575 309.81 243.612 309.811C243.649 309.812 243.682 309.813 243.709 309.813C243.763 309.815 243.809 309.816 243.842 309.816C243.876 309.817 243.906 309.818 243.93 309.818C243.954 309.818 243.976 309.819 243.995 309.819C244.032 309.819 244.065 309.82 244.092 309.82C244.119 309.82 244.146 309.821 244.17 309.821C244.194 309.821 244.218 309.821 244.241 309.821C244.288 309.822 244.337 309.822 244.388 309.822L244.488 288.822ZM288.6 325V346C302.407 346 313.6 334.807 313.6 321H292.6H271.6C271.6 311.611 279.211 304 288.6 304V325ZM246.741 321.277L225.792 322.732C226.702 335.835 237.597 346 250.732 346V325V304C259.664 304 267.072 310.912 267.691 319.822L246.741 321.277ZM564.273 43.698L584.129 36.8622C580.656 26.7727 571.161 20 560.491 20V41V62C553.234 62 546.778 57.3945 544.416 50.5337L564.273 43.698ZM634.326 225.214L614.47 218.378C619.733 203.09 641.355 203.089 646.618 218.378L626.762 225.214L606.906 232.05C614.646 254.533 646.442 254.532 654.182 232.05L634.326 225.214ZM700.597 41V20C689.927 20 680.432 26.7727 676.959 36.8622L696.815 43.6979L716.671 50.5337C714.309 57.3945 707.853 62 700.597 62V41ZM671.742 325V346C682.256 346 691.647 339.421 695.238 329.538L675.501 322.366L655.764 315.194C658.206 308.474 664.592 304 671.742 304V325ZM287.082 138.386L287.909 159.37C303.196 158.767 314.87 144.416 311.238 128.823L290.785 133.588L270.333 138.352C267.822 127.573 275.908 117.81 286.255 117.402L287.082 138.386ZM584.791 322.357L565.036 329.48C568.61 339.393 578.016 346 588.554 346V325V304C595.719 304 602.115 308.493 604.546 315.234L584.791 322.357ZM209.946 137.944L189.392 142.248C191.799 153.746 202.182 162.748 214.939 162.245L214.113 141.262L213.286 120.278C222.025 119.933 228.917 126.079 230.5 133.641L209.946 137.944ZM485.275 46.3568L505.03 39.2338C509.025 50.3134 500.816 62 489.038 62V41V20C471.718 20 459.645 37.1862 465.52 53.4797L485.275 46.3568ZM856.544 101H877.544C877.544 87.1929 866.351 76 852.544 76V97V118C843.155 118 835.544 110.389 835.544 101H856.544ZM778.944 101H799.944C799.944 110.389 792.333 118 782.944 118V97V76C769.137 76 757.944 87.1929 757.944 101H778.944ZM947.824 321H926.824C926.824 311.611 934.435 304 943.824 304V325V346C957.631 346 968.824 334.807 968.824 321H947.824ZM955.218 184.855L973.036 173.742C959.738 152.42 926.824 161.842 926.824 186.972H947.824H968.824C968.824 204.06 946.442 210.468 937.399 195.968L955.218 184.855ZM1043.42 45H1064.42C1064.42 54.3889 1056.81 62 1047.42 62V41V20C1033.62 20 1022.42 31.1929 1022.42 45H1043.42ZM161 222.6H140C140 236.407 151.193 247.6 165 247.6V226.6V205.6C174.389 205.6 182 213.211 182 222.6H161ZM946.344 41V62C940.339 62 934.78 58.8319 931.719 53.6656L949.786 42.961L967.853 32.2564C963.351 24.659 955.175 20 946.344 20V41ZM165 174.6V153.6C151.193 153.6 140 164.793 140 178.6H161H182C182 187.989 174.389 195.6 165 195.6V174.6ZM869.424 45H890.424C890.424 54.3888 882.813 62 873.424 62V41V20C859.617 20 848.424 31.1929 848.424 45H869.424ZM1289.7 41V20C1275.9 20 1264.7 31.1929 1264.7 45H1285.7H1306.7C1306.7 54.3888 1299.09 62 1289.7 62V41ZM1359.3 325V346C1373.11 346 1384.3 334.807 1384.3 321H1363.3H1342.3C1342.3 311.611 1349.92 304 1359.3 304V325ZM292.6 178.6H313.6C313.6 164.793 302.407 153.6 288.6 153.6V174.6V195.6C279.211 195.6 271.6 187.989 271.6 178.6H292.6ZM869.424 321H848.424C848.424 334.807 859.617 346 873.424 346V325V304C882.813 304 890.424 311.611 890.424 321H869.424ZM852.544 313V334C866.351 334 877.544 322.807 877.544 309H856.544H835.544C835.544 299.611 843.155 292 852.544 292V313ZM1287.56 321.154L1266.57 321.961C1267.09 335.384 1278.12 346 1291.55 346V325V304C1300.69 304 1308.19 311.219 1308.54 320.347L1287.56 321.154ZM1044.84 325V304C1050.71 304 1056.16 307.025 1059.27 312.004L1041.45 323.117L1023.63 334.23C1028.2 341.551 1036.22 346 1044.84 346V325ZM857.744 71.4H836.744C836.744 62.0111 844.355 54.4 853.744 54.4V75.4V96.4C867.551 96.4 878.744 85.2071 878.744 71.4H857.744ZM778.944 309H757.944C757.944 322.807 769.137 334 782.944 334V313V292C792.333 292 799.944 299.611 799.944 309H778.944ZM1278 306.48L1293.9 320.208C1288.55 326.396 1281.53 326.314 1277.92 325.319C1274.25 324.308 1266.49 319.944 1266.11 309.898L1287.09 309.091L1308.08 308.284C1307.53 294.123 1296.58 286.895 1289.08 284.828C1281.63 282.777 1270.15 283.447 1262.11 292.752L1278 306.48ZM1121.82 321H1100.82C1100.82 311.611 1108.43 304 1117.82 304V325V346C1131.63 346 1142.82 334.807 1142.82 321H1121.82ZM853.744 21V42C844.355 42 836.744 34.3888 836.744 25H857.744H878.744C878.744 11.1929 867.551 0 853.744 0V21ZM1285.7 123.256H1264.7C1264.7 112.65 1272.94 108.282 1276.05 107.355C1279.19 106.421 1286.35 105.864 1292.01 112.25L1276.28 126.173L1260.56 140.096C1269.02 149.642 1280.89 149.737 1288.03 147.61C1295.16 145.489 1306.7 138.082 1306.7 123.256H1285.7ZM1117.82 41V62C1108.43 62 1100.82 54.3888 1100.82 45H1121.82H1142.82C1142.82 31.1929 1131.63 20 1117.82 20V41ZM777.744 25L798.744 24.9998C798.744 34.3887 791.133 42 781.744 42V21V0C767.937 0 756.744 11.193 756.744 25.0002L777.744 25ZM1363.3 45H1384.3C1384.3 31.1929 1373.11 20 1359.3 20V41V62C1349.92 62 1342.3 54.3888 1342.3 45H1363.3ZM209.548 226.6V247.6C199.657 247.6 190.173 238.359 192.86 226.522L213.339 231.171L233.818 235.82C237.589 219.208 224.335 205.6 209.548 205.6V226.6ZM1035.98 188.441L1017.92 199.145C1030.88 221.022 1064.42 211.83 1064.42 186.402H1043.42H1022.42C1022.42 169.111 1045.24 162.86 1054.05 177.736L1035.98 188.441ZM777.744 71.4L756.744 71.3999C756.744 85.207 767.937 96.4 781.744 96.4V75.4V54.4C791.133 54.4 798.744 62.0112 798.744 71.4001L777.744 71.4Z" fill="black" mask="url(#path-1-outside-1_2719_903)"/>
</svg>
