<svg width="110" height="36" viewBox="0 0 110 36" fill="none" xmlns="http://www.w3.org/2000/svg">
<g clip-path="url(#clip0_2006_11)">
<path d="M95.7516 8.60156C97.2985 8.60156 98.6735 8.94531 99.8766 9.63281C101.08 10.3047 102.056 11.2422 102.806 12.4453V2.25781C102.806 1.15324 103.702 0.257812 104.806 0.257812H107.58C108.684 0.257812 109.58 1.15324 109.58 2.25781V32.7578C109.58 33.8624 108.684 34.7578 107.58 34.7578H105.088C103.983 34.7578 103.088 33.8624 103.088 32.7578V31.2188C102.134 32.7344 101.048 33.8359 99.8297 34.5234C98.611 35.2109 97.0953 35.5547 95.2828 35.5547C92.2985 35.5547 89.7828 34.3516 87.736 31.9453C85.7047 29.5234 84.6891 26.4219 84.6891 22.6406C84.6891 18.2812 85.6891 14.8516 87.6891 12.3516C89.7047 9.85156 92.3922 8.60156 95.7516 8.60156ZM97.2047 29.9297C99.0953 29.9297 100.533 29.2266 101.517 27.8203C102.502 26.4141 102.994 24.5938 102.994 22.3594C102.994 19.2344 102.205 17 100.627 15.6562C99.6578 14.8438 98.5328 14.4375 97.2516 14.4375C95.2985 14.4375 93.861 15.1797 92.9391 16.6641C92.0328 18.1328 91.5797 19.9609 91.5797 22.1484C91.5797 24.5078 92.0406 26.3984 92.9625 27.8203C93.9 29.2266 95.3141 29.9297 97.2047 29.9297Z" fill="black"/>
<path d="M66.3422 8.60156C68.9828 8.60156 71.1391 9.29688 72.8109 10.6875C74.4984 12.0625 75.3422 14.3516 75.3422 17.5547V32.7578C75.3422 33.8624 74.4468 34.7578 73.3422 34.7578H70.4984C69.3939 34.7578 68.4984 33.8624 68.4984 32.7578V19.2188C68.4984 17.875 68.3188 16.8438 67.9594 16.125C67.3031 14.8125 66.0531 14.1562 64.2094 14.1562C61.9438 14.1562 60.3891 15.1172 59.5453 17.0391C59.1078 18.0547 58.8891 19.3516 58.8891 20.9297V32.7578C58.8891 33.8624 57.9936 34.7578 56.8891 34.7578H54.2328C53.1282 34.7578 52.2328 33.8624 52.2328 32.7578V11.2578C52.2328 10.1532 53.1282 9.25781 54.2328 9.25781H56.6781C57.7827 9.25781 58.6781 10.1532 58.6781 11.2578V12.9844C59.5375 11.6719 60.35 10.7266 61.1156 10.1484C62.4906 9.11719 64.2328 8.60156 66.3422 8.60156Z" fill="black"/>
<path d="M40.8937 4.16406C40.8937 5.26863 39.9983 6.16406 38.8937 6.16406H36.1203C35.0157 6.16406 34.1203 5.26863 34.1203 4.16406V2C34.1203 0.895431 35.0157 0 36.1203 0H38.8937C39.9983 0 40.8937 0.895431 40.8937 2V4.16406ZM34.1203 11.2109C34.1203 10.1064 35.0157 9.21094 36.1203 9.21094H38.8937C39.9983 9.21094 40.8937 10.1064 40.8937 11.2109V32.7578C40.8937 33.8624 39.9983 34.7578 38.8937 34.7578H36.1203C35.0157 34.7578 34.1203 33.8624 34.1203 32.7578V11.2109Z" fill="black"/>
<path d="M17.8407 10.6564C18.0877 9.80036 18.8713 9.21094 19.7623 9.21094H22.5826C23.9682 9.21094 24.934 10.5858 24.464 11.8893L16.6953 33.4362C16.4093 34.2292 15.6568 34.7578 14.8138 34.7578H10.5714C9.72721 34.7578 8.97392 34.2277 8.68887 33.4331L0.95967 11.8862C0.492282 10.5833 1.45797 9.21094 2.84222 9.21094H5.98649C6.88177 9.21094 7.66798 9.80591 7.91124 10.6675L11.8684 24.6832C12.1418 25.6513 13.5127 25.6553 13.7916 24.6887L17.8407 10.6564Z" fill="black"/>
</g>
<defs>
<clipPath id="clip0_2006_11">
<rect width="109.58" height="35.5547" fill="white"/>
</clipPath>
</defs>
</svg>
