<svg width="215" height="226" viewBox="0 0 215 226" fill="none" xmlns="http://www.w3.org/2000/svg">
<g filter="url(#filter0_d_480_4610)">
<path d="M100.105 2.46582C86.8299 2.46582 59.5806 8.14856 47.3161 13.2287C35.0516 18.3088 44.4385 33.8176 35.0516 43.2045C25.6648 52.5913 11.7924 52.6043 6.71224 64.8688C1.63211 77.1333 26.3189 102.918 26.3189 116.193C26.3189 129.468 12.6375 129.973 17.7177 142.238C22.7978 154.502 19.2384 165.646 28.6253 175.033C38.0121 184.42 49.1559 153.114 61.4204 158.194C73.6849 163.274 86.8299 204.641 100.105 204.641L100.105 103.553V2.46582Z" fill="black"/>
<mask id="path-2-inside-1_480_4610" fill="white">
<path d="M101.088 2.46582C114.363 2.46582 127.508 5.08053 139.773 10.1606C152.037 15.2408 163.181 22.6868 172.568 32.0737C181.955 41.4605 189.401 52.6043 194.481 64.8688C199.561 77.1333 202.176 90.2783 202.176 103.553C202.176 116.828 199.561 129.973 194.481 142.238C189.401 154.502 181.955 165.646 172.568 175.033C163.181 184.42 152.037 191.866 139.773 196.946C127.508 202.026 114.363 204.641 101.088 204.641L101.088 103.553V2.46582Z"/>
</mask>
<path d="M101.088 2.46582C114.363 2.46582 127.508 5.08053 139.773 10.1606C152.037 15.2408 163.181 22.6868 172.568 32.0737C181.955 41.4605 189.401 52.6043 194.481 64.8688C199.561 77.1333 202.176 90.2783 202.176 103.553C202.176 116.828 199.561 129.973 194.481 142.238C189.401 154.502 181.955 165.646 172.568 175.033C163.181 184.42 152.037 191.866 139.773 196.946C127.508 202.026 114.363 204.641 101.088 204.641L101.088 103.553V2.46582Z" fill="white" stroke="white" mask="url(#path-2-inside-1_480_4610)"/>
<circle cx="101.091" cy="2.46555" r="2.21555" fill="black" stroke="black" stroke-width="0.5"/>
<circle cx="120.337" cy="4.93137" r="2.21555" fill="black" stroke="black" stroke-width="0.5"/>
<circle cx="142.942" cy="11.593" r="2.21555" fill="black" stroke="black" stroke-width="0.5"/>
<circle cx="120.337" cy="23.1853" r="2.21555" fill="black" stroke="black" stroke-width="0.5"/>
<circle cx="101.091" cy="34.778" r="2.21555" fill="black" stroke="black" stroke-width="0.5"/>
<circle cx="163.769" cy="24.4956" r="2.21555" transform="rotate(79.6144 163.769 24.4956)" fill="black" stroke="black" stroke-width="0.5"/>
<circle cx="178.894" cy="40.0869" r="2.21555" transform="rotate(79.6144 178.894 40.0869)" fill="black" stroke="black" stroke-width="0.5"/>
<circle cx="2.46555" cy="2.46555" r="2.21555" transform="matrix(1 0 0 -1 98.625 207.106)" fill="black" stroke="black" stroke-width="0.5"/>
<circle cx="2.46555" cy="2.46555" r="2.21555" transform="matrix(1 0 0 -1 119.816 204.641)" fill="black" stroke="black" stroke-width="0.5"/>
<circle cx="2.46555" cy="2.46555" r="2.21555" transform="matrix(1 0 0 -1 120.961 191.569)" fill="black" stroke="black" stroke-width="0.5"/>
<circle cx="2.46555" cy="2.46555" r="2.21555" transform="matrix(1 0 0 -1 141.523 197.68)" fill="black" stroke="black" stroke-width="0.5"/>
<circle cx="2.46555" cy="2.46555" r="2.21555" transform="matrix(0.180272 -0.983617 -0.983617 -0.180272 167.148 184.656)" fill="black" stroke="black" stroke-width="0.5"/>
<circle cx="2.46555" cy="2.46555" r="2.21555" transform="matrix(0.180272 -0.983617 -0.983617 -0.180272 183.629 167.261)" fill="black" stroke="black" stroke-width="0.5"/>
<circle cx="2.46555" cy="2.46555" r="2.21555" transform="matrix(0.180272 -0.983617 -0.983617 -0.180272 196.176 144.958)" fill="black" stroke="black" stroke-width="0.5"/>
<circle cx="2.46555" cy="2.46555" r="2.21555" transform="matrix(0.180272 -0.983617 -0.983617 -0.180272 202.176 121.825)" fill="black" stroke="black" stroke-width="0.5"/>
<circle cx="2.46555" cy="2.46555" r="1.96555" transform="matrix(0.180272 -0.983617 -0.983617 -0.180272 204.16 99.4653)" fill="black" stroke="black"/>
<circle cx="2.46555" cy="2.46555" r="2.21555" transform="matrix(0.180272 -0.983617 -0.983617 -0.180272 198.418 72.584)" fill="black" stroke="black" stroke-width="0.5"/>
<circle cx="2.46555" cy="2.46555" r="2.21555" transform="matrix(0.180272 -0.983617 -0.983617 -0.180272 180.41 82.9673)" fill="black" stroke="black" stroke-width="0.5"/>
<circle cx="2.46555" cy="2.46555" r="1.96555" transform="matrix(0.180272 -0.983617 -0.983617 -0.180272 180.41 103.325)" fill="black" stroke="black"/>
<circle cx="2.46555" cy="2.46555" r="2.21555" transform="matrix(0.180272 -0.983617 -0.983617 -0.180272 179.871 124.695)" fill="black" stroke="black" stroke-width="0.5"/>
<circle cx="2.46555" cy="2.46555" r="2.21555" transform="matrix(0.180272 -0.983617 -0.983617 -0.180272 174.672 149.808)" fill="black" stroke="black" stroke-width="0.5"/>
<circle cx="142.945" cy="29.3462" r="2.21555" transform="rotate(79.6144 142.945 29.3462)" fill="black" stroke="black" stroke-width="0.5"/>
<line x1="101.273" y1="2.29568" x2="120.52" y2="23.0156" stroke="black" stroke-width="0.5"/>
<line x1="143.055" y1="11.8152" x2="120.449" y2="23.408" stroke="black" stroke-width="0.5"/>
<line x1="163.822" y1="24.7391" x2="142.998" y2="29.5894" stroke="black" stroke-width="0.5"/>
<line x1="142.876" y1="29.5874" x2="120.269" y2="23.4268" stroke="black" stroke-width="0.5"/>
<line x1="178.823" y1="40.3265" x2="142.872" y2="29.5858" stroke="black" stroke-width="0.5"/>
<line x1="120.586" y1="4.93115" x2="120.586" y2="23.1855" stroke="black" stroke-width="0.5"/>
<line x1="120.586" y1="23.1855" x2="120.586" y2="41.4399" stroke="black" stroke-width="0.5"/>
<line x1="101.172" y1="34.4803" x2="120.419" y2="41.2037" stroke="black" stroke-width="0.5"/>
<line x1="108.072" y1="52.7736" x2="119.959" y2="41.2602" stroke="black" stroke-width="0.5"/>
<line x1="100.86" y1="69.6156" x2="108.018" y2="52.9691" stroke="black" stroke-width="0.5"/>
<line x1="122.375" y1="68.9743" x2="101.103" y2="69.9642" stroke="black" stroke-width="0.5"/>
<line x1="108.013" y1="53.0972" x2="100.856" y2="34.8695" stroke="black" stroke-width="0.5"/>
<line x1="100.96" y1="34.5025" x2="120.005" y2="22.9715" stroke="black" stroke-width="0.5"/>
<line x1="143.191" y1="11.0918" x2="143.191" y2="29.3462" stroke="black" stroke-width="0.5"/>
<circle cx="120.137" cy="41.4397" r="2.21555" fill="black" stroke="black" stroke-width="0.5"/>
<circle cx="108.247" cy="53.0061" r="2.21555" fill="black" stroke="black" stroke-width="0.5"/>
<circle cx="101.091" cy="69.7141" r="2.21555" fill="black" stroke="black" stroke-width="0.5"/>
<circle cx="142.742" cy="47.6006" r="2.21555" transform="rotate(79.6144 142.742 47.6006)" fill="black" stroke="black" stroke-width="0.5"/>
<circle cx="122.359" cy="68.7246" r="2.21555" transform="rotate(79.6144 122.359 68.7246)" fill="black" stroke="black" stroke-width="0.5"/>
<circle cx="122.601" cy="87.5229" r="1.96555" transform="rotate(79.6144 122.601 87.5229)" fill="black" stroke="black"/>
<circle cx="128.687" cy="110.163" r="1.96555" transform="rotate(79.6144 128.687 110.163)" fill="black" stroke="black"/>
<circle cx="101.09" cy="103.837" r="1.96555" transform="rotate(79.6144 101.09 103.837)" fill="black" stroke="black"/>
<circle cx="127.691" cy="149.364" r="2.21555" transform="rotate(79.6144 127.691 149.364)" fill="black" stroke="black" stroke-width="0.5"/>
<circle cx="116.945" cy="168.15" r="2.21555" transform="rotate(79.6144 116.945 168.15)" fill="black" stroke="black" stroke-width="0.5"/>
<circle cx="138.414" cy="162.411" r="2.21555" transform="rotate(79.6144 138.414 162.411)" fill="black" stroke="black" stroke-width="0.5"/>
<circle cx="144.39" cy="177.58" r="2.21555" transform="rotate(79.6144 144.39 177.58)" fill="black" stroke="black" stroke-width="0.5"/>
<circle cx="102.465" cy="181.787" r="2.21555" transform="rotate(79.6144 102.465 181.787)" fill="black" stroke="black" stroke-width="0.5"/>
<circle cx="152.832" cy="131.512" r="2.21555" transform="rotate(79.6144 152.832 131.512)" fill="black" stroke="black" stroke-width="0.5"/>
<circle cx="152.832" cy="147.383" r="2.21555" transform="rotate(79.6144 152.832 147.383)" fill="black" stroke="black" stroke-width="0.5"/>
<circle cx="160.781" cy="164.392" r="2.21555" transform="rotate(79.6144 160.781 164.392)" fill="black" stroke="black" stroke-width="0.5"/>
<line x1="142.856" y1="30.0696" x2="120.249" y2="41.6624" stroke="black" stroke-width="0.5"/>
<line x1="142.676" y1="47.8418" x2="120.069" y2="41.6812" stroke="black" stroke-width="0.5"/>
<line x1="142.992" y1="29.3462" x2="142.992" y2="47.6006" stroke="black" stroke-width="0.5"/>
<circle cx="178.429" cy="58.3413" r="2.21555" transform="rotate(79.6144 178.429 58.3413)" fill="black" stroke="black" stroke-width="0.5"/>
<circle cx="158.047" cy="68.7246" r="2.21555" transform="rotate(79.6144 158.047 68.7246)" fill="black" stroke="black" stroke-width="0.5"/>
<circle cx="150.394" cy="85.5669" r="1.96555" transform="rotate(79.6144 150.394 85.5669)" fill="black" stroke="black"/>
<line x1="178.474" y1="40.8331" x2="142.99" y2="47.8458" stroke="black" stroke-width="0.5"/>
<line x1="178.353" y1="58.5806" x2="142.869" y2="47.8399" stroke="black" stroke-width="0.5"/>
<line x1="178.676" y1="40.0869" x2="178.676" y2="58.3413" stroke="black" stroke-width="0.5"/>
<line x1="178.676" y1="60.5869" x2="178.676" y2="78.8413" stroke="black" stroke-width="0.5"/>
<line x1="178.676" y1="80.2769" x2="178.676" y2="98.5312" stroke="black" stroke-width="0.5"/>
<line x1="178.676" y1="100.462" x2="178.136" y2="121.832" stroke="black" stroke-width="0.5"/>
<line x1="178.135" y1="121.876" x2="172.936" y2="146.989" stroke="black" stroke-width="0.5"/>
<line x1="158.762" y1="107.434" x2="178.602" y2="99.9873" stroke="black"/>
<line x1="172.636" y1="146.695" x2="194.143" y2="141.844" stroke="black" stroke-width="0.5"/>
<line x1="181.427" y1="164.508" x2="172.468" y2="147.5" stroke="black" stroke-width="0.5"/>
<line x1="159.086" y1="107.701" x2="178.037" y2="121.624" stroke="black" stroke-width="0.5"/>
<line x1="150.862" y1="85.364" x2="159.404" y2="107.724" stroke="black"/>
<line x1="178.124" y1="121.577" x2="200.162" y2="118.708" stroke="black" stroke-width="0.5"/>
<line x1="178.352" y1="121.67" x2="194.389" y2="141.933" stroke="black" stroke-width="0.5"/>
<line x1="158.174" y1="68.5071" x2="178.553" y2="80.0597" stroke="black" stroke-width="0.5"/>
<line x1="158.278" y1="68.828" x2="150.625" y2="85.6704" stroke="black" stroke-width="0.5"/>
<line x1="150.629" y1="85.4449" x2="178.663" y2="100.369" stroke="black"/>
<line x1="122.49" y1="68.5093" x2="150.524" y2="85.0471" stroke="black" stroke-width="0.5"/>
<line x1="158.26" y1="69.5773" x2="178.639" y2="100.673" stroke="black" stroke-width="0.5"/>
<line x1="122.598" y1="68.4746" x2="158.047" y2="68.4746" stroke="black" stroke-width="0.5"/>
<line x1="122.583" y1="87.2734" x2="150.378" y2="85.6363" stroke="black" stroke-width="0.5"/>
<line x1="130.235" y1="109.914" x2="158.031" y2="108.276" stroke="black" stroke-width="0.5"/>
<line x1="128.097" y1="109.975" x2="122.118" y2="88.5711" stroke="black"/>
<line x1="128.524" y1="110.084" x2="101.518" y2="104.082" stroke="black" stroke-width="0.5"/>
<line x1="153.101" y1="131.7" x2="128.415" y2="110.008" stroke="black" stroke-width="0.5"/>
<line x1="152.593" y1="131.451" x2="158.516" y2="107.841" stroke="black" stroke-width="0.5"/>
<line x1="127.542" y1="149.163" x2="153.117" y2="130.19" stroke="black" stroke-width="0.5"/>
<line x1="127.511" y1="149.719" x2="107.387" y2="128.816" stroke="black" stroke-width="0.5"/>
<line x1="127.691" y1="149.614" x2="101.576" y2="149.614" stroke="black" stroke-width="0.5"/>
<line x1="116.756" y1="168.308" x2="101.384" y2="149.522" stroke="black" stroke-width="0.5"/>
<line x1="116.734" y1="168.024" x2="127.477" y2="149.682" stroke="black" stroke-width="0.5"/>
<line x1="102.295" y1="181.603" x2="116.778" y2="168.225" stroke="black" stroke-width="0.5"/>
<line x1="116.884" y1="167.909" x2="138.084" y2="162.169" stroke="black" stroke-width="0.5"/>
<line x1="117.029" y1="168.095" x2="144.473" y2="177.343" stroke="black" stroke-width="0.5"/>
<line x1="102.44" y1="181.538" x2="144.367" y2="177.331" stroke="black" stroke-width="0.5"/>
<line x1="107.538" y1="128.708" x2="101.816" y2="149.873" stroke="black" stroke-width="0.5"/>
<line x1="152.836" y1="147.133" x2="172.691" y2="147.133" stroke="black" stroke-width="0.5"/>
<line x1="160.576" y1="164.248" x2="172.485" y2="147.24" stroke="black" stroke-width="0.5"/>
<line x1="181.648" y1="164.642" x2="160.781" y2="164.642" stroke="black" stroke-width="0.5"/>
<line x1="153.01" y1="148.644" x2="138.588" y2="162.59" stroke="black" stroke-width="0.5"/>
<line x1="153.057" y1="148.347" x2="161.004" y2="163.284" stroke="black" stroke-width="0.5"/>
<line x1="161.022" y1="164.325" x2="165.818" y2="181.72" stroke="black" stroke-width="0.5"/>
<line x1="160.938" y1="164.586" x2="144.547" y2="177.775" stroke="black" stroke-width="0.5"/>
<line x1="144.641" y1="178.068" x2="144.237" y2="195.22" stroke="black" stroke-width="0.5"/>
<line x1="123.501" y1="188.864" x2="144.06" y2="194.974" stroke="black" stroke-width="0.5"/>
<line x1="123.311" y1="188.883" x2="143.871" y2="177.842" stroke="black" stroke-width="0.5"/>
<line x1="102.951" y1="181.551" x2="123.51" y2="188.868" stroke="black" stroke-width="0.5"/>
<line x1="100.944" y1="204.62" x2="122.726" y2="188.901" stroke="black" stroke-width="0.5"/>
<line x1="123.679" y1="189.111" x2="122.57" y2="202.196" stroke="black" stroke-width="0.5"/>
<line x1="138.647" y1="162.319" x2="144.625" y2="177.488" stroke="black" stroke-width="0.5"/>
<line x1="127.885" y1="149.388" x2="138.341" y2="162.253" stroke="black" stroke-width="0.5"/>
<line x1="138.166" y1="162.162" x2="160.801" y2="164.142" stroke="black" stroke-width="0.5"/>
<line x1="144.436" y1="177.681" x2="165.214" y2="181.541" stroke="black" stroke-width="0.5"/>
<line x1="153.016" y1="149.369" x2="152.676" y2="131.962" stroke="black" stroke-width="0.5"/>
<line x1="153.115" y1="147.632" x2="127.71" y2="149.795" stroke="black" stroke-width="0.5"/>
<line x1="172.535" y1="147.578" x2="152.771" y2="131.707" stroke="black" stroke-width="0.5"/>
<line x1="153.172" y1="131.545" x2="177.796" y2="121.594" stroke="black" stroke-width="0.5"/>
<circle cx="2.46555" cy="2.46555" r="2.21555" transform="matrix(-0.180272 0.983617 0.983617 0.180272 105.332 125.773)" fill="black" stroke="black" stroke-width="0.5"/>
<circle cx="2.46555" cy="2.46555" r="2.21555" transform="matrix(-0.180272 0.983617 0.983617 0.180272 99.5938 146.494)" fill="black" stroke="black" stroke-width="0.5"/>
<line x1="107.153" y1="128.454" x2="128.538" y2="109.895" stroke="black" stroke-width="0.5"/>
<line x1="101.818" y1="103.782" x2="107.466" y2="128.587" stroke="black" stroke-width="0.5"/>
<line x1="152.819" y1="132.206" x2="107.299" y2="129.074" stroke="black" stroke-width="0.5"/>
<line x1="122.845" y1="87.3323" x2="158.294" y2="107.468" stroke="black"/>
<line x1="122.613" y1="69.7111" x2="122.852" y2="87.7639" stroke="black" stroke-width="0.5"/>
<line x1="101.252" y1="69.2798" x2="122.762" y2="87.5767" stroke="black" stroke-width="0.5"/>
<line x1="101.42" y1="103.982" x2="122.445" y2="87.5699" stroke="black" stroke-width="0.5"/>
<line x1="157.935" y1="68.5029" x2="177.775" y2="58.1736" stroke="black" stroke-width="0.5"/>
<line x1="178.338" y1="100.318" x2="202.088" y2="96.1038" stroke="black"/>
<line x1="178.746" y1="100.426" x2="200.514" y2="118.572" stroke="black"/>
<line x1="157.848" y1="68.8713" x2="142.54" y2="47.7473" stroke="black" stroke-width="0.5"/>
<line x1="143.12" y1="47.775" x2="122.539" y2="68.8991" stroke="black" stroke-width="0.5"/>
<line x1="120.382" y1="41.4196" x2="122.61" y2="68.7042" stroke="black" stroke-width="0.5"/>
<line x1="108.432" y1="52.8388" x2="122.547" y2="68.5574" stroke="black" stroke-width="0.5"/>
<line x1="196.562" y1="69.9309" x2="178.553" y2="80.3143" stroke="black" stroke-width="0.5"/>
<line x1="202.032" y1="96.8004" x2="178.75" y2="80.4816" stroke="black" stroke-width="0.5"/>
<line x1="196.304" y1="69.926" x2="178.294" y2="58.607" stroke="black" stroke-width="0.5"/>
</g>
<defs>
<filter id="filter0_d_480_4610" x="6.02344" y="0" width="208.621" height="225.106" filterUnits="userSpaceOnUse" color-interpolation-filters="sRGB">
<feFlood flood-opacity="0" result="BackgroundImageFix"/>
<feColorMatrix in="SourceAlpha" type="matrix" values="0 0 0 0 0 0 0 0 0 0 0 0 0 0 0 0 0 0 127 0" result="hardAlpha"/>
<feOffset dx="6" dy="14"/>
<feGaussianBlur stdDeviation="2"/>
<feComposite in2="hardAlpha" operator="out"/>
<feColorMatrix type="matrix" values="0 0 0 0 0 0 0 0 0 0 0 0 0 0 0 0 0 0 0.25 0"/>
<feBlend mode="normal" in2="BackgroundImageFix" result="effect1_dropShadow_480_4610"/>
<feBlend mode="normal" in="SourceGraphic" in2="effect1_dropShadow_480_4610" result="shape"/>
</filter>
</defs>
</svg>
