<svg width="115" height="50" viewBox="0 0 115 50" fill="none" xmlns="http://www.w3.org/2000/svg">
<g clip-path="url(#clip0_480_4603)">
<path d="M0 0V50H114.844V0H0ZM111.792 46.9535H3.05131V3.04646H111.792V46.9535ZM16.6296 26.2376C16.6296 20.6017 21.3973 17.2506 25.6692 17.2506C28.7205 17.2506 31.5811 18.393 33.1067 21.0586L30.2461 22.7342C29.7503 21.9726 29.0637 21.3633 28.3009 20.9444C27.4999 20.5255 26.6227 20.297 25.7454 20.297C23.2281 20.297 20.2531 22.2772 20.2531 26.1615C20.2531 29.9695 23.1137 32.064 25.9743 32.064C27.9576 32.064 29.6359 30.9596 30.6275 29.2079L33.5263 30.5788C31.8862 33.5491 28.9112 35.1485 25.4785 35.1485C21.1685 35.1485 16.6296 31.8355 16.6296 26.2376ZM43.6719 35.1485C46.0367 35.1485 48.287 34.0823 49.4313 32.559V34.6535H52.9403V17.7075H49.4313V19.802C48.3252 18.2788 46.0367 17.2506 43.6719 17.2506C38.4847 17.2506 34.8612 21.0586 34.8612 26.1995C34.8612 31.2643 38.5228 35.1485 43.6719 35.1485ZM44.0152 20.4874C47.2572 20.4874 49.5075 22.9246 49.5075 26.1995C49.5075 29.4745 47.2572 31.9117 44.0152 31.9117C40.6969 31.9117 38.4465 29.4364 38.4465 26.1234C38.4465 22.8865 40.7732 20.4874 44.0152 20.4874ZM70.7904 20.9825H68.0824V17.5933H70.8286V12.5666H74.452V17.5933H78.228V20.9825H74.452V34.6535H70.7904V20.9825ZM88.2592 35.1485C90.624 35.1485 92.8743 34.0823 94.0185 32.559V34.6535H97.5275V17.7075H94.0185V19.802C92.9124 18.2788 90.624 17.2506 88.2592 17.2506C83.072 17.2506 79.4485 21.0586 79.4485 26.1995C79.4485 31.2643 83.1101 35.1485 88.2592 35.1485ZM88.6025 20.4874C91.8445 20.4874 94.0948 22.9246 94.0948 26.1995C94.0948 29.4745 91.8445 31.9117 88.6025 31.9117C85.2842 31.9117 83.0338 29.4364 83.0338 26.1234C83.0338 22.8865 85.3604 20.4874 88.6025 20.4874ZM60.2634 34.6535H56.6018V17.6695H59.9583V20.6017C60.6448 18.6976 62.1323 17.4029 64.0775 17.4029C64.4971 17.4029 64.9167 17.441 65.3362 17.5171V20.7921C62.59 20.4874 60.3016 22.3915 60.3016 26.7708V34.6535H60.2634Z" fill="black"/>
</g>
<defs>
<clipPath id="clip0_480_4603">
<rect width="114.844" height="50" fill="white"/>
</clipPath>
</defs>
</svg>
