<svg width="30" height="30" viewBox="0 0 30 30" fill="none" xmlns="http://www.w3.org/2000/svg">
<path fill-rule="evenodd" clip-rule="evenodd" d="M18.1026 10.6785C18.1026 10.4023 17.8788 10.1785 17.6026 10.1785H10C11.2843 10.1785 12.4975 10.4751 13.5749 11.0038C13.1679 11.4504 12.9196 12.0444 12.9196 12.6963C12.9196 14.0844 14.0449 15.2097 15.433 15.2097C16.1099 15.2097 16.7242 14.9422 17.1761 14.5071C17.768 15.6334 18.1026 16.9174 18.1026 18.2816L18.1026 10.6785Z" fill="#241E0F"/>
<path fill-rule="evenodd" clip-rule="evenodd" d="M29 0.776764C29 0.36255 28.6642 0.0267639 28.25 0.0267639H0C16.0532 0.0267639 29 13.0664 29 29.1196V0.776764Z" fill="#241E0F"/>
<path d="M0 0.0267639C0.76583 0.0601967 1.51734 0.121009 2.27412 0.209905C9.06103 0.990719 15.436 4.13214 20.172 8.91241C24.9278 13.6736 28.0396 20.0589 28.8175 26.8454C28.906 27.6022 28.9666 28.3539 29 29.1196C29.0332 28.3539 29.036 27.5971 29.007 26.8308C28.7777 19.9578 25.8143 13.1296 20.8809 8.20709C15.9848 3.24823 9.16296 0.252361 2.28887 0.0204781C1.52248 -0.00898519 0.765836 -0.00647108 0 0.0267639Z" fill="#C8910A"/>
</svg>
