<svg width="125" height="30" viewBox="0 0 125 30" fill="none" xmlns="http://www.w3.org/2000/svg">
<path d="M110.172 16.4864V28.6C110.172 28.8761 109.948 29.1 109.672 29.1H104.621C104.344 29.1 104.121 28.8761 104.121 28.6V7.78182C104.121 7.50567 104.344 7.28182 104.621 7.28182H109.388C109.664 7.28182 109.888 7.50567 109.888 7.78182V10.9799C109.888 11.0635 109.955 11.1312 110.039 11.1312C110.102 11.1312 110.158 11.0923 110.181 11.034C110.668 9.8109 111.465 8.83954 112.572 8.11988C113.709 7.37178 115.087 6.99773 116.706 6.99773C118.221 6.99773 119.542 7.32916 120.669 7.99204C121.796 8.65492 122.672 9.60189 123.297 10.833C123.922 12.0545 124.234 13.5129 124.234 15.208V28.6C124.234 28.8761 124.01 29.1 123.734 29.1H118.683C118.407 29.1 118.183 28.8761 118.183 28.6V16.2875C118.193 14.9523 117.852 13.9106 117.16 13.1625C116.469 12.4049 115.517 12.0261 114.305 12.0261C113.491 12.0261 112.771 12.2013 112.146 12.5517C111.531 12.9021 111.048 13.4134 110.697 14.0858C110.356 14.7487 110.181 15.5489 110.172 16.4864Z" fill="#241E0F"/>
<path d="M89.4474 29.5261C87.2409 29.5261 85.3328 29.0574 83.7229 28.1199C82.1226 27.1729 80.8868 25.8566 80.0156 24.171C79.1444 22.4759 78.7087 20.511 78.7087 18.2761C78.7087 16.0223 79.1444 14.0526 80.0156 12.367C80.8868 10.672 82.1226 9.35568 83.7229 8.41818C85.3328 7.47121 87.2409 6.99773 89.4474 6.99773C91.6538 6.99773 93.5572 7.47121 95.1576 8.41818C96.7675 9.35568 98.008 10.672 98.8792 12.367C99.7504 14.0526 100.186 16.0223 100.186 18.2761C100.186 20.511 99.7504 22.4759 98.8792 24.171C98.008 25.8566 96.7675 27.1729 95.1576 28.1199C93.5572 29.0574 91.6538 29.5261 89.4474 29.5261ZM89.4758 24.8386C90.4796 24.8386 91.3176 24.5545 91.99 23.9864C92.6623 23.4087 93.169 22.6227 93.5099 21.6284C93.8603 20.6341 94.0354 19.5025 94.0354 18.2335C94.0354 16.9646 93.8603 15.833 93.5099 14.8386C93.169 13.8443 92.6623 13.0583 91.99 12.4807C91.3176 11.903 90.4796 11.6142 89.4758 11.6142C88.4625 11.6142 87.6103 11.903 86.919 12.4807C86.2371 13.0583 85.7211 13.8443 85.3707 14.8386C85.0298 15.833 84.8593 16.9646 84.8593 18.2335C84.8593 19.5025 85.0298 20.6341 85.3707 21.6284C85.7211 22.6227 86.2371 23.4087 86.919 23.9864C87.6103 24.5545 88.4625 24.8386 89.4758 24.8386Z" fill="#241E0F"/>
<path d="M65.9708 29.5261C63.736 29.5261 61.8136 29.0526 60.2038 28.1057C58.6034 27.1492 57.3723 25.8235 56.5106 24.1284C55.6583 22.4333 55.2322 20.4826 55.2322 18.2761C55.2322 16.0413 55.663 14.0811 56.5248 12.3955C57.396 10.7004 58.6318 9.37935 60.2322 8.43238C61.8326 7.47595 63.736 6.99773 65.9424 6.99773C67.8458 6.99773 69.5125 7.34337 70.9424 8.03466C72.3723 8.72594 73.504 9.69659 74.3373 10.9466C75.083 12.0651 75.5292 13.3581 75.6758 14.8255C75.7043 15.1101 75.4753 15.35 75.1892 15.35H70.4364C70.1885 15.35 69.9806 15.1676 69.9264 14.9257C69.7255 14.0312 69.3256 13.2966 68.7265 12.7222C68.0447 12.0498 67.1498 11.7136 66.0418 11.7136C65.1043 11.7136 64.2852 11.9693 63.5844 12.4807C62.8932 12.9826 62.3534 13.7165 61.9651 14.6824C61.5769 15.6483 61.3827 16.8178 61.3827 18.1909C61.3827 19.583 61.5721 20.7667 61.9509 21.742C62.3392 22.7174 62.8837 23.4608 63.5844 23.9722C64.2852 24.4835 65.1043 24.7392 66.0418 24.7392C66.7331 24.7392 67.3534 24.5972 67.9026 24.3131C68.4613 24.029 68.9206 23.617 69.2805 23.0773C69.5798 22.6321 69.7952 22.1153 69.9266 21.527C69.9806 21.2851 70.1884 21.1028 70.4363 21.1028H75.1859C75.4732 21.1028 75.7026 21.3447 75.6724 21.6304C75.5192 23.081 75.0789 24.3729 74.3515 25.5062C73.5466 26.7657 72.4339 27.7506 71.0134 28.4608C69.593 29.171 67.9121 29.5261 65.9708 29.5261Z" fill="#241E0F"/>
<path d="M50.7655 0.00909424C51.0416 0.00909424 51.2655 0.232952 51.2655 0.509094V28.6C51.2655 28.8761 51.0416 29.1 50.7655 29.1H45.7144C45.4382 29.1 45.2144 28.8761 45.2144 28.6V0.509095C45.2144 0.232953 45.4382 0.00909424 45.7144 0.00909424H50.7655Z" fill="#241E0F"/>
<path d="M28.2331 29.5119C26.841 29.5119 25.6005 29.2705 24.5115 28.7875C23.4225 28.2951 22.5607 27.5706 21.9263 26.6142C21.3013 25.6483 20.9888 24.4456 20.9888 23.0062C20.9888 21.7941 21.2113 20.7761 21.6564 19.9523C22.1015 19.1284 22.7075 18.4655 23.4746 17.9636C24.2416 17.4617 25.1128 17.083 26.0882 16.8273C27.0731 16.5716 28.1052 16.3917 29.1848 16.2875C30.4537 16.1549 31.4765 16.0318 32.253 15.9182C33.0295 15.7951 33.5929 15.6151 33.9433 15.3784C34.2937 15.1417 34.4689 14.7913 34.4689 14.3273V14.242C34.4689 13.3424 34.1848 12.6464 33.6166 12.154C33.0579 11.6616 32.2624 11.4153 31.2302 11.4153C30.1412 11.4153 29.2748 11.6568 28.6308 12.1398C28.1053 12.5262 27.7248 12.9946 27.4894 13.545C27.396 13.7635 27.1822 13.9157 26.9452 13.8965L22.3236 13.5211C22.0227 13.4967 21.8107 13.2126 21.8931 12.9222C22.2038 11.8281 22.7167 10.8665 23.432 10.0375C24.2653 9.06212 25.3401 8.31401 26.6564 7.79318C27.9821 7.26288 29.5162 6.99773 31.2587 6.99773C32.4708 6.99773 33.6308 7.13977 34.7388 7.42386C35.8562 7.70795 36.8458 8.14829 37.7075 8.74488C38.5787 9.34148 39.2653 10.1085 39.7672 11.046C40.2691 11.9741 40.52 13.0867 40.52 14.3841V28.6C40.52 28.8761 40.2962 29.1 40.02 29.1H35.2814C35.0052 29.1 34.7814 28.8761 34.7814 28.6V26.1803C34.7814 26.1218 34.734 26.0744 34.6755 26.0744C34.6359 26.0744 34.5996 26.0967 34.5811 26.1317C34.2341 26.79 33.7753 27.3722 33.2047 27.8784C32.6176 28.3898 31.9121 28.7922 31.0882 29.0858C30.2643 29.3699 29.3126 29.5119 28.2331 29.5119ZM29.966 25.3358C30.8562 25.3358 31.6422 25.1606 32.324 24.8102C33.0058 24.4504 33.5409 23.9674 33.9291 23.3614C34.3174 22.7553 34.5115 22.0687 34.5115 21.3017V19.8412C34.5115 19.4731 34.0814 19.2169 33.7302 19.3273C33.4083 19.422 33.0437 19.5119 32.6365 19.5972C32.2293 19.6729 31.8221 19.7439 31.4149 19.8102C31.0077 19.867 30.6384 19.9191 30.307 19.9665C29.5967 20.0706 28.9765 20.2364 28.4462 20.4636C27.9159 20.6909 27.5039 20.9987 27.2104 21.3869C26.9168 21.7657 26.77 22.2392 26.77 22.8074C26.77 23.6312 27.0683 24.261 27.6649 24.6966C28.271 25.1227 29.038 25.3358 29.966 25.3358Z" fill="#241E0F"/>
<path d="M0.5 29.0909C0.223857 29.0909 0 28.8671 0 28.5909V0.500001C0 0.223859 0.223858 0 0.5 0H18.7614C19.0375 0 19.2614 0.223858 19.2614 0.5V4.57102C19.2614 4.84716 19.0375 5.07102 18.7614 5.07102H6.65057C6.37443 5.07102 6.15057 5.29488 6.15057 5.57102V11.5028C6.15057 11.779 6.37443 12.0028 6.65057 12.0028H17.483C17.7591 12.0028 17.983 12.2267 17.983 12.5028V16.5739C17.983 16.85 17.7591 17.0739 17.483 17.0739H6.65057C6.37443 17.0739 6.15057 17.2977 6.15057 17.5739V28.5909C6.15057 28.8671 5.92671 29.0909 5.65057 29.0909H0.5Z" fill="#241E0F"/>
</svg>
