<svg width="1280" height="693" viewBox="0 0 1280 693" fill="none" xmlns="http://www.w3.org/2000/svg">
<g clip-path="url(#clip0_371_5531)">
<mask id="path-2-inside-1_371_5531" fill="white">
<path d="M0 0H1280V720H0V0Z"/>
</mask>
<path d="M0 0H1280V720H0V0Z" fill="white"/>
<path d="M0 0V0.5H1280V0V-0.5H0V0Z" fill="#E6E6E6" mask="url(#path-2-inside-1_371_5531)"/>
<line x1="-4" y1="692.781" x2="1276" y2="692.781" stroke="#F0EADB" stroke-opacity="0.4"/>
<line x1="-4" y1="340.781" x2="1276" y2="340.781" stroke="#F0EADB" stroke-opacity="0.4"/>
<line x1="-4" y1="116.781" x2="1276" y2="116.781" stroke="#F0EADB" stroke-opacity="0.4"/>
<line x1="-4" y1="468.781" x2="1276" y2="468.781" stroke="#F0EADB" stroke-opacity="0.4"/>
<line x1="-4" y1="20.7808" x2="1276" y2="20.7808" stroke="#F0EADB" stroke-opacity="0.4"/>
<line x1="-4" y1="52.7808" x2="1276" y2="52.7808" stroke="#F0EADB" stroke-opacity="0.4"/>
<line x1="-4" y1="404.781" x2="1276" y2="404.781" stroke="#F0EADB" stroke-opacity="0.4"/>
<line x1="-4" y1="180.781" x2="1276" y2="180.781" stroke="#F0EADB" stroke-opacity="0.4"/>
<line x1="-4" y1="532.781" x2="1276" y2="532.781" stroke="#F0EADB" stroke-opacity="0.4"/>
<line x1="-4" y1="276.781" x2="1276" y2="276.781" stroke="#F0EADB" stroke-opacity="0.4"/>
<line x1="-4" y1="628.781" x2="1276" y2="628.781" stroke="#F0EADB" stroke-opacity="0.4"/>
<line x1="-4" y1="372.781" x2="1276" y2="372.781" stroke="#F0EADB" stroke-opacity="0.4"/>
<line x1="-4" y1="148.781" x2="1276" y2="148.781" stroke="#F0EADB" stroke-opacity="0.4"/>
<line x1="-4" y1="500.781" x2="1276" y2="500.781" stroke="#F0EADB" stroke-opacity="0.4"/>
<line x1="-4" y1="244.781" x2="1276" y2="244.781" stroke="#F0EADB" stroke-opacity="0.4"/>
<line x1="-4" y1="596.781" x2="1276" y2="596.781" stroke="#F0EADB" stroke-opacity="0.4"/>
<line x1="-4" y1="84.7808" x2="1276" y2="84.7808" stroke="#F0EADB" stroke-opacity="0.4"/>
<line x1="-4" y1="436.781" x2="1276" y2="436.781" stroke="#F0EADB" stroke-opacity="0.4"/>
<line x1="-4" y1="212.781" x2="1276" y2="212.781" stroke="#F0EADB" stroke-opacity="0.4"/>
<line x1="-4" y1="564.781" x2="1276" y2="564.781" stroke="#F0EADB" stroke-opacity="0.4"/>
<line x1="-4" y1="308.781" x2="1276" y2="308.781" stroke="#F0EADB" stroke-opacity="0.4"/>
<line x1="-4" y1="660.781" x2="1276" y2="660.781" stroke="#F0EADB" stroke-opacity="0.4"/>
<line x1="668.5" y1="-10.7192" x2="668.5" y2="690.274" stroke="#F0EADB" stroke-opacity="0.4"/>
<line x1="1020.5" y1="-10.7192" x2="1020.5" y2="690.274" stroke="#F0EADB" stroke-opacity="0.4"/>
<line x1="316.5" y1="-10.7192" x2="316.5" y2="690.274" stroke="#F0EADB" stroke-opacity="0.4"/>
<line x1="1244.5" y1="-10.7192" x2="1244.5" y2="690.274" stroke="#F0EADB" stroke-opacity="0.4"/>
<line x1="540.5" y1="-10.7192" x2="540.5" y2="690.274" stroke="#F0EADB" stroke-opacity="0.4"/>
<line x1="892.5" y1="-10.7192" x2="892.5" y2="690.274" stroke="#F0EADB" stroke-opacity="0.4"/>
<line x1="188.5" y1="-10.7192" x2="188.5" y2="690.274" stroke="#F0EADB" stroke-opacity="0.4"/>
<line x1="636.5" y1="-10.7192" x2="636.5" y2="690.274" stroke="#F0EADB" stroke-opacity="0.4"/>
<line x1="604.5" y1="-10.7192" x2="604.5" y2="690.274" stroke="#F0EADB" stroke-opacity="0.4"/>
<line x1="956.5" y1="-10.7192" x2="956.5" y2="690.274" stroke="#F0EADB" stroke-opacity="0.4"/>
<line x1="252.5" y1="-10.7192" x2="252.5" y2="690.274" stroke="#F0EADB" stroke-opacity="0.4"/>
<line x1="1180.5" y1="-10.7192" x2="1180.5" y2="690.274" stroke="#F0EADB" stroke-opacity="0.4"/>
<line x1="476.5" y1="-10.7192" x2="476.5" y2="690.274" stroke="#F0EADB" stroke-opacity="0.4"/>
<line x1="828.5" y1="-10.7192" x2="828.5" y2="690.274" stroke="#F0EADB" stroke-opacity="0.4"/>
<line x1="124.5" y1="-10.7192" x2="124.5" y2="690.274" stroke="#F0EADB" stroke-opacity="0.4"/>
<line x1="1084.5" y1="-10.7192" x2="1084.5" y2="690.274" stroke="#F0EADB" stroke-opacity="0.4"/>
<line x1="380.5" y1="-10.7192" x2="380.5" y2="690.274" stroke="#F0EADB" stroke-opacity="0.4"/>
<line x1="732.5" y1="-10.7192" x2="732.5" y2="690.274" stroke="#F0EADB" stroke-opacity="0.4"/>
<line x1="28.5" y1="-10.7192" x2="28.5" y2="690.274" stroke="#F0EADB" stroke-opacity="0.4"/>
<line x1="988.5" y1="-10.7192" x2="988.5" y2="690.274" stroke="#F0EADB" stroke-opacity="0.4"/>
<line x1="284.5" y1="-10.7192" x2="284.5" y2="690.274" stroke="#F0EADB" stroke-opacity="0.4"/>
<line x1="1212.5" y1="-10.7192" x2="1212.5" y2="690.274" stroke="#F0EADB" stroke-opacity="0.4"/>
<line x1="508.5" y1="-10.7192" x2="508.5" y2="690.274" stroke="#F0EADB" stroke-opacity="0.4"/>
<line x1="860.5" y1="-10.7192" x2="860.5" y2="690.274" stroke="#F0EADB" stroke-opacity="0.4"/>
<line x1="156.5" y1="-10.7192" x2="156.5" y2="690.274" stroke="#F0EADB" stroke-opacity="0.4"/>
<line x1="1116.5" y1="-10.7192" x2="1116.5" y2="690.274" stroke="#F0EADB" stroke-opacity="0.4"/>
<line x1="412.5" y1="-10.7192" x2="412.5" y2="690.274" stroke="#F0EADB" stroke-opacity="0.4"/>
<line x1="764.5" y1="-10.7192" x2="764.5" y2="690.274" stroke="#F0EADB" stroke-opacity="0.4"/>
<line x1="60.5" y1="-10.7192" x2="60.5" y2="690.274" stroke="#F0EADB" stroke-opacity="0.4"/>
<line x1="1276.5" y1="-10.7192" x2="1276.5" y2="690.274" stroke="#F0EADB" stroke-opacity="0.4"/>
<line x1="572.5" y1="-10.7192" x2="572.5" y2="690.274" stroke="#F0EADB" stroke-opacity="0.4"/>
<line x1="924.5" y1="-10.7192" x2="924.5" y2="690.274" stroke="#F0EADB" stroke-opacity="0.4"/>
<line x1="220.5" y1="-10.7192" x2="220.5" y2="690.274" stroke="#F0EADB" stroke-opacity="0.4"/>
<line x1="1148.5" y1="-10.7192" x2="1148.5" y2="690.274" stroke="#F0EADB" stroke-opacity="0.4"/>
<line x1="444.5" y1="-10.7192" x2="444.5" y2="690.274" stroke="#F0EADB" stroke-opacity="0.4"/>
<line x1="796.5" y1="-10.7192" x2="796.5" y2="690.274" stroke="#F0EADB" stroke-opacity="0.4"/>
<line x1="92.5" y1="-10.7192" x2="92.5" y2="690.274" stroke="#F0EADB" stroke-opacity="0.4"/>
<line x1="1052.5" y1="-10.7192" x2="1052.5" y2="690.274" stroke="#F0EADB" stroke-opacity="0.4"/>
<line x1="348.5" y1="-10.7192" x2="348.5" y2="690.274" stroke="#F0EADB" stroke-opacity="0.4"/>
<line x1="700.5" y1="-10.7192" x2="700.5" y2="690.274" stroke="#F0EADB" stroke-opacity="0.4"/>
<g filter="url(#filter0_ddd_371_5531)">
<g clip-path="url(#clip1_371_5531)">
<rect x="487" y="622.274" width="306" height="56" rx="14" fill="white"/>
<path d="M503 634.774H519C523.142 634.774 526.5 638.132 526.5 642.274V658.274C526.5 662.416 523.142 665.774 519 665.774H503C498.858 665.774 495.5 662.416 495.5 658.274V642.274C495.5 638.132 498.858 634.774 503 634.774Z" stroke="#D9D9D9"/>
<path d="M503.586 642.86C504.148 642.297 504.991 642.122 505.731 642.412L518.731 647.52C519.522 647.831 520.031 648.607 519.999 649.456C519.967 650.306 519.4 651.042 518.588 651.292L513.563 652.837L512.018 657.862C511.768 658.674 511.032 659.241 510.182 659.273C509.333 659.305 508.557 658.796 508.246 658.005L503.139 645.005C502.848 644.265 503.023 643.422 503.586 642.86ZM505.365 643.343C504.995 643.198 504.574 643.286 504.293 643.567L504.196 643.678C503.993 643.952 503.942 644.315 504.069 644.639L509.177 657.639C509.313 657.985 509.627 658.224 509.988 658.267L510.145 658.273C510.57 658.257 510.937 657.974 511.062 657.568L512.765 652.038L518.294 650.336C518.649 650.227 518.911 649.932 518.981 649.576L518.999 649.419C519.013 649.048 518.82 648.703 518.507 648.519L518.365 648.451L505.365 643.343Z" fill="black" fill-opacity="0.9"/>
<path d="M547 634.774H563C567.142 634.774 570.5 638.132 570.5 642.274V658.274C570.5 662.416 567.142 665.774 563 665.774H547C542.858 665.774 539.5 662.416 539.5 658.274V642.274C539.5 638.132 542.858 634.774 547 634.774Z" stroke="#D9D9D9"/>
<path d="M555 641.274C555.872 641.274 556.611 641.833 556.885 642.611C557.203 642.398 557.585 642.274 557.997 642.274C559.102 642.274 559.997 643.169 559.997 644.274V644.545C560.292 644.374 560.634 644.274 561 644.274C562.104 644.274 563 645.169 563 646.274V646.774H563.01L563.011 651.636L563.005 651.78C563.001 651.827 562.997 651.874 562.99 651.92C562.705 655.953 559.343 659.136 555.237 659.136L554.86 659.13C551.084 659.007 549.822 657.044 549.8 657.008C549.8 657.008 547.173 653.461 546.607 652.492C546.078 651.583 545.567 650.583 546.158 649.828L546.292 649.679C547.085 648.91 548.191 649.175 548.997 649.929L550 650.878V644.274C550 643.169 550.895 642.274 552 642.274C552.412 642.274 552.795 642.399 553.113 642.613C553.386 641.833 554.127 641.274 555 641.274ZM555 642.274C554.448 642.274 554 642.722 554 643.274V648.274C554 648.55 553.776 648.774 553.5 648.774C553.224 648.774 553 648.55 553 648.274V644.274C553 643.722 552.552 643.274 552 643.274C551.448 643.274 551 643.722 551 644.274V650.878C551 651.278 550.762 651.638 550.395 651.796C550.029 651.954 549.604 651.879 549.313 651.605L548.309 650.657V650.656C548.021 650.388 547.728 650.254 547.505 650.224C547.313 650.198 547.15 650.24 546.988 650.397C546.923 650.46 546.908 650.503 546.901 650.532C546.892 650.573 546.886 650.653 546.917 650.794C546.986 651.108 547.183 651.493 547.472 651.988C547.724 652.42 548.487 653.503 549.226 654.528C549.588 655.029 549.932 655.501 550.186 655.847C550.313 656.02 550.418 656.162 550.49 656.26C550.526 656.309 550.555 656.348 550.574 656.374C550.584 656.386 550.591 656.396 550.596 656.403C550.598 656.406 550.6 656.409 550.601 656.411L550.602 656.413H550.603L550.64 656.465L550.659 656.493C550.683 656.525 550.729 656.58 550.798 656.653C550.935 656.798 551.165 657.009 551.511 657.226C552.193 657.655 553.368 658.136 555.237 658.136C558.814 658.136 561.744 655.363 561.993 651.85L562 651.78C562.006 651.734 562.011 651.686 562.011 651.637L562.01 646.894H562V646.274C562 645.722 561.552 645.274 561 645.274C560.448 645.274 560 645.722 560 646.274V648.274C560 648.55 559.776 648.774 559.5 648.774C559.224 648.774 559 648.55 559 648.274V646.894H558.997V644.274C558.997 643.722 558.549 643.274 557.997 643.274C557.465 643.274 557.032 643.689 557 644.212V648.274C557 648.55 556.776 648.774 556.5 648.774C556.224 648.774 556 648.55 556 648.274V646.894H555.997V644.274C555.997 644.255 555.999 644.237 556 644.218V643.274C556 642.722 555.552 642.274 555 642.274Z" fill="black" fill-opacity="0.9"/>
<rect x="575.25" y="622.524" width="0.5" height="55.5" stroke="#E6E6E6" stroke-width="0.5"/>
<path d="M588 634.774H604C608.142 634.774 611.5 638.132 611.5 642.274V658.274C611.5 662.416 608.142 665.774 604 665.774H588C583.858 665.774 580.5 662.416 580.5 658.274V642.274C580.5 638.132 583.858 634.774 588 634.774Z" stroke="#D9D9D9"/>
<g clip-path="url(#clip2_371_5531)">
<path d="M602 642.274C603.105 642.274 604 643.17 604 644.275V654.274C604 655.309 603.213 656.162 602.204 656.264L602 656.274C602 657.378 601.105 658.274 600 658.274H590L589.796 658.263C588.787 658.161 588 657.31 588 656.274V646.274C588 645.169 588.895 644.274 590 644.274H600C601.105 644.274 602 645.169 602 646.274V655.274C602.552 655.274 603 654.826 603 654.274V644.274C603 643.722 602.552 643.274 602 643.274H592C591.448 643.274 591 643.721 590.999 644.273H589.999C590 643.169 590.897 642.274 592.001 642.274H602ZM590 645.274C589.448 645.274 589 645.722 589 646.274V656.274C589 656.826 589.448 657.274 590 657.274H600C600.552 657.274 601 656.826 601 656.274V646.274C601 645.722 600.552 645.274 600 645.274H590Z" fill="black" fill-opacity="0.9"/>
</g>
<path d="M632 634.774H648C652.142 634.774 655.5 638.132 655.5 642.274V658.274C655.5 662.416 652.142 665.774 648 665.774H632C627.858 665.774 624.5 662.416 624.5 658.274V642.274C624.5 638.132 627.858 634.774 632 634.774Z" stroke="#D9D9D9"/>
<path d="M640 647.555V652.993M637.281 650.274H642.719" stroke="black" stroke-opacity="0.9" stroke-linecap="round"/>
<path d="M644.5 642.274C644.776 642.274 645 642.498 645 642.774V645.274H647.5C647.776 645.274 648 645.498 648 645.774C648 646.05 647.776 646.274 647.5 646.274H645V654.274H647.5C647.776 654.274 648 654.498 648 654.774C648 655.05 647.776 655.274 647.5 655.274H645V657.774C645 658.05 644.776 658.274 644.5 658.274C644.224 658.274 644 658.05 644 657.774V655.274H636V657.774C636 658.05 635.776 658.274 635.5 658.274C635.224 658.274 635 658.05 635 657.774V655.274H632.5C632.224 655.274 632 655.05 632 654.774C632 654.498 632.224 654.274 632.5 654.274H635V646.274H632.5C632.224 646.274 632 646.05 632 645.774C632 645.498 632.224 645.274 632.5 645.274H635V642.774C635 642.498 635.224 642.274 635.5 642.274C635.776 642.274 636 642.498 636 642.774V645.274H644V642.774C644 642.498 644.224 642.274 644.5 642.274ZM636 646.274V654.274H644V646.274H636Z" fill="black" fill-opacity="0.9"/>
<path d="M676 634.774H692C696.142 634.774 699.5 638.132 699.5 642.274V658.274C699.5 662.416 696.142 665.774 692 665.774H676C671.858 665.774 668.5 662.416 668.5 658.274V642.274C668.5 638.132 671.858 634.774 676 634.774Z" stroke="#D9D9D9"/>
<path d="M682.5 642.274C686.09 642.274 689 645.184 689 648.774C689 650.389 688.409 651.865 687.435 653.001L691.854 657.42C692.049 657.616 692.049 657.932 691.854 658.127C691.658 658.323 691.342 658.323 691.146 658.127L686.728 653.708C685.591 654.683 684.115 655.274 682.5 655.274C678.91 655.274 676 652.364 676 648.774C676 645.184 678.91 642.274 682.5 642.274ZM682.5 643.274C679.462 643.274 677 645.736 677 648.774C677 651.811 679.462 654.274 682.5 654.274C685.538 654.274 688 651.811 688 648.774C688 645.736 685.538 643.274 682.5 643.274Z" fill="black" fill-opacity="0.9"/>
<rect x="704.25" y="622.524" width="0.5" height="55.5" stroke="#E6E6E6" stroke-width="0.5"/>
<path d="M717 634.774H733C737.142 634.774 740.5 638.132 740.5 642.274V658.274C740.5 662.416 737.142 665.774 733 665.774H717C712.858 665.774 709.5 662.416 709.5 658.274V642.274C709.5 638.132 712.858 634.774 717 634.774Z" stroke="#D9D9D9"/>
<g clip-path="url(#clip3_371_5531)">
<path d="M725 642.274C729.418 642.274 733 645.856 733 650.274C733 654.692 729.418 658.274 725 658.274H720.2L719.458 658.271C718.916 658.262 718.552 658.232 718.26 658.127L718.092 658.056C717.763 657.888 717.487 657.633 717.295 657.32L717.218 657.182C717 656.754 717 656.194 717 655.074V650.274C717 645.856 720.582 642.274 725 642.274ZM725 643.274C721.134 643.274 718 646.408 718 650.274V655.074C718 655.65 718.001 656.023 718.024 656.306C718.047 656.578 718.084 656.679 718.109 656.728C718.205 656.916 718.358 657.069 718.546 657.165C718.595 657.19 718.696 657.227 718.968 657.25C719.251 657.273 719.624 657.274 720.2 657.274H725C728.866 657.274 732 654.14 732 650.274C732 646.408 728.866 643.274 725 643.274Z" fill="black" fill-opacity="0.9"/>
</g>
<path d="M761 634.774H777C781.142 634.774 784.5 638.132 784.5 642.274V658.274C784.5 662.416 781.142 665.774 777 665.774H761C756.858 665.774 753.5 662.416 753.5 658.274V642.274C753.5 638.132 756.858 634.774 761 634.774Z" stroke="#D9D9D9"/>
<path d="M773 642.274C773.207 642.274 773.413 642.289 773.617 642.321C773.989 642.379 774.297 642.641 774.414 642.999C774.531 643.356 774.437 643.75 774.171 644.016L773 645.187V646.274H774.086L775.257 645.102L775.362 645.01C775.621 644.816 775.961 644.757 776.274 644.859C776.632 644.976 776.894 645.284 776.952 645.656C776.983 645.856 777 646.063 777 646.274C777 648.483 775.209 650.274 773 650.274C772.641 650.274 772.294 650.223 771.966 650.134L771.826 650.273L776.414 654.86C777.195 655.641 777.195 656.907 776.414 657.688C775.633 658.469 774.367 658.469 773.586 657.688L768.999 653.101L764.414 657.688C763.633 658.469 762.367 658.469 761.586 657.688C760.805 656.907 760.805 655.641 761.586 654.86L767.231 649.212L764.5 646.481L763.854 647.127C763.748 647.233 763.6 647.287 763.451 647.272C763.302 647.257 763.167 647.176 763.084 647.051L761.084 644.051C760.952 643.853 760.978 643.589 761.146 643.42L762.146 642.42L762.214 642.364C762.38 642.248 762.604 642.242 762.777 642.358L765.777 644.358C765.902 644.441 765.983 644.576 765.998 644.725C766.013 644.874 765.959 645.022 765.854 645.127L765.207 645.774L767.938 648.505L769.138 647.306C769.049 646.978 769 646.632 769 646.274C769 644.065 770.791 642.274 773 642.274ZM773 643.274C771.343 643.274 770 644.617 770 646.274L770.005 646.446C770.028 646.845 770.131 647.222 770.295 647.564L762.293 655.567L762.225 655.643C761.904 656.036 761.927 656.615 762.293 656.981C762.659 657.347 763.238 657.37 763.631 657.049L763.707 656.981L771.709 648.978C772.051 649.142 772.428 649.246 772.827 649.269L773 649.274C774.657 649.274 776 647.931 776 646.274C776 646.116 775.987 645.961 775.964 645.809L774.5 647.274H772V644.774L773.464 643.309C773.313 643.286 773.158 643.274 773 643.274ZM769.706 652.394L774.293 656.981C774.683 657.371 775.317 657.371 775.707 656.981C776.097 656.59 776.097 655.957 775.707 655.567L771.12 650.98L769.706 652.394ZM762.143 643.837L763.577 645.989L764.146 645.42L764.715 644.851L762.563 643.417L762.143 643.837Z" fill="black" fill-opacity="0.9"/>
</g>
<rect x="486.75" y="622.024" width="306.5" height="56.5" rx="14.25" stroke="black" stroke-opacity="0.2" stroke-width="0.5"/>
</g>
<g filter="url(#filter1_dd_371_5531)">
<path d="M12 25C12 17.8203 17.8203 12 25 12H369C376.18 12 382 17.8203 382 25V47C382 54.1797 376.18 60 369 60H25C17.8203 60 12 54.1797 12 47V25Z" fill="white"/>
<g clip-path="url(#clip4_371_5531)">
<path fill-rule="evenodd" clip-rule="evenodd" d="M38.4821 32.5428C38.4821 32.3219 38.303 32.1428 38.0821 32.1428H32C33.0274 32.1428 33.998 32.3801 34.8599 32.8031C34.5343 33.1603 34.3357 33.6355 34.3357 34.1571C34.3357 35.2675 35.2359 36.1678 36.3464 36.1678C36.8879 36.1678 37.3794 35.9538 37.7409 35.6057C38.2144 36.5067 38.4821 37.5339 38.4821 38.6253V32.5428Z" fill="#241E0F"/>
<path fill-rule="evenodd" clip-rule="evenodd" d="M47.2 24.6214C47.2 24.29 46.9314 24.0214 46.6 24.0214H24C36.8426 24.0214 47.2 34.4531 47.2 47.2956V24.6214Z" fill="#241E0F"/>
<path d="M24 24.0214C24.6127 24.0482 25.2139 24.0968 25.8193 24.1679C31.2488 24.7926 36.3488 27.3057 40.1376 31.1299C43.9422 34.9389 46.4317 40.0471 47.054 45.4763C47.1248 46.0818 47.1733 46.6831 47.2 47.2957C47.2266 46.6831 47.2288 46.0777 47.2056 45.4646C47.0222 39.9662 44.6514 34.5037 40.7047 30.5657C36.7878 26.5986 31.3304 24.2019 25.8311 24.0164C25.218 23.9928 24.6127 23.9948 24 24.0214Z" fill="#C8910A"/>
</g>
<rect x="56" y="20" width="131" height="32" rx="5" fill="white"/>
<path d="M72.956 34.6754H71.3771C71.3217 34.383 71.2232 34.123 71.0817 33.8952C70.9432 33.6675 70.7693 33.4751 70.56 33.3182C70.3538 33.1581 70.1199 33.0381 69.8583 32.9581C69.5967 32.8781 69.3197 32.8381 69.0273 32.8381C68.498 32.8381 68.0256 32.9704 67.6101 33.2351C67.1977 33.4998 66.873 33.8875 66.636 34.3984C66.399 34.9093 66.2805 35.5341 66.2805 36.2727C66.2805 37.0206 66.399 37.65 66.636 38.1609C66.8761 38.6718 67.2023 39.058 67.6147 39.3196C68.0271 39.5781 68.4964 39.7074 69.0227 39.7074C69.312 39.7074 69.5859 39.6689 69.8445 39.592C70.103 39.512 70.3369 39.3965 70.5462 39.2457C70.7554 39.0919 70.9309 38.9026 71.0724 38.6779C71.2171 38.4532 71.3187 38.1963 71.3771 37.907L72.956 37.9116C72.8883 38.3701 72.7451 38.7949 72.5266 39.1857C72.3081 39.5766 72.0265 39.9182 71.6818 40.2106C71.3402 40.503 70.9432 40.7292 70.4908 40.8892C70.0414 41.0492 69.5459 41.1293 69.0043 41.1293C68.1795 41.1293 67.4439 40.9354 66.7976 40.5476C66.1513 40.1598 65.6419 39.6043 65.2695 38.881C64.9002 38.1547 64.7156 37.2853 64.7156 36.2727C64.7156 35.2602 64.9018 34.3907 65.2741 33.6644C65.6496 32.9381 66.1605 32.3826 66.8068 31.9979C67.4531 31.6101 68.1856 31.4162 69.0043 31.4162C69.5182 31.4162 69.9968 31.4901 70.44 31.6378C70.8862 31.7824 71.2833 31.9948 71.631 32.2749C71.9819 32.5549 72.2712 32.8965 72.4989 33.2997C72.7298 33.7029 72.8821 34.1615 72.956 34.6754ZM77.5111 41.1431C76.8309 41.1431 76.24 40.9908 75.7384 40.6861C75.2367 40.3783 74.8474 39.9505 74.5704 39.4027C74.2965 38.8549 74.1595 38.2163 74.1595 37.4869C74.1595 36.7513 74.2965 36.1081 74.5704 35.5572C74.8474 35.0063 75.2367 34.5785 75.7384 34.2738C76.24 33.9691 76.8309 33.8168 77.5111 33.8168C78.1913 33.8168 78.7822 33.9691 79.2838 34.2738C79.7855 34.5785 80.1733 35.0063 80.4472 35.5572C80.7242 36.1081 80.8627 36.7513 80.8627 37.4869C80.8627 38.2163 80.7242 38.8549 80.4472 39.4027C80.1733 39.9505 79.7855 40.3783 79.2838 40.6861C78.7822 40.9908 78.1913 41.1431 77.5111 41.1431ZM77.5157 39.892C77.922 39.892 78.2574 39.7828 78.5221 39.5643C78.7899 39.3458 78.9899 39.0549 79.1222 38.6918C79.2546 38.3255 79.3207 37.9223 79.3207 37.4822C79.3207 37.0391 79.2546 36.6344 79.1222 36.2681C78.9899 35.8988 78.7899 35.6049 78.5221 35.3864C78.2574 35.1648 77.922 35.054 77.5157 35.054C77.1064 35.054 76.7678 35.1648 76.5001 35.3864C76.2323 35.6049 76.0323 35.8988 75.8999 36.2681C75.7676 36.6344 75.7014 37.0391 75.7014 37.4822C75.7014 37.9223 75.7676 38.3255 75.8999 38.6918C76.0323 39.0549 76.2323 39.3458 76.5001 39.5643C76.7678 39.7828 77.1064 39.892 77.5157 39.892ZM82.3074 41V33.9091H83.7708V35.0909H83.8586C84.0063 34.6908 84.2479 34.3784 84.5833 34.1538C84.9219 33.9291 85.3266 33.8168 85.7975 33.8168C86.2745 33.8168 86.6762 33.9306 87.0024 34.1584C87.3317 34.383 87.5687 34.6939 87.7133 35.0909H87.7872C87.9503 34.7031 88.2165 34.3938 88.5858 34.163C88.9582 33.9322 89.4014 33.8168 89.9154 33.8168C90.5617 33.8168 91.0895 34.0214 91.4988 34.4308C91.9082 34.837 92.1128 35.4418 92.1128 36.245V41H90.5848V36.4389C90.5848 35.9773 90.4617 35.6418 90.2155 35.4325C89.9692 35.2232 89.6707 35.1186 89.3199 35.1186C88.8921 35.1186 88.5581 35.2509 88.3181 35.5156C88.0811 35.7772 87.9626 36.1142 87.9626 36.5266V41H86.4576V36.3604C86.4576 35.985 86.3422 35.6849 86.1114 35.4602C85.8806 35.2325 85.582 35.1186 85.2158 35.1186C84.9634 35.1186 84.7326 35.1832 84.5233 35.3125C84.3141 35.4418 84.1463 35.6218 84.0201 35.8526C83.897 36.0835 83.8355 36.3512 83.8355 36.6559V41H82.3074ZM93.8531 43.6591V33.9091H95.3488V35.0678H95.455C95.5411 34.9109 95.6612 34.7354 95.8151 34.5415C95.9689 34.3446 96.1798 34.1753 96.4475 34.0337C96.7153 33.8891 97.063 33.8168 97.4908 33.8168C98.0479 33.8168 98.5495 33.9583 98.9958 34.2415C99.4421 34.5246 99.7945 34.9386 100.053 35.4833C100.312 36.0281 100.441 36.6897 100.441 37.4684C100.441 38.2378 100.313 38.8964 100.058 39.4442C99.8022 39.989 99.4528 40.406 99.0097 40.6953C98.5665 40.9846 98.0617 41.1293 97.4955 41.1293C97.0769 41.1293 96.7322 41.06 96.4614 40.9215C96.1936 40.783 95.9797 40.6168 95.8197 40.4229C95.6627 40.229 95.5411 40.0505 95.455 39.8874H95.3811V43.6591H93.8531ZM95.3534 37.4545C95.3534 37.9316 95.4211 38.3517 95.5565 38.7148C95.695 39.0749 95.8951 39.3565 96.1567 39.5597C96.4183 39.7597 96.7368 39.8597 97.1123 39.8597C97.5001 39.8597 97.8263 39.7551 98.091 39.5458C98.3557 39.3365 98.5542 39.0503 98.6865 38.6871C98.8219 38.324 98.8896 37.9131 98.8896 37.4545C98.8896 36.9991 98.8235 36.5943 98.6911 36.2404C98.5588 35.8834 98.3603 35.6033 98.0956 35.4002C97.834 35.194 97.5062 35.0909 97.1123 35.0909C96.7307 35.0909 96.409 35.1894 96.1474 35.3864C95.8858 35.5803 95.6873 35.8542 95.5519 36.2081C95.4196 36.562 95.3534 36.9775 95.3534 37.4545ZM103.949 41.1477C103.5 41.1477 103.095 41.0662 102.735 40.9031C102.375 40.7399 102.089 40.4999 101.876 40.1829C101.667 39.8628 101.562 39.4704 101.562 39.0057C101.562 38.6025 101.638 38.2717 101.789 38.0131C101.942 37.7515 102.149 37.5438 102.407 37.3899C102.666 37.236 102.955 37.1206 103.275 37.0437C103.598 36.9637 103.931 36.9052 104.272 36.8683C104.691 36.819 105.031 36.7775 105.292 36.7436C105.554 36.7098 105.745 36.6559 105.865 36.582C105.985 36.5082 106.045 36.3897 106.045 36.2266V36.1942C106.045 35.8219 105.936 35.5326 105.717 35.3263C105.502 35.1201 105.186 35.017 104.771 35.017C104.334 35.017 103.989 35.1125 103.737 35.3033C103.484 35.4941 103.31 35.7126 103.215 35.9588L101.789 35.7003C101.927 35.2694 102.141 34.9155 102.43 34.6385C102.72 34.3584 103.063 34.1522 103.46 34.0199C103.86 33.8845 104.291 33.8168 104.752 33.8168C105.066 33.8168 105.386 33.8537 105.713 33.9276C106.042 34.0014 106.347 34.1276 106.627 34.3061C106.907 34.4846 107.133 34.7339 107.305 35.054C107.481 35.3741 107.568 35.7803 107.568 36.2727V41H106.091V40.0305H106.036C105.943 40.2152 105.806 40.3937 105.625 40.5661C105.443 40.7384 105.214 40.8784 104.937 40.9862C104.66 41.0939 104.331 41.1477 103.949 41.1477ZM104.314 39.9844C104.674 39.9844 104.983 39.9136 105.242 39.772C105.5 39.6274 105.699 39.4396 105.837 39.2088C105.979 38.9749 106.05 38.7225 106.05 38.4517V37.5746C105.997 37.6207 105.905 37.6638 105.773 37.7038C105.64 37.7408 105.491 37.7746 105.325 37.8054C105.159 37.8331 104.996 37.8577 104.835 37.8793C104.675 37.9008 104.538 37.9193 104.425 37.9347C104.169 37.9716 103.937 38.0285 103.728 38.1055C103.518 38.1824 103.352 38.2932 103.229 38.4379C103.106 38.5794 103.044 38.7656 103.044 38.9964C103.044 39.3227 103.164 39.5689 103.404 39.7351C103.644 39.9013 103.948 39.9844 104.314 39.9844ZM110.83 36.8175V41H109.302V33.9091H110.765V35.0909H110.853C111.016 34.7031 111.274 34.3938 111.628 34.163C111.982 33.9322 112.424 33.8168 112.953 33.8168C113.44 33.8168 113.864 33.9199 114.228 34.1261C114.591 34.3323 114.872 34.6339 115.072 35.0309C115.275 35.4279 115.377 35.9142 115.377 36.4897V41H113.849V36.7021C113.849 36.2066 113.721 35.8203 113.466 35.5433C113.21 35.2633 112.858 35.1232 112.409 35.1232C112.101 35.1232 111.828 35.1894 111.591 35.3217C111.355 35.4541 111.168 35.6464 111.033 35.8988C110.897 36.1512 110.83 36.4574 110.83 36.8175ZM117.817 43.6591C117.601 43.6591 117.403 43.6422 117.221 43.6083C117.04 43.5745 116.899 43.536 116.801 43.4929L117.161 42.2788C117.41 42.3496 117.632 42.3803 117.826 42.3711C118.02 42.3649 118.191 42.2988 118.338 42.1726C118.489 42.0464 118.618 41.8371 118.726 41.5447L118.888 41.12L116.302 33.9091H117.927L119.64 39.3381H119.714L121.436 33.9091H123.066L120.18 41.9002C120.048 42.2757 119.874 42.5942 119.659 42.8558C119.446 43.1174 119.188 43.3159 118.883 43.4513C118.581 43.5898 118.226 43.6591 117.817 43.6591ZM135.359 31.5455V41H133.937L129.307 34.3153H129.228V41H127.654V31.5455H129.085L133.711 38.2393H133.799V31.5455H135.359ZM139.257 41.1477C138.808 41.1477 138.403 41.0662 138.043 40.9031C137.683 40.7399 137.397 40.4999 137.185 40.1829C136.975 39.8628 136.871 39.4704 136.871 39.0057C136.871 38.6025 136.946 38.2717 137.097 38.0131C137.251 37.7515 137.457 37.5438 137.715 37.3899C137.974 37.236 138.263 37.1206 138.583 37.0437C138.906 36.9637 139.239 36.9052 139.58 36.8683C139.999 36.819 140.339 36.7775 140.601 36.7436C140.862 36.7098 141.053 36.6559 141.173 36.582C141.293 36.5082 141.353 36.3897 141.353 36.2266V36.1942C141.353 35.8219 141.244 35.5326 141.025 35.3263C140.81 35.1201 140.495 35.017 140.079 35.017C139.642 35.017 139.297 35.1125 139.045 35.3033C138.793 35.4941 138.619 35.7126 138.523 35.9588L137.097 35.7003C137.235 35.2694 137.449 34.9155 137.738 34.6385C138.028 34.3584 138.371 34.1522 138.768 34.0199C139.168 33.8845 139.599 33.8168 140.061 33.8168C140.374 33.8168 140.695 33.8537 141.021 33.9276C141.35 34.0014 141.655 34.1276 141.935 34.3061C142.215 34.4846 142.441 34.7339 142.613 35.054C142.789 35.3741 142.877 35.7803 142.877 36.2727V41H141.399V40.0305H141.344C141.252 40.2152 141.115 40.3937 140.933 40.5661C140.752 40.7384 140.522 40.8784 140.245 40.9862C139.968 41.0939 139.639 41.1477 139.257 41.1477ZM139.622 39.9844C139.982 39.9844 140.291 39.9136 140.55 39.772C140.808 39.6274 141.007 39.4396 141.145 39.2088C141.287 38.9749 141.358 38.7225 141.358 38.4517V37.5746C141.305 37.6207 141.213 37.6638 141.081 37.7038C140.948 37.7408 140.799 37.7746 140.633 37.8054C140.467 37.8331 140.304 37.8577 140.144 37.8793C139.984 37.9008 139.847 37.9193 139.733 37.9347C139.477 37.9716 139.245 38.0285 139.036 38.1055C138.826 38.1824 138.66 38.2932 138.537 38.4379C138.414 38.5794 138.352 38.7656 138.352 38.9964C138.352 39.3227 138.473 39.5689 138.713 39.7351C138.953 39.9013 139.256 39.9844 139.622 39.9844ZM144.61 41V33.9091H146.073V35.0909H146.161C146.309 34.6908 146.55 34.3784 146.886 34.1538C147.224 33.9291 147.629 33.8168 148.1 33.8168C148.577 33.8168 148.979 33.9306 149.305 34.1584C149.634 34.383 149.871 34.6939 150.016 35.0909H150.09C150.253 34.7031 150.519 34.3938 150.888 34.163C151.261 33.9322 151.704 33.8168 152.218 33.8168C152.864 33.8168 153.392 34.0214 153.801 34.4308C154.211 34.837 154.415 35.4418 154.415 36.245V41H152.887V36.4389C152.887 35.9773 152.764 35.6418 152.518 35.4325C152.272 35.2232 151.973 35.1186 151.622 35.1186C151.195 35.1186 150.861 35.2509 150.621 35.5156C150.384 35.7772 150.265 36.1142 150.265 36.5266V41H148.76V36.3604C148.76 35.985 148.645 35.6849 148.414 35.4602C148.183 35.2325 147.885 35.1186 147.518 35.1186C147.266 35.1186 147.035 35.1832 146.826 35.3125C146.617 35.4418 146.449 35.6218 146.323 35.8526C146.2 36.0835 146.138 36.3512 146.138 36.6559V41H144.61ZM159.258 41.1431C158.553 41.1431 157.945 40.9938 157.434 40.6953C156.923 40.3937 156.531 39.9705 156.257 39.4258C155.983 38.878 155.846 38.2363 155.846 37.5007C155.846 36.7713 155.983 36.1296 156.257 35.5756C156.534 35.0217 156.92 34.5908 157.416 34.283C157.911 33.9722 158.493 33.8168 159.161 33.8168C159.583 33.8168 159.984 33.8845 160.366 34.0199C160.747 34.1553 161.087 34.3677 161.386 34.657C161.685 34.9432 161.92 35.3125 162.092 35.7649C162.268 36.2173 162.355 36.759 162.355 37.3899V37.8885H156.626V36.8082H160.874C160.874 36.4697 160.803 36.1681 160.661 35.9034C160.52 35.6357 160.321 35.4248 160.066 35.271C159.813 35.1171 159.518 35.0401 159.179 35.0401C158.813 35.0401 158.493 35.1278 158.219 35.3033C157.948 35.4787 157.737 35.7095 157.587 35.9957C157.439 36.282 157.364 36.5928 157.36 36.9283V37.8192C157.36 38.2624 157.44 38.641 157.601 38.9549C157.761 39.2688 157.984 39.5089 158.27 39.6751C158.556 39.8382 158.89 39.9197 159.272 39.9197C159.527 39.9197 159.758 39.8844 159.964 39.8136C160.17 39.7397 160.347 39.632 160.495 39.4904C160.646 39.3458 160.761 39.1673 160.841 38.9549L162.277 39.1626C162.175 39.5597 161.988 39.9074 161.714 40.206C161.443 40.5014 161.098 40.7322 160.68 40.8984C160.264 41.0616 159.79 41.1431 159.258 41.1431Z" fill="black" fill-opacity="0.9"/>
<path d="M176.767 34.7678C176.963 34.5725 177.28 34.5725 177.475 34.7678C177.67 34.963 177.67 35.2796 177.475 35.4748L175 37.9494L172.525 35.4748C172.33 35.2796 172.33 34.963 172.525 34.7678C172.72 34.5725 173.037 34.5725 173.232 34.7678L175 36.5354L176.767 34.7678Z" fill="black" fill-opacity="0.9"/>
<rect x="195" y="12" width="1" height="48" fill="#E6E6E6"/>
<rect x="204" y="20" width="170" height="32" rx="5" fill="white"/>
<g clip-path="url(#clip5_371_5531)">
<path d="M226 28C227.105 28.0001 228 28.8965 228 30.001V40C228 41.0354 227.213 41.8878 226.204 41.9902L226 42C226 43.1046 225.105 44 224 44H214L213.796 43.9893C212.787 43.887 212 43.0356 212 42V32C212 30.8955 212.895 30 214 30H224C225.105 30 226 30.8955 226 32V41C226.552 40.9997 227 40.5521 227 40V30C227 29.4479 226.552 29 226 29H216C215.448 29.0002 215 29.4473 214.999 29.999H213.999C214 28.8949 214.897 28 216.001 28H226ZM214 31C213.448 31 213 31.4478 213 32V42C213 42.5523 213.448 43 214 43H224C224.552 43 225 42.5523 225 42V32C225 31.4478 224.552 31 224 31H214Z" fill="black" fill-opacity="0.9"/>
</g>
<path d="M242.355 33.9691C242.302 33.5167 242.088 33.1658 241.713 32.9165C241.337 32.6673 240.871 32.5426 240.314 32.5426C239.911 32.5426 239.56 32.6072 239.262 32.7365C238.966 32.8627 238.735 33.0381 238.569 33.2628C238.406 33.4875 238.324 33.7414 238.324 34.0245C238.321 34.2646 238.377 34.4708 238.491 34.6431C238.608 34.8124 238.757 34.954 238.938 35.0678C239.12 35.1817 239.312 35.2756 239.515 35.3494C239.722 35.4233 239.916 35.4833 240.097 35.5295L241.039 35.7788C241.313 35.8465 241.604 35.9419 241.911 36.065C242.222 36.185 242.515 36.3451 242.789 36.5451C243.062 36.7451 243.287 36.9975 243.463 37.3022C243.638 37.6069 243.726 37.9762 243.726 38.4102C243.726 38.9334 243.59 39.4027 243.319 39.8182C243.049 40.2306 242.655 40.5584 242.138 40.8015C241.624 41.0415 241 41.1616 240.268 41.1616C239.575 41.1616 238.975 41.0508 238.468 40.8292C237.963 40.6076 237.567 40.2968 237.281 39.8967C236.995 39.4935 236.835 39.0195 236.801 38.4748H238.107C238.138 38.8256 238.254 39.1149 238.454 39.3427C238.657 39.5704 238.917 39.7412 239.234 39.8551C239.551 39.9659 239.894 40.0213 240.263 40.0213C240.685 40.0213 241.06 39.9536 241.39 39.8182C241.722 39.6797 241.984 39.4889 242.175 39.2457C242.368 39.0026 242.465 38.7195 242.465 38.3963C242.465 38.0978 242.382 37.8546 242.216 37.6669C242.05 37.4792 241.827 37.3253 241.547 37.2053C241.27 37.0852 240.964 36.9806 240.628 36.8913L239.488 36.5682C238.74 36.3589 238.147 36.0558 237.71 35.6587C237.273 35.2617 237.056 34.7401 237.06 34.0938C237.056 33.5582 237.201 33.0904 237.493 32.6903C237.786 32.2872 238.18 31.9748 238.675 31.7532C239.174 31.5285 239.731 31.4162 240.346 31.4162C240.971 31.4162 241.525 31.527 242.008 31.7486C242.492 31.9702 242.873 32.2733 243.153 32.658C243.433 33.0397 243.581 33.4767 243.596 33.9691H242.355ZM248.374 41.1477C247.682 41.1477 247.086 40.9969 246.588 40.6953C246.089 40.3906 245.704 39.9659 245.434 39.4212C245.166 38.8733 245.032 38.2347 245.032 37.5053C245.032 36.779 245.166 36.1388 245.434 35.5849C245.704 35.0278 246.081 34.5939 246.565 34.283C247.051 33.9722 247.619 33.8168 248.268 33.8168C248.653 33.8168 249.028 33.8814 249.395 34.0107C249.764 34.1368 250.096 34.34 250.392 34.62C250.69 34.897 250.926 35.2617 251.098 35.7141C251.273 36.1665 251.361 36.719 251.361 37.3714V37.8469H245.808V36.859H250.129C250.129 36.4774 250.052 36.1388 249.898 35.8434C249.747 35.5449 249.531 35.3094 249.251 35.1371C248.974 34.9647 248.648 34.8786 248.273 34.8786C247.86 34.8786 247.503 34.9786 247.202 35.1786C246.903 35.3787 246.672 35.6403 246.509 35.9634C246.346 36.2866 246.265 36.6344 246.265 37.0067V37.7223C246.265 38.227 246.352 38.6564 246.528 39.0103C246.706 39.3612 246.954 39.6289 247.271 39.8136C247.588 39.9951 247.957 40.0859 248.379 40.0859C248.653 40.0859 248.902 40.0475 249.127 39.9705C249.351 39.8905 249.544 39.772 249.704 39.6151C249.867 39.4581 249.993 39.2611 250.082 39.0241L251.264 39.2919C251.156 39.6612 250.969 39.9859 250.701 40.266C250.436 40.543 250.105 40.7599 249.708 40.9169C249.315 41.0708 248.87 41.1477 248.374 41.1477ZM254.164 31.5455V41H252.927V31.5455H254.164ZM259.075 41.1477C258.382 41.1477 257.787 40.9969 257.288 40.6953C256.79 40.3906 256.405 39.9659 256.134 39.4212C255.866 38.8733 255.733 38.2347 255.733 37.5053C255.733 36.779 255.866 36.1388 256.134 35.5849C256.405 35.0278 256.782 34.5939 257.265 34.283C257.752 33.9722 258.319 33.8168 258.969 33.8168C259.353 33.8168 259.729 33.8814 260.095 34.0107C260.464 34.1368 260.797 34.34 261.092 34.62C261.391 34.897 261.626 35.2617 261.799 35.7141C261.974 36.1665 262.062 36.719 262.062 37.3714V37.8469H256.508V36.859H260.829C260.829 36.4774 260.752 36.1388 260.598 35.8434C260.448 35.5449 260.232 35.3094 259.952 35.1371C259.675 34.9647 259.349 34.8786 258.973 34.8786C258.561 34.8786 258.204 34.9786 257.902 35.1786C257.604 35.3787 257.373 35.6403 257.21 35.9634C257.047 36.2866 256.965 36.6344 256.965 37.0067V37.7223C256.965 38.227 257.053 38.6564 257.228 39.0103C257.407 39.3612 257.655 39.6289 257.972 39.8136C258.289 39.9951 258.658 40.0859 259.08 40.0859C259.353 40.0859 259.603 40.0475 259.827 39.9705C260.052 39.8905 260.244 39.772 260.404 39.6151C260.568 39.4581 260.694 39.2611 260.783 39.0241L261.965 39.2919C261.857 39.6612 261.669 39.9859 261.402 40.266C261.137 40.543 260.806 40.7599 260.409 40.9169C260.015 41.0708 259.57 41.1477 259.075 41.1477ZM266.564 41.1477C265.89 41.1477 265.308 40.9908 264.819 40.6768C264.333 40.3629 263.959 39.9305 263.697 39.3796C263.435 38.8287 263.305 38.1993 263.305 37.4915C263.305 36.7682 263.438 36.1312 263.706 35.5803C263.977 35.0294 264.354 34.5985 264.837 34.2876C265.324 33.9737 265.893 33.8168 266.545 33.8168C267.065 33.8168 267.53 33.9122 267.94 34.103C268.352 34.2938 268.687 34.5616 268.946 34.9062C269.204 35.2509 269.361 35.6541 269.417 36.1158H268.198C268.121 35.7865 267.944 35.5002 267.667 35.2571C267.393 35.0109 267.027 34.8878 266.568 34.8878C266.162 34.8878 265.807 34.994 265.502 35.2063C265.2 35.4156 264.965 35.7126 264.796 36.0973C264.63 36.482 264.546 36.9344 264.546 37.4545C264.546 37.987 264.63 38.4486 264.796 38.8395C264.962 39.2304 265.196 39.5335 265.497 39.7489C265.802 39.9644 266.159 40.0721 266.568 40.0721C266.842 40.0721 267.09 40.0228 267.312 39.9244C267.533 39.8259 267.721 39.6858 267.875 39.5043C268.029 39.3196 268.137 39.0996 268.198 38.8441H269.417C269.358 39.2811 269.206 39.6735 268.96 40.0213C268.717 40.3691 268.392 40.6445 267.986 40.8477C267.579 41.0477 267.105 41.1477 266.564 41.1477ZM274.12 33.9091V34.9247H270.348V33.9091H274.12ZM271.401 32.2102H272.638V38.9457C272.638 39.2319 272.679 39.4473 272.762 39.592C272.849 39.7335 272.959 39.829 273.095 39.8782C273.23 39.9274 273.376 39.9521 273.533 39.9521C273.647 39.9521 273.744 39.9459 273.824 39.9336C273.904 39.9182 273.967 39.9059 274.013 39.8967L274.249 40.9538C274.172 40.9815 274.063 41.0108 273.921 41.0415C273.783 41.0754 273.607 41.0923 273.395 41.0923C273.059 41.0954 272.739 41.0308 272.435 40.8984C272.13 40.763 271.881 40.5568 271.687 40.2798C271.496 40.0028 271.401 39.6535 271.401 39.2319V32.2102ZM278.617 41.1477C277.925 41.1477 277.329 40.9969 276.83 40.6953C276.332 40.3906 275.947 39.9659 275.676 39.4212C275.409 38.8733 275.275 38.2347 275.275 37.5053C275.275 36.779 275.409 36.1388 275.676 35.5849C275.947 35.0278 276.324 34.5939 276.807 34.283C277.294 33.9722 277.862 33.8168 278.511 33.8168C278.896 33.8168 279.271 33.8814 279.637 34.0107C280.007 34.1368 280.339 34.34 280.634 34.62C280.933 34.897 281.168 35.2617 281.341 35.7141C281.516 36.1665 281.604 36.719 281.604 37.3714V37.8469H276.05V36.859H280.371C280.371 36.4774 280.294 36.1388 280.141 35.8434C279.99 35.5449 279.774 35.3094 279.494 35.1371C279.217 34.9647 278.891 34.8786 278.516 34.8786C278.103 34.8786 277.746 34.9786 277.444 35.1786C277.146 35.3787 276.915 35.6403 276.752 35.9634C276.589 36.2866 276.507 36.6344 276.507 37.0067V37.7223C276.507 38.227 276.595 38.6564 276.77 39.0103C276.949 39.3612 277.197 39.6289 277.514 39.8136C277.831 39.9951 278.2 40.0859 278.622 40.0859C278.896 40.0859 279.145 40.0475 279.37 39.9705C279.594 39.8905 279.787 39.772 279.947 39.6151C280.11 39.4581 280.236 39.2611 280.325 39.0241L281.507 39.2919C281.399 39.6612 281.212 39.9859 280.944 40.266C280.679 40.543 280.348 40.7599 279.951 40.9169C279.557 41.0708 279.113 41.1477 278.617 41.1477ZM285.838 41.1431C285.257 41.1431 284.741 40.9954 284.292 40.6999C283.842 40.4014 283.49 39.9782 283.235 39.4304C282.979 38.8826 282.851 38.2301 282.851 37.473C282.851 36.7159 282.979 36.065 283.235 35.5202C283.49 34.9724 283.844 34.5523 284.296 34.2599C284.749 33.9645 285.267 33.8168 285.852 33.8168C286.304 33.8168 286.665 33.8922 286.932 34.043C287.2 34.1907 287.408 34.3615 287.556 34.5554C287.703 34.7493 287.817 34.9124 287.897 35.0447H287.985V31.5455H289.217V41H288.017V39.9013H287.897C287.814 40.0429 287.697 40.2121 287.546 40.4091C287.396 40.603 287.183 40.7738 286.909 40.9215C286.638 41.0692 286.281 41.1431 285.838 41.1431ZM286.064 40.0675C286.483 40.0675 286.835 39.9582 287.122 39.7397C287.411 39.5181 287.631 39.2119 287.782 38.821C287.933 38.4271 288.008 37.9716 288.008 37.4545C288.008 36.9437 287.934 36.4959 287.786 36.1112C287.639 35.7264 287.42 35.4279 287.131 35.2156C286.842 35.0001 286.486 34.8924 286.064 34.8924C285.627 34.8924 285.263 35.0063 284.97 35.234C284.678 35.4587 284.458 35.7649 284.31 36.1527C284.166 36.5374 284.093 36.9714 284.093 37.4545C284.093 37.9439 284.167 38.3871 284.315 38.7841C284.466 39.178 284.686 39.4904 284.975 39.7212C285.267 39.9521 285.63 40.0675 286.064 40.0675ZM294.888 41V31.5455H298.175C298.911 31.5455 299.517 31.6793 299.994 31.9471C300.474 32.2148 300.831 32.578 301.065 33.0366C301.299 33.4921 301.416 34.0045 301.416 34.5739C301.416 35.1432 301.299 35.6572 301.065 36.1158C300.831 36.5743 300.476 36.939 299.999 37.2099C299.522 37.4776 298.916 37.6115 298.18 37.6115H295.876V36.4989H298.097C298.583 36.4989 298.976 36.4143 299.274 36.245C299.573 36.0758 299.79 35.8465 299.925 35.5572C300.064 35.2679 300.133 34.9401 300.133 34.5739C300.133 34.2045 300.064 33.8768 299.925 33.5906C299.79 33.3013 299.571 33.075 299.269 32.9119C298.968 32.7457 298.571 32.6626 298.078 32.6626H296.176V41H294.888ZM303.004 41V33.9091H304.2V35.0078H304.274C304.403 34.6416 304.634 34.3492 304.966 34.1307C305.302 33.9091 305.679 33.7983 306.097 33.7983C306.18 33.7983 306.28 33.8014 306.397 33.8075C306.517 33.8106 306.611 33.8168 306.679 33.826V35.0401C306.633 35.0278 306.54 35.0124 306.402 34.994C306.266 34.9724 306.128 34.9616 305.986 34.9616C305.651 34.9616 305.351 35.0324 305.086 35.174C304.824 35.3125 304.618 35.5049 304.467 35.7511C304.317 35.9973 304.241 36.2773 304.241 36.5913V41H303.004ZM310.592 41.1477C309.94 41.1477 309.369 40.9954 308.879 40.6907C308.39 40.3829 308.01 39.9551 307.739 39.4073C307.468 38.8595 307.333 38.2209 307.333 37.4915C307.333 36.7528 307.468 36.1081 307.739 35.5572C308.01 35.0063 308.39 34.5785 308.879 34.2738C309.369 33.9691 309.94 33.8168 310.592 33.8168C311.245 33.8168 311.816 33.9691 312.305 34.2738C312.794 34.5785 313.174 35.0063 313.445 35.5572C313.716 36.1081 313.851 36.7528 313.851 37.4915C313.851 38.2209 313.716 38.8595 313.445 39.4073C313.174 39.9551 312.794 40.3829 312.305 40.6907C311.816 40.9954 311.245 41.1477 310.592 41.1477ZM310.592 40.0767C311.054 40.0767 311.432 39.9582 311.728 39.7212C312.026 39.4812 312.248 39.1657 312.393 38.7749C312.537 38.3809 312.61 37.9516 312.61 37.4869C312.61 37.0252 312.537 36.5974 312.393 36.2035C312.248 35.8065 312.026 35.4879 311.728 35.2479C311.432 35.0047 311.054 34.8832 310.592 34.8832C310.134 34.8832 309.755 35.0047 309.457 35.2479C309.158 35.4879 308.936 35.8065 308.792 36.2035C308.647 36.5974 308.575 37.0252 308.575 37.4869C308.575 37.9516 308.647 38.3809 308.792 38.7749C308.936 39.1657 309.158 39.4812 309.457 39.7212C309.755 39.9582 310.134 40.0767 310.592 40.0767ZM315.419 33.9091H316.656V41.4893C316.656 41.9448 316.576 42.3342 316.416 42.6573C316.256 42.9805 316.017 43.2282 315.7 43.4006C315.383 43.5729 314.988 43.6591 314.514 43.6591C314.474 43.6591 314.434 43.6591 314.394 43.6591C314.351 43.6591 314.307 43.6591 314.264 43.6591V42.5558C314.304 42.5558 314.341 42.5558 314.375 42.5558C314.406 42.5558 314.44 42.5558 314.477 42.5558C314.806 42.5558 315.045 42.4634 315.192 42.2788C315.343 42.0941 315.419 41.8294 315.419 41.4847V33.9091ZM316.028 32.7734C315.803 32.7734 315.609 32.6965 315.446 32.5426C315.286 32.3887 315.206 32.2041 315.206 31.9886C315.206 31.7763 315.286 31.5932 315.446 31.4393C315.609 31.2854 315.803 31.2085 316.028 31.2085C316.256 31.2085 316.45 31.2854 316.61 31.4393C316.773 31.5932 316.854 31.7763 316.854 31.9886C316.854 32.2041 316.773 32.3887 316.61 32.5426C316.45 32.6965 316.256 32.7734 316.028 32.7734ZM321.566 41.1477C320.874 41.1477 320.278 40.9969 319.78 40.6953C319.281 40.3906 318.896 39.9659 318.626 39.4212C318.358 38.8733 318.224 38.2347 318.224 37.5053C318.224 36.779 318.358 36.1388 318.626 35.5849C318.896 35.0278 319.273 34.5939 319.757 34.283C320.243 33.9722 320.811 33.8168 321.46 33.8168C321.845 33.8168 322.22 33.8814 322.587 34.0107C322.956 34.1368 323.288 34.34 323.584 34.62C323.882 34.897 324.118 35.2617 324.29 35.7141C324.465 36.1665 324.553 36.719 324.553 37.3714V37.8469H319V36.859H323.321C323.321 36.4774 323.244 36.1388 323.09 35.8434C322.939 35.5449 322.724 35.3094 322.443 35.1371C322.166 34.9647 321.84 34.8786 321.465 34.8786C321.052 34.8786 320.695 34.9786 320.394 35.1786C320.095 35.3787 319.864 35.6403 319.701 35.9634C319.538 36.2866 319.457 36.6344 319.457 37.0067V37.7223C319.457 38.227 319.544 38.6564 319.72 39.0103C319.898 39.3612 320.146 39.6289 320.463 39.8136C320.78 39.9951 321.149 40.0859 321.571 40.0859C321.845 40.0859 322.094 40.0475 322.319 39.9705C322.543 39.8905 322.736 39.772 322.896 39.6151C323.059 39.4581 323.185 39.2611 323.274 39.0241L324.456 39.2919C324.349 39.6612 324.161 39.9859 323.893 40.266C323.628 40.543 323.298 40.7599 322.9 40.9169C322.507 41.0708 322.062 41.1477 321.566 41.1477ZM329.055 41.1477C328.381 41.1477 327.8 40.9908 327.31 40.6768C326.824 40.3629 326.45 39.9305 326.188 39.3796C325.927 38.8287 325.796 38.1993 325.796 37.4915C325.796 36.7682 325.93 36.1312 326.198 35.5803C326.468 35.0294 326.845 34.5985 327.329 34.2876C327.815 33.9737 328.384 33.8168 329.037 33.8168C329.557 33.8168 330.022 33.9122 330.431 34.103C330.843 34.2938 331.179 34.5616 331.437 34.9062C331.696 35.2509 331.853 35.6541 331.908 36.1158H330.689C330.613 35.7865 330.436 35.5002 330.159 35.2571C329.885 35.0109 329.518 34.8878 329.06 34.8878C328.654 34.8878 328.298 34.994 327.993 35.2063C327.692 35.4156 327.456 35.7126 327.287 36.0973C327.121 36.482 327.038 36.9344 327.038 37.4545C327.038 37.987 327.121 38.4486 327.287 38.8395C327.453 39.2304 327.687 39.5335 327.989 39.7489C328.294 39.9644 328.651 40.0721 329.06 40.0721C329.334 40.0721 329.582 40.0228 329.803 39.9244C330.025 39.8259 330.212 39.6858 330.366 39.5043C330.52 39.3196 330.628 39.0996 330.689 38.8441H331.908C331.85 39.2811 331.697 39.6735 331.451 40.0213C331.208 40.3691 330.883 40.6445 330.477 40.8477C330.071 41.0477 329.597 41.1477 329.055 41.1477ZM336.611 33.9091V34.9247H332.839V33.9091H336.611ZM333.892 32.2102H335.129V38.9457C335.129 39.2319 335.171 39.4473 335.254 39.592C335.34 39.7335 335.451 39.829 335.586 39.8782C335.722 39.9274 335.868 39.9521 336.025 39.9521C336.139 39.9521 336.236 39.9459 336.316 39.9336C336.396 39.9182 336.459 39.9059 336.505 39.8967L336.74 40.9538C336.663 40.9815 336.554 41.0108 336.413 41.0415C336.274 41.0754 336.099 41.0923 335.886 41.0923C335.551 41.0954 335.231 41.0308 334.926 40.8984C334.621 40.763 334.372 40.5568 334.178 40.2798C333.987 40.0028 333.892 39.6535 333.892 39.2319V32.2102ZM341.637 31.1023L338.59 42.4219H337.478L340.525 31.1023H341.637ZM342.972 41V31.5455H346.259C346.995 31.5455 347.601 31.6793 348.078 31.9471C348.558 32.2148 348.915 32.578 349.149 33.0366C349.383 33.4921 349.5 34.0045 349.5 34.5739C349.5 35.1432 349.383 35.6572 349.149 36.1158C348.915 36.5743 348.56 36.939 348.083 37.2099C347.606 37.4776 346.999 37.6115 346.264 37.6115H343.96V36.4989H346.181C346.667 36.4989 347.059 36.4143 347.358 36.245C347.656 36.0758 347.873 35.8465 348.009 35.5572C348.147 35.2679 348.217 34.9401 348.217 34.5739C348.217 34.2045 348.147 33.8768 348.009 33.5906C347.873 33.3013 347.655 33.075 347.353 32.9119C347.052 32.7457 346.655 32.6626 346.162 32.6626H344.26V41H342.972ZM353.935 41.1477C353.283 41.1477 352.712 40.9954 352.222 40.6907C351.733 40.3829 351.353 39.9551 351.082 39.4073C350.811 38.8595 350.676 38.2209 350.676 37.4915C350.676 36.7528 350.811 36.1081 351.082 35.5572C351.353 35.0063 351.733 34.5785 352.222 34.2738C352.712 33.9691 353.283 33.8168 353.935 33.8168C354.587 33.8168 355.158 33.9691 355.648 34.2738C356.137 34.5785 356.517 35.0063 356.788 35.5572C357.059 36.1081 357.194 36.7528 357.194 37.4915C357.194 38.2209 357.059 38.8595 356.788 39.4073C356.517 39.9551 356.137 40.3829 355.648 40.6907C355.158 40.9954 354.587 41.1477 353.935 41.1477ZM353.935 40.0767C354.397 40.0767 354.775 39.9582 355.071 39.7212C355.369 39.4812 355.591 39.1657 355.735 38.7749C355.88 38.3809 355.952 37.9516 355.952 37.4869C355.952 37.0252 355.88 36.5974 355.735 36.2035C355.591 35.8065 355.369 35.4879 355.071 35.2479C354.775 35.0047 354.397 34.8832 353.935 34.8832C353.476 34.8832 353.098 35.0047 352.799 35.2479C352.501 35.4879 352.279 35.8065 352.135 36.2035C351.99 36.5974 351.918 37.0252 351.918 37.4869C351.918 37.9516 351.99 38.3809 352.135 38.7749C352.279 39.1657 352.501 39.4812 352.799 39.7212C353.098 39.9582 353.476 40.0767 353.935 40.0767ZM361.43 41.1431C360.848 41.1431 360.332 40.9954 359.883 40.6999C359.434 40.4014 359.081 39.9782 358.826 39.4304C358.571 38.8826 358.443 38.2301 358.443 37.473C358.443 36.7159 358.571 36.065 358.826 35.5202C359.081 34.9724 359.435 34.5523 359.888 34.2599C360.34 33.9645 360.859 33.8168 361.444 33.8168C361.896 33.8168 362.256 33.8922 362.524 34.043C362.792 34.1907 362.999 34.3615 363.147 34.5554C363.295 34.7493 363.409 34.9124 363.489 35.0447H363.576V31.5455H364.809V41H363.609V39.9013H363.489C363.406 40.0429 363.289 40.2121 363.138 40.4091C362.987 40.603 362.775 40.7738 362.501 40.9215C362.23 41.0692 361.873 41.1431 361.43 41.1431ZM361.656 40.0675C362.074 40.0675 362.427 39.9582 362.713 39.7397C363.002 39.5181 363.222 39.2119 363.373 38.821C363.524 38.4271 363.599 37.9716 363.599 37.4545C363.599 36.9437 363.526 36.4959 363.378 36.1112C363.23 35.7264 363.012 35.4279 362.722 35.2156C362.433 35.0001 362.078 34.8924 361.656 34.8924C361.219 34.8924 360.854 35.0063 360.562 35.234C360.269 35.4587 360.049 35.7649 359.902 36.1527C359.757 36.5374 359.685 36.9714 359.685 37.4545C359.685 37.9439 359.758 38.3871 359.906 38.7841C360.057 39.178 360.277 39.4904 360.566 39.7212C360.859 39.9521 361.222 40.0675 361.656 40.0675Z" fill="black"/>
</g>
<g filter="url(#filter2_dd_371_5531)">
<path d="M1145 25C1145 17.8203 1150.82 12 1158 12H1255C1262.18 12 1268 17.8203 1268 25V47.0001C1268 54.1799 1262.18 60.0002 1255 60.0002H1158C1150.82 60.0002 1145 54.1799 1145 47.0002V25Z" fill="white"/>
<g clip-path="url(#clip6_371_5531)">
<rect width="24.0005" height="24" transform="translate(1157 24)" fill="#E8B931"/>
<path d="M1165.61 41L1163.01 31.5455H1164.34L1166.25 39.0565H1166.34L1168.3 31.5455H1169.69L1171.65 39.0611H1171.75L1173.65 31.5455H1174.99L1172.38 41H1171.07L1169.03 33.6921H1168.96L1166.92 41H1165.61Z" fill="#1E1E1E"/>
</g>
<path d="M1190.77 34.7678C1190.96 34.5725 1191.28 34.5725 1191.48 34.7678C1191.67 34.963 1191.67 35.2796 1191.48 35.4748L1189 37.9494L1186.53 35.4748C1186.33 35.2796 1186.33 34.963 1186.53 34.7678C1186.72 34.5725 1187.04 34.5725 1187.23 34.7678L1189 36.5354L1190.77 34.7678Z" fill="black" fill-opacity="0.9"/>
<path d="M1205 25C1205 22.2386 1207.24 20 1210 20H1255C1257.76 20 1260 22.2386 1260 25V47C1260 49.7614 1257.76 52 1255 52H1210C1207.24 52 1205 49.7614 1205 47V25Z" fill="#2C2C2C"/>
<path d="M1222.56 34.0508C1222.52 33.668 1222.34 33.3711 1222.02 33.1602C1221.7 32.9492 1221.31 32.8437 1220.84 32.8437C1220.5 32.8437 1220.2 32.8984 1219.95 33.0078C1219.7 33.1146 1219.5 33.263 1219.36 33.4531C1219.22 33.6432 1219.15 33.8581 1219.15 34.0977C1219.15 34.3008 1219.2 34.4753 1219.29 34.6211C1219.39 34.7643 1219.52 34.8841 1219.67 34.9805C1219.83 35.0768 1219.99 35.1562 1220.16 35.2187C1220.34 35.2812 1220.5 35.332 1220.65 35.3711L1221.45 35.582C1221.68 35.6393 1221.93 35.7201 1222.19 35.8242C1222.45 35.9258 1222.7 36.0612 1222.93 36.2305C1223.16 36.3997 1223.35 36.6133 1223.5 36.8711C1223.65 37.1289 1223.72 37.4414 1223.72 37.8086C1223.72 38.2513 1223.61 38.6484 1223.38 39C1223.15 39.349 1222.82 39.6263 1222.38 39.832C1221.94 40.0352 1221.42 40.1367 1220.8 40.1367C1220.21 40.1367 1219.7 40.043 1219.27 39.8555C1218.85 39.668 1218.51 39.4049 1218.27 39.0664C1218.03 38.7253 1217.89 38.3242 1217.86 37.8633H1218.97C1219 38.1602 1219.09 38.4049 1219.26 38.5977C1219.43 38.7904 1219.65 38.9349 1219.92 39.0312C1220.19 39.125 1220.48 39.1719 1220.79 39.1719C1221.15 39.1719 1221.47 39.1146 1221.75 39C1222.03 38.8828 1222.25 38.7214 1222.41 38.5156C1222.58 38.3099 1222.66 38.0703 1222.66 37.7969C1222.66 37.5443 1222.59 37.3385 1222.45 37.1797C1222.31 37.0208 1222.12 36.8906 1221.88 36.7891C1221.65 36.6875 1221.39 36.599 1221.1 36.5234L1220.14 36.25C1219.5 36.0729 1219 35.8164 1218.63 35.4805C1218.26 35.1445 1218.08 34.7031 1218.08 34.1562C1218.08 33.7031 1218.2 33.3073 1218.45 32.9687C1218.7 32.6276 1219.03 32.3633 1219.45 32.1758C1219.87 31.9857 1220.34 31.8906 1220.86 31.8906C1221.39 31.8906 1221.86 31.9844 1222.27 32.1719C1222.68 32.3594 1223 32.6159 1223.24 32.9414C1223.48 33.2643 1223.6 33.6341 1223.61 34.0508H1222.56ZM1226.23 36.4141V40H1225.18V32H1226.22V34.957H1226.3C1226.44 34.6393 1226.65 34.388 1226.94 34.2031C1227.23 34.0156 1227.6 33.9219 1228.07 33.9219C1228.48 33.9219 1228.84 34.0052 1229.15 34.1719C1229.46 34.3359 1229.7 34.5859 1229.86 34.9219C1230.04 35.2578 1230.12 35.6797 1230.12 36.1875V40H1229.08V36.2891C1229.08 35.8307 1228.96 35.4753 1228.72 35.2227C1228.49 34.9701 1228.16 34.8438 1227.74 34.8438C1227.45 34.8438 1227.19 34.9049 1226.96 35.0273C1226.74 35.1497 1226.56 35.3281 1226.43 35.5625C1226.3 35.7969 1226.23 36.0807 1226.23 36.4141ZM1233.56 40.1367C1233.18 40.1367 1232.84 40.0651 1232.53 39.9219C1232.22 39.7786 1231.97 39.5716 1231.79 39.3008C1231.61 39.0273 1231.52 38.694 1231.52 38.3008C1231.52 37.9596 1231.59 37.681 1231.72 37.4648C1231.86 37.2461 1232.04 37.0742 1232.26 36.9492C1232.48 36.8242 1232.73 36.7305 1233.01 36.668C1233.28 36.6055 1233.56 36.5573 1233.84 36.5234C1234.2 36.4766 1234.49 36.4401 1234.72 36.4141C1234.94 36.388 1235.11 36.3451 1235.21 36.2852C1235.32 36.2253 1235.37 36.1224 1235.37 35.9766V35.9453C1235.37 35.5833 1235.27 35.3021 1235.07 35.1016C1234.87 34.901 1234.57 34.8008 1234.17 34.8008C1233.75 34.8008 1233.42 34.8919 1233.19 35.0742C1232.95 35.2565 1232.78 35.4557 1232.69 35.6719L1231.7 35.3906C1231.84 35.026 1232.04 34.737 1232.3 34.5234C1232.56 34.3073 1232.84 34.1536 1233.16 34.0625C1233.48 33.9687 1233.81 33.9219 1234.14 33.9219C1234.36 33.9219 1234.6 33.9479 1234.86 34C1235.12 34.0495 1235.37 34.1471 1235.6 34.293C1235.84 34.4362 1236.03 34.6484 1236.19 34.9297C1236.34 35.2083 1236.42 35.5755 1236.42 36.0312V40H1235.39V39.1836H1235.34C1235.27 39.3242 1235.16 39.4687 1235.01 39.6172C1234.87 39.763 1234.67 39.8867 1234.43 39.9883C1234.19 40.0872 1233.9 40.1367 1233.56 40.1367ZM1233.76 39.2539C1234.1 39.2539 1234.4 39.1862 1234.64 39.0508C1234.87 38.9154 1235.06 38.7396 1235.18 38.5234C1235.31 38.3073 1235.37 38.0768 1235.37 37.832V37.0234C1235.33 37.0677 1235.25 37.1081 1235.12 37.1445C1235 37.181 1234.86 37.2122 1234.69 37.2383C1234.53 37.2643 1234.38 37.2878 1234.23 37.3086C1234.07 37.3268 1233.95 37.3424 1233.85 37.3555C1233.62 37.3867 1233.4 37.4362 1233.21 37.5039C1233.01 37.5716 1232.85 37.6719 1232.73 37.8047C1232.62 37.9349 1232.56 38.1107 1232.56 38.332C1232.56 38.6367 1232.67 38.8672 1232.9 39.0234C1233.12 39.1771 1233.41 39.2539 1233.76 39.2539ZM1238.09 40V34H1239.1V34.9297H1239.16C1239.27 34.6198 1239.47 34.3724 1239.75 34.1875C1240.03 34 1240.35 33.9062 1240.71 33.9062C1240.78 33.9062 1240.86 33.9089 1240.96 33.9141C1241.06 33.9167 1241.14 33.9219 1241.2 33.9297V34.957C1241.16 34.9466 1241.08 34.9336 1240.96 34.918C1240.85 34.8997 1240.73 34.8906 1240.61 34.8906C1240.33 34.8906 1240.07 34.9505 1239.85 35.0703C1239.63 35.1875 1239.45 35.3503 1239.33 35.5586C1239.2 35.7669 1239.14 36.0039 1239.14 36.2695V40H1238.09ZM1244.66 40.125C1244.08 40.125 1243.57 39.9974 1243.15 39.7422C1242.73 39.4844 1242.4 39.125 1242.17 38.6641C1241.95 38.2005 1241.83 37.6602 1241.83 37.043C1241.83 36.4284 1241.95 35.8867 1242.17 35.418C1242.4 34.9466 1242.72 34.5794 1243.13 34.3164C1243.54 34.0534 1244.02 33.9219 1244.57 33.9219C1244.9 33.9219 1245.22 33.9766 1245.53 34.0859C1245.84 34.1927 1246.12 34.3646 1246.37 34.6016C1246.62 34.8359 1246.82 35.1445 1246.97 35.5273C1247.12 35.9102 1247.19 36.3776 1247.19 36.9297V37.332H1242.49V36.4961H1246.15C1246.15 36.1732 1246.08 35.8867 1245.95 35.6367C1245.82 35.3841 1245.64 35.1849 1245.4 35.0391C1245.17 34.8932 1244.89 34.8203 1244.58 34.8203C1244.23 34.8203 1243.93 34.9049 1243.67 35.0742C1243.42 35.2435 1243.22 35.4648 1243.08 35.7383C1242.95 36.0117 1242.88 36.306 1242.88 36.6211V37.2266C1242.88 37.6536 1242.95 38.0169 1243.1 38.3164C1243.25 38.6133 1243.46 38.8398 1243.73 38.9961C1244 39.1497 1244.31 39.2266 1244.67 39.2266C1244.9 39.2266 1245.11 39.194 1245.3 39.1289C1245.49 39.0612 1245.65 38.9609 1245.79 38.8281C1245.93 38.6953 1246.03 38.5286 1246.11 38.3281L1247.11 38.5547C1247.02 38.8672 1246.86 39.1419 1246.63 39.3789C1246.41 39.6133 1246.13 39.7969 1245.79 39.9297C1245.46 40.0599 1245.08 40.125 1244.66 40.125Z" fill="white"/>
</g>
<g filter="url(#filter3_ddd_371_5531)">
<g clip-path="url(#clip7_371_5531)">
<path d="M402.719 226.281C402.719 219.101 408.54 213.281 415.719 213.281H869.719C876.899 213.281 882.719 219.101 882.719 226.281V452.281C882.719 459.46 876.899 465.281 869.719 465.281H415.719C408.54 465.281 402.719 459.46 402.719 452.281V226.281Z" fill="white"/>
<g clip-path="url(#clip8_371_5531)">
<rect width="480" height="40" transform="translate(402.719 213.281)" fill="white"/>
<path d="M426.765 238.871C426.027 239.253 425.109 239.445 424.01 239.445C422.588 239.445 421.449 238.996 420.592 238.098C419.736 237.2 419.307 236.022 419.307 234.564C419.307 232.996 419.788 231.729 420.75 230.763C421.716 229.797 422.935 229.314 424.407 229.314C425.355 229.314 426.141 229.448 426.765 229.717V231.331C426.104 230.939 425.375 230.743 424.578 230.743C423.516 230.743 422.654 231.082 421.994 231.761C421.337 232.44 421.009 233.347 421.009 234.482C421.009 235.562 421.317 236.423 421.932 237.066C422.547 237.704 423.356 238.023 424.359 238.023C425.284 238.023 426.086 237.804 426.765 237.367V238.871ZM431.55 239.445C430.47 239.445 429.607 239.119 428.959 238.467C428.317 237.811 427.996 236.943 427.996 235.863C427.996 234.687 428.331 233.769 429 233.108C429.675 232.447 430.582 232.117 431.721 232.117C432.815 232.117 433.667 232.438 434.278 233.081C434.889 233.723 435.194 234.614 435.194 235.753C435.194 236.87 434.863 237.765 434.203 238.44C433.546 239.11 432.662 239.445 431.55 239.445ZM431.625 233.381C431.006 233.381 430.516 233.598 430.156 234.031C429.796 234.464 429.616 235.061 429.616 235.822C429.616 236.556 429.798 237.134 430.163 237.558C430.527 237.977 431.015 238.187 431.625 238.187C432.25 238.187 432.728 237.98 433.061 237.565C433.398 237.15 433.567 236.56 433.567 235.794C433.567 235.024 433.398 234.43 433.061 234.01C432.728 233.591 432.25 233.381 431.625 233.381ZM443.048 239.281H441.462V235.336C441.462 234.028 441 233.375 440.075 233.375C439.592 233.375 439.193 233.557 438.878 233.921C438.564 234.281 438.407 234.737 438.407 235.289V239.281H436.814V232.281H438.407V233.443H438.434C438.958 232.559 439.715 232.117 440.704 232.117C441.465 232.117 442.046 232.365 442.447 232.862C442.848 233.354 443.048 234.067 443.048 235.001V239.281ZM448.681 239.206C448.371 239.361 447.963 239.438 447.458 239.438C446.099 239.438 445.42 238.786 445.42 237.483V233.525H444.251V232.281H445.42V230.661L447.006 230.209V232.281H448.681V233.525H447.006V237.025C447.006 237.44 447.082 237.736 447.232 237.914C447.382 238.091 447.633 238.18 447.984 238.18C448.253 238.18 448.485 238.103 448.681 237.948V239.206ZM455.893 236.211H451.122C451.14 236.859 451.338 237.358 451.716 237.708C452.099 238.059 452.623 238.235 453.289 238.235C454.036 238.235 454.722 238.012 455.346 237.565V238.843C454.708 239.244 453.865 239.445 452.817 239.445C451.787 239.445 450.978 239.128 450.39 238.495C449.807 237.857 449.515 236.961 449.515 235.808C449.515 234.719 449.836 233.833 450.479 233.149C451.126 232.461 451.928 232.117 452.885 232.117C453.842 232.117 454.583 232.424 455.107 233.04C455.631 233.655 455.893 234.509 455.893 235.603V236.211ZM454.362 235.09C454.357 234.521 454.223 234.079 453.958 233.764C453.694 233.445 453.33 233.286 452.865 233.286C452.409 233.286 452.022 233.452 451.703 233.785C451.388 234.117 451.194 234.553 451.122 235.09H454.362ZM463.255 232.281L460.924 235.822L463.228 239.281H461.389L460.159 237.114C460.081 236.982 459.99 236.813 459.885 236.608H459.858C459.84 236.649 459.744 236.818 459.571 237.114L458.32 239.281H456.488L458.867 235.849L456.611 232.281H458.457L459.667 234.557C459.758 234.726 459.847 234.899 459.933 235.077H459.954L461.519 232.281H463.255ZM468.109 239.206C467.799 239.361 467.391 239.438 466.885 239.438C465.527 239.438 464.848 238.786 464.848 237.483V233.525H463.679V232.281H464.848V230.661L466.434 230.209V232.281H468.109V233.525H466.434V237.025C466.434 237.44 466.509 237.736 466.66 237.914C466.81 238.091 467.061 238.18 467.412 238.18C467.681 238.18 467.913 238.103 468.109 237.948V239.206Z" fill="black" fill-opacity="0.9"/>
<g clip-path="url(#clip9_371_5531)">
<path d="M867.366 227.927C867.561 227.732 867.877 227.732 868.073 227.927C868.268 228.122 868.268 228.439 868.073 228.634L863.426 233.281L868.073 237.927C868.268 238.122 868.268 238.439 868.073 238.634C867.877 238.83 867.561 238.83 867.366 238.634L862.719 233.988L858.073 238.634C857.877 238.83 857.561 238.83 857.366 238.634C857.17 238.439 857.17 238.122 857.366 237.927L862.012 233.281L857.366 228.634C857.17 228.439 857.17 228.122 857.366 227.927C857.561 227.732 857.877 227.732 858.073 227.927L862.719 232.574L867.366 227.927Z" fill="black" fill-opacity="0.9"/>
</g>
<line x1="402.719" y1="252.781" x2="882.719" y2="252.781" stroke="#E6E6E6"/>
</g>
<path d="M419.478 286.891V285.216C419.628 285.353 419.806 285.476 420.011 285.585C420.221 285.695 420.442 285.788 420.674 285.866C420.907 285.939 421.139 285.996 421.372 286.037C421.604 286.078 421.818 286.098 422.014 286.098C422.698 286.098 423.206 285.984 423.539 285.756C423.876 285.528 424.044 285.198 424.044 284.765C424.044 284.533 423.987 284.332 423.874 284.164C423.764 283.99 423.609 283.833 423.409 283.692C423.208 283.551 422.971 283.416 422.698 283.289C422.429 283.156 422.139 283.02 421.83 282.878C421.497 282.701 421.187 282.521 420.9 282.338C420.613 282.156 420.362 281.956 420.148 281.737C419.938 281.514 419.772 281.263 419.649 280.985C419.53 280.707 419.471 280.381 419.471 280.007C419.471 279.547 419.574 279.148 419.779 278.811C419.988 278.469 420.262 278.189 420.599 277.97C420.941 277.747 421.328 277.583 421.761 277.478C422.194 277.369 422.636 277.314 423.087 277.314C424.113 277.314 424.86 277.43 425.33 277.663V279.269C424.774 278.868 424.058 278.667 423.183 278.667C422.942 278.667 422.7 278.69 422.458 278.736C422.222 278.781 422.007 278.857 421.816 278.961C421.629 279.066 421.476 279.201 421.358 279.365C421.239 279.529 421.18 279.727 421.18 279.959C421.18 280.178 421.226 280.367 421.317 280.527C421.408 280.686 421.54 280.832 421.713 280.964C421.891 281.097 422.105 281.226 422.356 281.354C422.611 281.477 422.905 281.611 423.238 281.757C423.58 281.935 423.901 282.122 424.202 282.318C424.507 282.514 424.774 282.73 425.001 282.967C425.234 283.204 425.416 283.469 425.548 283.76C425.685 284.047 425.753 284.375 425.753 284.745C425.753 285.241 425.653 285.661 425.453 286.002C425.252 286.344 424.981 286.622 424.639 286.836C424.302 287.051 423.912 287.206 423.47 287.301C423.028 287.397 422.561 287.445 422.069 287.445C421.905 287.445 421.702 287.431 421.46 287.404C421.223 287.381 420.98 287.345 420.729 287.294C420.478 287.249 420.241 287.192 420.018 287.124C419.795 287.055 419.615 286.978 419.478 286.891ZM430.662 287.206C430.352 287.361 429.944 287.438 429.438 287.438C428.08 287.438 427.401 286.786 427.401 285.483V281.525H426.232V280.281H427.401V278.661L428.987 278.209V280.281H430.662V281.525H428.987V285.025C428.987 285.44 429.062 285.736 429.212 285.914C429.363 286.091 429.613 286.18 429.964 286.18C430.233 286.18 430.466 286.103 430.662 285.948V287.206ZM437.402 287.281H435.864V286.187H435.836C435.353 287.026 434.645 287.445 433.71 287.445C433.022 287.445 432.482 287.258 432.09 286.884C431.703 286.511 431.509 286.016 431.509 285.401C431.509 284.079 432.27 283.309 433.792 283.09L435.871 282.796C435.871 281.798 435.397 281.299 434.449 281.299C433.615 281.299 432.863 281.586 432.193 282.161V280.773C432.931 280.335 433.783 280.117 434.75 280.117C436.518 280.117 437.402 280.987 437.402 282.728V287.281ZM435.871 283.842L434.401 284.047C433.945 284.107 433.601 284.218 433.369 284.382C433.141 284.542 433.027 284.824 433.027 285.23C433.027 285.526 433.132 285.77 433.341 285.961C433.556 286.148 433.84 286.242 434.196 286.242C434.679 286.242 435.078 286.073 435.392 285.736C435.711 285.394 435.871 284.966 435.871 284.451V283.842ZM443.404 281.792C443.212 281.641 442.937 281.566 442.577 281.566C442.107 281.566 441.715 281.778 441.401 282.202C441.086 282.625 440.929 283.202 440.929 283.931V287.281H439.343V280.281H440.929V281.723H440.957C441.111 281.231 441.348 280.848 441.667 280.575C441.991 280.297 442.351 280.158 442.748 280.158C443.035 280.158 443.253 280.201 443.404 280.288V281.792ZM448.626 287.206C448.317 287.361 447.909 287.438 447.403 287.438C446.045 287.438 445.366 286.786 445.366 285.483V281.525H444.197V280.281H445.366V278.661L446.952 278.209V280.281H448.626V281.525H446.952V285.025C446.952 285.44 447.027 285.736 447.177 285.914C447.328 286.091 447.578 286.18 447.929 286.18C448.198 286.18 448.431 286.103 448.626 285.948V287.206ZM454.027 287.281V277.478H456.857C460.471 277.478 462.278 279.071 462.278 282.256C462.278 283.769 461.777 284.986 460.774 285.907C459.771 286.823 458.427 287.281 456.741 287.281H454.027ZM455.647 278.859V285.907H456.946C458.09 285.907 458.978 285.592 459.612 284.963C460.25 284.334 460.569 283.446 460.569 282.297C460.569 280.005 459.382 278.859 457.007 278.859H455.647ZM469.271 287.281H467.733V286.187H467.706C467.222 287.026 466.514 287.445 465.58 287.445C464.891 287.445 464.351 287.258 463.959 286.884C463.572 286.511 463.378 286.016 463.378 285.401C463.378 284.079 464.139 283.309 465.662 283.09L467.74 282.796C467.74 281.798 467.266 281.299 466.318 281.299C465.484 281.299 464.732 281.586 464.062 282.161V280.773C464.8 280.335 465.653 280.117 466.619 280.117C468.387 280.117 469.271 280.987 469.271 282.728V287.281ZM467.74 283.842L466.27 284.047C465.814 284.107 465.47 284.218 465.238 284.382C465.01 284.542 464.896 284.824 464.896 285.23C464.896 285.526 465.001 285.77 465.21 285.961C465.425 286.148 465.709 286.242 466.065 286.242C466.548 286.242 466.947 286.073 467.261 285.736C467.58 285.394 467.74 284.966 467.74 284.451V283.842ZM474.904 287.206C474.594 287.361 474.186 287.438 473.68 287.438C472.322 287.438 471.643 286.786 471.643 285.483V281.525H470.474V280.281H471.643V278.661L473.229 278.209V280.281H474.904V281.525H473.229V285.025C473.229 285.44 473.304 285.736 473.455 285.914C473.605 286.091 473.856 286.18 474.207 286.18C474.475 286.18 474.708 286.103 474.904 285.948V287.206ZM482.116 284.211H477.344C477.362 284.859 477.561 285.358 477.939 285.708C478.322 286.059 478.846 286.235 479.511 286.235C480.259 286.235 480.944 286.012 481.569 285.565V286.843C480.931 287.244 480.088 287.445 479.04 287.445C478.01 287.445 477.201 287.128 476.613 286.495C476.029 285.857 475.738 284.961 475.738 283.808C475.738 282.719 476.059 281.833 476.702 281.149C477.349 280.461 478.151 280.117 479.108 280.117C480.065 280.117 480.806 280.424 481.33 281.04C481.854 281.655 482.116 282.509 482.116 283.603V284.211ZM480.584 283.09C480.58 282.521 480.445 282.079 480.181 281.764C479.917 281.445 479.552 281.286 479.087 281.286C478.632 281.286 478.244 281.452 477.925 281.785C477.611 282.117 477.417 282.553 477.344 283.09H480.584Z" fill="black" fill-opacity="0.9"/>
<path d="M418.719 304.281C418.719 301.519 420.958 299.281 423.719 299.281H861.719C864.481 299.281 866.719 301.519 866.719 304.281V326.281C866.719 329.042 864.481 331.281 861.719 331.281H423.719C420.958 331.281 418.719 329.042 418.719 326.281V304.281Z" fill="#F5F5F5"/>
<path d="M430.172 319.281H427.641V311.281H430.266C431.047 311.281 431.717 311.441 432.274 311.761C432.831 312.079 433.258 312.536 433.555 313.132C433.852 313.726 434 314.437 434 315.265C434 316.098 433.851 316.816 433.551 317.417C433.252 318.016 432.817 318.477 432.247 318.8C431.676 319.121 430.985 319.281 430.172 319.281ZM428.731 318.324H430.11C430.743 318.324 431.269 318.203 431.688 317.96C432.107 317.718 432.42 317.369 432.625 316.914C432.834 316.458 432.938 315.908 432.938 315.265C432.938 314.63 432.835 314.087 432.629 313.636C432.426 313.183 432.122 312.837 431.715 312.597C431.309 312.358 430.804 312.238 430.2 312.238H428.731V318.324ZM438.144 319.281H435.613V311.281H438.238C439.019 311.281 439.689 311.441 440.246 311.761C440.803 312.079 441.23 312.536 441.527 313.132C441.824 313.726 441.972 314.437 441.972 315.265C441.972 316.098 441.823 316.816 441.523 317.417C441.224 318.016 440.789 318.477 440.219 318.8C439.648 319.121 438.957 319.281 438.144 319.281ZM436.703 318.324H438.082C438.715 318.324 439.241 318.203 439.66 317.96C440.079 317.718 440.392 317.369 440.597 316.914C440.806 316.458 440.91 315.908 440.91 315.265C440.91 314.63 440.807 314.087 440.601 313.636C440.398 313.183 440.094 312.837 439.687 312.597C439.281 312.358 438.776 312.238 438.172 312.238H436.703V318.324ZM445.973 310.906L443.395 320.484H442.453L445.031 310.906H445.973ZM447.185 311.281H448.498L451.13 317.71H451.224L453.857 311.281H455.169V319.281H454.138V313.347H454.064L451.634 319.273H450.72L448.29 313.343H448.216V319.281H447.185V311.281ZM457.069 311.281H458.382L461.014 317.71H461.108L463.741 311.281H465.053V319.281H464.022V313.347H463.948L461.518 319.273H460.604L458.175 313.343H458.1V319.281H457.069V311.281ZM469.781 310.906L467.203 320.484H466.262L468.84 310.906H469.781ZM470.345 311.281H471.583L473.736 314.968H473.83L475.982 311.281H477.22L474.326 316.062V319.281H473.24V316.062L470.345 311.281ZM477.823 311.281H479.061L481.214 314.968H481.307L483.46 311.281H484.698L481.803 316.062V319.281H480.718V316.062L477.823 311.281Z" fill="black" fill-opacity="0.3"/>
<path d="M854.719 305.281V309.281M846.719 305.281V309.281M841.719 313.281H859.719M843.719 307.281H857.719C858.824 307.281 859.719 308.176 859.719 309.281V323.281C859.719 324.385 858.824 325.281 857.719 325.281H843.719C842.615 325.281 841.719 324.385 841.719 323.281V309.281C841.719 308.176 842.615 307.281 843.719 307.281Z" stroke="#1E1E1E" stroke-linecap="round" stroke-linejoin="round"/>
<path d="M425.432 363.281H419.929V353.478H425.213V354.859H421.556V357.634H424.926V359.008H421.556V361.907H425.432V363.281ZM433.232 363.281H431.646V359.336C431.646 358.028 431.183 357.375 430.258 357.375C429.775 357.375 429.376 357.557 429.062 357.921C428.748 358.281 428.59 358.737 428.59 359.289V363.281H426.998V356.281H428.59V357.443H428.618C429.142 356.559 429.898 356.117 430.887 356.117C431.648 356.117 432.229 356.365 432.63 356.862C433.031 357.354 433.232 358.067 433.232 359.001V363.281ZM441.538 363.281H439.952V362.091H439.924C439.414 362.994 438.628 363.445 437.566 363.445C436.705 363.445 436.014 363.133 435.495 362.508C434.98 361.879 434.722 361.025 434.722 359.945C434.722 358.787 435.007 357.86 435.577 357.163C436.151 356.465 436.914 356.117 437.867 356.117C438.81 356.117 439.496 356.495 439.924 357.251H439.952V352.917H441.538V363.281ZM439.972 360.082V359.166C439.972 358.669 439.81 358.247 439.487 357.901C439.163 357.555 438.751 357.381 438.25 357.381C437.657 357.381 437.19 357.602 436.848 358.044C436.511 358.486 436.342 359.099 436.342 359.883C436.342 360.594 436.504 361.157 436.828 361.572C437.156 361.982 437.596 362.187 438.147 362.187C438.689 362.187 439.129 361.989 439.466 361.592C439.804 361.191 439.972 360.688 439.972 360.082ZM447.642 363.281V353.478H450.472C454.086 353.478 455.893 355.071 455.893 358.256C455.893 359.769 455.392 360.986 454.389 361.907C453.387 362.823 452.042 363.281 450.356 363.281H447.642ZM449.262 354.859V361.907H450.561C451.705 361.907 452.594 361.592 453.227 360.963C453.865 360.334 454.184 359.446 454.184 358.297C454.184 356.005 452.997 354.859 450.623 354.859H449.262ZM462.886 363.281H461.348V362.187H461.321C460.838 363.026 460.129 363.445 459.195 363.445C458.507 363.445 457.967 363.258 457.575 362.884C457.187 362.511 456.994 362.016 456.994 361.401C456.994 360.079 457.755 359.309 459.277 359.09L461.355 358.796C461.355 357.798 460.881 357.299 459.933 357.299C459.099 357.299 458.347 357.586 457.677 358.161V356.773C458.416 356.335 459.268 356.117 460.234 356.117C462.002 356.117 462.886 356.987 462.886 358.728V363.281ZM461.355 359.842L459.885 360.047C459.43 360.107 459.085 360.218 458.853 360.382C458.625 360.542 458.511 360.824 458.511 361.23C458.511 361.526 458.616 361.77 458.826 361.961C459.04 362.148 459.325 362.242 459.68 362.242C460.163 362.242 460.562 362.073 460.876 361.736C461.195 361.394 461.355 360.966 461.355 360.451V359.842ZM468.519 363.206C468.209 363.361 467.801 363.438 467.295 363.438C465.937 363.438 465.258 362.786 465.258 361.483V357.525H464.089V356.281H465.258V354.661L466.844 354.209V356.281H468.519V357.525H466.844V361.025C466.844 361.44 466.919 361.736 467.07 361.914C467.22 362.091 467.471 362.18 467.822 362.18C468.091 362.18 468.323 362.103 468.519 361.948V363.206ZM475.731 360.211H470.959C470.978 360.859 471.176 361.358 471.554 361.708C471.937 362.059 472.461 362.235 473.126 362.235C473.874 362.235 474.56 362.012 475.184 361.565V362.843C474.546 363.244 473.703 363.445 472.655 363.445C471.625 363.445 470.816 363.128 470.228 362.495C469.645 361.857 469.353 360.961 469.353 359.808C469.353 358.719 469.674 357.833 470.317 357.149C470.964 356.461 471.766 356.117 472.723 356.117C473.68 356.117 474.421 356.424 474.945 357.04C475.469 357.655 475.731 358.509 475.731 359.603V360.211ZM474.2 359.09C474.195 358.521 474.061 358.079 473.796 357.764C473.532 357.445 473.167 357.286 472.703 357.286C472.247 357.286 471.86 357.452 471.541 357.785C471.226 358.117 471.032 358.553 470.959 359.09H474.2Z" fill="black" fill-opacity="0.9"/>
<path d="M418.719 380.281C418.719 377.519 420.958 375.281 423.719 375.281H861.719C864.481 375.281 866.719 377.519 866.719 380.281V402.281C866.719 405.042 864.481 407.281 861.719 407.281H423.719C420.958 407.281 418.719 405.042 418.719 402.281V380.281Z" fill="#F5F5F5"/>
<path d="M430.172 395.281H427.641V387.281H430.266C431.047 387.281 431.717 387.441 432.274 387.761C432.831 388.079 433.258 388.536 433.555 389.132C433.852 389.726 434 390.437 434 391.265C434 392.098 433.851 392.816 433.551 393.417C433.252 394.016 432.817 394.477 432.247 394.8C431.676 395.121 430.985 395.281 430.172 395.281ZM428.731 394.324H430.11C430.743 394.324 431.269 394.203 431.688 393.96C432.107 393.718 432.42 393.369 432.625 392.914C432.834 392.458 432.938 391.908 432.938 391.265C432.938 390.63 432.835 390.087 432.629 389.636C432.426 389.183 432.122 388.837 431.715 388.597C431.309 388.358 430.804 388.238 430.2 388.238H428.731V394.324ZM438.144 395.281H435.613V387.281H438.238C439.019 387.281 439.689 387.441 440.246 387.761C440.803 388.079 441.23 388.536 441.527 389.132C441.824 389.726 441.972 390.437 441.972 391.265C441.972 392.098 441.823 392.816 441.523 393.417C441.224 394.016 440.789 394.477 440.219 394.8C439.648 395.121 438.957 395.281 438.144 395.281ZM436.703 394.324H438.082C438.715 394.324 439.241 394.203 439.66 393.96C440.079 393.718 440.392 393.369 440.597 392.914C440.806 392.458 440.91 391.908 440.91 391.265C440.91 390.63 440.807 390.087 440.601 389.636C440.398 389.183 440.094 388.837 439.687 388.597C439.281 388.358 438.776 388.238 438.172 388.238H436.703V394.324ZM445.973 386.906L443.395 396.484H442.453L445.031 386.906H445.973ZM447.185 387.281H448.498L451.13 393.71H451.224L453.857 387.281H455.169V395.281H454.138V389.347H454.064L451.634 395.273H450.72L448.29 389.343H448.216V395.281H447.185V387.281ZM457.069 387.281H458.382L461.014 393.71H461.108L463.741 387.281H465.053V395.281H464.022V389.347H463.948L461.518 395.273H460.604L458.175 389.343H458.1V395.281H457.069V387.281ZM469.781 386.906L467.203 396.484H466.262L468.84 386.906H469.781ZM470.345 387.281H471.583L473.736 390.968H473.83L475.982 387.281H477.22L474.326 392.062V395.281H473.24V392.062L470.345 387.281ZM477.823 387.281H479.061L481.214 390.968H481.307L483.46 387.281H484.698L481.803 392.062V395.281H480.718V392.062L477.823 387.281Z" fill="black" fill-opacity="0.3"/>
<path d="M854.719 381.281V385.281M846.719 381.281V385.281M841.719 389.281H859.719M843.719 383.281H857.719C858.824 383.281 859.719 384.176 859.719 385.281V399.281C859.719 400.385 858.824 401.281 857.719 401.281H843.719C842.615 401.281 841.719 400.385 841.719 399.281V385.281C841.719 384.176 842.615 383.281 843.719 383.281Z" stroke="#1E1E1E" stroke-linecap="round" stroke-linejoin="round"/>
<rect width="480" height="40" transform="translate(402.719 425.281)" fill="white"/>
<path d="M419.516 449.281V448.492L422.192 445.644C422.491 445.321 422.737 445.04 422.93 444.8C423.125 444.561 423.271 444.333 423.368 444.117C423.464 443.901 423.512 443.673 423.512 443.433C423.512 443.16 423.447 442.924 423.317 442.726C423.187 442.526 423.01 442.371 422.786 442.261C422.562 442.152 422.31 442.097 422.032 442.097C421.735 442.097 421.476 442.158 421.254 442.281C421.036 442.403 420.866 442.574 420.747 442.792C420.627 443.011 420.567 443.269 420.567 443.566H419.532C419.532 443.089 419.641 442.671 419.86 442.312C420.079 441.953 420.379 441.673 420.762 441.472C421.145 441.272 421.577 441.171 422.059 441.171C422.546 441.171 422.976 441.272 423.348 441.472C423.721 441.67 424.012 441.938 424.223 442.277C424.434 442.615 424.54 442.994 424.54 443.414C424.54 443.71 424.485 444.001 424.375 444.285C424.269 444.566 424.083 444.88 423.817 445.226C423.551 445.57 423.181 445.988 422.708 446.48L421.016 448.273V448.335H424.672V449.281H419.516ZM431.837 449.406C431.285 449.406 430.802 449.277 430.388 449.019C429.974 448.759 429.652 448.397 429.423 447.933C429.194 447.47 429.079 446.929 429.079 446.312C429.079 445.687 429.194 445.141 429.423 444.675C429.652 444.209 429.974 443.847 430.388 443.589C430.802 443.332 431.285 443.203 431.837 443.203C432.389 443.203 432.872 443.332 433.286 443.589C433.7 443.847 434.022 444.209 434.251 444.675C434.48 445.141 434.595 445.687 434.595 446.312C434.595 446.929 434.48 447.47 434.251 447.933C434.022 448.397 433.7 448.759 433.286 449.019C432.872 449.277 432.389 449.406 431.837 449.406ZM431.837 448.5C432.228 448.5 432.548 448.399 432.798 448.199C433.051 447.996 433.238 447.729 433.36 447.398C433.483 447.065 433.544 446.701 433.544 446.308C433.544 445.917 433.483 445.556 433.36 445.222C433.238 444.886 433.051 444.617 432.798 444.414C432.548 444.208 432.228 444.105 431.837 444.105C431.449 444.105 431.129 444.208 430.876 444.414C430.624 444.617 430.436 444.886 430.314 445.222C430.191 445.556 430.13 445.917 430.13 446.308C430.13 446.701 430.191 447.065 430.314 447.398C430.436 447.729 430.624 447.996 430.876 448.199C431.129 448.399 431.449 448.5 431.837 448.5ZM438.769 443.281V444.14H435.457V443.281H438.769ZM436.406 449.281V442.519C436.406 442.16 436.486 441.861 436.648 441.625C436.812 441.385 437.026 441.205 437.289 441.085C437.554 440.966 437.838 440.906 438.14 440.906C438.372 440.906 438.565 440.924 438.718 440.96C438.874 440.997 438.99 441.031 439.066 441.062L438.792 441.937C438.743 441.919 438.677 441.899 438.593 441.878C438.51 441.855 438.404 441.843 438.277 441.843C437.983 441.843 437.77 441.917 437.64 442.066C437.512 442.212 437.449 442.425 437.449 442.707V449.281H436.406ZM445.869 449.39C445.343 449.39 444.874 449.3 444.463 449.121C444.052 448.938 443.726 448.686 443.486 448.363C443.247 448.04 443.118 447.665 443.1 447.238H444.201C444.222 447.485 444.307 447.699 444.455 447.878C444.606 448.058 444.803 448.197 445.045 448.296C445.29 448.393 445.561 448.441 445.858 448.441C446.186 448.441 446.477 448.384 446.733 448.269C446.988 448.154 447.187 447.994 447.33 447.789C447.476 447.583 447.549 447.346 447.549 447.078C447.549 446.796 447.477 446.549 447.334 446.335C447.193 446.119 446.988 445.95 446.717 445.828C446.446 445.705 446.117 445.644 445.729 445.644H445.068V444.722H445.729C446.036 444.722 446.305 444.667 446.537 444.558C446.772 444.446 446.955 444.291 447.088 444.093C447.221 443.893 447.287 443.657 447.287 443.386C447.287 443.128 447.229 442.903 447.111 442.71C446.997 442.518 446.834 442.368 446.623 442.261C446.415 442.152 446.169 442.097 445.885 442.097C445.617 442.097 445.365 442.147 445.131 442.246C444.897 442.342 444.705 442.481 444.557 442.664C444.411 442.846 444.331 443.065 444.318 443.32H443.268C443.283 442.893 443.411 442.519 443.65 442.199C443.89 441.876 444.205 441.625 444.596 441.445C444.989 441.263 445.424 441.171 445.9 441.171C446.406 441.171 446.839 441.272 447.201 441.472C447.566 441.67 447.846 441.933 448.041 442.261C448.239 442.589 448.338 442.946 448.338 443.332C448.338 443.782 448.217 444.165 447.975 444.48C447.733 444.792 447.406 445.007 446.994 445.125V445.187C447.512 445.268 447.915 445.48 448.201 445.824C448.49 446.165 448.635 446.589 448.635 447.097C448.635 447.535 448.515 447.927 448.275 448.273C448.036 448.619 447.708 448.893 447.291 449.093C446.874 449.291 446.4 449.39 445.869 449.39Z" fill="black" fill-opacity="0.5"/>
<path d="M753.719 433.781H795.719C798.205 433.781 800.219 435.795 800.219 438.281V452.281C800.219 454.766 798.205 456.781 795.719 456.781H753.719C751.234 456.781 749.219 454.766 749.219 452.281V438.281C749.219 435.795 751.234 433.781 753.719 433.781Z" stroke="black" stroke-opacity="0.1"/>
<path d="M763.668 449.929C763.036 450.257 762.249 450.421 761.307 450.421C760.088 450.421 759.112 450.037 758.377 449.267C757.643 448.498 757.276 447.488 757.276 446.238C757.276 444.894 757.688 443.808 758.512 442.98C759.34 442.152 760.385 441.738 761.647 441.738C762.459 441.738 763.133 441.853 763.668 442.083V443.466C763.102 443.13 762.477 442.962 761.793 442.962C760.883 442.962 760.145 443.253 759.579 443.835C759.016 444.417 758.735 445.195 758.735 446.167C758.735 447.093 758.999 447.832 759.526 448.382C760.053 448.929 760.747 449.203 761.606 449.203C762.399 449.203 763.086 449.015 763.668 448.64V449.929ZM769.715 450.281H768.397V449.343H768.374C767.959 450.062 767.352 450.421 766.551 450.421C765.961 450.421 765.499 450.261 765.163 449.941C764.831 449.621 764.665 449.197 764.665 448.669C764.665 447.537 765.317 446.876 766.622 446.689L768.403 446.437C768.403 445.582 767.997 445.154 767.184 445.154C766.469 445.154 765.825 445.4 765.25 445.892V444.703C765.883 444.328 766.614 444.14 767.442 444.14C768.958 444.14 769.715 444.886 769.715 446.378V450.281ZM768.403 447.333L767.143 447.509C766.752 447.56 766.458 447.656 766.258 447.796C766.063 447.933 765.965 448.175 765.965 448.523C765.965 448.777 766.055 448.986 766.235 449.15C766.418 449.31 766.663 449.39 766.967 449.39C767.381 449.39 767.723 449.246 767.993 448.957C768.266 448.664 768.403 448.296 768.403 447.855V447.333ZM776.723 450.281H775.364V446.9C775.364 445.779 774.967 445.218 774.174 445.218C773.76 445.218 773.418 445.375 773.149 445.687C772.879 445.996 772.745 446.386 772.745 446.859V450.281H771.379V444.281H772.745V445.277H772.768C773.217 444.519 773.866 444.14 774.713 444.14C775.366 444.14 775.864 444.353 776.208 444.779C776.551 445.201 776.723 445.812 776.723 446.613V450.281ZM782.682 450.005C782.202 450.283 781.633 450.421 780.977 450.421C780.086 450.421 779.368 450.144 778.821 449.589C778.274 449.031 778 448.308 778 447.421C778 446.433 778.293 445.64 778.879 445.042C779.469 444.441 780.256 444.14 781.241 444.14C781.788 444.14 782.27 444.236 782.688 444.427V445.693C782.27 445.38 781.825 445.224 781.352 445.224C780.778 445.224 780.307 445.419 779.94 445.81C779.573 446.197 779.389 446.705 779.389 447.333C779.389 447.955 779.561 448.445 779.905 448.804C780.252 449.164 780.717 449.343 781.299 449.343C781.788 449.343 782.249 449.169 782.682 448.822V450.005ZM789.116 447.65H785.026C785.042 448.205 785.211 448.632 785.536 448.933C785.864 449.234 786.313 449.384 786.883 449.384C787.524 449.384 788.112 449.193 788.647 448.81V449.906C788.1 450.25 787.377 450.421 786.479 450.421C785.596 450.421 784.903 450.15 784.399 449.607C783.899 449.06 783.649 448.292 783.649 447.304C783.649 446.371 783.924 445.611 784.475 445.025C785.03 444.435 785.717 444.14 786.538 444.14C787.358 444.14 787.993 444.404 788.442 444.931C788.891 445.458 789.116 446.191 789.116 447.128V447.65ZM787.803 446.689C787.799 446.201 787.684 445.822 787.458 445.552C787.231 445.279 786.918 445.142 786.52 445.142C786.129 445.142 785.797 445.285 785.524 445.57C785.254 445.855 785.088 446.228 785.026 446.689H787.803ZM791.776 450.281H790.411V441.398H791.776V450.281Z" fill="black" fill-opacity="0.9"/>
<path d="M808.719 438.281C808.719 435.519 810.958 433.281 813.719 433.281H869.719C872.481 433.281 874.719 435.519 874.719 438.281V452.281C874.719 455.042 872.481 457.281 869.719 457.281H813.719C810.958 457.281 808.719 455.042 808.719 452.281V438.281Z" fill="#DDAE3C"/>
<path d="M823.866 449.929C823.233 450.257 822.446 450.421 821.504 450.421C820.286 450.421 819.309 450.037 818.575 449.267C817.84 448.498 817.473 447.488 817.473 446.238C817.473 444.894 817.885 443.808 818.709 442.98C819.538 442.152 820.583 441.738 821.844 441.738C822.657 441.738 823.331 441.853 823.866 442.083V443.466C823.299 443.13 822.674 442.962 821.991 442.962C821.081 442.962 820.342 443.253 819.776 443.835C819.213 444.417 818.932 445.195 818.932 446.167C818.932 447.093 819.196 447.832 819.723 448.382C820.25 448.929 820.944 449.203 821.803 449.203C822.596 449.203 823.284 449.015 823.866 448.64V449.929ZM827.967 450.421C827.042 450.421 826.301 450.142 825.747 449.583C825.196 449.021 824.92 448.277 824.92 447.351C824.92 446.343 825.208 445.556 825.782 444.99C826.36 444.423 827.137 444.14 828.114 444.14C829.051 444.14 829.782 444.416 830.305 444.966C830.829 445.517 831.09 446.281 831.09 447.257C831.09 448.214 830.807 448.982 830.241 449.56C829.678 450.134 828.92 450.421 827.967 450.421ZM828.032 445.224C827.5 445.224 827.081 445.41 826.772 445.781C826.463 446.152 826.309 446.664 826.309 447.316C826.309 447.945 826.465 448.441 826.778 448.804C827.09 449.164 827.508 449.343 828.032 449.343C828.567 449.343 828.977 449.166 829.262 448.81C829.551 448.455 829.696 447.949 829.696 447.292C829.696 446.632 829.551 446.123 829.262 445.763C828.977 445.404 828.567 445.224 828.032 445.224ZM837.823 450.281H836.463V446.9C836.463 445.779 836.067 445.218 835.274 445.218C834.86 445.218 834.518 445.375 834.249 445.687C833.979 445.996 833.844 446.386 833.844 446.859V450.281H832.479V444.281H833.844V445.277H833.868C834.317 444.519 834.965 444.14 835.813 444.14C836.465 444.14 836.963 444.353 837.307 444.779C837.651 445.201 837.823 445.812 837.823 446.613V450.281ZM842.651 450.216C842.385 450.349 842.036 450.416 841.602 450.416C840.438 450.416 839.856 449.857 839.856 448.74V445.347H838.854V444.281H839.856V442.892L841.215 442.505V444.281H842.651V445.347H841.215V448.347C841.215 448.703 841.28 448.957 841.409 449.109C841.538 449.261 841.752 449.337 842.053 449.337C842.284 449.337 842.483 449.271 842.651 449.138V450.216ZM844.508 443.021C844.286 443.021 844.094 442.949 843.934 442.804C843.778 442.66 843.7 442.476 843.7 442.253C843.7 442.031 843.778 441.845 843.934 441.697C844.094 441.548 844.286 441.474 844.508 441.474C844.739 441.474 844.934 441.548 845.094 441.697C845.254 441.845 845.334 442.031 845.334 442.253C845.334 442.464 845.254 442.646 845.094 442.798C844.934 442.947 844.739 443.021 844.508 443.021ZM845.182 450.281H843.823V444.281H845.182V450.281ZM852.307 450.281H850.948V446.9C850.948 445.779 850.551 445.218 849.758 445.218C849.344 445.218 849.002 445.375 848.733 445.687C848.463 445.996 848.329 446.386 848.329 446.859V450.281H846.963V444.281H848.329V445.277H848.352C848.801 444.519 849.45 444.14 850.297 444.14C850.95 444.14 851.448 444.353 851.792 444.779C852.135 445.201 852.307 445.812 852.307 446.613V450.281ZM859.204 450.281H857.844V449.332H857.821C857.426 450.058 856.813 450.421 855.981 450.421C854.563 450.421 853.854 449.57 853.854 447.867V444.281H855.213V447.726C855.213 448.804 855.629 449.343 856.461 449.343C856.864 449.343 857.194 449.195 857.452 448.898C857.713 448.601 857.844 448.212 857.844 447.732V444.281H859.204V450.281ZM866.059 447.65H861.969C861.985 448.205 862.155 448.632 862.479 448.933C862.807 449.234 863.256 449.384 863.827 449.384C864.467 449.384 865.055 449.193 865.59 448.81V449.906C865.043 450.25 864.321 450.421 863.422 450.421C862.54 450.421 861.846 450.15 861.342 449.607C860.842 449.06 860.592 448.292 860.592 447.304C860.592 446.371 860.868 445.611 861.418 445.025C861.973 444.435 862.661 444.14 863.481 444.14C864.301 444.14 864.936 444.404 865.385 444.931C865.834 445.458 866.059 446.191 866.059 447.128V447.65ZM864.747 446.689C864.743 446.201 864.627 445.822 864.401 445.552C864.174 445.279 863.862 445.142 863.463 445.142C863.073 445.142 862.741 445.285 862.467 445.57C862.198 445.855 862.032 446.228 861.969 446.689H864.747Z" fill="white"/>
<line x1="402.719" y1="425.781" x2="882.719" y2="425.781" stroke="#E6E6E6"/>
</g>
</g>
</g>
<defs>
<filter id="filter0_ddd_371_5531" x="478.5" y="616.774" width="323" height="73" filterUnits="userSpaceOnUse" color-interpolation-filters="sRGB">
<feFlood flood-opacity="0" result="BackgroundImageFix"/>
<feColorMatrix in="SourceAlpha" type="matrix" values="0 0 0 0 0 0 0 0 0 0 0 0 0 0 0 0 0 0 127 0" result="hardAlpha"/>
<feOffset dy="1"/>
<feGaussianBlur stdDeviation="1.5"/>
<feColorMatrix type="matrix" values="0 0 0 0 0 0 0 0 0 0 0 0 0 0 0 0 0 0 0.1 0"/>
<feBlend mode="normal" in2="BackgroundImageFix" result="effect1_dropShadow_371_5531"/>
<feColorMatrix in="SourceAlpha" type="matrix" values="0 0 0 0 0 0 0 0 0 0 0 0 0 0 0 0 0 0 127 0" result="hardAlpha"/>
<feOffset dy="3"/>
<feGaussianBlur stdDeviation="4"/>
<feColorMatrix type="matrix" values="0 0 0 0 0 0 0 0 0 0 0 0 0 0 0 0 0 0 0.1 0"/>
<feBlend mode="normal" in2="effect1_dropShadow_371_5531" result="effect2_dropShadow_371_5531"/>
<feColorMatrix in="SourceAlpha" type="matrix" values="0 0 0 0 0 0 0 0 0 0 0 0 0 0 0 0 0 0 127 0" result="hardAlpha"/>
<feOffset/>
<feGaussianBlur stdDeviation="0.25"/>
<feColorMatrix type="matrix" values="0 0 0 0 0 0 0 0 0 0 0 0 0 0 0 0 0 0 0.18 0"/>
<feBlend mode="normal" in2="effect2_dropShadow_371_5531" result="effect3_dropShadow_371_5531"/>
<feBlend mode="normal" in="SourceGraphic" in2="effect3_dropShadow_371_5531" result="shape"/>
</filter>
<filter id="filter1_dd_371_5531" x="9" y="10" width="376" height="54" filterUnits="userSpaceOnUse" color-interpolation-filters="sRGB">
<feFlood flood-opacity="0" result="BackgroundImageFix"/>
<feColorMatrix in="SourceAlpha" type="matrix" values="0 0 0 0 0 0 0 0 0 0 0 0 0 0 0 0 0 0 127 0" result="hardAlpha"/>
<feOffset dy="1"/>
<feGaussianBlur stdDeviation="1.5"/>
<feColorMatrix type="matrix" values="0 0 0 0 0 0 0 0 0 0 0 0 0 0 0 0 0 0 0.15 0"/>
<feBlend mode="normal" in2="BackgroundImageFix" result="effect1_dropShadow_371_5531"/>
<feColorMatrix in="SourceAlpha" type="matrix" values="0 0 0 0 0 0 0 0 0 0 0 0 0 0 0 0 0 0 127 0" result="hardAlpha"/>
<feOffset/>
<feGaussianBlur stdDeviation="0.25"/>
<feColorMatrix type="matrix" values="0 0 0 0 0 0 0 0 0 0 0 0 0 0 0 0 0 0 0.3 0"/>
<feBlend mode="normal" in2="effect1_dropShadow_371_5531" result="effect2_dropShadow_371_5531"/>
<feBlend mode="normal" in="SourceGraphic" in2="effect2_dropShadow_371_5531" result="shape"/>
</filter>
<filter id="filter2_dd_371_5531" x="1142" y="10" width="129" height="54.0001" filterUnits="userSpaceOnUse" color-interpolation-filters="sRGB">
<feFlood flood-opacity="0" result="BackgroundImageFix"/>
<feColorMatrix in="SourceAlpha" type="matrix" values="0 0 0 0 0 0 0 0 0 0 0 0 0 0 0 0 0 0 127 0" result="hardAlpha"/>
<feOffset dy="1"/>
<feGaussianBlur stdDeviation="1.5"/>
<feColorMatrix type="matrix" values="0 0 0 0 0 0 0 0 0 0 0 0 0 0 0 0 0 0 0.15 0"/>
<feBlend mode="normal" in2="BackgroundImageFix" result="effect1_dropShadow_371_5531"/>
<feColorMatrix in="SourceAlpha" type="matrix" values="0 0 0 0 0 0 0 0 0 0 0 0 0 0 0 0 0 0 127 0" result="hardAlpha"/>
<feOffset/>
<feGaussianBlur stdDeviation="0.25"/>
<feColorMatrix type="matrix" values="0 0 0 0 0 0 0 0 0 0 0 0 0 0 0 0 0 0 0.3 0"/>
<feBlend mode="normal" in2="effect1_dropShadow_371_5531" result="effect2_dropShadow_371_5531"/>
<feBlend mode="normal" in="SourceGraphic" in2="effect2_dropShadow_371_5531" result="shape"/>
</filter>
<filter id="filter3_ddd_371_5531" x="378.719" y="199.281" width="528" height="300" filterUnits="userSpaceOnUse" color-interpolation-filters="sRGB">
<feFlood flood-opacity="0" result="BackgroundImageFix"/>
<feColorMatrix in="SourceAlpha" type="matrix" values="0 0 0 0 0 0 0 0 0 0 0 0 0 0 0 0 0 0 127 0" result="hardAlpha"/>
<feOffset dy="2"/>
<feGaussianBlur stdDeviation="2.5"/>
<feColorMatrix type="matrix" values="0 0 0 0 0 0 0 0 0 0 0 0 0 0 0 0 0 0 0.15 0"/>
<feBlend mode="normal" in2="BackgroundImageFix" result="effect1_dropShadow_371_5531"/>
<feColorMatrix in="SourceAlpha" type="matrix" values="0 0 0 0 0 0 0 0 0 0 0 0 0 0 0 0 0 0 127 0" result="hardAlpha"/>
<feOffset dy="10"/>
<feGaussianBlur stdDeviation="12"/>
<feColorMatrix type="matrix" values="0 0 0 0 0 0 0 0 0 0 0 0 0 0 0 0 0 0 0.18 0"/>
<feBlend mode="normal" in2="effect1_dropShadow_371_5531" result="effect2_dropShadow_371_5531"/>
<feColorMatrix in="SourceAlpha" type="matrix" values="0 0 0 0 0 0 0 0 0 0 0 0 0 0 0 0 0 0 127 0" result="hardAlpha"/>
<feOffset/>
<feGaussianBlur stdDeviation="0.25"/>
<feColorMatrix type="matrix" values="0 0 0 0 0 0 0 0 0 0 0 0 0 0 0 0 0 0 0.08 0"/>
<feBlend mode="normal" in2="effect2_dropShadow_371_5531" result="effect3_dropShadow_371_5531"/>
<feBlend mode="normal" in="SourceGraphic" in2="effect3_dropShadow_371_5531" result="shape"/>
</filter>
<clipPath id="clip0_371_5531">
<path d="M0 9.99998C0 4.47713 4.47715 0 10 0H1270C1275.52 0 1280 4.47715 1280 10V683C1280 688.523 1275.52 693 1270 693H10C4.47715 693 0 688.523 0 683V9.99998Z" fill="white"/>
</clipPath>
<clipPath id="clip1_371_5531">
<rect x="487" y="622.274" width="306" height="56" rx="14" fill="white"/>
</clipPath>
<clipPath id="clip2_371_5531">
<path d="M584 643.274C584 640.513 586.239 638.274 589 638.274H603C605.761 638.274 608 640.513 608 643.274V657.274C608 660.035 605.761 662.274 603 662.274H589C586.239 662.274 584 660.035 584 657.274V643.274Z" fill="white"/>
</clipPath>
<clipPath id="clip3_371_5531">
<path d="M713 643.274C713 640.513 715.239 638.274 718 638.274H732C734.761 638.274 737 640.513 737 643.274V657.274C737 660.035 734.761 662.274 732 662.274H718C715.239 662.274 713 660.035 713 657.274V643.274Z" fill="white"/>
</clipPath>
<clipPath id="clip4_371_5531">
<rect width="24" height="24" fill="white" transform="translate(24 24)"/>
</clipPath>
<clipPath id="clip5_371_5531">
<path d="M208 29C208 26.2386 210.239 24 213 24H227C229.761 24 232 26.2386 232 29V43C232 45.7614 229.761 48 227 48H213C210.239 48 208 45.7614 208 43V29Z" fill="white"/>
</clipPath>
<clipPath id="clip6_371_5531">
<path d="M1157 36C1157 29.3726 1162.37 24 1169 24V24C1175.63 24 1181 29.3726 1181 36V36C1181 42.6274 1175.63 48 1169 48V48C1162.37 48 1157 42.6274 1157 36V36Z" fill="white"/>
</clipPath>
<clipPath id="clip7_371_5531">
<path d="M402.719 226.281C402.719 219.101 408.54 213.281 415.719 213.281H869.719C876.899 213.281 882.719 219.101 882.719 226.281V452.281C882.719 459.46 876.899 465.281 869.719 465.281H415.719C408.54 465.281 402.719 459.46 402.719 452.281V226.281Z" fill="white"/>
</clipPath>
<clipPath id="clip8_371_5531">
<rect width="480" height="40" fill="white" transform="translate(402.719 213.281)"/>
</clipPath>
<clipPath id="clip9_371_5531">
<path d="M850.719 226.281C850.719 223.519 852.958 221.281 855.719 221.281H869.719C872.481 221.281 874.719 223.519 874.719 226.281V240.281C874.719 243.042 872.481 245.281 869.719 245.281H855.719C852.958 245.281 850.719 243.042 850.719 240.281V226.281Z" fill="white"/>
</clipPath>
</defs>
</svg>
